# Blender 4.4.0
# www.blender.org
mtllib float_Head.mtl
o 球
v 0.367852 1.515099 -0.029059
v 0.545085 1.291816 -0.043253
v 0.580100 0.995011 -0.047633
v 0.587905 0.843839 -0.046679
v 0.577767 0.694534 -0.044855
v 0.539667 0.404031 -0.042633
v 0.128845 1.635027 0.017264
v 0.252739 1.589321 0.033864
v 0.366919 1.515099 0.049164
v 0.466999 1.415213 0.062573
v 0.544699 1.292142 0.072980
v 0.563959 1.144902 0.076233
v 0.582353 0.995434 0.080760
v 0.590141 0.844658 0.084338
v 0.580645 0.694478 0.083604
v 0.570289 0.545841 0.080397
v 0.549133 0.401053 0.073578
v 0.466999 0.279341 0.062573
v 0.366919 0.179455 0.049164
v 0.252739 0.105233 0.033864
v 0.128845 0.059527 0.017264
v 0.123566 1.635027 0.044069
v 0.242384 1.589321 0.086444
v 0.351886 1.515099 0.125497
v 0.447866 1.415213 0.159728
v 0.523895 1.292616 0.186934
v 0.546376 1.146245 0.197475
v 0.580929 0.997733 0.210323
v 0.585667 0.845649 0.216166
v 0.579111 0.693054 0.213664
v 0.577682 0.541514 0.206874
v 0.526634 0.401053 0.187820
v 0.447866 0.279341 0.159728
v 0.351886 0.179455 0.125497
v 0.242383 0.105233 0.086444
v 0.123566 0.059527 0.044069
v 0.113539 1.635027 0.069180
v 0.222714 1.589321 0.135701
v 0.323330 1.515099 0.197008
v 0.411521 1.415213 0.250744
v 0.483897 1.293501 0.294843
v 0.512353 1.148766 0.316059
v 0.547308 1.000120 0.337103
v 0.581978 0.847277 0.354605
v 0.570307 0.690633 0.347594
v 0.537678 0.539912 0.327612
v 0.483897 0.401053 0.294843
v 0.411521 0.279341 0.250744
v 0.323330 0.179455 0.197008
v 0.222713 0.105233 0.135701
v 0.113539 0.059527 0.069180
v 0.099147 1.635027 0.091633
v 0.194485 1.589321 0.179744
v 0.282348 1.515099 0.260948
v 0.359362 1.415213 0.332124
v 0.422564 1.293501 0.390536
v 0.469528 1.154642 0.433940
v 0.498448 1.003970 0.460669
v 0.508213 0.847277 0.469694
v 0.498448 0.690584 0.460669
v 0.469528 0.539912 0.433940
v 0.422564 0.401053 0.390536
v 0.355782 0.282592 0.328030
v 0.278061 0.184765 0.256018
v 0.194485 0.105233 0.179744
v 0.099147 0.059527 0.091633
v 0.080947 1.635027 0.110564
v 0.158782 1.589321 0.216879
v 0.230516 1.515099 0.314859
v 0.293391 1.415213 0.400740
v 0.344992 1.293501 0.471221
v 0.383335 1.154642 0.523593
v 0.406946 1.003970 0.555843
v 0.414918 0.847277 0.566733
v 0.406946 0.690584 0.555843
v 0.383335 0.539912 0.523593
v 0.344823 0.401191 0.470952
v 0.280806 0.295060 0.378810
v 0.219401 0.195935 0.295812
v 0.158782 0.105233 0.216879
v 0.080947 0.059527 0.110564
v 0.000000 1.650460 -0.000000
v 0.059635 1.635027 0.125247
v 0.116978 1.589321 0.245680
v 0.169825 1.515099 0.356672
v 0.216147 1.415213 0.453957
v 0.254162 1.293501 0.533797
v 0.282410 1.154642 0.593123
v 0.299804 1.003970 0.629656
v 0.305678 0.847277 0.641992
v 0.299804 0.690584 0.629656
v 0.282410 0.539912 0.593123
v 0.248772 0.407972 0.519238
v 0.202454 0.301668 0.419039
v 0.158736 0.200494 0.329370
v 0.116977 0.105235 0.245678
v 0.059635 0.059527 0.125247
v 0.036032 1.635027 0.135116
v 0.070678 1.589321 0.265039
v 0.102609 1.515099 0.384776
v 0.130596 1.415213 0.489728
v 0.153565 1.293501 0.575859
v 0.170632 1.154642 0.639861
v 0.181142 1.003970 0.679272
v 0.184691 0.847277 0.692580
v 0.181142 0.690584 0.679272
v 0.170632 0.539912 0.639861
v 0.148539 0.412537 0.550172
v 0.121148 0.303709 0.447992
v 0.095401 0.200304 0.355465
v 0.070678 0.105233 0.265039
v 0.036032 0.059527 0.135116
v 0.011043 1.635027 0.139792
v 0.021662 1.589321 0.274213
v 0.031449 1.515099 0.398096
v 0.040026 1.415213 0.506679
v 0.047066 1.293501 0.595792
v 0.052297 1.154642 0.662009
v 0.055518 1.003970 0.702785
v 0.056606 0.847277 0.716553
v 0.055518 0.690584 0.702785
v 0.052297 0.539912 0.662009
v 0.045440 0.415732 0.562022
v 0.037643 0.301282 0.466028
v 0.029798 0.194011 0.376509
v 0.021662 0.105233 0.274213
v 0.011043 0.059527 0.139792
v -0.014369 1.635027 0.139098
v -0.028186 1.589321 0.272849
v -0.040920 1.515099 0.396115
v -0.052081 1.415213 0.504159
v -0.061242 1.293501 0.592828
v -0.068048 1.154642 0.658716
v -0.072239 1.003970 0.699289
v -0.073654 0.847277 0.712989
v -0.072239 0.690584 0.699289
v -0.068048 0.539912 0.658716
v -0.057810 0.416509 0.557319
v -0.048896 0.297999 0.468177
v -0.040314 0.185394 0.387239
v -0.028186 0.105233 0.272849
v -0.014369 0.059527 0.139098
v -0.039229 1.635027 0.133057
v -0.076952 1.589321 0.261000
v -0.111716 1.515099 0.378913
v -0.142188 1.415213 0.482264
v -0.167195 1.293501 0.567083
v -0.185778 1.154642 0.630108
v -0.197221 1.003970 0.668920
v -0.201084 0.847277 0.682025
v -0.197221 0.690584 0.668920
v -0.185720 0.539979 0.629900
v -0.159536 0.414928 0.535892
v -0.135313 0.294497 0.453555
v -0.111716 0.179455 0.378913
v -0.076952 0.105233 0.261000
v -0.039229 0.059527 0.133057
v -0.062582 1.635027 0.121902
v -0.122759 1.589321 0.239120
v -0.178219 1.515099 0.347148
v -0.226830 1.415213 0.441837
v -0.266724 1.293501 0.519545
v -0.296368 1.154642 0.577287
v -0.314622 1.003970 0.612844
v -0.320786 0.847277 0.624851
v -0.314622 0.690584 0.612844
v -0.296368 0.539912 0.577287
v -0.258563 0.410442 0.499141
v -0.220079 0.289066 0.424773
v -0.178219 0.179455 0.347148
v -0.122759 0.105233 0.239120
v -0.062582 0.059527 0.121902
v -0.083530 1.635027 0.106064
v -0.163850 1.589321 0.208052
v -0.237873 1.515099 0.302044
v -0.302755 1.415213 0.384429
v -0.356002 1.293501 0.452041
v -0.395569 1.154642 0.502281
v -0.419933 1.003970 0.533219
v -0.428160 0.847277 0.543664
v -0.419933 0.690584 0.533219
v -0.395569 0.539912 0.502281
v -0.355894 0.401128 0.451885
v -0.302584 0.279517 0.384176
v -0.237873 0.179455 0.302044
v -0.163850 0.105233 0.208052
v -0.083530 0.059527 0.106064
v -0.101268 1.635027 0.086149
v -0.198644 1.589321 0.168987
v -0.288386 1.515099 0.245332
v -0.367046 1.415213 0.312248
v -0.431600 1.293501 0.367165
v -0.479568 1.154642 0.407972
v -0.509107 1.003970 0.433100
v -0.519080 0.847277 0.441585
v -0.509107 0.690584 0.433100
v -0.479568 0.539912 0.407972
v -0.431600 0.401053 0.367165
v -0.367046 0.279341 0.312248
v -0.288386 0.179455 0.245332
v -0.198644 0.105233 0.168987
v -0.101268 0.059527 0.086149
v -0.115114 1.635027 0.062924
v -0.225804 1.589321 0.123430
v -0.327816 1.515099 0.179192
v -0.417231 1.415213 0.228068
v -0.490611 1.293501 0.268179
v -0.545138 1.154642 0.297985
v -0.578716 1.003970 0.316339
v -0.590053 0.847277 0.322537
v -0.578716 0.690584 0.316339
v -0.545138 0.539912 0.297985
v -0.490611 0.401053 0.268179
v -0.417231 0.279341 0.228068
v -0.327816 0.179455 0.179192
v -0.225804 0.105233 0.123430
v -0.115114 0.059527 0.062924
v -0.124536 1.635027 0.037280
v -0.244286 1.589321 0.073128
v -0.354649 1.515099 0.106165
v -0.451382 1.415213 0.135123
v -0.530769 1.293501 0.158888
v -0.589759 1.154642 0.176547
v -0.626085 1.003970 0.187420
v -0.638351 0.847277 0.191093
v -0.626085 0.690584 0.187420
v -0.589759 0.539912 0.176547
v -0.530769 0.401053 0.158888
v -0.451382 0.279341 0.135123
v -0.354649 0.179455 0.106165
v -0.244286 0.105233 0.073128
v -0.124536 0.059527 0.037280
v -0.129172 1.635027 0.010204
v -0.253380 1.589321 0.020016
v -0.367852 1.515099 0.029059
v -0.468186 1.415213 0.036985
v -0.550529 1.293501 0.043490
v -0.611715 1.154642 0.048324
v -0.649394 1.003970 0.051300
v -0.662116 0.847277 0.052305
v -0.649394 0.690584 0.051300
v -0.611715 0.539912 0.048324
v -0.550529 0.401053 0.043490
v -0.468186 0.279341 0.036985
v -0.367852 0.179455 0.029059
v -0.253381 0.105233 0.020016
v -0.129173 0.059527 0.010204
v -0.128845 1.635027 -0.017264
v -0.252738 1.589321 -0.033865
v -0.366919 1.515099 -0.049164
v -0.466999 1.415213 -0.062573
v -0.549133 1.293501 -0.073578
v -0.610164 1.154642 -0.081756
v -0.647747 1.003970 -0.086792
v -0.660437 0.847277 -0.088492
v -0.647747 0.690584 -0.086792
v -0.610164 0.539912 -0.081756
v -0.549133 0.401053 -0.073578
v -0.466999 0.279341 -0.062573
v -0.366919 0.179455 -0.049164
v -0.252738 0.105233 -0.033865
v -0.128845 0.059527 -0.017264
v -0.123566 1.635027 -0.044069
v -0.242383 1.589321 -0.086444
v -0.351886 1.515099 -0.125497
v -0.447866 1.415213 -0.159728
v -0.526634 1.293501 -0.187820
v -0.585164 1.154642 -0.208694
v -0.621208 1.003970 -0.221549
v -0.633377 0.847277 -0.225889
v -0.621208 0.690584 -0.221549
v -0.585164 0.539912 -0.208694
v -0.526634 0.401053 -0.187820
v -0.447866 0.279341 -0.159728
v -0.351886 0.179455 -0.125497
v -0.242383 0.105233 -0.086444
v -0.123566 0.059527 -0.044069
v -0.113539 1.635027 -0.069179
v -0.222713 1.589321 -0.135701
v -0.323329 1.515099 -0.197008
v -0.411521 1.415213 -0.250744
v -0.483896 1.293501 -0.294843
v -0.537677 1.154642 -0.327612
v -0.570795 1.003970 -0.347791
v -0.581977 0.847277 -0.354605
v -0.570795 0.690584 -0.347791
v -0.537677 0.539912 -0.327612
v -0.483896 0.401053 -0.294843
v -0.411521 0.279341 -0.250744
v -0.323329 0.179455 -0.197008
v -0.222713 0.105233 -0.135701
v -0.113539 0.059527 -0.069179
v -0.099147 1.635027 -0.091633
v -0.194484 1.589321 -0.179744
v -0.282348 1.515099 -0.260948
v -0.359360 1.415213 -0.332124
v -0.422564 1.293501 -0.390536
v -0.469528 1.154642 -0.433940
v -0.498448 1.003970 -0.460669
v -0.508213 0.847277 -0.469694
v -0.498448 0.690584 -0.460669
v -0.469528 0.539912 -0.433940
v -0.422564 0.401053 -0.390536
v -0.359360 0.279341 -0.332124
v -0.282348 0.179455 -0.260948
v -0.194484 0.105233 -0.179744
v -0.099147 0.059527 -0.091633
v 0.000000 0.044094 -0.000000
v -0.080946 1.635027 -0.110564
v -0.158782 1.589321 -0.216879
v -0.230516 1.515099 -0.314859
v -0.293391 1.415213 -0.400740
v -0.344991 1.293501 -0.471221
v -0.383334 1.154642 -0.523593
v -0.406945 1.003970 -0.555843
v -0.414918 0.847277 -0.566733
v -0.406945 0.690584 -0.555843
v -0.383334 0.539912 -0.523593
v -0.344991 0.401053 -0.471221
v -0.293391 0.279341 -0.400740
v -0.230516 0.179455 -0.314859
v -0.158782 0.105233 -0.216879
v -0.080947 0.059527 -0.110564
v -0.059635 1.635027 -0.125247
v -0.116978 1.589321 -0.245680
v -0.169825 1.515099 -0.356672
v -0.216146 1.415213 -0.453957
v -0.254162 1.293501 -0.533797
v -0.282410 1.154642 -0.593123
v -0.299804 1.003970 -0.629656
v -0.305677 0.847277 -0.641991
v -0.299804 0.690584 -0.629656
v -0.279216 0.541834 -0.585797
v -0.250272 0.404630 -0.524584
v -0.216146 0.279341 -0.453957
v -0.169825 0.179455 -0.356672
v -0.116978 0.105233 -0.245680
v -0.059635 0.059527 -0.125247
v -0.036031 1.635027 -0.135115
v -0.070678 1.589321 -0.265039
v -0.102608 1.515099 -0.384776
v -0.130596 1.415213 -0.489728
v -0.153564 1.293501 -0.575859
v -0.170632 1.154642 -0.639861
v -0.181142 1.003970 -0.679272
v -0.184690 0.847277 -0.692579
v -0.181142 0.690584 -0.679272
v -0.164657 0.546259 -0.616477
v -0.146662 0.413972 -0.541211
v -0.125989 0.291875 -0.463352
v -0.102609 0.179455 -0.384776
v -0.070678 0.105233 -0.265039
v -0.036031 0.059527 -0.135115
v -0.011043 1.635027 -0.139793
v -0.021662 1.589321 -0.274213
v -0.031448 1.515099 -0.398095
v -0.040026 1.415213 -0.506679
v -0.047066 1.293501 -0.595792
v -0.052297 1.154642 -0.662009
v -0.055518 1.003970 -0.702785
v -0.056606 0.847277 -0.716552
v -0.055518 0.690584 -0.702785
v -0.049257 0.549975 -0.626820
v -0.043762 0.420014 -0.545657
v -0.037794 0.297362 -0.468052
v -0.031272 0.181155 -0.395408
v -0.021662 0.105233 -0.274213
v -0.011043 0.059527 -0.139792
v 0.014370 1.635027 -0.139097
v 0.028186 1.589321 -0.272849
v 0.040920 1.515099 -0.396115
v 0.052081 1.415213 -0.504159
v 0.061242 1.293501 -0.592828
v 0.068048 1.154642 -0.658716
v 0.072239 1.003970 -0.699289
v 0.073655 0.847277 -0.712988
v 0.072239 0.690584 -0.699289
v 0.066936 0.549327 -0.626945
v 0.058817 0.419555 -0.544953
v 0.049913 0.297063 -0.466651
v 0.040778 0.180674 -0.394217
v 0.028186 0.105233 -0.272849
v 0.014370 0.059527 -0.139097
v 0.039229 1.635027 -0.133057
v 0.076952 1.589321 -0.261000
v 0.111716 1.515099 -0.378913
v 0.142188 1.415213 -0.482264
v 0.167196 1.293501 -0.567082
v 0.185778 1.154642 -0.630108
v 0.197221 1.003970 -0.668920
v 0.201084 0.847277 -0.682024
v 0.197221 0.690584 -0.668920
v 0.185711 0.539998 -0.629801
v 0.162289 0.412704 -0.538771
v 0.137817 0.291435 -0.458030
v 0.111716 0.179455 -0.378913
v 0.076952 0.105233 -0.261000
v 0.039229 0.059527 -0.133057
v 0.062582 1.635027 -0.121902
v 0.122759 1.589321 -0.239120
v 0.178219 1.515099 -0.347148
v 0.226830 1.415213 -0.441837
v 0.266724 1.293501 -0.519545
v 0.296368 1.154642 -0.577287
v 0.314623 1.003970 -0.612844
v 0.320786 0.847277 -0.624850
v 0.314622 0.690584 -0.612844
v 0.296368 0.539912 -0.577287
v 0.266724 0.401053 -0.519545
v 0.226830 0.279341 -0.441837
v 0.178219 0.179455 -0.347148
v 0.122759 0.105233 -0.239120
v 0.062582 0.059527 -0.121902
v 0.083530 1.635027 -0.106064
v 0.163850 1.589321 -0.208052
v 0.237873 1.515099 -0.302044
v 0.302755 1.415213 -0.384428
v 0.356003 1.293501 -0.452041
v 0.395569 1.154642 -0.502281
v 0.419933 1.003970 -0.533218
v 0.428160 0.847277 -0.543664
v 0.419933 0.690584 -0.533218
v 0.395569 0.539912 -0.502281
v 0.356003 0.401053 -0.452041
v 0.302755 0.279341 -0.384428
v 0.237873 0.179455 -0.302044
v 0.163849 0.105233 -0.208052
v 0.083530 0.059527 -0.106064
v 0.101267 1.635027 -0.086149
v 0.198644 1.589321 -0.168987
v 0.288385 1.515099 -0.245332
v 0.367046 1.415213 -0.312248
v 0.431600 1.293501 -0.367165
v 0.479568 1.154642 -0.407972
v 0.509107 1.003970 -0.433100
v 0.514810 0.847209 -0.438910
v 0.492307 0.692339 -0.421779
v 0.479568 0.539912 -0.407972
v 0.431600 0.401053 -0.367165
v 0.367046 0.279341 -0.312248
v 0.288385 0.179455 -0.245332
v 0.198644 0.105233 -0.168987
v 0.101267 0.059527 -0.086149
v 0.115113 1.635027 -0.062924
v 0.225804 1.589321 -0.123430
v 0.327816 1.515099 -0.179192
v 0.417231 1.415213 -0.228068
v 0.486498 1.291926 -0.266300
v 0.523772 1.149039 -0.289644
v 0.550881 0.999339 -0.305443
v 0.550096 0.845714 -0.307070
v 0.542595 0.692594 -0.300653
v 0.540446 0.540743 -0.295858
v 0.490610 0.401053 -0.268178
v 0.417231 0.279341 -0.228068
v 0.327815 0.179455 -0.179192
v 0.225804 0.105233 -0.123430
v 0.115113 0.059527 -0.062924
v 0.124536 1.635027 -0.037280
v 0.244286 1.589321 -0.073128
v 0.354649 1.515099 -0.106165
v 0.451382 1.415213 -0.135123
v 0.520073 1.289941 -0.156360
v 0.550738 1.145531 -0.168379
v 0.570952 0.996146 -0.176058
v 0.576249 0.844374 -0.177275
v 0.571584 0.693036 -0.174256
v 0.547575 0.546652 -0.167358
v 0.514003 0.405925 -0.154865
v 0.451382 0.279341 -0.135123
v 0.354649 0.179455 -0.106165
v 0.244286 0.105233 -0.073128
v 0.124536 0.059527 -0.037280
v 0.129173 1.635027 -0.010204
v 0.253381 1.589321 -0.020016
v 0.468186 1.415213 -0.036985
v 0.565535 1.144714 -0.046246
v 0.559813 0.547603 -0.043738
v 0.468186 0.279341 -0.036985
v 0.367852 0.179455 -0.029059
v 0.253381 0.105233 -0.020016
v 0.129173 0.059527 -0.010204
vn 0.5444 0.8388 0.0065
vn 0.9866 -0.1396 -0.0846
vn 0.7058 0.7083 0.0084
vn 0.8483 -0.5280 -0.0398
vn 0.8471 0.5314 0.0054
vn 0.7058 -0.7083 0.0084
vn 0.9910 0.1337 0.0079
vn 0.5444 -0.8388 0.0065
vn 0.9940 0.1095 -0.0030
vn 0.3456 -0.9384 0.0041
vn 0.9985 0.0513 -0.0175
vn 0.1187 0.9929 0.0014
vn 0.1187 -0.9929 0.0014
vn 0.9977 -0.0655 -0.0195
vn 0.3456 0.9384 0.0041
vn 0.9941 -0.0948 -0.0532
vn 0.9983 -0.0532 0.0228
vn 0.3375 0.9390 0.0665
vn 0.9990 -0.0384 -0.0237
vn 0.5321 0.8402 0.1048
vn 0.9667 -0.2498 0.0562
vn 0.6907 0.7103 0.1360
vn 0.8115 -0.5621 0.1598
vn 0.8266 0.5410 0.1552
vn 0.6907 -0.7103 0.1360
vn 0.9765 0.1463 0.1583
vn 0.5321 -0.8402 0.1048
vn 0.9813 0.1785 0.0718
vn 0.3375 -0.9390 0.0665
vn 0.9989 0.0420 0.0220
vn 0.1159 0.9930 0.0228
vn 0.1159 -0.9930 0.0228
vn 0.6503 -0.7139 0.2597
vn 0.9329 0.1962 0.3019
vn 0.5000 -0.8427 0.1997
vn 0.9353 0.2476 0.2529
vn 0.3166 -0.9401 0.1264
vn 0.9812 0.1372 0.1359
vn 0.1086 0.9931 0.0434
vn 0.1086 -0.9931 0.0434
vn 0.9971 -0.0602 0.0456
vn 0.3166 0.9401 0.1264
vn 0.9746 -0.1262 0.1848
vn 0.5000 0.8427 0.1997
vn 0.8687 -0.3841 0.3129
vn 0.6503 0.7139 0.2597
vn 0.7656 -0.5660 0.3057
vn 0.7759 0.5575 0.2953
vn 0.8168 -0.2476 0.5212
vn 0.4488 0.8460 0.2877
vn 0.7668 -0.4130 0.4915
vn 0.5854 0.7187 0.3752
vn 0.6640 -0.5891 0.4605
vn 0.6910 0.5713 0.4429
vn 0.5310 -0.7248 0.4390
vn 0.8549 0.3203 0.4081
vn 0.4317 -0.8310 0.3507
vn 0.9090 0.2475 0.3352
vn 0.2835 -0.9416 0.1817
vn 0.8784 0.1646 0.4487
vn 0.0971 0.9933 0.0622
vn 0.0971 -0.9933 0.0622
vn 0.8399 -0.0849 0.5360
vn 0.2835 0.9416 0.1817
vn 0.3420 -0.7747 0.5319
vn 0.6975 0.2528 0.6705
vn 0.2394 -0.9432 0.2302
vn 0.7183 0.0845 0.6906
vn 0.0819 0.9935 0.0787
vn 0.0819 -0.9935 0.0787
vn 0.7183 -0.0845 0.6906
vn 0.2394 0.9432 0.2302
vn 0.6975 -0.2528 0.6705
vn 0.3801 0.8497 0.3654
vn 0.6535 -0.4193 0.6302
vn 0.4972 0.7240 0.4781
vn 0.4516 -0.6693 0.5900
vn 0.5886 0.5773 0.5659
vn 0.3031 -0.7123 0.6330
vn 0.6548 0.4182 0.6295
vn 0.2960 0.8531 0.4296
vn 0.4399 -0.4739 0.7628
vn 0.3883 0.7291 0.5636
vn 0.2696 -0.7195 0.6400
vn 0.4610 0.5829 0.6691
vn 0.2862 -0.7074 0.6463
vn 0.5140 0.4233 0.7461
vn 0.3382 -0.7181 0.6083
vn 0.5484 0.2563 0.7960
vn 0.1860 -0.9447 0.2700
vn 0.5652 0.0858 0.8205
vn 0.0635 0.9937 0.0922
vn 0.0635 -0.9937 0.0922
vn 0.5652 -0.0858 0.8205
vn 0.1860 0.9447 0.2700
vn 0.5484 -0.2563 0.7960
vn 0.3726 0.2591 0.8911
vn 0.1252 -0.9459 0.2994
vn 0.3843 0.0868 0.9191
vn 0.0427 0.9939 0.1021
vn 0.0427 -0.9939 0.1021
vn 0.3843 -0.0868 0.9191
vn 0.1252 0.9459 0.2994
vn 0.3726 -0.2591 0.8911
vn 0.1996 0.8558 0.4773
vn 0.2757 -0.5545 0.7852
vn 0.2624 0.7330 0.6276
vn 0.1983 -0.7068 0.6791
vn 0.3122 0.5873 0.7467
vn 0.2498 -0.6899 0.6794
vn 0.3488 0.4273 0.8341
vn 0.2748 -0.6995 0.6597
vn 0.1121 -0.6064 0.7872
vn 0.1247 0.7351 0.6664
vn 0.1148 -0.6695 0.7339
vn 0.1486 0.5898 0.7938
vn 0.2268 -0.6572 0.7187
vn 0.1661 0.4295 0.8876
vn 0.2125 -0.7249 0.6553
vn 0.1776 0.2606 0.9490
vn 0.0594 -0.9465 0.3171
vn 0.1833 0.0873 0.9792
vn 0.0202 0.9939 0.1081
vn 0.0202 -0.9939 0.1081
vn 0.1833 -0.0873 0.9792
vn 0.0594 0.9465 0.3171
vn 0.1776 -0.2606 0.9490
vn 0.0947 0.8572 0.5061
vn -0.0088 -0.9465 0.3225
vn -0.0272 0.0873 0.9958
vn -0.0030 0.9939 0.1100
vn -0.0030 -0.9939 0.1100
vn -0.0272 -0.0873 0.9958
vn -0.0088 0.9465 0.3225
vn -0.0264 -0.2606 0.9651
vn -0.0141 0.8572 0.5147
vn -0.0299 -0.6310 0.7752
vn -0.0185 0.7351 0.6777
vn -0.0023 -0.6222 0.7829
vn -0.0221 0.5898 0.8073
vn 0.1108 -0.6087 0.7856
vn -0.0247 0.4295 0.9027
vn 0.1041 -0.7834 0.6127
vn -0.0264 0.2606 0.9651
vn -0.1606 0.7330 0.6610
vn -0.1365 -0.5900 0.7958
vn -0.1911 0.5873 0.7865
vn -0.0847 -0.5703 0.8170
vn -0.2135 0.4273 0.8785
vn -0.0503 -0.8364 0.5457
vn -0.2281 0.2591 0.9385
vn -0.0766 -0.9459 0.3153
vn -0.2352 0.0868 0.9681
vn -0.0261 0.9939 0.1076
vn -0.0261 -0.9939 0.1076
vn -0.2352 -0.0868 0.9681
vn -0.0766 0.9459 0.3153
vn -0.2289 -0.2598 0.9382
vn -0.1221 0.8558 0.5027
vn -0.1702 -0.6245 0.7623
vn -0.4294 0.0858 0.8990
vn -0.0483 0.9937 0.1010
vn -0.0483 -0.9937 0.1010
vn -0.4294 -0.0858 0.8990
vn -0.1413 0.9447 0.2958
vn -0.4157 -0.2570 0.8724
vn -0.2248 0.8531 0.4707
vn -0.3072 -0.5850 0.7506
vn -0.2950 0.7291 0.6176
vn -0.2481 -0.5713 0.7823
vn -0.3502 0.5829 0.7332
vn -0.2807 -0.5932 0.7545
vn -0.3905 0.4233 0.8175
vn -0.2248 -0.8531 0.4707
vn -0.4166 0.2563 0.8722
vn -0.1413 -0.9447 0.2958
vn -0.3136 -0.5648 0.7633
vn -0.4925 0.5773 0.6513
vn -0.3479 -0.6736 0.6521
vn -0.5478 0.4182 0.7245
vn -0.3180 -0.8497 0.4206
vn -0.5835 0.2528 0.7717
vn -0.2003 -0.9432 0.2649
vn -0.6010 0.0845 0.7948
vn -0.0685 0.9935 0.0906
vn -0.0685 -0.9935 0.0906
vn -0.6010 -0.0845 0.7948
vn -0.2003 0.9432 0.2649
vn -0.5835 -0.2528 0.7717
vn -0.3180 0.8497 0.4206
vn -0.4442 -0.4883 0.7512
vn -0.4160 0.7240 0.5502
vn -0.0861 -0.9933 0.0767
vn -0.7442 -0.0833 0.6628
vn -0.2514 0.9416 0.2240
vn -0.7232 -0.2492 0.6441
vn -0.3981 0.8460 0.3546
vn -0.6793 -0.4136 0.6062
vn -0.5192 0.7187 0.4625
vn -0.6109 -0.5719 0.5475
vn -0.6129 0.5713 0.5459
vn -0.5185 -0.7180 0.4644
vn -0.6801 0.4130 0.6058
vn -0.3981 -0.8460 0.3546
vn -0.7232 0.2492 0.6441
vn -0.2514 -0.9416 0.2240
vn -0.7442 0.0833 0.6628
vn -0.0861 0.9933 0.0767
vn -0.6015 -0.7139 0.3586
vn -0.7841 0.4082 0.4675
vn -0.4624 -0.8427 0.2757
vn -0.8325 0.2460 0.4963
vn -0.2928 -0.9401 0.1745
vn -0.8560 0.0821 0.5103
vn -0.1004 0.9931 0.0599
vn -0.1004 -0.9931 0.0599
vn -0.8560 -0.0821 0.5103
vn -0.2928 0.9401 0.1745
vn -0.8325 -0.2460 0.4963
vn -0.4624 0.8427 0.2757
vn -0.7841 -0.4082 0.4675
vn -0.6015 0.7139 0.3586
vn -0.7081 -0.5660 0.4221
vn -0.7081 0.5660 0.4221
vn -0.3229 0.9390 0.1186
vn -0.9104 -0.2436 0.3345
vn -0.5090 0.8402 0.1870
vn -0.8583 -0.4047 0.3154
vn -0.6607 0.7103 0.2428
vn -0.7763 -0.5621 0.2853
vn -0.7763 0.5621 0.2853
vn -0.6607 -0.7103 0.2428
vn -0.8583 0.4047 0.3154
vn -0.5090 -0.8402 0.1870
vn -0.9104 0.2436 0.3345
vn -0.3229 -0.9390 0.1186
vn -0.9355 0.0813 0.3437
vn -0.1109 0.9930 0.0407
vn -0.1109 -0.9930 0.0407
vn -0.9355 -0.0813 0.3437
vn -0.9021 0.4029 0.1545
vn -0.5366 -0.8388 0.0919
vn -0.9563 0.2424 0.1637
vn -0.3407 -0.9384 0.0583
vn -0.9824 0.0808 0.1682
vn -0.1170 0.9929 0.0200
vn -0.1170 -0.9929 0.0200
vn -0.9824 -0.0808 0.1682
vn -0.3407 0.9384 0.0583
vn -0.9563 -0.2424 0.1637
vn -0.5366 0.8388 0.0919
vn -0.9021 -0.4029 0.1545
vn -0.6958 0.7083 0.1191
vn -0.8166 -0.5600 0.1398
vn -0.8166 0.5600 0.1398
vn -0.6958 -0.7083 0.1191
vn -0.9701 -0.2424 -0.0116
vn -0.5444 0.8388 -0.0065
vn -0.9152 -0.4029 -0.0109
vn -0.7058 0.7083 -0.0084
vn -0.8285 -0.5600 -0.0099
vn -0.8285 0.5600 -0.0099
vn -0.7058 -0.7083 -0.0084
vn -0.9152 0.4029 -0.0109
vn -0.5444 -0.8388 -0.0065
vn -0.9701 0.2424 -0.0116
vn -0.3456 -0.9384 -0.0041
vn -0.9967 0.0808 -0.0119
vn -0.1187 0.9929 -0.0014
vn -0.1187 -0.9929 -0.0014
vn -0.9967 -0.0808 -0.0119
vn -0.3456 0.9384 -0.0041
vn -0.5321 -0.8402 -0.1048
vn -0.9516 0.2436 -0.1874
vn -0.3375 -0.9390 -0.0665
vn -0.9779 0.0813 -0.1926
vn -0.1159 0.9930 -0.0228
vn -0.1159 -0.9930 -0.0228
vn -0.9779 -0.0813 -0.1926
vn -0.3375 0.9390 -0.0665
vn -0.9516 -0.2436 -0.1874
vn -0.5321 0.8402 -0.1048
vn -0.8972 -0.4047 -0.1767
vn -0.6907 0.7103 -0.1360
vn -0.8115 -0.5621 -0.1598
vn -0.8115 0.5621 -0.1598
vn -0.6907 -0.7103 -0.1360
vn -0.8972 0.4047 -0.1767
vn -0.5000 0.8427 -0.1997
vn -0.8478 -0.4082 -0.3385
vn -0.6503 0.7139 -0.2597
vn -0.7656 -0.5660 -0.3057
vn -0.7656 0.5660 -0.3057
vn -0.6503 -0.7139 -0.2597
vn -0.8478 0.4082 -0.3385
vn -0.5000 -0.8427 -0.1997
vn -0.9002 0.2460 -0.3595
vn -0.3166 -0.9401 -0.1264
vn -0.9256 0.0821 -0.3696
vn -0.1086 0.9931 -0.0434
vn -0.1086 -0.9931 -0.0434
vn -0.9256 -0.0821 -0.3696
vn -0.3166 0.9401 -0.1264
vn -0.9002 -0.2460 -0.3595
vn -0.8154 0.2492 -0.5226
vn -0.2835 -0.9416 -0.1817
vn -0.8390 0.0833 -0.5377
vn -0.0971 0.9933 -0.0622
vn -0.0971 -0.9933 -0.0622
vn -0.8390 -0.0833 -0.5377
vn -0.2835 0.9416 -0.1817
vn -0.8154 -0.2492 -0.5226
vn -0.4488 0.8460 -0.2877
vn -0.7668 -0.4130 -0.4915
vn -0.5854 0.7187 -0.3752
vn -0.6910 -0.5713 -0.4429
vn -0.6910 0.5713 -0.4429
vn -0.5854 -0.7187 -0.3752
vn -0.7668 0.4130 -0.4915
vn -0.4488 -0.8460 -0.2877
vn -0.6548 -0.4182 -0.6295
vn -0.4972 0.7240 -0.4781
vn -0.5886 -0.5773 -0.5659
vn -0.5886 0.5773 -0.5659
vn -0.4972 -0.7240 -0.4781
vn -0.6548 0.4182 -0.6295
vn -0.3801 -0.8497 -0.3654
vn -0.6975 0.2528 -0.6705
vn -0.2394 -0.9432 -0.2302
vn -0.7183 0.0845 -0.6906
vn -0.0819 0.9935 -0.0787
vn -0.0819 -0.9935 -0.0787
vn -0.7183 -0.0845 -0.6906
vn -0.2394 0.9432 -0.2302
vn -0.6975 -0.2528 -0.6705
vn -0.3801 0.8497 -0.3654
vn -0.1860 -0.9447 -0.2700
vn -0.5652 0.0858 -0.8205
vn -0.0635 0.9937 -0.0922
vn -0.0635 -0.9937 -0.0922
vn -0.5652 -0.0858 -0.8205
vn -0.1860 0.9447 -0.2700
vn -0.5176 -0.2818 -0.8079
vn -0.2960 0.8531 -0.4296
vn -0.4444 -0.4314 -0.7851
vn -0.3883 0.7290 -0.5636
vn -0.4296 -0.5557 -0.7118
vn -0.4610 0.5829 -0.6691
vn -0.3883 -0.7291 -0.5636
vn -0.5140 0.4233 -0.7461
vn -0.2960 -0.8531 -0.4296
vn -0.5484 0.2563 -0.7960
vn -0.0552 -0.5228 -0.8507
vn -0.3122 0.5873 -0.7467
vn -0.1249 -0.6569 -0.7436
vn -0.3488 0.4273 -0.8341
vn -0.1996 -0.8558 -0.4773
vn -0.3726 0.2591 -0.8911
vn -0.1252 -0.9459 -0.2994
vn -0.3843 0.0868 -0.9191
vn -0.0427 0.9939 -0.1021
vn -0.0427 -0.9939 -0.1021
vn -0.3843 -0.0868 -0.9191
vn -0.1252 0.9459 -0.2994
vn -0.2977 -0.3595 -0.8844
vn -0.1996 0.8558 -0.4773
vn -0.1590 -0.4679 -0.8693
vn -0.2624 0.7330 -0.6276
vn -0.0202 0.9939 -0.1081
vn -0.0202 -0.9939 -0.1081
vn -0.1833 -0.0873 -0.9792
vn -0.0594 0.9465 -0.3171
vn -0.1181 -0.4424 -0.8890
vn -0.0947 0.8572 -0.5061
vn -0.0351 -0.5143 -0.8569
vn -0.1247 0.7351 -0.6664
vn -0.0080 -0.5368 -0.8437
vn -0.1486 0.5898 -0.7938
vn -0.0547 -0.5558 -0.8295
vn -0.1661 0.4295 -0.8876
vn -0.0733 -0.8520 -0.5183
vn -0.1776 0.2606 -0.9490
vn -0.0594 -0.9465 -0.3171
vn -0.1833 0.0873 -0.9792
vn 0.0221 0.5898 -0.8073
vn 0.0112 -0.5293 -0.8484
vn 0.0111 -0.5294 -0.8483
vn 0.0247 0.4295 -0.9027
vn 0.0077 -0.8484 -0.5293
vn 0.0264 0.2606 -0.9651
vn 0.0088 -0.9465 -0.3225
vn 0.0272 0.0873 -0.9958
vn 0.0030 0.9939 -0.1100
vn 0.0030 -0.9939 -0.1100
vn 0.0272 -0.0873 -0.9958
vn 0.0088 0.9465 -0.3225
vn 0.0110 -0.4656 -0.8849
vn 0.0141 0.8572 -0.5147
vn 0.0033 -0.5342 -0.8453
vn -0.0005 -0.5319 -0.8468
vn 0.0185 0.7351 -0.6777
vn 0.2352 -0.0868 -0.9681
vn 0.0766 0.9459 -0.3153
vn 0.0910 -0.3599 -0.9285
vn 0.1221 0.8558 -0.5027
vn -0.0280 -0.5558 -0.8309
vn 0.1606 0.7330 -0.6610
vn 0.0288 -0.5490 -0.8353
vn 0.1911 0.5873 -0.7865
vn 0.0996 -0.5608 -0.8219
vn 0.2135 0.4273 -0.8785
vn 0.1074 -0.8523 -0.5118
vn 0.2281 0.2591 -0.9385
vn 0.0766 -0.9459 -0.3153
vn 0.2352 0.0868 -0.9681
vn 0.0261 0.9939 -0.1076
vn 0.0261 -0.9939 -0.1076
vn 0.1739 -0.6605 -0.7304
vn 0.3905 0.4233 -0.8175
vn 0.2248 -0.8531 -0.4707
vn 0.4166 0.2563 -0.8722
vn 0.1413 -0.9447 -0.2958
vn 0.4294 0.0858 -0.8990
vn 0.0483 0.9937 -0.1010
vn 0.0483 -0.9937 -0.1010
vn 0.4294 -0.0858 -0.8990
vn 0.1413 0.9447 -0.2958
vn 0.4153 -0.2573 -0.8725
vn 0.2248 0.8531 -0.4707
vn 0.2470 -0.5099 -0.8240
vn 0.2950 0.7291 -0.6176
vn 0.0823 -0.5596 -0.8247
vn 0.3502 0.5829 -0.7332
vn 0.2003 0.9432 -0.2649
vn 0.5835 -0.2528 -0.7717
vn 0.3180 0.8497 -0.4206
vn 0.5478 -0.4182 -0.7245
vn 0.4160 0.7240 -0.5502
vn 0.4925 -0.5773 -0.6513
vn 0.4925 0.5773 -0.6513
vn 0.4160 -0.7240 -0.5502
vn 0.5478 0.4182 -0.7245
vn 0.3180 -0.8497 -0.4206
vn 0.5835 0.2528 -0.7717
vn 0.2003 -0.9432 -0.2649
vn 0.6010 0.0845 -0.7948
vn 0.0685 0.9935 -0.0906
vn 0.0685 -0.9935 -0.0906
vn 0.6010 -0.0845 -0.7948
vn 0.6801 0.4130 -0.6057
vn 0.3981 -0.8460 -0.3546
vn 0.7232 0.2492 -0.6441
vn 0.2514 -0.9416 -0.2240
vn 0.7571 0.0673 -0.6498
vn 0.0861 0.9933 -0.0767
vn 0.0861 -0.9933 -0.0767
vn 0.7991 -0.1308 -0.5868
vn 0.2514 0.9416 -0.2240
vn 0.7834 -0.1836 -0.5938
vn 0.3981 0.8460 -0.3546
vn 0.6801 -0.4130 -0.6057
vn 0.5192 0.7187 -0.4625
vn 0.6129 -0.5713 -0.5459
vn 0.6129 0.5713 -0.5459
vn 0.5192 -0.7187 -0.4625
vn 0.9006 -0.0703 -0.4289
vn 0.4624 0.8427 -0.2757
vn 0.8005 -0.3924 -0.4531
vn 0.6015 0.7139 -0.3586
vn 0.7081 -0.5660 -0.4221
vn 0.7270 0.5522 -0.4081
vn 0.6015 -0.7139 -0.3586
vn 0.8592 0.3458 -0.3771
vn 0.4624 -0.8427 -0.2757
vn 0.9243 0.2171 -0.3140
vn 0.2928 -0.9401 -0.1745
vn 0.9585 0.0220 -0.2841
vn 0.1004 0.9931 -0.0599
vn 0.1004 -0.9931 -0.0599
vn 0.9407 -0.1160 -0.3188
vn 0.2928 0.9401 -0.1745
vn 0.5090 -0.8402 -0.1870
vn 0.9698 0.1674 -0.1775
vn 0.3229 -0.9390 -0.1186
vn 0.9844 0.0162 -0.1753
vn 0.1109 0.9930 -0.0407
vn 0.1109 -0.9930 -0.0407
vn 0.9766 -0.0455 -0.2104
vn 0.3229 0.9390 -0.1186
vn 0.9862 -0.0919 -0.1375
vn 0.5090 0.8402 -0.1870
vn 0.9488 -0.2975 -0.1065
vn 0.6607 0.7103 -0.2428
vn 0.8322 -0.5089 -0.2202
vn 0.8142 0.5157 -0.2667
vn 0.6607 -0.7103 -0.2428
vn 0.9378 0.2513 -0.2396
vn 0.9691 -0.1906 -0.1565
vn 0.6958 0.7083 -0.1191
vn 0.8605 -0.4772 -0.1780
vn 0.8419 0.5118 -0.1712
vn 0.6958 -0.7083 -0.1191
vn 0.9700 0.1786 -0.1649
vn 0.5366 -0.8388 -0.0919
vn 0.9886 0.1178 -0.0936
vn 0.3407 -0.9384 -0.0583
vn 0.9959 0.0431 -0.0797
vn 0.1170 0.9929 -0.0200
vn 0.1170 -0.9929 -0.0200
vn 0.9964 -0.0502 -0.0682
vn 0.3407 0.9384 -0.0583
vn 0.9872 -0.1432 -0.0705
vn 0.5366 0.8388 -0.0919
vt 0.750000 0.812500
vt 0.750000 0.875000
vt 0.718750 0.875000
vt 0.718750 0.812500
vt 0.750000 0.312500
vt 0.750000 0.375000
vt 0.718750 0.375000
vt 0.718750 0.312500
vt 0.750000 0.750000
vt 0.718750 0.750000
vt 0.750000 0.250000
vt 0.718750 0.250000
vt 0.750000 0.687500
vt 0.718750 0.687500
vt 0.750000 0.187500
vt 0.718750 0.187500
vt 0.750000 0.625000
vt 0.718750 0.625000
vt 0.750000 0.125000
vt 0.718750 0.125000
vt 0.750000 0.562500
vt 0.718750 0.562500
vt 0.750000 0.062500
vt 0.718750 0.062500
vt 0.750000 0.500000
vt 0.718750 0.500000
vt 0.750000 0.937500
vt 0.734375 1.000000
vt 0.718750 0.937500
vt 0.734375 0.000000
vt 0.750000 0.437500
vt 0.718750 0.437500
vt 0.687500 0.500000
vt 0.687500 0.437500
vt 0.687500 0.937500
vt 0.687500 0.875000
vt 0.687500 0.375000
vt 0.687500 0.812500
vt 0.687500 0.312500
vt 0.687500 0.750000
vt 0.687500 0.250000
vt 0.687500 0.687500
vt 0.687500 0.187500
vt 0.687500 0.625000
vt 0.687500 0.125000
vt 0.687500 0.562500
vt 0.687500 0.062500
vt 0.703125 1.000000
vt 0.703125 0.000000
vt 0.656250 0.250000
vt 0.656250 0.187500
vt 0.656250 0.687500
vt 0.656250 0.625000
vt 0.656250 0.125000
vt 0.656250 0.562500
vt 0.656250 0.062500
vt 0.656250 0.500000
vt 0.671875 1.000000
vt 0.656250 0.937500
vt 0.671875 0.000000
vt 0.656250 0.437500
vt 0.656250 0.875000
vt 0.656250 0.375000
vt 0.656250 0.812500
vt 0.656250 0.312500
vt 0.656250 0.750000
vt 0.625000 0.437500
vt 0.625000 0.375000
vt 0.625000 0.875000
vt 0.625000 0.812500
vt 0.625000 0.312500
vt 0.625000 0.750000
vt 0.625000 0.250000
vt 0.625000 0.687500
vt 0.625000 0.187500
vt 0.625000 0.625000
vt 0.625000 0.125000
vt 0.625000 0.562500
vt 0.625000 0.062500
vt 0.625000 0.500000
vt 0.640625 1.000000
vt 0.625000 0.937500
vt 0.640625 0.000000
vt 0.593750 0.187500
vt 0.593750 0.125000
vt 0.593750 0.625000
vt 0.593750 0.562500
vt 0.593750 0.062500
vt 0.593750 0.500000
vt 0.609375 1.000000
vt 0.593750 0.937500
vt 0.609375 0.000000
vt 0.593750 0.437500
vt 0.593750 0.875000
vt 0.593750 0.375000
vt 0.593750 0.812500
vt 0.593750 0.312500
vt 0.593750 0.750000
vt 0.593750 0.250000
vt 0.593750 0.687500
vt 0.562500 0.875000
vt 0.562500 0.812500
vt 0.562500 0.375000
vt 0.562500 0.312500
vt 0.562500 0.750000
vt 0.562500 0.250000
vt 0.562500 0.687500
vt 0.562500 0.187500
vt 0.562500 0.625000
vt 0.562500 0.125000
vt 0.562500 0.562500
vt 0.562500 0.062500
vt 0.562500 0.500000
vt 0.578125 1.000000
vt 0.562500 0.937500
vt 0.578125 0.000000
vt 0.562500 0.437500
vt 0.531250 0.625000
vt 0.531250 0.562500
vt 0.531250 0.125000
vt 0.531250 0.062500
vt 0.531250 0.500000
vt 0.546875 1.000000
vt 0.531250 0.937500
vt 0.546875 0.000000
vt 0.531250 0.437500
vt 0.531250 0.875000
vt 0.531250 0.375000
vt 0.531250 0.812500
vt 0.531250 0.312500
vt 0.531250 0.750000
vt 0.531250 0.250000
vt 0.531250 0.687500
vt 0.531250 0.187500
vt 0.500000 0.375000
vt 0.500000 0.312500
vt 0.500000 0.812500
vt 0.500000 0.750000
vt 0.500000 0.250000
vt 0.500000 0.687500
vt 0.500000 0.187500
vt 0.500000 0.625000
vt 0.500000 0.125000
vt 0.500000 0.562500
vt 0.500000 0.062500
vt 0.500000 0.500000
vt 0.515625 1.000000
vt 0.500000 0.937500
vt 0.515625 0.000000
vt 0.500000 0.437500
vt 0.500000 0.875000
vt 0.468750 0.125000
vt 0.468750 0.062500
vt 0.468750 0.562500
vt 0.468750 0.500000
vt 0.484375 1.000000
vt 0.468750 0.937500
vt 0.484375 0.000000
vt 0.468750 0.437500
vt 0.468750 0.875000
vt 0.468750 0.375000
vt 0.468750 0.812500
vt 0.468750 0.312500
vt 0.468750 0.750000
vt 0.468750 0.250000
vt 0.468750 0.687500
vt 0.468750 0.187500
vt 0.468750 0.625000
vt 0.437500 0.812500
vt 0.437500 0.750000
vt 0.437500 0.312500
vt 0.437500 0.250000
vt 0.437500 0.687500
vt 0.437500 0.187500
vt 0.437500 0.625000
vt 0.437500 0.125000
vt 0.437500 0.562500
vt 0.437500 0.062500
vt 0.437500 0.500000
vt 0.453125 1.000000
vt 0.437500 0.937500
vt 0.453125 0.000000
vt 0.437500 0.437500
vt 0.437500 0.875000
vt 0.437500 0.375000
vt 0.406250 0.562500
vt 0.406250 0.500000
vt 0.421875 1.000000
vt 0.406250 0.937500
vt 0.421875 0.000000
vt 0.406250 0.062500
vt 0.406250 0.437500
vt 0.406250 0.875000
vt 0.406250 0.375000
vt 0.406250 0.812500
vt 0.406250 0.312500
vt 0.406250 0.750000
vt 0.406250 0.250000
vt 0.406250 0.687500
vt 0.406250 0.187500
vt 0.406250 0.625000
vt 0.406250 0.125000
vt 0.375000 0.312500
vt 0.375000 0.250000
vt 0.375000 0.750000
vt 0.375000 0.687500
vt 0.375000 0.187500
vt 0.375000 0.625000
vt 0.375000 0.125000
vt 0.375000 0.562500
vt 0.375000 0.062500
vt 0.375000 0.500000
vt 0.390625 1.000000
vt 0.375000 0.937500
vt 0.390625 0.000000
vt 0.375000 0.437500
vt 0.375000 0.875000
vt 0.375000 0.375000
vt 0.375000 0.812500
vt 0.359375 0.000000
vt 0.343750 0.062500
vt 0.343750 0.500000
vt 0.343750 0.437500
vt 0.343750 0.937500
vt 0.343750 0.875000
vt 0.343750 0.375000
vt 0.343750 0.812500
vt 0.343750 0.312500
vt 0.343750 0.750000
vt 0.343750 0.250000
vt 0.343750 0.687500
vt 0.343750 0.187500
vt 0.343750 0.625000
vt 0.343750 0.125000
vt 0.343750 0.562500
vt 0.359375 1.000000
vt 0.312500 0.250000
vt 0.312500 0.187500
vt 0.312500 0.687500
vt 0.312500 0.625000
vt 0.312500 0.125000
vt 0.312500 0.562500
vt 0.312500 0.062500
vt 0.312500 0.500000
vt 0.328125 1.000000
vt 0.312500 0.937500
vt 0.328125 0.000000
vt 0.312500 0.437500
vt 0.312500 0.875000
vt 0.312500 0.375000
vt 0.312500 0.812500
vt 0.312500 0.312500
vt 0.312500 0.750000
vt 0.281250 0.937500
vt 0.281250 0.875000
vt 0.281250 0.437500
vt 0.281250 0.375000
vt 0.281250 0.812500
vt 0.281250 0.312500
vt 0.281250 0.750000
vt 0.281250 0.250000
vt 0.281250 0.687500
vt 0.281250 0.187500
vt 0.281250 0.625000
vt 0.281250 0.125000
vt 0.281250 0.562500
vt 0.281250 0.062500
vt 0.281250 0.500000
vt 0.296875 1.000000
vt 0.296875 0.000000
vt 0.250000 0.687500
vt 0.250000 0.625000
vt 0.250000 0.187500
vt 0.250000 0.125000
vt 0.250000 0.562500
vt 0.250000 0.062500
vt 0.250000 0.500000
vt 0.265625 1.000000
vt 0.250000 0.937500
vt 0.265625 0.000000
vt 0.250000 0.437500
vt 0.250000 0.875000
vt 0.250000 0.375000
vt 0.250000 0.812500
vt 0.250000 0.312500
vt 0.250000 0.750000
vt 0.250000 0.250000
vt 0.218750 0.437500
vt 0.218750 0.375000
vt 0.218750 0.875000
vt 0.218750 0.812500
vt 0.218750 0.312500
vt 0.218750 0.750000
vt 0.218750 0.250000
vt 0.218750 0.687500
vt 0.218750 0.187500
vt 0.218750 0.625000
vt 0.218750 0.125000
vt 0.218750 0.562500
vt 0.218750 0.062500
vt 0.218750 0.500000
vt 0.234375 1.000000
vt 0.218750 0.937500
vt 0.234375 0.000000
vt 0.187500 0.187500
vt 0.187500 0.125000
vt 0.187500 0.625000
vt 0.187500 0.562500
vt 0.187500 0.062500
vt 0.187500 0.500000
vt 0.203125 1.000000
vt 0.187500 0.937500
vt 0.203125 0.000000
vt 0.187500 0.437500
vt 0.187500 0.875000
vt 0.187500 0.375000
vt 0.187500 0.812500
vt 0.187500 0.312500
vt 0.187500 0.750000
vt 0.187500 0.250000
vt 0.187500 0.687500
vt 0.156250 0.875000
vt 0.156250 0.812500
vt 0.156250 0.375000
vt 0.156250 0.312500
vt 0.156250 0.750000
vt 0.156250 0.250000
vt 0.156250 0.687500
vt 0.156250 0.187500
vt 0.156250 0.625000
vt 0.156250 0.125000
vt 0.156250 0.562500
vt 0.156250 0.062500
vt 0.156250 0.500000
vt 0.171875 1.000000
vt 0.156250 0.937500
vt 0.171875 0.000000
vt 0.156250 0.437500
vt 0.125000 0.625000
vt 0.125000 0.562500
vt 0.125000 0.125000
vt 0.125000 0.062500
vt 0.125000 0.500000
vt 0.140625 1.000000
vt 0.125000 0.937500
vt 0.140625 0.000000
vt 0.125000 0.437500
vt 0.125000 0.875000
vt 0.125000 0.375000
vt 0.125000 0.812500
vt 0.125000 0.312500
vt 0.125000 0.750000
vt 0.125000 0.250000
vt 0.125000 0.687500
vt 0.125000 0.187500
vt 0.093750 0.375000
vt 0.093750 0.312500
vt 0.093750 0.812500
vt 0.093750 0.750000
vt 0.093750 0.250000
vt 0.093750 0.687500
vt 0.093750 0.187500
vt 0.093750 0.625000
vt 0.093750 0.125000
vt 0.093750 0.562500
vt 0.093750 0.062500
vt 0.093750 0.500000
vt 0.109375 1.000000
vt 0.093750 0.937500
vt 0.109375 0.000000
vt 0.093750 0.437500
vt 0.093750 0.875000
vt 0.062500 0.125000
vt 0.062500 0.062500
vt 0.062500 0.562500
vt 0.062500 0.500000
vt 0.078125 1.000000
vt 0.062500 0.937500
vt 0.078125 0.000000
vt 0.062500 0.437500
vt 0.062500 0.875000
vt 0.062500 0.375000
vt 0.062500 0.812500
vt 0.062500 0.312500
vt 0.062500 0.750000
vt 0.062500 0.250000
vt 0.062500 0.687500
vt 0.062500 0.187500
vt 0.062500 0.625000
vt 0.031250 0.312500
vt 0.031250 0.250000
vt 0.031250 0.750000
vt 0.031250 0.687500
vt 0.031250 0.187500
vt 0.031250 0.625000
vt 0.031250 0.125000
vt 0.031250 0.562500
vt 0.031250 0.062500
vt 0.031250 0.500000
vt 0.046875 1.000000
vt 0.031250 0.937500
vt 0.046875 0.000000
vt 0.031250 0.437500
vt 0.031250 0.875000
vt 0.031250 0.375000
vt 0.031250 0.812500
vt 0.015625 1.000000
vt 0.000000 0.937500
vt 0.015625 0.000000
vt 0.000000 0.062500
vt 0.000000 0.500000
vt 0.000000 0.437500
vt 0.000000 0.875000
vt 0.000000 0.375000
vt 0.000000 0.812500
vt 0.000000 0.312500
vt 0.000000 0.750000
vt 0.000000 0.250000
vt 0.000000 0.687500
vt 0.000000 0.187500
vt 0.000000 0.625000
vt 0.000000 0.125000
vt 0.000000 0.562500
vt 1.000000 0.687500
vt 1.000000 0.750000
vt 0.968750 0.750000
vt 0.968750 0.687500
vt 1.000000 0.187500
vt 1.000000 0.250000
vt 0.968750 0.250000
vt 0.968750 0.187500
vt 1.000000 0.625000
vt 0.968750 0.625000
vt 1.000000 0.125000
vt 0.968750 0.125000
vt 1.000000 0.562500
vt 0.968750 0.562500
vt 1.000000 0.062500
vt 0.968750 0.062500
vt 1.000000 0.500000
vt 0.968750 0.500000
vt 1.000000 0.937500
vt 0.984375 1.000000
vt 0.968750 0.937500
vt 0.984375 0.000000
vt 1.000000 0.437500
vt 0.968750 0.437500
vt 1.000000 0.875000
vt 0.968750 0.875000
vt 1.000000 0.375000
vt 0.968750 0.375000
vt 1.000000 0.812500
vt 0.968750 0.812500
vt 1.000000 0.312500
vt 0.968750 0.312500
vt 0.937500 0.500000
vt 0.937500 0.437500
vt 0.937500 0.937500
vt 0.937500 0.875000
vt 0.937500 0.375000
vt 0.937500 0.812500
vt 0.937500 0.312500
vt 0.937500 0.750000
vt 0.937500 0.250000
vt 0.937500 0.687500
vt 0.937500 0.187500
vt 0.937500 0.625000
vt 0.937500 0.125000
vt 0.937500 0.562500
vt 0.937500 0.062500
vt 0.953125 1.000000
vt 0.953125 0.000000
vt 0.906250 0.250000
vt 0.906250 0.187500
vt 0.906250 0.687500
vt 0.906250 0.625000
vt 0.906250 0.125000
vt 0.906250 0.562500
vt 0.906250 0.062500
vt 0.906250 0.500000
vt 0.921875 1.000000
vt 0.906250 0.937500
vt 0.921875 0.000000
vt 0.906250 0.437500
vt 0.906250 0.875000
vt 0.906250 0.375000
vt 0.906250 0.812500
vt 0.906250 0.312500
vt 0.906250 0.750000
vt 0.875000 0.937500
vt 0.875000 0.875000
vt 0.875000 0.437500
vt 0.875000 0.375000
vt 0.875000 0.812500
vt 0.875000 0.312500
vt 0.875000 0.750000
vt 0.875000 0.250000
vt 0.875000 0.687500
vt 0.875000 0.187500
vt 0.875000 0.625000
vt 0.875000 0.125000
vt 0.875000 0.562500
vt 0.875000 0.062500
vt 0.875000 0.500000
vt 0.890625 1.000000
vt 0.890625 0.000000
vt 0.843750 0.687500
vt 0.843750 0.625000
vt 0.843750 0.187500
vt 0.843750 0.125000
vt 0.843750 0.562500
vt 0.843750 0.062500
vt 0.843750 0.500000
vt 0.859375 1.000000
vt 0.843750 0.937500
vt 0.859375 0.000000
vt 0.843750 0.437500
vt 0.843750 0.875000
vt 0.843750 0.375000
vt 0.843750 0.812500
vt 0.843750 0.312500
vt 0.843750 0.750000
vt 0.843750 0.250000
vt 0.812500 0.437500
vt 0.812500 0.375000
vt 0.812500 0.875000
vt 0.812500 0.812500
vt 0.812500 0.312500
vt 0.812500 0.750000
vt 0.812500 0.250000
vt 0.812500 0.687500
vt 0.812500 0.187500
vt 0.812500 0.625000
vt 0.812500 0.125000
vt 0.812500 0.562500
vt 0.812500 0.062500
vt 0.812500 0.500000
vt 0.828125 1.000000
vt 0.812500 0.937500
vt 0.828125 0.000000
vt 0.781250 0.187500
vt 0.781250 0.125000
vt 0.781250 0.625000
vt 0.781250 0.562500
vt 0.781250 0.062500
vt 0.781250 0.500000
vt 0.796875 1.000000
vt 0.781250 0.937500
vt 0.796875 0.000000
vt 0.781250 0.437500
vt 0.781250 0.875000
vt 0.781250 0.375000
vt 0.781250 0.812500
vt 0.781250 0.312500
vt 0.781250 0.750000
vt 0.781250 0.250000
vt 0.781250 0.687500
vt 0.765625 1.000000
vt 0.765625 0.000000
s 1
usemtl マテリアル.001
f 1/1/1 475/2/1 8/3/1 9/4/1
f 6/5/2 478/6/2 16/7/2 17/8/2
f 476/9/3 1/1/3 9/4/3 10/10/3
f 479/11/4 6/5/4 17/8/4 18/12/4
f 2/13/5 476/9/5 10/10/5 11/14/5
f 480/15/6 479/11/6 18/12/6 19/16/6
f 477/17/7 2/13/7 11/14/7 12/18/7
f 481/19/8 480/15/8 19/16/8 20/20/8
f 3/21/9 477/17/9 12/18/9 13/22/9
f 482/23/10 481/19/10 20/20/10 21/24/10
f 4/25/11 3/21/11 13/22/11 14/26/11
f 474/27/12 82/28/12 7/29/12
f 308/30/13 482/23/13 21/24/13
f 5/31/14 4/25/14 14/26/14 15/32/14
f 475/2/15 474/27/15 7/29/15 8/3/15
f 478/6/16 5/31/16 15/32/16 16/7/16
f 15/32/17 14/26/17 29/33/17 30/34/17
f 8/3/18 7/29/18 22/35/18 23/36/18
f 16/7/19 15/32/19 30/34/19 31/37/19
f 9/4/20 8/3/20 23/36/20 24/38/20
f 17/8/21 16/7/21 31/37/21 32/39/21
f 10/10/22 9/4/22 24/38/22 25/40/22
f 18/12/23 17/8/23 32/39/23 33/41/23
f 11/14/24 10/10/24 25/40/24 26/42/24
f 19/16/25 18/12/25 33/41/25 34/43/25
f 12/18/26 11/14/26 26/42/26 27/44/26
f 20/20/27 19/16/27 34/43/27 35/45/27
f 13/22/28 12/18/28 27/44/28 28/46/28
f 21/24/29 20/20/29 35/45/29 36/47/29
f 14/26/30 13/22/30 28/46/30 29/33/30
f 7/29/31 82/48/31 22/35/31
f 308/49/32 21/24/32 36/47/32
f 34/43/33 33/41/33 48/50/33 49/51/33
f 27/44/34 26/42/34 41/52/34 42/53/34
f 35/45/35 34/43/35 49/51/35 50/54/35
f 28/46/36 27/44/36 42/53/36 43/55/36
f 36/47/37 35/45/37 50/54/37 51/56/37
f 29/33/38 28/46/38 43/55/38 44/57/38
f 22/35/39 82/58/39 37/59/39
f 308/60/40 36/47/40 51/56/40
f 30/34/41 29/33/41 44/57/41 45/61/41
f 23/36/42 22/35/42 37/59/42 38/62/42
f 31/37/43 30/34/43 45/61/43 46/63/43
f 24/38/44 23/36/44 38/62/44 39/64/44
f 32/39/45 31/37/45 46/63/45 47/65/45
f 25/40/46 24/38/46 39/64/46 40/66/46
f 33/41/47 32/39/47 47/65/47 48/50/47
f 26/42/48 25/40/48 40/66/48 41/52/48
f 46/63/49 45/61/49 60/67/49 61/68/49
f 39/64/50 38/62/50 53/69/50 54/70/50
f 47/65/51 46/63/51 61/68/51 62/71/51
f 40/66/52 39/64/52 54/70/52 55/72/52
f 48/50/53 47/65/53 62/71/53 63/73/53
f 41/52/54 40/66/54 55/72/54 56/74/54
f 49/51/55 48/50/55 63/73/55 64/75/55
f 42/53/56 41/52/56 56/74/56 57/76/56
f 50/54/57 49/51/57 64/75/57 65/77/57
f 43/55/58 42/53/58 57/76/58 58/78/58
f 51/56/59 50/54/59 65/77/59 66/79/59
f 44/57/60 43/55/60 58/78/60 59/80/60
f 37/59/61 82/81/61 52/82/61
f 308/83/62 51/56/62 66/79/62
f 45/61/63 44/57/63 59/80/63 60/67/63
f 38/62/64 37/59/64 52/82/64 53/69/64
f 65/77/65 64/75/65 79/84/65 80/85/65
f 58/78/66 57/76/66 72/86/66 73/87/66
f 66/79/67 65/77/67 80/85/67 81/88/67
f 59/80/68 58/78/68 73/87/68 74/89/68
f 52/82/69 82/90/69 67/91/69
f 308/92/70 66/79/70 81/88/70
f 60/67/71 59/80/71 74/89/71 75/93/71
f 53/69/72 52/82/72 67/91/72 68/94/72
f 61/68/73 60/67/73 75/93/73 76/95/73
f 54/70/74 53/69/74 68/94/74 69/96/74
f 62/71/75 61/68/75 76/95/75 77/97/75
f 55/72/76 54/70/76 69/96/76 70/98/76
f 63/73/77 62/71/77 77/97/77 78/99/77
f 56/74/78 55/72/78 70/98/78 71/100/78
f 64/75/79 63/73/79 78/99/79 79/84/79
f 57/76/80 56/74/80 71/100/80 72/86/80
f 69/96/81 68/94/81 84/101/81 85/102/81
f 77/97/82 76/95/82 92/103/82 93/104/82
f 70/98/83 69/96/83 85/102/83 86/105/83
f 78/99/84 77/97/84 93/104/84 94/106/84
f 71/100/85 70/98/85 86/105/85 87/107/85
f 79/84/86 78/99/86 94/106/86 95/108/86
f 72/86/87 71/100/87 87/107/87 88/109/87
f 80/85/88 79/84/88 95/108/88 96/110/88
f 73/87/89 72/86/89 88/109/89 89/111/89
f 81/88/90 80/85/90 96/110/90 97/112/90
f 74/89/91 73/87/91 89/111/91 90/113/91
f 67/91/92 82/114/92 83/115/92
f 308/116/93 81/88/93 97/112/93
f 75/93/94 74/89/94 90/113/94 91/117/94
f 68/94/95 67/91/95 83/115/95 84/101/95
f 76/95/96 75/93/96 91/117/96 92/103/96
f 89/111/97 88/109/97 103/118/97 104/119/97
f 97/112/98 96/110/98 111/120/98 112/121/98
f 90/113/99 89/111/99 104/119/99 105/122/99
f 83/115/100 82/123/100 98/124/100
f 308/125/101 97/112/101 112/121/101
f 91/117/102 90/113/102 105/122/102 106/126/102
f 84/101/103 83/115/103 98/124/103 99/127/103
f 92/103/104 91/117/104 106/126/104 107/128/104
f 85/102/105 84/101/105 99/127/105 100/129/105
f 93/104/106 92/103/106 107/128/106 108/130/106
f 86/105/107 85/102/107 100/129/107 101/131/107
f 94/106/108 93/104/108 108/130/108 109/132/108
f 87/107/109 86/105/109 101/131/109 102/133/109
f 95/108/110 94/106/110 109/132/110 110/134/110
f 88/109/111 87/107/111 102/133/111 103/118/111
f 96/110/112 95/108/112 110/134/112 111/120/112
f 108/130/113 107/128/113 122/135/113 123/136/113
f 101/131/114 100/129/114 115/137/114 116/138/114
f 109/132/115 108/130/115 123/136/115 124/139/115
f 102/133/116 101/131/116 116/138/116 117/140/116
f 110/134/117 109/132/117 124/139/117 125/141/117
f 103/118/118 102/133/118 117/140/118 118/142/118
f 111/120/119 110/134/119 125/141/119 126/143/119
f 104/119/120 103/118/120 118/142/120 119/144/120
f 112/121/121 111/120/121 126/143/121 127/145/121
f 105/122/122 104/119/122 119/144/122 120/146/122
f 98/124/123 82/147/123 113/148/123
f 308/149/124 112/121/124 127/145/124
f 106/126/125 105/122/125 120/146/125 121/150/125
f 99/127/126 98/124/126 113/148/126 114/151/126
f 107/128/127 106/126/127 121/150/127 122/135/127
f 100/129/128 99/127/128 114/151/128 115/137/128
f 127/145/129 126/143/129 141/152/129 142/153/129
f 120/146/130 119/144/130 134/154/130 135/155/130
f 113/148/131 82/156/131 128/157/131
f 308/158/132 127/145/132 142/153/132
f 121/150/133 120/146/133 135/155/133 136/159/133
f 114/151/134 113/148/134 128/157/134 129/160/134
f 122/135/135 121/150/135 136/159/135 137/161/135
f 115/137/136 114/151/136 129/160/136 130/162/136
f 123/136/137 122/135/137 137/161/137 138/163/137
f 116/138/138 115/137/138 130/162/138 131/164/138
f 124/139/139 123/136/139 138/163/139 139/165/139
f 117/140/140 116/138/140 131/164/140 132/166/140
f 125/141/141 124/139/141 139/165/141 140/167/141
f 118/142/142 117/140/142 132/166/142 133/168/142
f 126/143/143 125/141/143 140/167/143 141/152/143
f 119/144/144 118/142/144 133/168/144 134/154/144
f 131/164/145 130/162/145 145/169/145 146/170/145
f 139/165/146 138/163/146 153/171/146 154/172/146
f 132/166/147 131/164/147 146/170/147 147/173/147
f 140/167/148 139/165/148 154/172/148 155/174/148
f 133/168/149 132/166/149 147/173/149 148/175/149
f 141/152/150 140/167/150 155/174/150 156/176/150
f 134/154/151 133/168/151 148/175/151 149/177/151
f 142/153/152 141/152/152 156/176/152 157/178/152
f 135/155/153 134/154/153 149/177/153 150/179/153
f 128/157/154 82/180/154 143/181/154
f 308/182/155 142/153/155 157/178/155
f 136/159/156 135/155/156 150/179/156 151/183/156
f 129/160/157 128/157/157 143/181/157 144/184/157
f 137/161/158 136/159/158 151/183/158 152/185/158
f 130/162/159 129/160/159 144/184/159 145/169/159
f 138/163/160 137/161/160 152/185/160 153/171/160
f 150/179/161 149/177/161 164/186/161 165/187/161
f 143/181/162 82/188/162 158/189/162
f 308/190/163 157/178/163 172/191/163
f 151/183/164 150/179/164 165/187/164 166/192/164
f 144/184/165 143/181/165 158/189/165 159/193/165
f 152/185/166 151/183/166 166/192/166 167/194/166
f 145/169/167 144/184/167 159/193/167 160/195/167
f 153/171/168 152/185/168 167/194/168 168/196/168
f 146/170/169 145/169/169 160/195/169 161/197/169
f 154/172/170 153/171/170 168/196/170 169/198/170
f 147/173/171 146/170/171 161/197/171 162/199/171
f 155/174/172 154/172/172 169/198/172 170/200/172
f 148/175/173 147/173/173 162/199/173 163/201/173
f 156/176/174 155/174/174 170/200/174 171/202/174
f 149/177/175 148/175/175 163/201/175 164/186/175
f 157/178/176 156/176/176 171/202/176 172/191/176
f 169/198/177 168/196/177 183/203/177 184/204/177
f 162/199/178 161/197/178 176/205/178 177/206/178
f 170/200/179 169/198/179 184/204/179 185/207/179
f 163/201/180 162/199/180 177/206/180 178/208/180
f 171/202/181 170/200/181 185/207/181 186/209/181
f 164/186/182 163/201/182 178/208/182 179/210/182
f 172/191/183 171/202/183 186/209/183 187/211/183
f 165/187/184 164/186/184 179/210/184 180/212/184
f 158/189/185 82/213/185 173/214/185
f 308/215/186 172/191/186 187/211/186
f 166/192/187 165/187/187 180/212/187 181/216/187
f 159/193/188 158/189/188 173/214/188 174/217/188
f 167/194/189 166/192/189 181/216/189 182/218/189
f 160/195/190 159/193/190 174/217/190 175/219/190
f 168/196/191 167/194/191 182/218/191 183/203/191
f 161/197/192 160/195/192 175/219/192 176/205/192
f 308/220/193 187/211/193 202/221/193
f 181/216/194 180/212/194 195/222/194 196/223/194
f 174/217/195 173/214/195 188/224/195 189/225/195
f 182/218/196 181/216/196 196/223/196 197/226/196
f 175/219/197 174/217/197 189/225/197 190/227/197
f 183/203/198 182/218/198 197/226/198 198/228/198
f 176/205/199 175/219/199 190/227/199 191/229/199
f 184/204/200 183/203/200 198/228/200 199/230/200
f 177/206/201 176/205/201 191/229/201 192/231/201
f 185/207/202 184/204/202 199/230/202 200/232/202
f 178/208/203 177/206/203 192/231/203 193/233/203
f 186/209/204 185/207/204 200/232/204 201/234/204
f 179/210/205 178/208/205 193/233/205 194/235/205
f 187/211/206 186/209/206 201/234/206 202/221/206
f 180/212/207 179/210/207 194/235/207 195/222/207
f 173/214/208 82/236/208 188/224/208
f 200/232/209 199/230/209 214/237/209 215/238/209
f 193/233/210 192/231/210 207/239/210 208/240/210
f 201/234/211 200/232/211 215/238/211 216/241/211
f 194/235/212 193/233/212 208/240/212 209/242/212
f 202/221/213 201/234/213 216/241/213 217/243/213
f 195/222/214 194/235/214 209/242/214 210/244/214
f 188/224/215 82/245/215 203/246/215
f 308/247/216 202/221/216 217/243/216
f 196/223/217 195/222/217 210/244/217 211/248/217
f 189/225/218 188/224/218 203/246/218 204/249/218
f 197/226/219 196/223/219 211/248/219 212/250/219
f 190/227/220 189/225/220 204/249/220 205/251/220
f 198/228/221 197/226/221 212/250/221 213/252/221
f 191/229/222 190/227/222 205/251/222 206/253/222
f 199/230/223 198/228/223 213/252/223 214/237/223
f 192/231/224 191/229/224 206/253/224 207/239/224
f 204/249/225 203/246/225 218/254/225 219/255/225
f 212/250/226 211/248/226 226/256/226 227/257/226
f 205/251/227 204/249/227 219/255/227 220/258/227
f 213/252/228 212/250/228 227/257/228 228/259/228
f 206/253/229 205/251/229 220/258/229 221/260/229
f 214/237/230 213/252/230 228/259/230 229/261/230
f 207/239/231 206/253/231 221/260/231 222/262/231
f 215/238/232 214/237/232 229/261/232 230/263/232
f 208/240/233 207/239/233 222/262/233 223/264/233
f 216/241/234 215/238/234 230/263/234 231/265/234
f 209/242/235 208/240/235 223/264/235 224/266/235
f 217/243/236 216/241/236 231/265/236 232/267/236
f 210/244/237 209/242/237 224/266/237 225/268/237
f 203/246/238 82/269/238 218/254/238
f 308/270/239 217/243/239 232/267/239
f 211/248/240 210/244/240 225/268/240 226/256/240
f 223/264/241 222/262/241 237/271/241 238/272/241
f 231/265/242 230/263/242 245/273/242 246/274/242
f 224/266/243 223/264/243 238/272/243 239/275/243
f 232/267/244 231/265/244 246/274/244 247/276/244
f 225/268/245 224/266/245 239/275/245 240/277/245
f 218/254/246 82/278/246 233/279/246
f 308/280/247 232/267/247 247/276/247
f 226/256/248 225/268/248 240/277/248 241/281/248
f 219/255/249 218/254/249 233/279/249 234/282/249
f 227/257/250 226/256/250 241/281/250 242/283/250
f 220/258/251 219/255/251 234/282/251 235/284/251
f 228/259/252 227/257/252 242/283/252 243/285/252
f 221/260/253 220/258/253 235/284/253 236/286/253
f 229/261/254 228/259/254 243/285/254 244/287/254
f 222/262/255 221/260/255 236/286/255 237/271/255
f 230/263/256 229/261/256 244/287/256 245/273/256
f 242/283/257 241/281/257 256/288/257 257/289/257
f 235/284/258 234/282/258 249/290/258 250/291/258
f 243/285/259 242/283/259 257/289/259 258/292/259
f 236/286/260 235/284/260 250/291/260 251/293/260
f 244/287/261 243/285/261 258/292/261 259/294/261
f 237/271/262 236/286/262 251/293/262 252/295/262
f 245/273/263 244/287/263 259/294/263 260/296/263
f 238/272/264 237/271/264 252/295/264 253/297/264
f 246/274/265 245/273/265 260/296/265 261/298/265
f 239/275/266 238/272/266 253/297/266 254/299/266
f 247/276/267 246/274/267 261/298/267 262/300/267
f 240/277/268 239/275/268 254/299/268 255/301/268
f 233/279/269 82/302/269 248/303/269
f 308/304/270 247/276/270 262/300/270
f 241/281/271 240/277/271 255/301/271 256/288/271
f 234/282/272 233/279/272 248/303/272 249/290/272
f 261/298/273 260/296/273 275/305/273 276/306/273
f 254/299/274 253/297/274 268/307/274 269/308/274
f 262/300/275 261/298/275 276/306/275 277/309/275
f 255/301/276 254/299/276 269/308/276 270/310/276
f 248/303/277 82/311/277 263/312/277
f 308/313/278 262/300/278 277/309/278
f 256/288/279 255/301/279 270/310/279 271/314/279
f 249/290/280 248/303/280 263/312/280 264/315/280
f 257/289/281 256/288/281 271/314/281 272/316/281
f 250/291/282 249/290/282 264/315/282 265/317/282
f 258/292/283 257/289/283 272/316/283 273/318/283
f 251/293/284 250/291/284 265/317/284 266/319/284
f 259/294/285 258/292/285 273/318/285 274/320/285
f 252/295/286 251/293/286 266/319/286 267/321/286
f 260/296/287 259/294/287 274/320/287 275/305/287
f 253/297/288 252/295/288 267/321/288 268/307/288
f 265/317/289 264/315/289 279/322/289 280/323/289
f 273/318/290 272/316/290 287/324/290 288/325/290
f 266/319/291 265/317/291 280/323/291 281/326/291
f 274/320/292 273/318/292 288/325/292 289/327/292
f 267/321/293 266/319/293 281/326/293 282/328/293
f 275/305/294 274/320/294 289/327/294 290/329/294
f 268/307/295 267/321/295 282/328/295 283/330/295
f 276/306/296 275/305/296 290/329/296 291/331/296
f 269/308/297 268/307/297 283/330/297 284/332/297
f 277/309/298 276/306/298 291/331/298 292/333/298
f 270/310/299 269/308/299 284/332/299 285/334/299
f 263/312/300 82/335/300 278/336/300
f 308/337/301 277/309/301 292/333/301
f 271/314/302 270/310/302 285/334/302 286/338/302
f 264/315/303 263/312/303 278/336/303 279/322/303
f 272/316/304 271/314/304 286/338/304 287/324/304
f 284/332/305 283/330/305 298/339/305 299/340/305
f 292/333/306 291/331/306 306/341/306 307/342/306
f 285/334/307 284/332/307 299/340/307 300/343/307
f 278/336/308 82/344/308 293/345/308
f 308/346/309 292/333/309 307/342/309
f 286/338/310 285/334/310 300/343/310 301/347/310
f 279/322/311 278/336/311 293/345/311 294/348/311
f 287/324/312 286/338/312 301/347/312 302/349/312
f 280/323/313 279/322/313 294/348/313 295/350/313
f 288/325/314 287/324/314 302/349/314 303/351/314
f 281/326/315 280/323/315 295/350/315 296/352/315
f 289/327/316 288/325/316 303/351/316 304/353/316
f 282/328/317 281/326/317 296/352/317 297/354/317
f 290/329/318 289/327/318 304/353/318 305/355/318
f 283/330/319 282/328/319 297/354/319 298/339/319
f 291/331/320 290/329/320 305/355/320 306/341/320
f 303/351/321 302/349/321 318/356/321 319/357/321
f 296/352/322 295/350/322 311/358/322 312/359/322
f 304/353/323 303/351/323 319/357/323 320/360/323
f 297/354/324 296/352/324 312/359/324 313/361/324
f 305/355/325 304/353/325 320/360/325 321/362/325
f 298/339/326 297/354/326 313/361/326 314/363/326
f 306/341/327 305/355/327 321/362/327 322/364/327
f 299/340/328 298/339/328 314/363/328 315/365/328
f 307/342/329 306/341/329 322/364/329 323/366/329
f 300/343/330 299/340/330 315/365/330 316/367/330
f 293/345/331 82/368/331 309/369/331
f 308/370/332 307/342/332 323/366/332
f 301/347/333 300/343/333 316/367/333 317/371/333
f 294/348/334 293/345/334 309/369/334 310/372/334
f 302/349/335 301/347/335 317/371/335 318/356/335
f 295/350/336 294/348/336 310/372/336 311/358/336
f 323/366/337 322/364/337 337/373/337 338/374/337
f 316/367/338 315/365/338 330/375/338 331/376/338
f 309/369/339 82/377/339 324/378/339
f 308/379/340 323/366/340 338/374/340
f 317/371/341 316/367/341 331/376/341 332/380/341
f 310/372/342 309/369/342 324/378/342 325/381/342
f 318/356/343 317/371/343 332/380/343 333/382/343
f 311/358/344 310/372/344 325/381/344 326/383/344
f 319/357/345 318/356/345 333/382/345 334/384/345
f 312/359/346 311/358/346 326/383/346 327/385/346
f 320/360/347 319/357/347 334/384/347 335/386/347
f 313/361/348 312/359/348 327/385/348 328/387/348
f 321/362/349 320/360/349 335/386/349 336/388/349
f 314/363/350 313/361/350 328/387/350 329/389/350
f 322/364/351 321/362/351 336/388/351 337/373/351
f 315/365/352 314/363/352 329/389/352 330/375/352
f 335/386/353 334/384/353 349/390/353 350/391/353
f 328/387/354 327/385/354 342/392/354 343/393/354
f 336/388/355 335/386/355 350/391/355 351/394/355
f 329/389/356 328/387/356 343/393/356 344/395/356
f 337/373/357 336/388/357 351/394/357 352/396/357
f 330/375/358 329/389/358 344/395/358 345/397/358
f 338/374/359 337/373/359 352/396/359 353/398/359
f 331/376/360 330/375/360 345/397/360 346/399/360
f 324/378/361 82/400/361 339/401/361
f 308/402/362 338/374/362 353/398/362
f 332/380/363 331/376/363 346/399/363 347/403/363
f 325/381/364 324/378/364 339/401/364 340/404/364
f 333/382/365 332/380/365 347/403/365 348/405/365
f 326/383/366 325/381/366 340/404/366 341/406/366
f 334/384/367 333/382/367 348/405/367 349/390/367
f 327/385/368 326/383/368 341/406/368 342/392/368
f 339/401/369 82/407/369 354/408/369
f 308/409/370 353/398/370 368/410/370
f 347/403/371 346/399/371 361/411/371 362/412/371
f 340/404/372 339/401/372 354/408/372 355/413/372
f 348/405/373 347/403/373 362/412/373 363/414/373
f 341/406/374 340/404/374 355/413/374 356/415/374
f 349/390/375 348/405/375 363/414/375 364/416/375
f 342/392/376 341/406/376 356/415/376 357/417/376
f 350/391/377 349/390/377 364/416/377 365/418/377
f 343/393/378 342/392/378 357/417/378 358/419/378
f 351/394/379 350/391/379 365/418/379 366/420/379
f 344/395/380 343/393/380 358/419/380 359/421/380
f 352/396/381 351/394/381 366/420/381 367/422/381
f 345/397/382 344/395/382 359/421/382 360/423/382
f 353/398/383 352/396/383 367/422/383 368/410/383
f 346/399/384 345/397/384 360/423/384 361/411/384
f 358/424/385 357/425/385 372/426/385 373/427/385
f 366/428/386 365/429/387 380/430/387 381/431/386
f 359/432/388 358/424/388 373/427/388 374/433/388
f 367/434/389 366/428/389 381/431/389 382/435/389
f 360/436/390 359/432/390 374/433/390 375/437/390
f 368/438/391 367/434/391 382/435/391 383/439/391
f 361/440/392 360/436/392 375/437/392 376/441/392
f 354/442/393 82/443/393 369/444/393
f 308/445/394 368/438/394 383/439/394
f 362/446/395 361/440/395 376/441/395 377/447/395
f 355/448/396 354/442/396 369/444/396 370/449/396
f 363/450/397 362/446/397 377/447/397 378/451/397
f 356/452/398 355/448/398 370/449/398 371/453/398
f 364/454/399 363/450/400 378/451/400 379/455/399
f 357/425/401 356/452/401 371/453/401 372/426/401
f 365/429/387 364/454/399 379/455/399 380/430/387
f 377/447/402 376/441/402 391/456/402 392/457/402
f 370/449/403 369/444/403 384/458/403 385/459/403
f 378/451/404 377/447/404 392/457/404 393/460/404
f 371/453/405 370/449/405 385/459/405 386/461/405
f 379/455/406 378/451/406 393/460/406 394/462/406
f 372/426/407 371/453/407 386/461/407 387/463/407
f 380/430/408 379/455/408 394/462/408 395/464/408
f 373/427/409 372/426/409 387/463/409 388/465/409
f 381/431/410 380/430/410 395/464/410 396/466/410
f 374/433/411 373/427/411 388/465/411 389/467/411
f 382/435/412 381/431/412 396/466/412 397/468/412
f 375/437/413 374/433/413 389/467/413 390/469/413
f 383/439/414 382/435/414 397/468/414 398/470/414
f 376/441/415 375/437/415 390/469/415 391/456/415
f 369/444/416 82/471/416 384/458/416
f 308/472/417 383/439/417 398/470/417
f 396/466/418 395/464/418 410/473/418 411/474/418
f 389/467/419 388/465/419 403/475/419 404/476/419
f 397/468/420 396/466/420 411/474/420 412/477/420
f 390/469/421 389/467/421 404/476/421 405/478/421
f 398/470/422 397/468/422 412/477/422 413/479/422
f 391/456/423 390/469/423 405/478/423 406/480/423
f 384/458/424 82/481/424 399/482/424
f 308/483/425 398/470/425 413/479/425
f 392/457/426 391/456/426 406/480/426 407/484/426
f 385/459/427 384/458/427 399/482/427 400/485/427
f 393/460/428 392/457/428 407/484/428 408/486/428
f 386/461/429 385/459/429 400/485/429 401/487/429
f 394/462/430 393/460/430 408/486/430 409/488/430
f 387/463/431 386/461/431 401/487/431 402/489/431
f 395/464/432 394/462/432 409/488/432 410/473/432
f 388/465/433 387/463/433 402/489/433 403/475/433
f 400/485/434 399/482/434 414/490/434 415/491/434
f 408/486/435 407/484/435 422/492/435 423/493/435
f 401/487/436 400/485/436 415/491/436 416/494/436
f 409/488/437 408/486/437 423/493/437 424/495/437
f 402/489/438 401/487/438 416/494/438 417/496/438
f 410/473/439 409/488/439 424/495/439 425/497/439
f 403/475/440 402/489/440 417/496/440 418/498/440
f 411/474/441 410/473/441 425/497/441 426/499/441
f 404/476/442 403/475/442 418/498/442 419/500/442
f 412/477/443 411/474/443 426/499/443 427/501/443
f 405/478/444 404/476/444 419/500/444 420/502/444
f 413/479/445 412/477/445 427/501/445 428/503/445
f 406/480/446 405/478/446 420/502/446 421/504/446
f 399/482/447 82/505/447 414/490/447
f 308/506/448 413/479/448 428/503/448
f 407/484/449 406/480/449 421/504/449 422/492/449
f 419/500/450 418/498/450 433/507/450 434/508/450
f 427/501/451 426/499/451 441/509/451 442/510/451
f 420/502/452 419/500/452 434/508/452 435/511/452
f 428/503/453 427/501/453 442/510/453 443/512/453
f 421/504/454 420/502/454 435/511/454 436/513/454
f 414/490/455 82/514/455 429/515/455
f 308/516/456 428/503/456 443/512/456
f 422/492/457 421/504/457 436/513/457 437/517/457
f 415/491/458 414/490/458 429/515/458 430/518/458
f 423/493/459 422/492/459 437/517/459 438/519/459
f 416/494/460 415/491/460 430/518/460 431/520/460
f 424/495/461 423/493/461 438/519/461 439/521/461
f 417/496/462 416/494/462 431/520/462 432/522/462
f 425/497/463 424/495/463 439/521/463 440/523/463
f 418/498/464 417/496/464 432/522/464 433/507/464
f 426/499/465 425/497/465 440/523/465 441/509/465
f 438/519/466 437/517/466 452/524/466 453/525/466
f 431/520/467 430/518/467 445/526/467 446/527/467
f 439/521/468 438/519/468 453/525/468 454/528/468
f 432/522/469 431/520/469 446/527/469 447/529/469
f 440/523/470 439/521/470 454/528/470 455/530/470
f 433/507/471 432/522/471 447/529/471 448/531/471
f 441/509/472 440/523/472 455/530/472 456/532/472
f 434/508/473 433/507/473 448/531/473 449/533/473
f 442/510/474 441/509/474 456/532/474 457/534/474
f 435/511/475 434/508/475 449/533/475 450/535/475
f 443/512/476 442/510/476 457/534/476 458/536/476
f 436/513/477 435/511/477 450/535/477 451/537/477
f 429/515/478 82/538/478 444/539/478
f 308/540/479 443/512/479 458/536/479
f 437/517/480 436/513/480 451/537/480 452/524/480
f 430/518/481 429/515/481 444/539/481 445/526/481
f 457/534/482 456/532/482 471/541/482 472/542/482
f 450/535/483 449/533/483 464/543/483 465/544/483
f 458/536/484 457/534/484 472/542/484 473/545/484
f 451/537/485 450/535/485 465/544/485 466/546/485
f 444/539/486 82/547/486 459/548/486
f 308/549/487 458/536/487 473/545/487
f 452/524/488 451/537/488 466/546/488 467/550/488
f 445/526/489 444/539/489 459/548/489 460/551/489
f 453/525/490 452/524/490 467/550/490 468/552/490
f 446/527/491 445/526/491 460/551/491 461/553/491
f 454/528/492 453/525/492 468/552/492 469/554/492
f 447/529/493 446/527/493 461/553/493 462/555/493
f 455/530/494 454/528/494 469/554/494 470/556/494
f 448/531/495 447/529/495 462/555/495 463/557/495
f 456/532/496 455/530/496 470/556/496 471/541/496
f 449/533/497 448/531/497 463/557/497 464/543/497
f 469/554/498 468/552/498 478/6/498 6/5/498
f 462/555/499 461/553/499 1/1/499 476/9/499
f 470/556/500 469/554/500 6/5/500 479/11/500
f 463/557/501 462/555/501 476/9/501 2/13/501
f 471/541/502 470/556/502 479/11/502 480/15/502
f 464/543/503 463/557/503 2/13/503 477/17/503
f 472/542/504 471/541/504 480/15/504 481/19/504
f 465/544/505 464/543/505 477/17/505 3/21/505
f 473/545/506 472/542/506 481/19/506 482/23/506
f 466/546/507 465/544/507 3/21/507 4/25/507
f 459/548/508 82/558/508 474/27/508
f 308/559/509 473/545/509 482/23/509
f 467/550/510 466/546/510 4/25/510 5/31/510
f 460/551/511 459/548/511 474/27/511 475/2/511
f 468/552/512 467/550/512 5/31/512 478/6/512
f 461/553/513 460/551/513 475/2/513 1/1/513
