# Blender 4.4.0
# www.blender.org
mtllib face.mtl
o 球
v 0.000000 0.487567 -0.320743
v 0.000000 0.325782 -0.480026
v 0.000000 0.114399 -0.566229
v 0.000000 -0.000000 -0.577322
v 0.000000 -0.114399 -0.566229
v 0.000000 -0.325782 -0.480026
v 0.020349 0.575124 -0.110466
v 0.039916 0.541756 -0.216686
v 0.057949 0.487567 -0.314580
v 0.073756 0.414642 -0.400384
v 0.086727 0.325782 -0.470802
v 0.096366 0.224402 -0.523127
v 0.102302 0.114399 -0.555349
v 0.104306 -0.000000 -0.566229
v 0.102302 -0.114399 -0.555349
v 0.096366 -0.224402 -0.523127
v 0.087007 -0.326393 -0.471393
v 0.082106 -0.438251 -0.417498
v 0.079342 -0.574998 -0.360623
v 0.045962 -0.585493 -0.234326
v 0.021131 -0.584043 -0.113546
v 0.039916 0.575124 -0.104057
v 0.078299 0.541756 -0.204114
v 0.113672 0.487567 -0.296328
v 0.144677 0.414642 -0.377154
v 0.170122 0.325782 -0.443486
v 0.189029 0.224402 -0.492775
v 0.200672 0.114399 -0.523127
v 0.204603 -0.000000 -0.533376
v 0.200672 -0.114399 -0.523127
v 0.189029 -0.224402 -0.492775
v 0.172354 -0.330122 -0.447627
v 0.187734 -0.506548 -0.436190
v 0.181653 -0.675113 -0.382278
v 0.088751 -0.600468 -0.228795
v 0.040774 -0.584221 -0.107166
v 0.057949 0.575124 -0.093649
v 0.113672 0.541756 -0.183698
v 0.165026 0.487567 -0.266688
v 0.210038 0.414642 -0.339430
v 0.246979 0.325782 -0.399127
v 0.274428 0.224402 -0.443486
v 0.291331 0.114399 -0.470802
v 0.297038 -0.000000 -0.480025
v 0.291331 -0.114399 -0.470802
v 0.274428 -0.224402 -0.443486
v 0.250155 -0.331004 -0.404349
v 0.271700 -0.528063 -0.406731
v 0.251717 -0.694654 -0.356657
v 0.125292 -0.596806 -0.206625
v 0.058712 -0.583059 -0.096348
v 0.073756 0.575124 -0.079642
v 0.144677 0.541756 -0.156222
v 0.210038 0.487567 -0.226799
v 0.267327 0.414642 -0.288661
v 0.314344 0.325782 -0.339430
v 0.349280 0.224402 -0.377154
v 0.370794 0.114399 -0.400384
v 0.378058 -0.000000 -0.408229
v 0.370794 -0.114399 -0.400384
v 0.349280 -0.224402 -0.377154
v 0.314929 -0.326561 -0.340298
v 0.293859 -0.456079 -0.317660
v 0.269983 -0.615558 -0.281638
v 0.151162 -0.572558 -0.168560
v 0.074314 -0.580804 -0.081579
v 0.086727 0.575124 -0.062574
v 0.170122 0.541756 -0.122743
v 0.246979 0.487567 -0.178195
v 0.314344 0.414642 -0.226799
v 0.369629 0.325782 -0.266688
v 0.410710 0.224402 -0.296328
v 0.436007 0.114399 -0.314580
v 0.444550 -0.000000 -0.320743
v 0.436007 -0.114399 -0.314580
v 0.410710 -0.224402 -0.296328
v 0.369629 -0.325782 -0.266688
v 0.315311 -0.415812 -0.227979
v 0.252257 -0.498967 -0.184403
v 0.171825 -0.551542 -0.126352
v 0.087062 -0.578305 -0.063686
v 0.000000 0.586392 -0.000000
v 0.096366 0.575124 -0.043102
v 0.189029 0.541756 -0.084547
v 0.274428 0.487567 -0.122743
v 0.349280 0.414642 -0.156222
v 0.410710 0.325782 -0.183698
v 0.456356 0.224402 -0.204114
v 0.484465 0.114399 -0.216686
v 0.493957 -0.000000 -0.220931
v 0.484465 -0.114399 -0.216686
v 0.456356 -0.224402 -0.204114
v 0.410710 -0.325782 -0.183698
v 0.349280 -0.414642 -0.156222
v 0.274428 -0.487567 -0.122743
v 0.189173 -0.542860 -0.084909
v 0.096515 -0.576420 -0.043586
v 0.102302 0.575124 -0.021973
v 0.200672 0.541756 -0.043102
v 0.291331 0.487567 -0.062574
v 0.370794 0.414642 -0.079642
v 0.436007 0.325782 -0.093649
v 0.484465 0.224402 -0.104057
v 0.514306 0.114399 -0.110466
v 0.524382 -0.000000 -0.112630
v 0.514306 -0.114399 -0.110466
v 0.484465 -0.224402 -0.104057
v 0.436007 -0.325782 -0.093649
v 0.370794 -0.414642 -0.079642
v 0.291331 -0.487567 -0.062574
v 0.200685 -0.541783 -0.043092
v 0.102345 -0.575487 -0.022113
v 0.104306 0.575124 -0.000000
v 0.204603 0.541756 -0.000000
v 0.297038 0.487567 -0.000000
v 0.378058 0.414642 -0.000000
v 0.444549 0.325782 -0.000000
v 0.493957 0.224402 -0.000000
v 0.524382 0.114399 -0.000000
v 0.534655 0.000000 0.000000
v 0.524382 -0.114399 0.000000
v 0.493957 -0.224402 0.000000
v 0.444549 -0.325782 0.000000
v 0.378058 -0.414642 0.000000
v 0.297738 -0.489011 0.000453
v 0.205262 -0.543128 0.000449
v 0.104306 -0.575129 -0.000002
v 0.102302 0.575124 0.021973
v 0.200672 0.541756 0.043102
v 0.291331 0.487567 0.062574
v 0.370794 0.414642 0.079642
v 0.436007 0.325782 0.093649
v 0.484465 0.224402 0.104057
v 0.514306 0.114399 0.110466
v 0.524382 0.000000 0.112630
v 0.514306 -0.114399 0.110466
v 0.484465 -0.224402 0.104057
v 0.436046 -0.325825 0.093677
v 0.374330 -0.419977 0.082206
v 0.301780 -0.512204 0.067543
v 0.203711 -0.548378 0.045117
v 0.102326 -0.575175 0.021990
v 0.096366 0.575124 0.043102
v 0.189029 0.541756 0.084547
v 0.274428 0.487567 0.122743
v 0.349280 0.414642 0.156222
v 0.410710 0.325782 0.183698
v 0.456356 0.224402 0.204114
v 0.484465 0.114399 0.216686
v 0.493957 0.000000 0.220931
v 0.484465 -0.114399 0.216686
v 0.456356 -0.224402 0.204114
v 0.418935 -0.334989 0.190406
v 0.417625 -0.509776 0.205748
v 0.315050 -0.598253 0.147094
v 0.195562 -0.557194 0.088733
v 0.096456 -0.575312 0.043164
v 0.086727 0.575124 0.062574
v 0.170122 0.541756 0.122743
v 0.246979 0.487567 0.178195
v 0.314344 0.414642 0.226799
v 0.369629 0.325782 0.266688
v 0.410710 0.224402 0.296328
v 0.436007 0.114399 0.314580
v 0.444549 0.000000 0.320743
v 0.436007 -0.114399 0.314580
v 0.410910 -0.224622 0.296476
v 0.396283 -0.355468 0.289436
v 0.506288 -0.606013 0.374307
v 0.306967 -0.670150 0.236413
v 0.178303 -0.561840 0.128180
v 0.086844 -0.575369 0.062655
v 0.073756 0.575124 0.079642
v 0.144677 0.541756 0.156222
v 0.210038 0.487567 0.226799
v 0.267327 0.414642 0.288661
v 0.314344 0.325782 0.339430
v 0.349280 0.224402 0.377154
v 0.370794 0.114399 0.400384
v 0.378058 0.000000 0.408229
v 0.370794 -0.114399 0.400384
v 0.349281 -0.224403 0.377155
v 0.330271 -0.343758 0.353251
v 0.384207 -0.557361 0.424894
v 0.250800 -0.619895 0.278978
v 0.150760 -0.556129 0.160320
v 0.073834 -0.575288 0.079695
v 0.057949 0.575124 0.093649
v 0.113671 0.541756 0.183698
v 0.165026 0.487567 0.266688
v 0.210038 0.414642 0.339430
v 0.246979 0.325782 0.399127
v 0.274428 0.224402 0.443486
v 0.291331 0.114399 0.470802
v 0.297038 0.000000 0.480025
v 0.291331 -0.114399 0.470802
v 0.274428 -0.224402 0.443486
v 0.247604 -0.326509 0.399689
v 0.220583 -0.428230 0.348552
v 0.175443 -0.511433 0.275044
v 0.116100 -0.547073 0.185338
v 0.057963 -0.575154 0.093658
v 0.039916 0.575124 0.104056
v 0.078299 0.541756 0.204114
v 0.113671 0.487567 0.296328
v 0.144677 0.414642 0.377154
v 0.170121 0.325782 0.443486
v 0.189029 0.224402 0.492775
v 0.200672 0.114399 0.523127
v 0.204603 0.000000 0.533376
v 0.200672 -0.114399 0.523127
v 0.189029 -0.224402 0.492775
v 0.170121 -0.325782 0.443486
v 0.144677 -0.414642 0.377154
v 0.113990 -0.488189 0.296561
v 0.078727 -0.542655 0.204411
v 0.039916 -0.575124 0.104057
v 0.020349 0.575124 0.110466
v 0.039916 0.541756 0.216686
v 0.057949 0.487567 0.314580
v 0.073756 0.414642 0.400384
v 0.086727 0.325782 0.470802
v 0.096366 0.224402 0.523127
v 0.102302 0.114399 0.555349
v 0.104306 0.000000 0.566229
v 0.102302 -0.114399 0.555349
v 0.096366 -0.224402 0.523127
v 0.086727 -0.325782 0.470802
v 0.073756 -0.414642 0.400384
v 0.057949 -0.487567 0.314580
v 0.039916 -0.541756 0.216686
v 0.020349 -0.575124 0.110466
v 0.000000 0.575124 0.112630
v 0.000000 0.541756 0.220931
v 0.000000 0.487567 0.320743
v 0.000000 0.414642 0.408228
v 0.000000 0.325782 0.480025
v 0.000000 0.224402 0.533376
v 0.000000 0.114399 0.566229
v 0.000000 0.000000 0.577322
v 0.000000 -0.114399 0.566229
v 0.000000 -0.224402 0.533376
v 0.000000 -0.325782 0.480025
v 0.000000 -0.414642 0.408229
v -0.000358 -0.488794 0.321422
v -0.000153 -0.542249 0.221209
v 0.000000 -0.575124 0.112630
v -0.020349 0.575124 0.110466
v -0.039916 0.541756 0.216686
v -0.057949 0.487567 0.314580
v -0.073756 0.414642 0.400384
v -0.086727 0.325782 0.470802
v -0.096366 0.224402 0.523127
v -0.102302 0.114399 0.555349
v -0.104306 0.000000 0.566229
v -0.102302 -0.114399 0.555349
v -0.096366 -0.224402 0.523127
v -0.086727 -0.325782 0.470802
v -0.074962 -0.418363 0.402529
v -0.061324 -0.499276 0.320697
v -0.040786 -0.544708 0.218311
v -0.020349 -0.575124 0.110466
v -0.039916 0.575124 0.104056
v -0.078299 0.541756 0.204114
v -0.113672 0.487567 0.296328
v -0.144677 0.414642 0.377154
v -0.170122 0.325782 0.443486
v -0.189029 0.224402 0.492775
v -0.200672 0.114399 0.523127
v -0.204603 0.000000 0.533376
v -0.200672 -0.114399 0.523127
v -0.189029 -0.224402 0.492775
v -0.172897 -0.329814 0.446928
v -0.174949 -0.472855 0.416470
v -0.129736 -0.536157 0.321314
v -0.080215 -0.548478 0.207600
v -0.039916 -0.575124 0.104057
v -0.057949 0.575124 0.093649
v -0.113672 0.541756 0.183698
v -0.165026 0.487567 0.266688
v -0.210038 0.414642 0.339430
v -0.246979 0.325782 0.399126
v -0.274428 0.224402 0.443486
v -0.291331 0.114399 0.470802
v -0.297038 0.000000 0.480025
v -0.291331 -0.114399 0.470802
v -0.274608 -0.224622 0.443692
v -0.288569 -0.372727 0.437864
v -0.331224 -0.618143 0.499942
v -0.201644 -0.578460 0.317134
v -0.116269 -0.551086 0.188182
v -0.057949 -0.575124 0.093649
v -0.073756 0.575124 0.079642
v -0.144677 0.541756 0.156222
v -0.210038 0.487567 0.226799
v -0.267327 0.414642 0.288661
v -0.314344 0.325782 0.339429
v -0.349280 0.224402 0.377154
v -0.370794 0.114399 0.400384
v -0.378058 0.000000 0.408228
v -0.370794 -0.114399 0.400384
v -0.349606 -0.224828 0.377529
v -0.365749 -0.380561 0.383110
v -0.395309 -0.606042 0.435258
v -0.247551 -0.571392 0.273905
v -0.146570 -0.548551 0.159400
v -0.073756 -0.575124 0.079642
v 0.000000 -0.586392 0.000000
v -0.086727 0.575124 0.062574
v -0.170122 0.541756 0.122743
v -0.246979 0.487567 0.178195
v -0.314344 0.414642 0.226799
v -0.369629 0.325782 0.266688
v -0.410710 0.224402 0.296328
v -0.436007 0.114399 0.314580
v -0.444549 0.000000 0.320742
v -0.436007 -0.114399 0.314580
v -0.410710 -0.224402 0.296328
v -0.376296 -0.332942 0.272572
v -0.354356 -0.465739 0.263175
v -0.257812 -0.514439 0.192109
v -0.170673 -0.543708 0.123688
v -0.086727 -0.575124 0.062574
v -0.096366 0.575124 0.043102
v -0.189029 0.541756 0.084547
v -0.274428 0.487567 0.122743
v -0.349280 0.414642 0.156222
v -0.410710 0.325782 0.183698
v -0.456356 0.224402 0.204114
v -0.484465 0.114399 0.216686
v -0.493957 0.000000 0.220931
v -0.484465 -0.114399 0.216686
v -0.456356 -0.224402 0.204114
v -0.410710 -0.325782 0.183698
v -0.349456 -0.414915 0.156431
v -0.274588 -0.488033 0.122933
v -0.189042 -0.541797 0.084570
v -0.096366 -0.575124 0.043102
v -0.102302 0.575124 0.021973
v -0.200672 0.541756 0.043102
v -0.291331 0.487567 0.062574
v -0.370794 0.414642 0.079642
v -0.436007 0.325782 0.093648
v -0.484465 0.224402 0.104057
v -0.514305 0.114399 0.110465
v -0.524381 0.000000 0.112630
v -0.514305 -0.114399 0.110465
v -0.484465 -0.224402 0.104057
v -0.436007 -0.325782 0.093648
v -0.370794 -0.414642 0.079642
v -0.291331 -0.487567 0.062574
v -0.200672 -0.541756 0.043102
v -0.102302 -0.575124 0.021973
v -0.104306 0.575124 -0.000000
v -0.204603 0.541756 -0.000000
v -0.297038 0.487567 -0.000000
v -0.378058 0.414642 -0.000000
v -0.444549 0.325782 -0.000000
v -0.493957 0.224402 -0.000000
v -0.524382 0.114399 -0.000000
v -0.534654 0.000000 0.000000
v -0.524382 -0.114399 0.000000
v -0.493957 -0.224402 0.000000
v -0.444549 -0.325782 0.000000
v -0.378058 -0.414642 0.000000
v -0.297038 -0.487567 0.000000
v -0.204603 -0.541756 0.000000
v -0.104306 -0.575124 0.000000
v -0.102302 0.575124 -0.021973
v -0.200672 0.541756 -0.043102
v -0.291331 0.487567 -0.062574
v -0.370794 0.414642 -0.079642
v -0.436007 0.325782 -0.093649
v -0.484465 0.224402 -0.104057
v -0.514305 0.114399 -0.110466
v -0.524381 -0.000000 -0.112630
v -0.514305 -0.114399 -0.110466
v -0.484465 -0.224402 -0.104057
v -0.436007 -0.325782 -0.093649
v -0.370794 -0.414642 -0.079642
v -0.291331 -0.487567 -0.062574
v -0.200697 -0.541859 -0.043135
v -0.102306 -0.575144 -0.021979
v -0.096366 0.575124 -0.043102
v -0.189029 0.541756 -0.084547
v -0.274427 0.487567 -0.122743
v -0.349280 0.414642 -0.156222
v -0.410710 0.325782 -0.183698
v -0.456356 0.224402 -0.204114
v -0.484465 0.114399 -0.216686
v -0.493956 -0.000000 -0.220931
v -0.484465 -0.114399 -0.216686
v -0.456356 -0.224402 -0.204114
v -0.410710 -0.325782 -0.183698
v -0.349280 -0.414642 -0.156222
v -0.274465 -0.487716 -0.122798
v -0.189479 -0.543594 -0.085178
v -0.096458 -0.575510 -0.043226
v -0.086727 0.575124 -0.062574
v -0.170121 0.541756 -0.122743
v -0.246978 0.487567 -0.178195
v -0.314344 0.414642 -0.226799
v -0.369629 0.325782 -0.266688
v -0.410710 0.224402 -0.296328
v -0.436007 0.114399 -0.314580
v -0.444548 -0.000000 -0.320743
v -0.436007 -0.114399 -0.314580
v -0.410710 -0.224402 -0.296328
v -0.369629 -0.325782 -0.266688
v -0.314787 -0.415575 -0.227435
v -0.250829 -0.499136 -0.183794
v -0.172115 -0.549018 -0.125652
v -0.086966 -0.576129 -0.062897
v -0.073756 0.575124 -0.079642
v -0.144677 0.541756 -0.156222
v -0.210038 0.487567 -0.226799
v -0.267327 0.414642 -0.288661
v -0.314343 0.325782 -0.339430
v -0.349280 0.224402 -0.377154
v -0.370793 0.114399 -0.400384
v -0.378058 -0.000000 -0.408228
v -0.370793 -0.114399 -0.400384
v -0.349280 -0.224402 -0.377154
v -0.314747 -0.326449 -0.340130
v -0.284595 -0.448885 -0.314796
v -0.243298 -0.575694 -0.264393
v -0.149699 -0.559485 -0.163873
v -0.074107 -0.576930 -0.080237
v -0.057949 0.575124 -0.093649
v -0.113671 0.541756 -0.183698
v -0.165026 0.487567 -0.266688
v -0.210038 0.414642 -0.339430
v -0.246978 0.325782 -0.399126
v -0.274428 0.224402 -0.443486
v -0.291331 0.114399 -0.470802
v -0.297038 -0.000000 -0.480025
v -0.291331 -0.114399 -0.470802
v -0.274428 -0.224402 -0.443486
v -0.250674 -0.332863 -0.406629
v -0.261188 -0.544606 -0.451029
v -0.213485 -0.676186 -0.367472
v -0.121126 -0.570075 -0.196270
v -0.058289 -0.577992 -0.094637
v -0.039916 0.575124 -0.104057
v -0.078298 0.541756 -0.204114
v -0.113671 0.487567 -0.296327
v -0.144677 0.414642 -0.377154
v -0.170121 0.325782 -0.443486
v -0.189029 0.224402 -0.492775
v -0.200672 0.114399 -0.523127
v -0.204603 -0.000000 -0.533376
v -0.200672 -0.114399 -0.523127
v -0.189029 -0.224402 -0.492775
v -0.174328 -0.334402 -0.453051
v -0.187157 -0.550591 -0.504586
v -0.153281 -0.677235 -0.411881
v -0.084837 -0.572435 -0.217538
v -0.040083 -0.579383 -0.105581
v -0.020349 0.575124 -0.110466
v -0.039916 0.541756 -0.216686
v -0.057949 0.487567 -0.314580
v -0.073756 0.414642 -0.400384
v -0.086727 0.325782 -0.470802
v -0.096366 0.224402 -0.523127
v -0.102301 0.114399 -0.555349
v -0.104306 -0.000000 -0.566228
v -0.102301 -0.114399 -0.555349
v -0.096366 -0.224402 -0.523127
v -0.087508 -0.327618 -0.472615
v -0.089183 -0.462517 -0.448855
v -0.077129 -0.589698 -0.378677
v -0.042606 -0.567237 -0.226827
v -0.020195 -0.581208 -0.112635
v 0.000000 0.575124 -0.112630
v 0.000000 0.541756 -0.220931
v 0.000000 0.414642 -0.408229
v 0.000000 0.224402 -0.533376
v 0.000000 -0.224402 -0.533376
v -0.000230 -0.416927 -0.410175
v 0.000868 -0.514302 -0.334153
v 0.001838 -0.570161 -0.231542
v 0.000515 -0.582949 -0.115375
vn 0.1053 -0.0960 -0.9898
vn 0.0313 0.9552 -0.2943
vn 0.1014 -0.2847 -0.9532
vn 0.0507 0.8777 -0.4765
vn 0.0894 -0.4605 -0.8832
vn 0.0679 0.7664 -0.6388
vn -0.0606 -0.5184 -0.8530
vn 0.0824 0.6263 -0.7752
vn -0.3978 -0.4508 -0.7991
vn 0.0937 0.4636 -0.8811
vn -0.5534 -0.7757 -0.3032
vn 0.1014 0.2847 -0.9532
vn -0.2463 -0.9664 -0.0734
vn 0.1053 0.0960 -0.9898
vn 0.0106 0.9950 -0.0995
vn -0.0503 -0.9983 -0.0300
vn 0.3099 0.0954 -0.9460
vn 0.0313 0.9949 -0.0957
vn -0.0022 -0.9998 -0.0211
vn 0.3099 -0.0954 -0.9460
vn 0.0926 0.9547 -0.2828
vn 0.2986 -0.2831 -0.9114
vn 0.1499 0.8765 -0.4576
vn 0.2536 -0.4348 -0.8641
vn 0.2007 0.7644 -0.6127
vn -0.0581 -0.2227 -0.9732
vn 0.2432 0.6240 -0.7426
vn -0.4104 -0.3005 -0.8609
vn 0.2762 0.4614 -0.8431
vn -0.6251 -0.7734 -0.1048
vn 0.2986 0.2831 -0.9114
vn -0.2359 -0.9718 0.0001
vn 0.4122 0.0187 -0.9109
vn 0.3923 0.6197 -0.6797
vn 0.2477 -0.3046 -0.9197
vn 0.4445 0.4574 -0.7702
vn -0.2767 -0.9076 0.3158
vn 0.4799 0.2802 -0.8314
vn 0.0078 -0.9912 0.1321
vn 0.4977 0.0943 -0.8622
vn 0.0509 0.9948 -0.0882
vn 0.0625 -0.9980 0.0036
vn 0.4977 -0.0943 -0.8622
vn 0.1503 0.9537 -0.2604
vn 0.4799 -0.2802 -0.8314
vn 0.2427 0.8742 -0.4206
vn 0.4498 -0.4031 -0.7969
vn 0.3244 0.7608 -0.5620
vn 0.0685 0.9947 -0.0773
vn 0.1117 -0.9932 0.0337
vn 0.6603 -0.0930 -0.7452
vn 0.2020 0.9525 -0.2280
vn 0.6374 -0.2765 -0.7192
vn 0.3256 0.8712 -0.3674
vn 0.6277 -0.4158 -0.6581
vn 0.4339 0.7563 -0.4897
vn 0.8753 -0.0287 -0.4827
vn 0.5233 0.6143 -0.5906
vn 0.9827 -0.1578 -0.0969
vn 0.5915 0.4522 -0.6675
vn 0.2179 -0.7613 0.6107
vn 0.6374 0.2765 -0.7192
vn 0.2905 -0.9271 0.2371
vn 0.6603 0.0930 -0.7452
vn 0.6317 0.6086 -0.4801
vn 0.9406 -0.2691 0.2070
vn 0.7122 0.4469 -0.5413
vn 0.5342 -0.6073 0.5880
vn 0.7660 0.2727 -0.5822
vn 0.3521 -0.9213 0.1647
vn 0.7928 0.0917 -0.6025
vn 0.0834 0.9945 -0.0634
vn 0.1231 -0.9915 0.0424
vn 0.1270 -0.9907 0.0479
vn 0.1194 -0.9922 0.0370
vn 0.7928 -0.0917 -0.6025
vn 0.2458 0.9511 -0.1868
vn 0.7660 -0.2727 -0.5822
vn 0.3953 0.8680 -0.3004
vn 0.7181 -0.4418 -0.5377
vn 0.5253 0.7514 -0.3993
vn 0.8697 -0.3849 -0.3088
vn 0.8925 -0.0904 -0.4418
vn 0.2801 0.9499 -0.1386
vn 0.8631 -0.2694 -0.4272
vn 0.4495 0.8652 -0.2225
vn 0.8039 -0.4421 -0.3979
vn 0.5958 0.7470 -0.2949
vn 0.7239 -0.5966 -0.3466
vn 0.7147 0.6034 -0.3538
vn 0.6755 -0.7044 -0.2179
vn 0.8039 0.4421 -0.3979
vn 0.5297 -0.8473 -0.0380
vn 0.8631 0.2694 -0.4272
vn 0.3312 -0.9434 0.0178
vn 0.8925 0.0904 -0.4418
vn 0.0952 0.9943 -0.0471
vn 0.1192 -0.9922 0.0370
vn 0.6436 -0.7437 -0.1808
vn 0.8652 0.4385 -0.2431
vn 0.4936 -0.8601 -0.1284
vn 0.9278 0.2669 -0.2607
vn 0.3153 -0.9473 -0.0563
vn 0.3119 -0.9488 -0.0506
vn 0.3119 -0.9487 -0.0507
vn 0.9589 0.0895 -0.2694
vn 0.1033 0.9942 -0.0290
vn 0.1079 -0.9941 0.0093
vn 0.1089 -0.9940 0.0136
vn 0.1081 -0.9941 0.0101
vn 0.9589 -0.0895 -0.2694
vn 0.3036 0.9490 -0.0853
vn 0.9278 -0.2669 -0.2607
vn 0.4865 0.8630 -0.1367
vn 0.8652 -0.4385 -0.2431
vn 0.6436 0.7437 -0.1808
vn 0.7705 -0.5996 -0.2165
vn 0.7705 0.5996 -0.2165
vn 0.9601 -0.2656 -0.0876
vn 0.5052 0.8618 -0.0461
vn 0.8959 -0.4366 -0.0817
vn 0.6678 0.7419 -0.0609
vn 0.7985 -0.5975 -0.0728
vn 0.7985 0.5975 -0.0728
vn 0.6718 -0.7373 -0.0718
vn 0.8959 0.4366 -0.0817
vn 0.5019 -0.8617 -0.0743
vn 0.9601 0.2656 -0.0876
vn 0.3086 -0.9501 -0.0450
vn 0.9919 0.0891 -0.0905
vn 0.1074 0.9942 -0.0098
vn 0.1074 -0.9942 0.0071
vn 0.9919 -0.0891 -0.0905
vn 0.3156 0.9485 -0.0288
vn 0.4387 -0.8685 -0.2308
vn 0.9601 0.2656 0.0876
vn 0.2851 -0.9566 -0.0609
vn 0.9919 0.0891 0.0905
vn 0.1074 0.9942 0.0098
vn 0.1074 -0.9942 0.0076
vn 0.9919 -0.0891 0.0905
vn 0.3156 0.9485 0.0288
vn 0.9601 -0.2656 0.0876
vn 0.5052 0.8618 0.0461
vn 0.8961 -0.4364 0.0814
vn 0.6678 0.7419 0.0609
vn 0.8172 -0.5750 0.0393
vn 0.7985 0.5975 0.0728
vn 0.7361 -0.6645 -0.1285
vn 0.8959 0.4366 0.0817
vn 0.4865 0.8630 0.1367
vn 0.9025 -0.3869 0.1894
vn 0.6436 0.7437 0.1808
vn 0.9503 -0.2258 -0.2144
vn 0.7705 0.5996 0.2165
vn 0.6925 -0.4387 -0.5727
vn 0.8652 0.4385 0.2431
vn 0.2064 -0.7710 -0.6024
vn 0.9278 0.2669 0.2607
vn 0.2441 -0.9664 -0.0807
vn 0.9589 0.0895 0.2694
vn 0.1033 0.9942 0.0290
vn 0.1042 -0.9943 0.0224
vn 0.9589 -0.0895 0.2694
vn 0.3036 0.9490 0.0853
vn 0.9278 -0.2669 0.2607
vn 0.8631 0.2694 0.4272
vn 0.1656 -0.9862 -0.0032
vn 0.8925 0.0904 0.4418
vn 0.0952 0.9943 0.0471
vn 0.0946 -0.9945 0.0438
vn 0.8925 -0.0904 0.4418
vn 0.2801 0.9499 0.1386
vn 0.8640 -0.2681 0.4261
vn 0.4495 0.8652 0.2225
vn 0.9253 -0.2257 0.3048
vn 0.5958 0.7470 0.2949
vn 0.9662 0.2126 -0.1456
vn 0.7147 0.6034 0.3538
vn 0.6335 -0.5426 -0.5517
vn 0.8039 0.4421 0.3979
vn -0.1499 -0.8366 -0.5268
vn 0.7299 -0.1797 0.6596
vn 0.5253 0.7514 0.3993
vn 0.5657 0.4359 0.7000
vn 0.6317 0.6086 0.4801
vn -0.1627 -0.8158 0.5549
vn 0.7122 0.4469 0.5413
vn -0.5776 -0.8155 -0.0363
vn 0.7660 0.2727 0.5822
vn 0.0528 -0.9858 0.1596
vn 0.7928 0.0917 0.6025
vn 0.0834 0.9945 0.0634
vn 0.0792 -0.9947 0.0652
vn 0.7928 -0.0917 0.6025
vn 0.2458 0.9511 0.1868
vn 0.7654 -0.2715 0.5835
vn 0.3953 0.8680 0.3004
vn 0.0179 -0.9677 0.2513
vn 0.6603 0.0930 0.7452
vn 0.0685 0.9947 0.0773
vn 0.0625 -0.9948 0.0807
vn 0.6603 -0.0930 0.7452
vn 0.2020 0.9525 0.2280
vn 0.6374 -0.2765 0.7192
vn 0.3256 0.8712 0.3674
vn 0.5207 -0.3463 0.7803
vn 0.4339 0.7563 0.4897
vn -0.0867 0.0573 0.9946
vn 0.5233 0.6143 0.5906
vn -0.5954 -0.3554 0.7205
vn 0.5915 0.4522 0.6675
vn -0.6341 -0.6646 0.3953
vn 0.6374 0.2765 0.7192
vn 0.3244 0.7608 0.5620
vn 0.3106 -0.5593 0.7686
vn 0.3923 0.6197 0.6797
vn 0.0624 -0.7149 0.6965
vn 0.4445 0.4574 0.7702
vn -0.0556 -0.8829 0.4663
vn 0.4799 0.2802 0.8314
vn 0.0662 -0.9607 0.2695
vn 0.4977 0.0943 0.8622
vn 0.0509 0.9948 0.0882
vn 0.0495 -0.9948 0.0887
vn 0.4977 -0.0943 0.8622
vn 0.1503 0.9537 0.2604
vn 0.4799 -0.2802 0.8314
vn 0.2427 0.8742 0.4206
vn 0.4407 -0.4534 0.7747
vn 0.3099 0.0954 0.9460
vn 0.0313 0.9949 0.0957
vn 0.0313 -0.9949 0.0957
vn 0.3099 -0.0954 0.9460
vn 0.0926 0.9547 0.2828
vn 0.2985 -0.2831 0.9114
vn 0.1499 0.8765 0.4576
vn 0.2762 -0.4614 0.8431
vn 0.2007 0.7644 0.6127
vn 0.2432 -0.6240 0.7426
vn 0.2432 0.6240 0.7426
vn 0.1965 -0.7626 0.6163
vn 0.2762 0.4614 0.8431
vn 0.1339 -0.8760 0.4633
vn 0.2985 0.2831 0.9114
vn 0.0759 -0.9560 0.2832
vn 0.0824 -0.6263 0.7752
vn 0.0824 0.6263 0.7752
vn 0.0785 -0.7624 0.6423
vn 0.0937 0.4636 0.8811
vn 0.0698 -0.8791 0.4714
vn 0.1014 0.2847 0.9532
vn 0.0400 -0.9558 0.2912
vn 0.1053 0.0960 0.9898
vn 0.0106 0.9950 0.0995
vn 0.0106 -0.9950 0.0995
vn 0.1053 -0.0960 0.9898
vn 0.0313 0.9552 0.2943
vn 0.1014 -0.2847 0.9532
vn 0.0507 0.8777 0.4765
vn 0.0937 -0.4636 0.8811
vn 0.0679 0.7664 0.6388
vn -0.0106 -0.9950 0.0995
vn -0.1053 -0.0960 0.9898
vn -0.0313 0.9552 0.2943
vn -0.1014 -0.2847 0.9532
vn -0.0507 0.8777 0.4765
vn -0.0937 -0.4636 0.8811
vn -0.0679 0.7664 0.6388
vn -0.0587 -0.6124 0.7884
vn -0.0824 0.6263 0.7752
vn 0.0446 -0.7336 0.6781
vn -0.0937 0.4636 0.8811
vn 0.0976 -0.8904 0.4446
vn -0.1014 0.2847 0.9532
vn 0.0153 -0.9593 0.2820
vn -0.1053 0.0960 0.9898
vn -0.0106 0.9950 0.0995
vn 0.4034 -0.6391 0.6549
vn -0.2762 0.4614 0.8431
vn 0.3044 -0.8910 0.3368
vn -0.2985 0.2831 0.9114
vn -0.0129 -0.9663 0.2571
vn -0.3099 0.0954 0.9460
vn -0.0313 0.9949 0.0957
vn -0.0313 -0.9949 0.0957
vn -0.3099 -0.0954 0.9460
vn -0.0926 0.9547 0.2828
vn -0.2985 -0.2831 0.9114
vn -0.1499 0.8765 0.4576
vn -0.2514 -0.4405 0.8618
vn -0.2007 0.7644 0.6127
vn 0.0713 -0.3830 0.9210
vn -0.2432 0.6240 0.7426
vn -0.1503 0.9537 0.2604
vn -0.4787 -0.2789 0.8325
vn -0.2427 0.8742 0.4206
vn -0.2332 -0.1961 0.9525
vn -0.3244 0.7608 0.5620
vn 0.2294 0.0527 0.9719
vn -0.3923 0.6197 0.6797
vn 0.6535 -0.5997 0.4619
vn -0.4445 0.4574 0.7702
vn 0.3542 -0.9247 0.1395
vn -0.4799 0.2802 0.8314
vn -0.0710 -0.9743 0.2139
vn -0.4977 0.0943 0.8622
vn -0.0509 0.9948 0.0882
vn -0.0509 -0.9948 0.0882
vn -0.4977 -0.0943 0.8622
vn -0.5915 0.4522 0.6675
vn 0.0393 -0.9842 -0.1729
vn -0.6374 0.2765 0.7192
vn -0.1858 -0.9722 0.1426
vn -0.6604 0.0930 0.7452
vn -0.0685 0.9947 0.0773
vn -0.0685 -0.9947 0.0773
vn -0.6604 -0.0930 0.7452
vn -0.2020 0.9525 0.2280
vn -0.6371 -0.2727 0.7209
vn -0.3256 0.8712 0.3674
vn -0.6229 0.0611 0.7799
vn -0.4339 0.7563 0.4897
vn -0.6162 0.2736 0.7386
vn -0.5233 0.6143 0.5906
vn 0.0206 -0.9806 -0.1952
vn -0.7682 -0.2702 0.5804
vn -0.3953 0.8680 0.3004
vn -0.9401 -0.0876 0.3294
vn -0.5253 0.7514 0.3993
vn -0.9948 0.0091 -0.1010
vn -0.6317 0.6086 0.4801
vn -0.5588 -0.6208 -0.5499
vn -0.7122 0.4469 0.5413
vn -0.3667 -0.8633 -0.3468
vn -0.7660 0.2727 0.5822
vn -0.2659 -0.9589 0.0988
vn -0.7928 0.0917 0.6025
vn -0.0834 0.9945 0.0634
vn -0.0834 -0.9945 0.0634
vn -0.7928 -0.0917 0.6025
vn -0.2458 0.9511 0.1868
vn -0.4704 -0.8791 -0.0772
vn -0.8631 0.2694 0.4272
vn -0.2872 -0.9519 0.1063
vn -0.8925 0.0904 0.4418
vn -0.0952 0.9943 0.0471
vn -0.0952 -0.9943 0.0471
vn -0.8925 -0.0904 0.4418
vn -0.2801 0.9499 0.1386
vn -0.8631 -0.2694 0.4272
vn -0.4495 0.8652 0.2225
vn -0.8449 -0.3975 0.3578
vn -0.5958 0.7470 0.2949
vn -0.9338 -0.3559 0.0354
vn -0.7147 0.6034 0.3538
vn -0.6605 -0.7029 -0.2640
vn -0.8039 0.4421 0.3979
vn -0.4865 0.8630 0.1367
vn -0.8652 -0.4385 0.2431
vn -0.6436 0.7437 0.1808
vn -0.7720 -0.5983 0.2148
vn -0.7705 0.5996 0.2165
vn -0.6458 -0.7431 0.1753
vn -0.8652 0.4385 0.2431
vn -0.4862 -0.8639 0.1312
vn -0.9278 0.2669 0.2606
vn -0.3036 -0.9490 0.0846
vn -0.9589 0.0895 0.2694
vn -0.1033 0.9942 0.0290
vn -0.1033 -0.9942 0.0290
vn -0.9589 -0.0895 0.2694
vn -0.3036 0.9490 0.0853
vn -0.9278 -0.2669 0.2606
vn -0.9601 0.2656 0.0876
vn -0.3156 -0.9485 0.0288
vn -0.9919 0.0891 0.0905
vn -0.1074 0.9942 0.0098
vn -0.1074 -0.9942 0.0098
vn -0.9919 -0.0891 0.0905
vn -0.3156 0.9485 0.0288
vn -0.9601 -0.2656 0.0876
vn -0.5052 0.8618 0.0461
vn -0.8959 -0.4366 0.0817
vn -0.6678 0.7419 0.0609
vn -0.7985 -0.5975 0.0728
vn -0.7985 0.5975 0.0728
vn -0.6678 -0.7419 0.0609
vn -0.8959 0.4366 0.0817
vn -0.5052 -0.8618 0.0461
vn -0.8959 -0.4366 -0.0817
vn -0.6678 0.7419 -0.0609
vn -0.7985 -0.5975 -0.0728
vn -0.7985 0.5975 -0.0728
vn -0.6678 -0.7419 -0.0609
vn -0.8959 0.4366 -0.0817
vn -0.5057 -0.8615 -0.0452
vn -0.9601 0.2656 -0.0876
vn -0.3154 -0.9486 -0.0268
vn -0.9919 0.0891 -0.0905
vn -0.1074 0.9942 -0.0098
vn -0.1060 -0.9943 -0.0133
vn -0.1074 -0.9942 -0.0089
vn -0.1070 -0.9942 -0.0106
vn -0.9919 -0.0891 -0.0905
vn -0.3156 0.9485 -0.0288
vn -0.9601 -0.2656 -0.0876
vn -0.5052 0.8618 -0.0461
vn -0.3068 -0.9504 -0.0512
vn -0.9589 0.0895 -0.2694
vn -0.1033 0.9942 -0.0290
vn -0.1052 -0.9943 -0.0155
vn -0.9589 -0.0895 -0.2694
vn -0.3036 0.9490 -0.0853
vn -0.9278 -0.2669 -0.2606
vn -0.4865 0.8630 -0.1367
vn -0.8652 -0.4385 -0.2431
vn -0.6436 0.7437 -0.1808
vn -0.7705 -0.5996 -0.2165
vn -0.7705 0.5996 -0.2165
vn -0.6444 -0.7432 -0.1800
vn -0.8652 0.4385 -0.2431
vn -0.4989 -0.8581 -0.1212
vn -0.9278 0.2669 -0.2606
vn -0.7203 -0.5993 -0.3494
vn -0.7147 0.6034 -0.3538
vn -0.6701 -0.7062 -0.2286
vn -0.8039 0.4421 -0.3979
vn -0.5141 -0.8552 -0.0658
vn -0.8631 0.2694 -0.4272
vn -0.2952 -0.9548 -0.0359
vn -0.8925 0.0904 -0.4418
vn -0.0952 0.9943 -0.0471
vn -0.1038 -0.9944 -0.0188
vn -0.8925 -0.0904 -0.4418
vn -0.2801 0.9499 -0.1386
vn -0.8631 -0.2694 -0.4272
vn -0.4495 0.8652 -0.2225
vn -0.8039 -0.4421 -0.3979
vn -0.5958 0.7470 -0.2949
vn -0.0834 0.9945 -0.0634
vn -0.0951 -0.9950 -0.0290
vn -0.0981 -0.9948 -0.0267
vn -0.0962 -0.9950 -0.0285
vn -0.7928 -0.0917 -0.6026
vn -0.2458 0.9511 -0.1868
vn -0.7660 -0.2727 -0.5822
vn -0.3953 0.8680 -0.3004
vn -0.7168 -0.4429 -0.5385
vn -0.5253 0.7514 -0.3993
vn -0.8297 -0.4377 -0.3465
vn -0.6317 0.6086 -0.4801
vn -0.9045 -0.4204 0.0719
vn -0.7122 0.4469 -0.5413
vn -0.5253 -0.7441 0.4126
vn -0.7660 0.2727 -0.5822
vn -0.2809 -0.9596 0.0163
vn -0.7928 0.0917 -0.6026
vn -0.5233 0.6143 -0.5906
vn -0.9509 -0.3068 0.0401
vn -0.5915 0.4522 -0.6675
vn -0.2647 -0.7985 0.5406
vn -0.6374 0.2765 -0.7192
vn -0.2218 -0.9746 0.0323
vn -0.6604 0.0930 -0.7452
vn -0.0685 0.9947 -0.0773
vn -0.0955 -0.9950 -0.0304
vn -0.6604 -0.0930 -0.7452
vn -0.2020 0.9525 -0.2280
vn -0.6374 -0.2765 -0.7192
vn -0.3256 0.8712 -0.3674
vn -0.6413 -0.4061 -0.6511
vn -0.4339 0.7563 -0.4897
vn -0.9235 -0.0325 -0.3822
vn -0.4977 -0.0943 -0.8622
vn -0.1503 0.9537 -0.2604
vn -0.4799 -0.2802 -0.8314
vn -0.2427 0.8742 -0.4206
vn -0.4768 -0.3643 -0.7999
vn -0.3244 0.7608 -0.5620
vn -0.5336 0.2126 -0.8186
vn -0.3923 0.6197 -0.6797
vn -0.4955 -0.5910 -0.6365
vn -0.4445 0.4574 -0.7702
vn 0.2428 -0.8827 0.4025
vn -0.4799 0.2802 -0.8314
vn -0.0844 -0.9961 -0.0268
vn -0.0998 -0.9946 -0.0289
vn -0.4977 0.0943 -0.8622
vn -0.0509 0.9948 -0.0882
vn 0.6640 -0.3150 -0.6781
vn -0.2762 0.4614 -0.8431
vn 0.5983 -0.7931 0.1136
vn -0.2985 0.2831 -0.9114
vn 0.0276 -0.9946 -0.1002
vn -0.3099 0.0954 -0.9460
vn -0.0313 0.9949 -0.0957
vn -0.0943 -0.9951 -0.0289
vn -0.3099 -0.0954 -0.9460
vn -0.0926 0.9547 -0.2828
vn -0.2985 -0.2831 -0.9114
vn -0.1499 0.8765 -0.4576
vn -0.2314 -0.4007 -0.8865
vn -0.2007 0.7644 -0.6127
vn 0.1561 0.0715 -0.9851
vn -0.2432 0.6240 -0.7426
vn -0.0313 0.9552 -0.2943
vn -0.1014 -0.2847 -0.9532
vn -0.0507 0.8777 -0.4765
vn -0.0807 -0.4540 -0.8874
vn -0.0679 0.7664 -0.6388
vn 0.2579 -0.3715 -0.8919
vn -0.0824 0.6263 -0.7752
vn 0.6243 -0.4002 -0.6708
vn -0.0937 0.4636 -0.8811
vn 0.5442 -0.8187 -0.1834
vn -0.1014 0.2847 -0.9532
vn -0.0832 -0.9907 -0.1075
vn -0.1053 0.0960 -0.9898
vn -0.0106 0.9950 -0.0995
vn -0.0877 -0.9957 -0.0301
vn -0.1053 -0.0960 -0.9898
vt 0.750000 0.437500
vt 0.750000 0.500000
vt 0.718750 0.500000
vt 0.718750 0.437500
vt 0.750000 0.875000
vt 0.750000 0.937500
vt 0.718750 0.937500
vt 0.718750 0.875000
vt 0.750000 0.375000
vt 0.718750 0.375000
vt 0.750000 0.812500
vt 0.718750 0.812500
vt 0.750000 0.312500
vt 0.718750 0.312500
vt 0.750000 0.750000
vt 0.718750 0.750000
vt 0.750000 0.250000
vt 0.718750 0.250000
vt 0.750000 0.687500
vt 0.718750 0.687500
vt 0.750000 0.187500
vt 0.718750 0.187500
vt 0.750000 0.625000
vt 0.718750 0.625000
vt 0.750000 0.125000
vt 0.718750 0.125000
vt 0.750000 0.562500
vt 0.718750 0.562500
vt 0.750000 0.062500
vt 0.718750 0.062500
vt 0.734375 1.000000
vt 0.734375 0.000000
vt 0.687500 0.562500
vt 0.687500 0.500000
vt 0.703125 1.000000
vt 0.687500 0.937500
vt 0.703125 0.000000
vt 0.687500 0.062500
vt 0.687500 0.437500
vt 0.687500 0.875000
vt 0.687500 0.375000
vt 0.687500 0.812500
vt 0.687500 0.312500
vt 0.687500 0.750000
vt 0.687500 0.250000
vt 0.687500 0.687500
vt 0.687500 0.187500
vt 0.687500 0.625000
vt 0.687500 0.125000
vt 0.656250 0.312500
vt 0.656250 0.250000
vt 0.656250 0.750000
vt 0.656250 0.687500
vt 0.656250 0.187500
vt 0.656250 0.625000
vt 0.656250 0.125000
vt 0.656250 0.562500
vt 0.656250 0.062500
vt 0.656250 0.500000
vt 0.671875 1.000000
vt 0.656250 0.937500
vt 0.671875 0.000000
vt 0.656250 0.437500
vt 0.656250 0.875000
vt 0.656250 0.375000
vt 0.656250 0.812500
vt 0.640625 1.000000
vt 0.625000 0.937500
vt 0.640625 0.000000
vt 0.625000 0.062500
vt 0.625000 0.500000
vt 0.625000 0.437500
vt 0.625000 0.875000
vt 0.625000 0.375000
vt 0.625000 0.812500
vt 0.625000 0.312500
vt 0.625000 0.750000
vt 0.625000 0.250000
vt 0.625000 0.687500
vt 0.625000 0.187500
vt 0.625000 0.625000
vt 0.625000 0.125000
vt 0.625000 0.562500
vt 0.593750 0.750000
vt 0.593750 0.687500
vt 0.593750 0.250000
vt 0.593750 0.187500
vt 0.593750 0.625000
vt 0.593750 0.125000
vt 0.593750 0.562500
vt 0.593750 0.062500
vt 0.593750 0.500000
vt 0.609375 1.000000
vt 0.593750 0.937500
vt 0.609375 0.000000
vt 0.593750 0.437500
vt 0.593750 0.875000
vt 0.593750 0.375000
vt 0.593750 0.812500
vt 0.593750 0.312500
vt 0.562500 0.500000
vt 0.562500 0.437500
vt 0.562500 0.937500
vt 0.562500 0.875000
vt 0.562500 0.375000
vt 0.562500 0.812500
vt 0.562500 0.312500
vt 0.562500 0.750000
vt 0.562500 0.250000
vt 0.562500 0.687500
vt 0.562500 0.187500
vt 0.562500 0.625000
vt 0.562500 0.125000
vt 0.562500 0.562500
vt 0.562500 0.062500
vt 0.578125 1.000000
vt 0.578125 0.000000
vt 0.531250 0.250000
vt 0.531250 0.187500
vt 0.531250 0.687500
vt 0.531250 0.625000
vt 0.531250 0.125000
vt 0.531250 0.562500
vt 0.531250 0.062500
vt 0.531250 0.500000
vt 0.546875 1.000000
vt 0.531250 0.937500
vt 0.546875 0.000000
vt 0.531250 0.437500
vt 0.531250 0.875000
vt 0.531250 0.375000
vt 0.531250 0.812500
vt 0.531250 0.312500
vt 0.531250 0.750000
vt 0.500000 0.437500
vt 0.500000 0.375000
vt 0.500000 0.875000
vt 0.500000 0.812500
vt 0.500000 0.312500
vt 0.500000 0.750000
vt 0.500000 0.250000
vt 0.500000 0.687500
vt 0.500000 0.187500
vt 0.500000 0.625000
vt 0.500000 0.125000
vt 0.500000 0.562500
vt 0.500000 0.062500
vt 0.500000 0.500000
vt 0.515625 1.000000
vt 0.500000 0.937500
vt 0.515625 0.000000
vt 0.468750 0.187500
vt 0.468750 0.125000
vt 0.468750 0.625000
vt 0.468750 0.562500
vt 0.468750 0.062500
vt 0.468750 0.500000
vt 0.484375 1.000000
vt 0.468750 0.937500
vt 0.484375 0.000000
vt 0.468750 0.437500
vt 0.468750 0.875000
vt 0.468750 0.375000
vt 0.468750 0.812500
vt 0.468750 0.312500
vt 0.468750 0.750000
vt 0.468750 0.250000
vt 0.468750 0.687500
vt 0.437500 0.875000
vt 0.437500 0.812500
vt 0.437500 0.375000
vt 0.437500 0.312500
vt 0.437500 0.750000
vt 0.437500 0.250000
vt 0.437500 0.687500
vt 0.437500 0.187500
vt 0.437500 0.625000
vt 0.437500 0.125000
vt 0.437500 0.562500
vt 0.437500 0.062500
vt 0.437500 0.500000
vt 0.453125 1.000000
vt 0.437500 0.937500
vt 0.453125 0.000000
vt 0.437500 0.437500
vt 0.406250 0.625000
vt 0.406250 0.562500
vt 0.406250 0.125000
vt 0.406250 0.062500
vt 0.406250 0.500000
vt 0.421875 1.000000
vt 0.406250 0.937500
vt 0.421875 0.000000
vt 0.406250 0.437500
vt 0.406250 0.875000
vt 0.406250 0.375000
vt 0.406250 0.812500
vt 0.406250 0.312500
vt 0.406250 0.750000
vt 0.406250 0.250000
vt 0.406250 0.687500
vt 0.406250 0.187500
vt 0.375000 0.375000
vt 0.375000 0.312500
vt 0.375000 0.812500
vt 0.375000 0.750000
vt 0.375000 0.250000
vt 0.375000 0.687500
vt 0.375000 0.187500
vt 0.375000 0.625000
vt 0.375000 0.125000
vt 0.375000 0.562500
vt 0.375000 0.062500
vt 0.375000 0.500000
vt 0.390625 1.000000
vt 0.375000 0.937500
vt 0.390625 0.000000
vt 0.375000 0.437500
vt 0.375000 0.875000
vt 0.343750 0.125000
vt 0.343750 0.062500
vt 0.343750 0.562500
vt 0.343750 0.500000
vt 0.359375 1.000000
vt 0.343750 0.937500
vt 0.359375 0.000000
vt 0.343750 0.437500
vt 0.343750 0.875000
vt 0.343750 0.375000
vt 0.343750 0.812500
vt 0.343750 0.312500
vt 0.343750 0.750000
vt 0.343750 0.250000
vt 0.343750 0.687500
vt 0.343750 0.187500
vt 0.343750 0.625000
vt 0.312500 0.812500
vt 0.312500 0.750000
vt 0.312500 0.312500
vt 0.312500 0.250000
vt 0.312500 0.687500
vt 0.312500 0.187500
vt 0.312500 0.625000
vt 0.312500 0.125000
vt 0.312500 0.562500
vt 0.312500 0.062500
vt 0.312500 0.500000
vt 0.328125 1.000000
vt 0.312500 0.937500
vt 0.328125 0.000000
vt 0.312500 0.437500
vt 0.312500 0.875000
vt 0.312500 0.375000
vt 0.281250 0.562500
vt 0.281250 0.500000
vt 0.296875 1.000000
vt 0.281250 0.937500
vt 0.296875 0.000000
vt 0.281250 0.062500
vt 0.281250 0.437500
vt 0.281250 0.875000
vt 0.281250 0.375000
vt 0.281250 0.812500
vt 0.281250 0.312500
vt 0.281250 0.750000
vt 0.281250 0.250000
vt 0.281250 0.687500
vt 0.281250 0.187500
vt 0.281250 0.625000
vt 0.281250 0.125000
vt 0.250000 0.312500
vt 0.250000 0.250000
vt 0.250000 0.750000
vt 0.250000 0.687500
vt 0.250000 0.187500
vt 0.250000 0.625000
vt 0.250000 0.125000
vt 0.250000 0.562500
vt 0.250000 0.062500
vt 0.250000 0.500000
vt 0.265625 1.000000
vt 0.250000 0.937500
vt 0.265625 0.000000
vt 0.250000 0.437500
vt 0.250000 0.875000
vt 0.250000 0.375000
vt 0.250000 0.812500
vt 0.234375 0.000000
vt 0.218750 0.062500
vt 0.218750 0.500000
vt 0.218750 0.437500
vt 0.218750 0.937500
vt 0.218750 0.875000
vt 0.218750 0.375000
vt 0.218750 0.812500
vt 0.218750 0.312500
vt 0.218750 0.750000
vt 0.218750 0.250000
vt 0.218750 0.687500
vt 0.218750 0.187500
vt 0.218750 0.625000
vt 0.218750 0.125000
vt 0.218750 0.562500
vt 0.234375 1.000000
vt 0.187500 0.250000
vt 0.187500 0.187500
vt 0.187500 0.687500
vt 0.187500 0.625000
vt 0.187500 0.125000
vt 0.187500 0.562500
vt 0.187500 0.062500
vt 0.187500 0.500000
vt 0.203125 1.000000
vt 0.187500 0.937500
vt 0.203125 0.000000
vt 0.187500 0.437500
vt 0.187500 0.875000
vt 0.187500 0.375000
vt 0.187500 0.812500
vt 0.187500 0.312500
vt 0.187500 0.750000
vt 0.156250 0.937500
vt 0.156250 0.875000
vt 0.156250 0.437500
vt 0.156250 0.375000
vt 0.156250 0.812500
vt 0.156250 0.312500
vt 0.156250 0.750000
vt 0.156250 0.250000
vt 0.156250 0.687500
vt 0.156250 0.187500
vt 0.156250 0.625000
vt 0.156250 0.125000
vt 0.156250 0.562500
vt 0.156250 0.062500
vt 0.156250 0.500000
vt 0.171875 1.000000
vt 0.171875 0.000000
vt 0.125000 0.687500
vt 0.125000 0.625000
vt 0.125000 0.187500
vt 0.125000 0.125000
vt 0.125000 0.562500
vt 0.125000 0.062500
vt 0.125000 0.500000
vt 0.140625 1.000000
vt 0.125000 0.937500
vt 0.140625 0.000000
vt 0.125000 0.437500
vt 0.125000 0.875000
vt 0.125000 0.375000
vt 0.125000 0.812500
vt 0.125000 0.312500
vt 0.125000 0.750000
vt 0.125000 0.250000
vt 0.093750 0.437500
vt 0.093750 0.375000
vt 0.093750 0.875000
vt 0.093750 0.812500
vt 0.093750 0.312500
vt 0.093750 0.750000
vt 0.093750 0.250000
vt 0.093750 0.687500
vt 0.093750 0.187500
vt 0.093750 0.625000
vt 0.093750 0.125000
vt 0.093750 0.562500
vt 0.093750 0.062500
vt 0.093750 0.500000
vt 0.109375 1.000000
vt 0.093750 0.937500
vt 0.109375 0.000000
vt 0.062500 0.187500
vt 0.062500 0.125000
vt 0.062500 0.625000
vt 0.062500 0.562500
vt 0.062500 0.062500
vt 0.062500 0.500000
vt 0.078125 1.000000
vt 0.062500 0.937500
vt 0.078125 0.000000
vt 0.062500 0.437500
vt 0.062500 0.875000
vt 0.062500 0.375000
vt 0.062500 0.812500
vt 0.062500 0.312500
vt 0.062500 0.750000
vt 0.062500 0.250000
vt 0.062500 0.687500
vt 0.031250 0.875000
vt 0.031250 0.812500
vt 0.031250 0.375000
vt 0.031250 0.312500
vt 0.031250 0.750000
vt 0.031250 0.250000
vt 0.031250 0.687500
vt 0.031250 0.187500
vt 0.031250 0.625000
vt 0.031250 0.125000
vt 0.031250 0.562500
vt 0.031250 0.062500
vt 0.031250 0.500000
vt 0.046875 1.000000
vt 0.031250 0.937500
vt 0.046875 0.000000
vt 0.031250 0.437500
vt 0.000000 0.625000
vt 0.000000 0.562500
vt 0.000000 0.125000
vt 0.000000 0.062500
vt 0.000000 0.500000
vt 0.015625 1.000000
vt 0.000000 0.937500
vt 0.015625 0.000000
vt 0.000000 0.437500
vt 0.000000 0.875000
vt 0.000000 0.375000
vt 0.000000 0.812500
vt 0.000000 0.312500
vt 0.000000 0.750000
vt 0.000000 0.250000
vt 0.000000 0.687500
vt 0.000000 0.187500
vt 1.000000 0.312500
vt 1.000000 0.375000
vt 0.968750 0.375000
vt 0.968750 0.312500
vt 1.000000 0.750000
vt 1.000000 0.812500
vt 0.968750 0.812500
vt 0.968750 0.750000
vt 1.000000 0.250000
vt 0.968750 0.250000
vt 1.000000 0.687500
vt 0.968750 0.687500
vt 1.000000 0.187500
vt 0.968750 0.187500
vt 1.000000 0.625000
vt 0.968750 0.625000
vt 1.000000 0.125000
vt 0.968750 0.125000
vt 1.000000 0.562500
vt 0.968750 0.562500
vt 1.000000 0.062500
vt 0.968750 0.062500
vt 1.000000 0.500000
vt 0.968750 0.500000
vt 1.000000 0.937500
vt 0.984375 1.000000
vt 0.968750 0.937500
vt 0.984375 0.000000
vt 1.000000 0.437500
vt 0.968750 0.437500
vt 1.000000 0.875000
vt 0.968750 0.875000
vt 0.937500 0.125000
vt 0.937500 0.062500
vt 0.937500 0.562500
vt 0.937500 0.500000
vt 0.953125 1.000000
vt 0.937500 0.937500
vt 0.953125 0.000000
vt 0.937500 0.437500
vt 0.937500 0.875000
vt 0.937500 0.375000
vt 0.937500 0.812500
vt 0.937500 0.312500
vt 0.937500 0.750000
vt 0.937500 0.250000
vt 0.937500 0.687500
vt 0.937500 0.187500
vt 0.937500 0.625000
vt 0.906250 0.312500
vt 0.906250 0.250000
vt 0.906250 0.750000
vt 0.906250 0.687500
vt 0.906250 0.187500
vt 0.906250 0.625000
vt 0.906250 0.125000
vt 0.906250 0.562500
vt 0.906250 0.062500
vt 0.906250 0.500000
vt 0.921875 1.000000
vt 0.906250 0.937500
vt 0.921875 0.000000
vt 0.906250 0.437500
vt 0.906250 0.875000
vt 0.906250 0.375000
vt 0.906250 0.812500
vt 0.890625 1.000000
vt 0.875000 0.937500
vt 0.890625 0.000000
vt 0.875000 0.062500
vt 0.875000 0.500000
vt 0.875000 0.437500
vt 0.875000 0.875000
vt 0.875000 0.375000
vt 0.875000 0.812500
vt 0.875000 0.312500
vt 0.875000 0.750000
vt 0.875000 0.250000
vt 0.875000 0.687500
vt 0.875000 0.187500
vt 0.875000 0.625000
vt 0.875000 0.125000
vt 0.875000 0.562500
vt 0.843750 0.750000
vt 0.843750 0.687500
vt 0.843750 0.250000
vt 0.843750 0.187500
vt 0.843750 0.625000
vt 0.843750 0.125000
vt 0.843750 0.562500
vt 0.843750 0.062500
vt 0.843750 0.500000
vt 0.859375 1.000000
vt 0.843750 0.937500
vt 0.859375 0.000000
vt 0.843750 0.437500
vt 0.843750 0.875000
vt 0.843750 0.375000
vt 0.843750 0.812500
vt 0.843750 0.312500
vt 0.812500 0.500000
vt 0.812500 0.437500
vt 0.812500 0.937500
vt 0.812500 0.875000
vt 0.812500 0.375000
vt 0.812500 0.812500
vt 0.812500 0.312500
vt 0.812500 0.750000
vt 0.812500 0.250000
vt 0.812500 0.687500
vt 0.812500 0.187500
vt 0.812500 0.625000
vt 0.812500 0.125000
vt 0.812500 0.562500
vt 0.812500 0.062500
vt 0.828125 1.000000
vt 0.828125 0.000000
vt 0.781250 0.250000
vt 0.781250 0.187500
vt 0.781250 0.687500
vt 0.781250 0.625000
vt 0.781250 0.125000
vt 0.781250 0.562500
vt 0.781250 0.062500
vt 0.781250 0.500000
vt 0.796875 1.000000
vt 0.781250 0.937500
vt 0.796875 0.000000
vt 0.781250 0.437500
vt 0.781250 0.875000
vt 0.781250 0.375000
vt 0.781250 0.812500
vt 0.781250 0.312500
vt 0.781250 0.750000
vt 0.765625 1.000000
vt 0.765625 0.000000
s 1
usemtl マテリアル.001
f 5/1/1 4/2/1 14/3/1 15/4/1
f 475/5/2 474/6/2 7/7/2 8/8/2
f 478/9/3 5/1/3 15/4/3 16/10/3
f 1/11/4 475/5/4 8/8/4 9/12/4
f 6/13/5 478/9/5 16/10/5 17/14/5
f 476/15/6 1/11/6 9/12/6 10/16/6
f 479/17/7 6/13/7 17/14/7 18/18/7
f 2/19/8 476/15/8 10/16/8 11/20/8
f 480/21/9 479/17/9 18/18/9 19/22/9
f 477/23/10 2/19/10 11/20/10 12/24/10
f 481/25/11 480/21/11 19/22/11 20/26/11
f 3/27/12 477/23/12 12/24/12 13/28/12
f 482/29/13 481/25/13 20/26/13 21/30/13
f 4/2/14 3/27/14 13/28/14 14/3/14
f 474/6/15 82/31/15 7/7/15
f 308/32/16 482/29/16 21/30/16
f 14/3/17 13/28/17 28/33/17 29/34/17
f 7/7/18 82/35/18 22/36/18
f 308/37/19 21/30/19 36/38/19
f 15/4/20 14/3/20 29/34/20 30/39/20
f 8/8/21 7/7/21 22/36/21 23/40/21
f 16/10/22 15/4/22 30/39/22 31/41/22
f 9/12/23 8/8/23 23/40/23 24/42/23
f 17/14/24 16/10/24 31/41/24 32/43/24
f 10/16/25 9/12/25 24/42/25 25/44/25
f 18/18/26 17/14/26 32/43/26 33/45/26
f 11/20/27 10/16/27 25/44/27 26/46/27
f 19/22/28 18/18/28 33/45/28 34/47/28
f 12/24/29 11/20/29 26/46/29 27/48/29
f 20/26/30 19/22/30 34/47/30 35/49/30
f 13/28/31 12/24/31 27/48/31 28/33/31
f 21/30/32 20/26/32 35/49/32 36/38/32
f 33/45/33 32/43/33 47/50/33 48/51/33
f 26/46/34 25/44/34 40/52/34 41/53/34
f 34/47/35 33/45/35 48/51/35 49/54/35
f 27/48/36 26/46/36 41/53/36 42/55/36
f 35/49/37 34/47/37 49/54/37 50/56/37
f 28/33/38 27/48/38 42/55/38 43/57/38
f 36/38/39 35/49/39 50/56/39 51/58/39
f 29/34/40 28/33/40 43/57/40 44/59/40
f 22/36/41 82/60/41 37/61/41
f 308/62/42 36/38/42 51/58/42
f 30/39/43 29/34/43 44/59/43 45/63/43
f 23/40/44 22/36/44 37/61/44 38/64/44
f 31/41/45 30/39/45 45/63/45 46/65/45
f 24/42/46 23/40/46 38/64/46 39/66/46
f 32/43/47 31/41/47 46/65/47 47/50/47
f 25/44/48 24/42/48 39/66/48 40/52/48
f 37/61/49 82/67/49 52/68/49
f 308/69/50 51/58/50 66/70/50
f 45/63/51 44/59/51 59/71/51 60/72/51
f 38/64/52 37/61/52 52/68/52 53/73/52
f 46/65/53 45/63/53 60/72/53 61/74/53
f 39/66/54 38/64/54 53/73/54 54/75/54
f 47/50/55 46/65/55 61/74/55 62/76/55
f 40/52/56 39/66/56 54/75/56 55/77/56
f 48/51/57 47/50/57 62/76/57 63/78/57
f 41/53/58 40/52/58 55/77/58 56/79/58
f 49/54/59 48/51/59 63/78/59 64/80/59
f 42/55/60 41/53/60 56/79/60 57/81/60
f 50/56/61 49/54/61 64/80/61 65/82/61
f 43/57/62 42/55/62 57/81/62 58/83/62
f 51/58/63 50/56/63 65/82/63 66/70/63
f 44/59/64 43/57/64 58/83/64 59/71/64
f 56/79/65 55/77/65 70/84/65 71/85/65
f 64/80/66 63/78/66 78/86/66 79/87/66
f 57/81/67 56/79/67 71/85/67 72/88/67
f 65/82/68 64/80/68 79/87/68 80/89/68
f 58/83/69 57/81/69 72/88/69 73/90/69
f 66/70/70 65/82/70 80/89/70 81/91/70
f 59/71/71 58/83/71 73/90/71 74/92/71
f 52/68/72 82/93/72 67/94/72
f 308/95/73 66/70/74 81/91/75
f 60/72/76 59/71/76 74/92/76 75/96/76
f 53/73/77 52/68/77 67/94/77 68/97/77
f 61/74/78 60/72/78 75/96/78 76/98/78
f 54/75/79 53/73/79 68/97/79 69/99/79
f 62/76/80 61/74/80 76/98/80 77/100/80
f 55/77/81 54/75/81 69/99/81 70/84/81
f 63/78/82 62/76/82 77/100/82 78/86/82
f 75/96/83 74/92/83 90/101/83 91/102/83
f 68/97/84 67/94/84 83/103/84 84/104/84
f 76/98/85 75/96/85 91/102/85 92/105/85
f 69/99/86 68/97/86 84/104/86 85/106/86
f 77/100/87 76/98/87 92/105/87 93/107/87
f 70/84/88 69/99/88 85/106/88 86/108/88
f 78/86/89 77/100/89 93/107/89 94/109/89
f 71/85/90 70/84/90 86/108/90 87/110/90
f 79/87/91 78/86/91 94/109/91 95/111/91
f 72/88/92 71/85/92 87/110/92 88/112/92
f 80/89/93 79/87/93 95/111/93 96/113/93
f 73/90/94 72/88/94 88/112/94 89/114/94
f 81/91/95 80/89/95 96/113/95 97/115/95
f 74/92/96 73/90/96 89/114/96 90/101/96
f 67/94/97 82/116/97 83/103/97
f 308/117/73 81/91/75 97/115/98
f 95/111/99 94/109/99 109/118/99 110/119/99
f 88/112/100 87/110/100 102/120/100 103/121/100
f 96/113/101 95/111/101 110/119/101 111/122/101
f 89/114/102 88/112/102 103/121/102 104/123/102
f 97/115/103 96/113/103 111/122/104 112/124/105
f 90/101/106 89/114/106 104/123/106 105/125/106
f 83/103/107 82/126/107 98/127/107
f 308/128/108 97/115/109 112/124/110
f 91/102/111 90/101/111 105/125/111 106/129/111
f 84/104/112 83/103/112 98/127/112 99/130/112
f 92/105/113 91/102/113 106/129/113 107/131/113
f 85/106/114 84/104/114 99/130/114 100/132/114
f 93/107/115 92/105/115 107/131/115 108/133/115
f 86/108/116 85/106/116 100/132/116 101/134/116
f 94/109/117 93/107/117 108/133/117 109/118/117
f 87/110/118 86/108/118 101/134/118 102/120/118
f 107/131/119 106/129/119 121/135/119 122/136/119
f 100/132/120 99/130/120 114/137/120 115/138/120
f 108/133/121 107/131/121 122/136/121 123/139/121
f 101/134/122 100/132/122 115/138/122 116/140/122
f 109/118/123 108/133/123 123/139/123 124/141/123
f 102/120/124 101/134/124 116/140/124 117/142/124
f 110/119/125 109/118/125 124/141/125 125/143/125
f 103/121/126 102/120/126 117/142/126 118/144/126
f 111/122/127 110/119/127 125/143/127 126/145/127
f 104/123/128 103/121/128 118/144/128 119/146/128
f 112/124/105 111/122/104 126/145/129 127/147/129
f 105/125/130 104/123/130 119/146/130 120/148/130
f 98/127/131 82/149/131 113/150/131
f 308/151/108 112/124/110 127/147/132
f 106/129/133 105/125/133 120/148/133 121/135/133
f 99/130/134 98/127/134 113/150/134 114/137/134
f 126/145/135 125/143/135 140/152/135 141/153/135
f 119/146/136 118/144/136 133/154/136 134/155/136
f 127/147/137 126/145/137 141/153/137 142/156/137
f 120/148/138 119/146/138 134/155/138 135/157/138
f 113/150/139 82/158/139 128/159/139
f 308/160/108 127/147/132 142/156/140
f 121/135/141 120/148/141 135/157/141 136/161/141
f 114/137/142 113/150/142 128/159/142 129/162/142
f 122/136/143 121/135/143 136/161/143 137/163/143
f 115/138/144 114/137/144 129/162/144 130/164/144
f 123/139/145 122/136/145 137/163/145 138/165/145
f 116/140/146 115/138/146 130/164/146 131/166/146
f 124/141/147 123/139/147 138/165/147 139/167/147
f 117/142/148 116/140/148 131/166/148 132/168/148
f 125/143/149 124/141/149 139/167/149 140/152/149
f 118/144/150 117/142/150 132/168/150 133/154/150
f 130/164/151 129/162/151 144/169/151 145/170/151
f 138/165/152 137/163/152 152/171/152 153/172/152
f 131/166/153 130/164/153 145/170/153 146/173/153
f 139/167/154 138/165/154 153/172/154 154/174/154
f 132/168/155 131/166/155 146/173/155 147/175/155
f 140/152/156 139/167/156 154/174/156 155/176/156
f 133/154/157 132/168/157 147/175/157 148/177/157
f 141/153/158 140/152/158 155/176/158 156/178/158
f 134/155/159 133/154/159 148/177/159 149/179/159
f 142/156/160 141/153/160 156/178/160 157/180/160
f 135/157/161 134/155/161 149/179/161 150/181/161
f 128/159/162 82/182/162 143/183/162
f 308/184/163 142/156/163 157/180/163
f 136/161/164 135/157/164 150/181/164 151/185/164
f 129/162/165 128/159/165 143/183/165 144/169/165
f 137/163/166 136/161/166 151/185/166 152/171/166
f 149/179/167 148/177/167 163/186/167 164/187/167
f 157/180/168 156/178/168 171/188/168 172/189/168
f 150/181/169 149/179/169 164/187/169 165/190/169
f 143/183/170 82/191/170 158/192/170
f 308/193/171 157/180/171 172/189/171
f 151/185/172 150/181/172 165/190/172 166/194/172
f 144/169/173 143/183/173 158/192/173 159/195/173
f 152/171/174 151/185/174 166/194/174 167/196/174
f 145/170/175 144/169/175 159/195/175 160/197/175
f 153/172/176 152/171/176 167/196/176 168/198/176
f 146/173/177 145/170/177 160/197/177 161/199/177
f 154/174/178 153/172/178 168/198/178 169/200/178
f 147/175/179 146/173/179 161/199/179 162/201/179
f 155/176/180 154/174/180 169/200/180 170/202/180
f 148/177/181 147/175/181 162/201/181 163/186/181
f 156/178/182 155/176/182 170/202/182 171/188/182
f 168/198/183 167/196/183 182/203/183 183/204/183
f 161/199/184 160/197/184 175/205/184 176/206/184
f 169/200/185 168/198/185 183/204/185 184/207/185
f 162/201/186 161/199/186 176/206/186 177/208/186
f 170/202/187 169/200/187 184/207/187 185/209/187
f 163/186/188 162/201/188 177/208/188 178/210/188
f 171/188/189 170/202/189 185/209/189 186/211/189
f 164/187/190 163/186/190 178/210/190 179/212/190
f 172/189/191 171/188/191 186/211/191 187/213/191
f 165/190/192 164/187/192 179/212/192 180/214/192
f 158/192/193 82/215/193 173/216/193
f 308/217/194 172/189/194 187/213/194
f 166/194/195 165/190/195 180/214/195 181/218/195
f 159/195/196 158/192/196 173/216/196 174/219/196
f 167/196/197 166/194/197 181/218/197 182/203/197
f 160/197/198 159/195/198 174/219/198 175/205/198
f 187/213/199 186/211/199 201/220/199 202/221/199
f 180/214/200 179/212/200 194/222/200 195/223/200
f 173/216/201 82/224/201 188/225/201
f 308/226/202 187/213/202 202/221/202
f 181/218/203 180/214/203 195/223/203 196/227/203
f 174/219/204 173/216/204 188/225/204 189/228/204
f 182/203/205 181/218/205 196/227/205 197/229/205
f 175/205/206 174/219/206 189/228/206 190/230/206
f 183/204/207 182/203/207 197/229/207 198/231/207
f 176/206/208 175/205/208 190/230/208 191/232/208
f 184/207/209 183/204/209 198/231/209 199/233/209
f 177/208/210 176/206/210 191/232/210 192/234/210
f 185/209/211 184/207/211 199/233/211 200/235/211
f 178/210/212 177/208/212 192/234/212 193/236/212
f 186/211/213 185/209/213 200/235/213 201/220/213
f 179/212/214 178/210/214 193/236/214 194/222/214
f 191/232/215 190/230/215 205/237/215 206/238/215
f 199/233/216 198/231/216 213/239/216 214/240/216
f 192/234/217 191/232/217 206/238/217 207/241/217
f 200/235/218 199/233/218 214/240/218 215/242/218
f 193/236/219 192/234/219 207/241/219 208/243/219
f 201/220/220 200/235/220 215/242/220 216/244/220
f 194/222/221 193/236/221 208/243/221 209/245/221
f 202/221/222 201/220/222 216/244/222 217/246/222
f 195/223/223 194/222/223 209/245/223 210/247/223
f 188/225/224 82/248/224 203/249/224
f 308/250/225 202/221/225 217/246/225
f 196/227/226 195/223/226 210/247/226 211/251/226
f 189/228/227 188/225/227 203/249/227 204/252/227
f 197/229/228 196/227/228 211/251/228 212/253/228
f 190/230/229 189/228/229 204/252/229 205/237/229
f 198/231/230 197/229/230 212/253/230 213/239/230
f 210/247/231 209/245/231 224/254/231 225/255/231
f 203/249/232 82/256/232 218/257/232
f 308/258/233 217/246/233 232/259/233
f 211/251/234 210/247/234 225/255/234 226/260/234
f 204/252/235 203/249/235 218/257/235 219/261/235
f 212/253/236 211/251/236 226/260/236 227/262/236
f 205/237/237 204/252/237 219/261/237 220/263/237
f 213/239/238 212/253/238 227/262/238 228/264/238
f 206/238/239 205/237/239 220/263/239 221/265/239
f 214/240/240 213/239/240 228/264/240 229/266/240
f 207/241/241 206/238/241 221/265/241 222/267/241
f 215/242/242 214/240/242 229/266/242 230/268/242
f 208/243/243 207/241/243 222/267/243 223/269/243
f 216/244/244 215/242/244 230/268/244 231/270/244
f 209/245/245 208/243/245 223/269/245 224/254/245
f 217/246/246 216/244/246 231/270/246 232/259/246
f 229/266/247 228/264/247 243/271/247 244/272/247
f 222/267/248 221/265/248 236/273/248 237/274/248
f 230/268/249 229/266/249 244/272/249 245/275/249
f 223/269/250 222/267/250 237/274/250 238/276/250
f 231/270/251 230/268/251 245/275/251 246/277/251
f 224/254/252 223/269/252 238/276/252 239/278/252
f 232/259/253 231/270/253 246/277/253 247/279/253
f 225/255/254 224/254/254 239/278/254 240/280/254
f 218/257/255 82/281/255 233/282/255
f 308/283/256 232/259/256 247/279/256
f 226/260/257 225/255/257 240/280/257 241/284/257
f 219/261/258 218/257/258 233/282/258 234/285/258
f 227/262/259 226/260/259 241/284/259 242/286/259
f 220/263/260 219/261/260 234/285/260 235/287/260
f 228/264/261 227/262/261 242/286/261 243/271/261
f 221/265/262 220/263/262 235/287/262 236/273/262
f 308/288/263 247/279/263 262/289/263
f 241/284/264 240/280/264 255/290/264 256/291/264
f 234/285/265 233/282/265 248/292/265 249/293/265
f 242/286/266 241/284/266 256/291/266 257/294/266
f 235/287/267 234/285/267 249/293/267 250/295/267
f 243/271/268 242/286/268 257/294/268 258/296/268
f 236/273/269 235/287/269 250/295/269 251/297/269
f 244/272/270 243/271/270 258/296/270 259/298/270
f 237/274/271 236/273/271 251/297/271 252/299/271
f 245/275/272 244/272/272 259/298/272 260/300/272
f 238/276/273 237/274/273 252/299/273 253/301/273
f 246/277/274 245/275/274 260/300/274 261/302/274
f 239/278/275 238/276/275 253/301/275 254/303/275
f 247/279/276 246/277/276 261/302/276 262/289/276
f 240/280/277 239/278/277 254/303/277 255/290/277
f 233/282/278 82/304/278 248/292/278
f 260/300/279 259/298/279 274/305/279 275/306/279
f 253/301/280 252/299/280 267/307/280 268/308/280
f 261/302/281 260/300/281 275/306/281 276/309/281
f 254/303/282 253/301/282 268/308/282 269/310/282
f 262/289/283 261/302/283 276/309/283 277/311/283
f 255/290/284 254/303/284 269/310/284 270/312/284
f 248/292/285 82/313/285 263/314/285
f 308/315/286 262/289/286 277/311/286
f 256/291/287 255/290/287 270/312/287 271/316/287
f 249/293/288 248/292/288 263/314/288 264/317/288
f 257/294/289 256/291/289 271/316/289 272/318/289
f 250/295/290 249/293/290 264/317/290 265/319/290
f 258/296/291 257/294/291 272/318/291 273/320/291
f 251/297/292 250/295/292 265/319/292 266/321/292
f 259/298/293 258/296/293 273/320/293 274/305/293
f 252/299/294 251/297/294 266/321/294 267/307/294
f 264/317/295 263/314/295 278/322/295 279/323/295
f 272/318/296 271/316/296 286/324/296 287/325/296
f 265/319/297 264/317/297 279/323/297 280/326/297
f 273/320/298 272/318/298 287/325/298 288/327/298
f 266/321/299 265/319/299 280/326/299 281/328/299
f 274/305/300 273/320/300 288/327/300 289/329/300
f 267/307/301 266/321/301 281/328/301 282/330/301
f 275/306/302 274/305/302 289/329/302 290/331/302
f 268/308/303 267/307/303 282/330/303 283/332/303
f 276/309/304 275/306/304 290/331/304 291/333/304
f 269/310/305 268/308/305 283/332/305 284/334/305
f 277/311/306 276/309/306 291/333/306 292/335/306
f 270/312/307 269/310/307 284/334/307 285/336/307
f 263/314/308 82/337/308 278/322/308
f 308/338/309 277/311/309 292/335/309
f 271/316/310 270/312/310 285/336/310 286/324/310
f 283/332/311 282/330/311 297/339/311 298/340/311
f 291/333/312 290/331/312 305/341/312 306/342/312
f 284/334/313 283/332/313 298/340/313 299/343/313
f 292/335/314 291/333/314 306/342/314 307/344/314
f 285/336/315 284/334/315 299/343/315 300/345/315
f 278/322/316 82/346/316 293/347/316
f 308/348/317 292/335/317 307/344/317
f 286/324/318 285/336/318 300/345/318 301/349/318
f 279/323/319 278/322/319 293/347/319 294/350/319
f 287/325/320 286/324/320 301/349/320 302/351/320
f 280/326/321 279/323/321 294/350/321 295/352/321
f 288/327/322 287/325/322 302/351/322 303/353/322
f 281/328/323 280/326/323 295/352/323 296/354/323
f 289/329/324 288/327/324 303/353/324 304/355/324
f 282/330/325 281/328/325 296/354/325 297/339/325
f 290/331/326 289/329/326 304/355/326 305/341/326
f 302/351/327 301/349/327 317/356/327 318/357/327
f 295/352/328 294/350/328 310/358/328 311/359/328
f 303/353/329 302/351/329 318/357/329 319/360/329
f 296/354/330 295/352/330 311/359/330 312/361/330
f 304/355/331 303/353/331 319/360/331 320/362/331
f 297/339/332 296/354/332 312/361/332 313/363/332
f 305/341/333 304/355/333 320/362/333 321/364/333
f 298/340/334 297/339/334 313/363/334 314/365/334
f 306/342/335 305/341/335 321/364/335 322/366/335
f 299/343/336 298/340/336 314/365/336 315/367/336
f 307/344/337 306/342/337 322/366/337 323/368/337
f 300/345/338 299/343/338 315/367/338 316/369/338
f 293/347/339 82/370/339 309/371/339
f 308/372/340 307/344/340 323/368/340
f 301/349/341 300/345/341 316/369/341 317/356/341
f 294/350/342 293/347/342 309/371/342 310/358/342
f 322/366/343 321/364/343 336/373/343 337/374/343
f 315/367/344 314/365/344 329/375/344 330/376/344
f 323/368/345 322/366/345 337/374/345 338/377/345
f 316/369/346 315/367/346 330/376/346 331/378/346
f 309/371/347 82/379/347 324/380/347
f 308/381/348 323/368/348 338/377/348
f 317/356/349 316/369/349 331/378/349 332/382/349
f 310/358/350 309/371/350 324/380/350 325/383/350
f 318/357/351 317/356/351 332/382/351 333/384/351
f 311/359/352 310/358/352 325/383/352 326/385/352
f 319/360/353 318/357/353 333/384/353 334/386/353
f 312/361/354 311/359/354 326/385/354 327/387/354
f 320/362/355 319/360/355 334/386/355 335/388/355
f 313/363/356 312/361/356 327/387/356 328/389/356
f 321/364/357 320/362/357 335/388/357 336/373/357
f 314/365/358 313/363/358 328/389/358 329/375/358
f 326/385/359 325/383/359 340/390/359 341/391/359
f 334/386/360 333/384/360 348/392/360 349/393/360
f 327/387/361 326/385/361 341/391/361 342/394/361
f 335/388/362 334/386/362 349/393/362 350/395/362
f 328/389/363 327/387/363 342/394/363 343/396/363
f 336/373/364 335/388/364 350/395/364 351/397/364
f 329/375/365 328/389/365 343/396/365 344/398/365
f 337/374/366 336/373/366 351/397/366 352/399/366
f 330/376/367 329/375/367 344/398/367 345/400/367
f 338/377/368 337/374/368 352/399/368 353/401/368
f 331/378/369 330/376/369 345/400/369 346/402/369
f 324/380/370 82/403/370 339/404/370
f 308/405/371 338/377/371 353/401/371
f 332/382/372 331/378/372 346/402/372 347/406/372
f 325/383/373 324/380/373 339/404/373 340/390/373
f 333/384/374 332/382/374 347/406/374 348/392/374
f 345/400/375 344/398/375 359/407/375 360/408/375
f 353/401/376 352/399/376 367/409/376 368/410/376
f 346/402/377 345/400/377 360/408/377 361/411/377
f 339/404/378 82/412/378 354/413/378
f 308/414/379 353/401/379 368/410/379
f 347/406/380 346/402/380 361/411/380 362/415/380
f 340/390/381 339/404/381 354/413/381 355/416/381
f 348/392/382 347/406/382 362/415/382 363/417/382
f 341/391/383 340/390/383 355/416/383 356/418/383
f 349/393/384 348/392/384 363/417/384 364/419/384
f 342/394/385 341/391/385 356/418/385 357/420/385
f 350/395/386 349/393/386 364/419/386 365/421/386
f 343/396/387 342/394/387 357/420/387 358/422/387
f 351/397/388 350/395/388 365/421/388 366/423/388
f 344/398/389 343/396/389 358/422/389 359/407/389
f 352/399/390 351/397/390 366/423/390 367/409/390
f 364/424/391 363/425/391 378/426/391 379/427/391
f 357/428/392 356/429/392 371/430/392 372/431/392
f 365/432/393 364/424/393 379/427/393 380/433/393
f 358/434/394 357/428/394 372/431/394 373/435/394
f 366/436/395 365/432/395 380/433/395 381/437/395
f 359/438/396 358/434/396 373/435/396 374/439/396
f 367/440/397 366/436/397 381/437/397 382/441/397
f 360/442/398 359/438/398 374/439/398 375/443/398
f 368/444/399 367/440/399 382/441/399 383/445/399
f 361/446/400 360/442/400 375/443/400 376/447/400
f 354/448/401 82/449/401 369/450/401
f 308/451/402 368/444/403 383/445/404
f 362/452/405 361/446/405 376/447/405 377/453/405
f 355/454/406 354/448/406 369/450/406 370/455/406
f 363/425/407 362/452/407 377/453/407 378/426/407
f 356/429/408 355/454/408 370/455/408 371/430/408
f 383/445/409 382/441/409 397/456/409 398/457/409
f 376/447/410 375/443/410 390/458/410 391/459/410
f 369/450/411 82/460/411 384/461/411
f 308/462/402 383/445/404 398/457/412
f 377/453/413 376/447/413 391/459/413 392/463/413
f 370/455/414 369/450/414 384/461/414 385/464/414
f 378/426/415 377/453/415 392/463/415 393/465/415
f 371/430/416 370/455/416 385/464/416 386/466/416
f 379/427/417 378/426/417 393/465/417 394/467/417
f 372/431/418 371/430/418 386/466/418 387/468/418
f 380/433/419 379/427/419 394/467/419 395/469/419
f 373/435/420 372/431/420 387/468/420 388/470/420
f 381/437/421 380/433/421 395/469/421 396/471/421
f 374/439/422 373/435/422 388/470/422 389/472/422
f 382/441/423 381/437/423 396/471/423 397/456/423
f 375/443/424 374/439/424 389/472/424 390/458/424
f 395/469/425 394/467/425 409/473/425 410/474/425
f 388/470/426 387/468/426 402/475/426 403/476/426
f 396/471/427 395/469/427 410/474/427 411/477/427
f 389/472/428 388/470/428 403/476/428 404/478/428
f 397/456/429 396/471/429 411/477/429 412/479/429
f 390/458/430 389/472/430 404/478/430 405/480/430
f 398/457/431 397/456/431 412/479/431 413/481/431
f 391/459/432 390/458/432 405/480/432 406/482/432
f 384/461/433 82/483/433 399/484/433
f 308/485/402 398/457/412 413/481/434
f 392/463/435 391/459/435 406/482/435 407/486/435
f 385/464/436 384/461/436 399/484/436 400/487/436
f 393/465/437 392/463/437 407/486/437 408/488/437
f 386/466/438 385/464/438 400/487/438 401/489/438
f 394/467/439 393/465/439 408/488/439 409/473/439
f 387/468/440 386/466/440 401/489/440 402/475/440
f 399/484/441 82/490/441 414/491/441
f 308/492/442 413/481/443 428/493/444
f 407/486/445 406/482/445 421/494/445 422/495/445
f 400/487/446 399/484/446 414/491/446 415/496/446
f 408/488/447 407/486/447 422/495/447 423/497/447
f 401/489/448 400/487/448 415/496/448 416/498/448
f 409/473/449 408/488/449 423/497/449 424/499/449
f 402/475/450 401/489/450 416/498/450 417/500/450
f 410/474/451 409/473/451 424/499/451 425/501/451
f 403/476/452 402/475/452 417/500/452 418/502/452
f 411/477/453 410/474/453 425/501/453 426/503/453
f 404/478/454 403/476/454 418/502/454 419/504/454
f 412/479/455 411/477/455 426/503/455 427/505/455
f 405/480/456 404/478/456 419/504/456 420/506/456
f 413/481/457 412/479/457 427/505/457 428/493/457
f 406/482/458 405/480/458 420/506/458 421/494/458
f 418/502/459 417/500/459 432/507/459 433/508/459
f 426/503/460 425/501/460 440/509/460 441/510/460
f 419/504/461 418/502/461 433/508/461 434/511/461
f 427/505/462 426/503/462 441/510/462 442/512/462
f 420/506/463 419/504/463 434/511/463 435/513/463
f 428/493/464 427/505/464 442/512/464 443/514/464
f 421/494/465 420/506/465 435/513/465 436/515/465
f 414/491/466 82/516/466 429/517/466
f 308/518/442 428/493/444 443/514/467
f 422/495/468 421/494/468 436/515/468 437/519/468
f 415/496/469 414/491/469 429/517/469 430/520/469
f 423/497/470 422/495/470 437/519/470 438/521/470
f 416/498/471 415/496/471 430/520/471 431/522/471
f 424/499/472 423/497/472 438/521/472 439/523/472
f 417/500/473 416/498/473 431/522/473 432/507/473
f 425/501/474 424/499/474 439/523/474 440/509/474
f 437/519/475 436/515/475 451/524/475 452/525/475
f 430/520/476 429/517/476 444/526/476 445/527/476
f 438/521/477 437/519/477 452/525/477 453/528/477
f 431/522/478 430/520/478 445/527/478 446/529/478
f 439/523/479 438/521/479 453/528/479 454/530/479
f 432/507/480 431/522/480 446/529/480 447/531/480
f 440/509/481 439/523/481 454/530/481 455/532/481
f 433/508/482 432/507/482 447/531/482 448/533/482
f 441/510/483 440/509/483 455/532/483 456/534/483
f 434/511/484 433/508/484 448/533/484 449/535/484
f 442/512/485 441/510/485 456/534/485 457/536/485
f 435/513/486 434/511/486 449/535/486 450/537/486
f 443/514/467 442/512/487 457/536/487 458/538/488
f 436/515/489 435/513/489 450/537/489 451/524/489
f 429/517/490 82/539/490 444/526/490
f 308/540/442 443/514/467 458/538/488
f 456/534/491 455/532/491 470/541/491 471/542/491
f 449/535/492 448/533/492 463/543/492 464/544/492
f 457/536/493 456/534/493 471/542/493 472/545/493
f 450/537/494 449/535/494 464/544/494 465/546/494
f 458/538/495 457/536/495 472/545/495 473/547/495
f 451/524/496 450/537/496 465/546/496 466/548/496
f 444/526/497 82/549/497 459/550/497
f 308/551/442 458/538/488 473/547/498
f 452/525/499 451/524/499 466/548/499 467/552/499
f 445/527/500 444/526/500 459/550/500 460/553/500
f 453/528/501 452/525/501 467/552/501 468/554/501
f 446/529/502 445/527/502 460/553/502 461/555/502
f 454/530/503 453/528/503 468/554/503 469/556/503
f 447/531/504 446/529/504 461/555/504 462/557/504
f 455/532/505 454/530/505 469/556/505 470/541/505
f 448/533/506 447/531/506 462/557/506 463/543/506
f 460/553/507 459/550/507 474/6/507 475/5/507
f 468/554/508 467/552/508 5/1/508 478/9/508
f 461/555/509 460/553/509 475/5/509 1/11/509
f 469/556/510 468/554/510 478/9/510 6/13/510
f 462/557/511 461/555/511 1/11/511 476/15/511
f 470/541/512 469/556/512 6/13/512 479/17/512
f 463/543/513 462/557/513 476/15/513 2/19/513
f 471/542/514 470/541/514 479/17/514 480/21/514
f 464/544/515 463/543/515 2/19/515 477/23/515
f 472/545/516 471/542/516 480/21/516 481/25/516
f 465/546/517 464/544/517 477/23/517 3/27/517
f 473/547/518 472/545/518 481/25/518 482/29/518
f 466/548/519 465/546/519 3/27/519 4/2/519
f 459/550/520 82/558/520 474/6/520
f 308/559/442 473/547/498 482/29/521
f 467/552/522 466/548/522 4/2/522 5/1/522
