# Blender 4.4.0
# www.blender.org
mtllib zonbiface.mtl
o 球.001
v 0.000000 0.500593 -0.329295
v 0.000000 0.334485 -0.492825
v 0.000000 0.117455 -0.581326
v 0.000000 -0.000000 -0.592715
v 0.000000 -0.117455 -0.581326
v -0.000023 -0.335818 -0.493934
v 0.022914 0.590489 -0.113411
v 0.044948 0.556229 -0.222464
v 0.065254 0.500593 -0.322967
v 0.083053 0.425719 -0.411060
v 0.097659 0.334485 -0.483355
v 0.108513 0.230397 -0.537075
v 0.115197 0.117455 -0.570156
v 0.117454 -0.000000 -0.581326
v 0.115197 -0.117455 -0.570156
v 0.108513 -0.230397 -0.537075
v 0.094651 -0.353631 -0.498600
v 0.077653 -0.490259 -0.458829
v 0.070158 -0.626933 -0.413625
v 0.055645 -0.793419 -0.371504
v 0.028058 -1.019933 -0.222329
v 0.044948 0.590489 -0.106831
v 0.088168 0.556229 -0.209556
v 0.128000 0.500593 -0.304229
v 0.162913 0.425719 -0.387209
v 0.191566 0.334485 -0.455311
v 0.212856 0.230397 -0.505914
v 0.225967 0.117455 -0.537075
v 0.230394 -0.000000 -0.547597
v 0.226026 -0.117412 -0.537244
v 0.213691 -0.230091 -0.508223
v 0.188129 -0.375856 -0.497425
v 0.157885 -0.512637 -0.449089
v 0.150563 -0.636475 -0.391984
v 0.136572 -0.798202 -0.357360
v 0.082851 -1.011954 -0.208750
v 0.065254 0.590489 -0.096146
v 0.128000 0.556229 -0.188596
v 0.185827 0.500593 -0.273799
v 0.236513 0.425719 -0.348480
v 0.278110 0.334485 -0.409769
v 0.309019 0.230397 -0.455311
v 0.328053 0.117455 -0.483355
v 0.334480 -0.000000 -0.492824
v 0.336492 -0.114861 -0.494347
v 0.338290 -0.229713 -0.501760
v 0.308724 -0.517195 -0.804034
v 0.263322 -0.505080 -0.430659
v 0.236843 -0.627504 -0.347873
v 0.217502 -0.803153 -0.325336
v 0.133715 -1.014371 -0.188493
v 0.083053 0.590489 -0.081765
v 0.162913 0.556229 -0.160387
v 0.236513 0.500593 -0.232846
v 0.301024 0.425719 -0.296357
v 0.353967 0.334485 -0.348480
v 0.393307 0.230397 -0.387209
v 0.417532 0.117455 -0.411060
v 0.425712 -0.000000 -0.419113
v 0.437531 -0.113737 -0.429060
v 0.456392 -0.233927 -0.449195
v 0.438239 -0.449624 -0.542134
v 0.360866 -0.485954 -0.364255
v 0.309913 -0.612325 -0.292511
v 0.284570 -0.807321 -0.277797
v 0.176828 -1.021583 -0.160633
v 0.097659 0.590489 -0.064242
v 0.191566 0.556229 -0.126016
v 0.278110 0.500593 -0.182946
v 0.353967 0.425719 -0.232846
v 0.416221 0.334485 -0.273799
v 0.462480 0.230397 -0.304229
v 0.490966 0.117455 -0.322967
v 0.500585 -0.000000 -0.329295
v 0.497139 -0.116720 -0.327319
v 0.483634 -0.229144 -0.320227
v 0.460900 -0.366321 -0.315407
v 0.416310 -0.477538 -0.266781
v 0.362546 -0.598600 -0.226881
v 0.330356 -0.808002 -0.216089
v 0.212782 -1.030215 -0.125654
v 0.000000 0.602058 -0.000000
v 0.108513 0.590489 -0.044251
v 0.212856 0.556229 -0.086801
v 0.309019 0.500593 -0.126015
v 0.393307 0.425719 -0.160387
v 0.462480 0.334485 -0.188596
v 0.513880 0.230397 -0.209556
v 0.545532 0.117455 -0.222464
v 0.556220 -0.000000 -0.226822
v 0.545532 -0.117455 -0.222464
v 0.514204 -0.230368 -0.209772
v 0.470362 -0.340401 -0.190219
v 0.461947 -0.475825 -0.175813
v 0.401691 -0.588268 -0.153296
v 0.355589 -0.801444 -0.141611
v 0.244115 -1.041859 -0.081691
v 0.115197 0.590489 -0.022559
v 0.225967 0.556229 -0.044251
v 0.328053 0.500593 -0.064242
v 0.417532 0.425719 -0.081765
v 0.490966 0.334485 -0.096145
v 0.545532 0.230397 -0.106831
v 0.579134 0.117455 -0.113411
v 0.590480 -0.000000 -0.115633
v 0.579134 -0.117455 -0.113411
v 0.545532 -0.230397 -0.106831
v 0.499271 -0.340579 -0.097602
v 0.480281 -0.469580 -0.092026
v 0.420974 -0.580555 -0.075279
v 0.362027 -0.791233 -0.061390
v 0.269908 -1.054430 -0.030424
v 0.117454 0.590489 -0.000000
v 0.230394 0.556229 -0.000000
v 0.334480 0.500593 -0.000000
v 0.425712 0.425719 -0.000000
v 0.500584 0.334485 -0.000000
v 0.556220 0.230397 -0.000000
v 0.590480 0.117455 -0.000000
v 0.602048 0.000000 0.000000
v 0.590480 -0.117455 0.000000
v 0.556220 -0.230397 0.000000
v 0.503206 -0.336391 -0.000404
v 0.462265 -0.451076 -0.003733
v 0.412995 -0.569684 0.001325
v 0.355255 -0.780863 0.016137
v 0.286869 -1.063448 0.024561
v 0.115197 0.590489 0.022559
v 0.225967 0.556229 0.044251
v 0.328053 0.500593 0.064242
v 0.417532 0.425719 0.081765
v 0.490966 0.334485 0.096145
v 0.545532 0.230397 0.106831
v 0.579134 0.117455 0.113411
v 0.590480 0.000000 0.115633
v 0.579134 -0.117455 0.113411
v 0.545532 -0.230397 0.106831
v 0.490966 -0.334485 0.096145
v 0.427096 -0.432228 0.081544
v 0.380580 -0.552470 0.071684
v 0.338645 -0.767949 0.089526
v 0.292569 -1.068026 0.086040
v 0.108513 0.590489 0.044251
v 0.212856 0.556229 0.086801
v 0.309019 0.500593 0.126016
v 0.393307 0.425719 0.160387
v 0.462480 0.334485 0.188596
v 0.513880 0.230397 0.209556
v 0.545532 0.117455 0.222464
v 0.556220 0.000000 0.226822
v 0.545532 -0.117455 0.222464
v 0.513880 -0.230397 0.209556
v 0.462480 -0.334485 0.188596
v 0.393438 -0.425799 0.160393
v 0.332535 -0.530861 0.133458
v 0.312737 -0.756215 0.153691
v 0.281872 -1.071056 0.153596
v 0.097659 0.590489 0.064242
v 0.191566 0.556229 0.126016
v 0.278110 0.500593 0.182946
v 0.353967 0.425719 0.232846
v 0.416220 0.334485 0.273799
v 0.462480 0.230397 0.304229
v 0.490966 0.117455 0.322967
v 0.500584 0.000000 0.329295
v 0.490966 -0.117455 0.322967
v 0.463605 -0.231349 0.305261
v 0.419667 -0.337421 0.277095
v 0.354379 -0.426088 0.233272
v 0.286400 -0.518001 0.190114
v 0.276003 -0.747499 0.205271
v 0.252751 -1.074537 0.222053
v 0.083053 0.590489 0.081765
v 0.162913 0.556229 0.160387
v 0.236513 0.500593 0.232846
v 0.301024 0.425719 0.296357
v 0.353967 0.334485 0.348480
v 0.393307 0.230397 0.387209
v 0.417532 0.117455 0.411060
v 0.425712 0.000000 0.419113
v 0.417532 -0.117455 0.411060
v 0.397846 -0.234270 0.391595
v 0.364917 -0.344084 0.359461
v 0.308532 -0.434520 0.306134
v 0.245267 -0.519854 0.246061
v 0.228980 -0.739735 0.246936
v 0.212044 -1.080070 0.284223
v 0.065254 0.590489 0.096145
v 0.128000 0.556229 0.188596
v 0.185827 0.500593 0.273799
v 0.236513 0.425719 0.348480
v 0.278110 0.334485 0.409769
v 0.309019 0.230397 0.455310
v 0.328053 0.117455 0.483355
v 0.334480 0.000000 0.492824
v 0.328053 -0.117455 0.483355
v 0.311650 -0.232659 0.457964
v 0.288722 -0.345398 0.421877
v 0.252596 -0.450180 0.375207
v 0.200040 -0.531603 0.300301
v 0.175958 -0.733787 0.280529
v 0.165497 -1.087246 0.332475
v 0.044948 0.590489 0.106831
v 0.088168 0.556229 0.209556
v 0.128000 0.500593 0.304229
v 0.162913 0.425719 0.387209
v 0.191565 0.334485 0.455310
v 0.212856 0.230397 0.505914
v 0.225967 0.117455 0.537075
v 0.230394 0.000000 0.547597
v 0.225967 -0.117455 0.537075
v 0.212856 -0.230397 0.505914
v 0.196619 -0.344879 0.466231
v 0.180415 -0.462489 0.427837
v 0.143151 -0.541007 0.341703
v 0.119110 -0.730689 0.306770
v 0.115921 -1.107478 0.383594
v 0.022914 0.590489 0.113411
v 0.044948 0.556229 0.222464
v 0.065254 0.500593 0.322967
v 0.083053 0.425719 0.411060
v 0.097659 0.334485 0.483355
v 0.108513 0.230397 0.537075
v 0.115197 0.117455 0.570156
v 0.117454 0.000000 0.581326
v 0.115197 -0.117455 0.570156
v 0.108513 -0.230397 0.537075
v 0.100035 -0.344285 0.493782
v 0.093596 -0.462132 0.452264
v 0.074102 -0.544037 0.366181
v 0.058359 -0.730302 0.326318
v 0.081241 -1.208813 0.523656
v 0.000000 0.590489 0.115633
v 0.000000 0.556229 0.226822
v 0.000000 0.500593 0.329295
v 0.000000 0.425719 0.419113
v 0.000000 0.334485 0.492824
v 0.000000 0.230397 0.547597
v 0.000000 0.117455 0.581326
v 0.000000 0.000000 0.592714
v 0.000000 -0.117455 0.581326
v 0.000000 -0.230397 0.547597
v 0.000739 -0.339706 0.498468
v 0.002155 -0.451174 0.448992
v -0.000694 -0.539341 0.369952
v -0.007303 -0.734595 0.338797
v 0.005609 -1.260835 0.587250
v -0.022914 0.590489 0.113411
v -0.044948 0.556229 0.222464
v -0.065254 0.500593 0.322967
v -0.083053 0.425719 0.411060
v -0.097659 0.334485 0.483355
v -0.108513 0.230397 0.537075
v -0.115197 0.117455 0.570156
v -0.117454 0.000000 0.581326
v -0.115197 -0.117455 0.570156
v -0.108513 -0.230397 0.537075
v -0.097650 -0.334988 0.483908
v -0.084472 -0.438768 0.427209
v -0.070909 -0.532618 0.357088
v -0.077609 -0.745701 0.342858
v -0.103042 -1.232807 0.536660
v -0.044948 0.590489 0.106831
v -0.088168 0.556229 0.209556
v -0.128000 0.500593 0.304229
v -0.162913 0.425719 0.387209
v -0.191566 0.334485 0.455310
v -0.212856 0.230397 0.505914
v -0.225967 0.117455 0.537075
v -0.230394 0.000000 0.547597
v -0.225967 -0.117455 0.537075
v -0.212856 -0.230397 0.505914
v -0.191566 -0.334485 0.455310
v -0.164281 -0.430400 0.393469
v -0.135297 -0.524344 0.327791
v -0.147288 -0.760297 0.333512
v -0.176212 -1.143084 0.403686
v -0.065254 0.590489 0.096145
v -0.128000 0.556229 0.188596
v -0.185827 0.500593 0.273798
v -0.236513 0.425719 0.348480
v -0.278110 0.334485 0.409768
v -0.309019 0.230397 0.455310
v -0.328053 0.117455 0.483355
v -0.334480 0.000000 0.492824
v -0.328053 -0.117455 0.483355
v -0.309019 -0.230397 0.455311
v -0.278110 -0.334485 0.409768
v -0.236786 -0.426304 0.349273
v -0.193251 -0.519747 0.288104
v -0.209102 -0.770362 0.305542
v -0.207661 -1.087733 0.311752
v -0.083053 0.590489 0.081765
v -0.162913 0.556229 0.160387
v -0.236513 0.500593 0.232846
v -0.301024 0.425719 0.296357
v -0.353967 0.334485 0.348479
v -0.393307 0.230397 0.387209
v -0.417532 0.117455 0.411060
v -0.425712 0.000000 0.419112
v -0.417532 -0.117455 0.411060
v -0.393307 -0.230397 0.387209
v -0.353967 -0.334485 0.348479
v -0.301862 -0.426180 0.296715
v -0.249726 -0.524497 0.244886
v -0.262648 -0.776762 0.265252
v -0.224210 -1.044837 0.237177
v -0.033350 -1.151236 0.035318
v -0.097659 0.590489 0.064242
v -0.191566 0.556229 0.126015
v -0.278110 0.500593 0.182946
v -0.353967 0.425719 0.232846
v -0.416220 0.334485 0.273798
v -0.462479 0.230397 0.304229
v -0.490966 0.117455 0.322967
v -0.500584 0.000000 0.329294
v -0.490966 -0.117455 0.322967
v -0.462479 -0.230397 0.304229
v -0.416423 -0.334597 0.273885
v -0.358691 -0.428318 0.234864
v -0.303081 -0.536709 0.197751
v -0.306349 -0.781696 0.215484
v -0.225577 -1.003305 0.168367
v -0.108513 0.590489 0.044251
v -0.212856 0.556229 0.086801
v -0.309019 0.500593 0.126015
v -0.393307 0.425719 0.160387
v -0.462479 0.334485 0.188595
v -0.513880 0.230397 0.209556
v -0.545532 0.117455 0.222464
v -0.556220 0.000000 0.226822
v -0.545532 -0.117455 0.222464
v -0.513880 -0.230397 0.209556
v -0.463422 -0.335004 0.188998
v -0.400756 -0.429820 0.163569
v -0.343090 -0.548366 0.141983
v -0.335284 -0.786979 0.157083
v -0.230675 -0.981387 0.116738
v -0.115197 0.590489 0.022559
v -0.225967 0.556229 0.044251
v -0.328053 0.500593 0.064242
v -0.417532 0.425719 0.081765
v -0.490966 0.334485 0.096145
v -0.545532 0.230397 0.106831
v -0.579133 0.117455 0.113411
v -0.590479 0.000000 0.115633
v -0.579133 -0.117455 0.113411
v -0.545532 -0.230397 0.106831
v -0.491356 -0.334700 0.096312
v -0.423314 -0.429149 0.084145
v -0.365037 -0.555208 0.075479
v -0.348968 -0.792745 0.094900
v -0.239055 -0.978249 0.073913
v -0.117454 0.590489 -0.000000
v -0.230394 0.556229 -0.000000
v -0.334480 0.500593 -0.000000
v -0.425712 0.425719 -0.000000
v -0.500584 0.334485 -0.000000
v -0.556220 0.230397 -0.000000
v -0.590480 0.117455 -0.000000
v -0.602047 0.000000 0.000000
v -0.590480 -0.117455 0.000000
v -0.556220 -0.230397 0.000000
v -0.500584 -0.334485 0.000000
v -0.428602 -0.428656 0.000609
v -0.376031 -0.561802 0.002208
v -0.349205 -0.797602 0.030690
v -0.244926 -0.988404 0.029269
v -0.115197 0.590489 -0.022559
v -0.225967 0.556229 -0.044251
v -0.328053 0.500593 -0.064242
v -0.417532 0.425719 -0.081765
v -0.490966 0.334485 -0.096145
v -0.545532 0.230397 -0.106831
v -0.579133 0.117455 -0.113411
v -0.590479 -0.000000 -0.115633
v -0.579133 -0.117455 -0.113411
v -0.545532 -0.230397 -0.106831
v -0.490966 -0.334485 -0.096145
v -0.420426 -0.429730 -0.082182
v -0.381057 -0.572753 -0.072649
v -0.336367 -0.798708 -0.039009
v -0.246125 -1.006493 -0.020446
v -0.108513 0.590489 -0.044251
v -0.212856 0.556229 -0.086801
v -0.309019 0.500593 -0.126015
v -0.393307 0.425719 -0.160387
v -0.462479 0.334485 -0.188596
v -0.513880 0.230397 -0.209556
v -0.545532 0.117455 -0.222464
v -0.556219 -0.000000 -0.226822
v -0.545532 -0.117455 -0.222464
v -0.514058 -0.230494 -0.209527
v -0.465994 -0.336389 -0.187990
v -0.397796 -0.430901 -0.161978
v -0.369703 -0.581140 -0.145785
v -0.320859 -0.809945 -0.114044
v -0.239521 -1.024133 -0.069819
v -0.097659 0.590489 -0.064242
v -0.191565 0.556229 -0.126015
v -0.278109 0.500593 -0.182946
v -0.353967 0.425719 -0.232846
v -0.416220 0.334485 -0.273799
v -0.462479 0.230397 -0.304229
v -0.490966 0.117455 -0.322967
v -0.500584 -0.000000 -0.329295
v -0.490966 -0.117455 -0.322967
v -0.479066 -0.236959 -0.308301
v -0.481789 -0.375310 -0.298121
v -0.366136 -0.436836 -0.239546
v -0.333872 -0.580133 -0.212780
v -0.301922 -0.830562 -0.188569
v -0.224251 -1.038209 -0.113442
v -0.083053 0.590489 -0.081765
v -0.162913 0.556229 -0.160387
v -0.236513 0.500593 -0.232846
v -0.301024 0.425719 -0.296357
v -0.353966 0.334485 -0.348480
v -0.393307 0.230397 -0.387209
v -0.417532 0.117455 -0.411060
v -0.425712 -0.000000 -0.419112
v -0.417606 -0.117428 -0.411104
v -0.516847 -0.311310 -0.496856
v -0.576046 -0.561000 -0.509397
v -0.331748 -0.456976 -0.325537
v -0.278315 -0.569813 -0.269159
v -0.266855 -0.835092 -0.251824
v -0.200332 -1.047286 -0.150875
v -0.065254 0.590489 -0.096146
v -0.128000 0.556229 -0.188596
v -0.185827 0.500593 -0.273798
v -0.236513 0.425719 -0.348480
v -0.278109 0.334485 -0.409768
v -0.309019 0.230397 -0.455310
v -0.328053 0.117455 -0.483355
v -0.334479 -0.000000 -0.492824
v -0.328053 -0.117455 -0.483355
v -0.366316 -0.281824 -0.531012
v -0.443473 -0.515507 -0.564394
v -0.256661 -0.449445 -0.374247
v -0.213029 -0.554525 -0.314364
v -0.215918 -0.824746 -0.301160
v -0.166784 -1.050134 -0.182616
v -0.044948 0.590489 -0.106831
v -0.088168 0.556229 -0.209556
v -0.128000 0.500593 -0.304228
v -0.162913 0.425719 -0.387209
v -0.191565 0.334485 -0.455310
v -0.212856 0.230397 -0.505914
v -0.225967 0.117455 -0.537075
v -0.230394 -0.000000 -0.547597
v -0.225967 -0.117455 -0.537075
v -0.212891 -0.230433 -0.505951
v -0.198997 -0.342466 -0.464073
v -0.165536 -0.430241 -0.393093
v -0.146179 -0.547484 -0.348850
v -0.156294 -0.810422 -0.336407
v -0.125116 -1.047712 -0.206990
v -0.022914 0.590489 -0.113411
v -0.044948 0.556229 -0.222464
v -0.065254 0.500593 -0.322967
v -0.083053 0.425719 -0.411060
v -0.097659 0.334485 -0.483355
v -0.108513 0.230397 -0.537075
v -0.115196 0.117455 -0.570156
v -0.117454 -0.000000 -0.581325
v -0.115196 -0.117455 -0.570156
v -0.108513 -0.230397 -0.537075
v -0.097659 -0.334485 -0.483355
v -0.083678 -0.430474 -0.415631
v -0.079854 -0.563034 -0.380368
v -0.091075 -0.798407 -0.358761
v -0.077735 -1.041490 -0.222128
v 0.000000 0.590489 -0.115633
v 0.000000 0.556229 -0.226822
v 0.000000 0.425719 -0.419113
v 0.000000 0.230397 -0.547597
v 0.000000 -0.230397 -0.547597
v -0.001106 -0.448845 -0.437287
v -0.007840 -0.598990 -0.408380
v -0.020656 -0.792356 -0.370749
v -0.026285 -1.031912 -0.227217
vn -0.0060 -0.3734 -0.9276
vn 0.0620 0.7666 -0.6391
vn -0.2510 -0.3329 -0.9090
vn 0.0752 0.6267 -0.7756
vn -0.2617 -0.2293 -0.9375
vn 0.0855 0.4640 -0.8817
vn -0.0774 -0.2101 -0.9746
vn 0.0925 0.2849 -0.9541
vn 0.0713 -0.5341 -0.8424
vn 0.0961 0.0961 -0.9907
vn 0.0097 0.9950 -0.0995
vn 0.2298 -0.8882 -0.3979
vn 0.2315 -0.8880 -0.3974
vn 0.2313 -0.8879 -0.3977
vn 0.0961 -0.0961 -0.9907
vn 0.0285 0.9553 -0.2943
vn 0.0925 -0.2849 -0.9541
vn 0.0462 0.8779 -0.4766
vn 0.2646 -0.2766 -0.9238
vn 0.1369 0.8781 -0.4584
vn 0.1253 -0.1965 -0.9725
vn 0.1836 0.7670 -0.6148
vn -0.0182 -0.3038 -0.9526
vn 0.2229 0.6271 -0.7464
vn 0.1071 -0.3687 -0.9233
vn 0.2534 0.4644 -0.8486
vn 0.1900 -0.2392 -0.9522
vn 0.2743 0.2852 -0.9184
vn 0.1769 -0.5736 -0.7998
vn 0.2848 0.0962 -0.9537
vn 0.0286 0.9950 -0.0957
vn 0.2281 -0.8884 -0.3984
vn 0.2841 -0.0954 -0.9540
vn 0.0845 0.9554 -0.2831
vn 0.4105 -0.1916 -0.8915
vn 0.4463 0.2858 -0.8480
vn 0.2673 -0.5954 -0.7577
vn 0.4635 0.0964 -0.8808
vn 0.0464 0.9950 -0.0882
vn 0.1352 -0.8870 -0.4415
vn 0.1340 -0.8868 -0.4423
vn 0.1353 -0.8870 -0.4415
vn 0.4144 -0.0388 -0.9093
vn 0.1373 0.9555 -0.2609
vn 0.2056 -0.1020 -0.9733
vn 0.2224 0.8785 -0.4227
vn -0.5255 0.5199 -0.6735
vn 0.2984 0.7677 -0.5671
vn -0.7441 -0.5925 -0.3086
vn 0.3624 0.6279 -0.6887
vn 0.3071 -0.5016 -0.8088
vn 0.4122 0.4652 -0.7834
vn 0.2995 0.8791 -0.3707
vn 0.6711 0.4175 -0.6126
vn 0.4021 0.7686 -0.4976
vn 0.3191 -0.9473 0.0295
vn 0.4886 0.6290 -0.6047
vn 0.5538 -0.5569 -0.6191
vn 0.5560 0.4662 -0.6881
vn 0.5928 -0.1510 -0.7911
vn 0.6021 0.2865 -0.7452
vn 0.4104 -0.5965 -0.6897
vn 0.6255 0.0966 -0.7742
vn 0.0625 0.9950 -0.0773
vn 0.1364 -0.8872 -0.4407
vn 0.5839 0.0759 -0.8083
vn 0.1848 0.9558 -0.2288
vn 0.4703 0.1434 -0.8708
vn 0.7357 0.2873 -0.6133
vn 0.5969 -0.5745 -0.5600
vn 0.7645 0.0969 -0.6373
vn 0.0761 0.9951 -0.0635
vn 0.1773 -0.8975 -0.4037
vn 0.8178 0.0495 -0.5734
vn 0.2253 0.9560 -0.1878
vn 0.9350 0.0413 -0.3523
vn 0.3652 0.8797 -0.3045
vn 0.9894 -0.0852 -0.1177
vn 0.4905 0.7695 -0.4089
vn 0.7679 -0.6406 -0.0038
vn 0.5964 0.6301 -0.4972
vn 0.7478 -0.5089 -0.4264
vn 0.6791 0.4673 -0.5661
vn 0.7896 -0.1499 -0.5950
vn 0.9535 -0.2700 -0.1337
vn 0.5603 0.7704 -0.3042
vn 0.9440 -0.2560 -0.2079
vn 0.6816 0.6312 -0.3701
vn 0.7910 -0.4857 -0.3720
vn 0.7765 0.4683 -0.4216
vn 0.9084 -0.1882 -0.3735
vn 0.8416 0.2881 -0.4569
vn 0.7690 -0.5072 -0.3891
vn 0.8747 0.0972 -0.4749
vn 0.0869 0.9951 -0.0472
vn 0.1964 -0.9041 -0.3794
vn 0.8918 -0.0659 -0.4477
vn 0.2571 0.9563 -0.1396
vn 0.9169 -0.2121 -0.3382
vn 0.4170 0.8803 -0.2264
vn 0.8886 -0.3998 -0.2250
vn 0.9511 0.0974 -0.2931
vn 0.0942 0.9951 -0.0290
vn 0.2198 -0.9161 -0.3352
vn 0.9511 -0.0974 -0.2931
vn 0.2790 0.9564 -0.0860
vn 0.9159 -0.2872 -0.2805
vn 0.4527 0.8807 -0.1395
vn 0.8780 -0.3946 -0.2709
vn 0.6085 0.7711 -0.1875
vn 0.9602 -0.1186 -0.2531
vn 0.7406 0.6320 -0.2282
vn 0.8589 -0.4873 -0.1576
vn 0.8440 0.4691 -0.2600
vn 0.9608 -0.2459 -0.1283
vn 0.9150 0.2886 -0.2819
vn 0.6331 0.7715 -0.0633
vn 0.9662 -0.2367 0.1023
vn 0.7707 0.6325 -0.0771
vn 0.8911 -0.4013 0.2120
vn 0.8785 0.4696 -0.0879
vn 0.9582 -0.2564 0.1270
vn 0.9526 0.2890 -0.0953
vn 0.9556 -0.2861 -0.0706
vn 0.9903 0.0975 -0.0991
vn 0.0980 0.9951 -0.0098
vn 0.2500 -0.9402 -0.2313
vn 0.9903 -0.0975 -0.0991
vn 0.2902 0.9565 -0.0290
vn 0.9526 -0.2890 -0.0953
vn 0.4709 0.8809 -0.0471
vn 0.9064 -0.4186 -0.0564
vn 0.9903 0.0975 0.0991
vn 0.0980 0.9951 0.0098
vn 0.2602 -0.9608 -0.0957
vn 0.9903 -0.0975 0.0991
vn 0.2902 0.9565 0.0290
vn 0.9526 -0.2890 0.0953
vn 0.4709 0.8809 0.0471
vn 0.8830 -0.4577 0.1038
vn 0.6331 0.7715 0.0633
vn 0.8533 -0.4441 0.2732
vn 0.7707 0.6325 0.0771
vn 0.8305 -0.3419 0.4398
vn 0.8785 0.4696 0.0879
vn 0.9171 -0.1873 0.3520
vn 0.9526 0.2890 0.0953
vn 0.9773 -0.1912 0.0909
vn 0.7493 -0.5934 0.2941
vn 0.7406 0.6320 0.2282
vn 0.7377 -0.4359 0.5155
vn 0.8440 0.4691 0.2600
vn 0.8512 -0.0743 0.5195
vn 0.9150 0.2886 0.2819
vn 0.9543 -0.1210 0.2732
vn 0.9511 0.0974 0.2931
vn 0.0942 0.9951 0.0290
vn 0.2480 -0.9688 -0.0042
vn 0.9511 -0.0974 0.2931
vn 0.2790 0.9564 0.0860
vn 0.9150 -0.2886 0.2819
vn 0.4527 0.8807 0.1395
vn 0.8440 -0.4691 0.2600
vn 0.6085 0.7711 0.1875
vn 0.2292 -0.9722 0.0481
vn 0.8747 -0.0972 0.4749
vn 0.2571 0.9563 0.1396
vn 0.8470 -0.2812 0.4512
vn 0.4170 0.8803 0.2264
vn 0.7988 -0.4545 0.3941
vn 0.5603 0.7704 0.3042
vn 0.6859 -0.6460 0.3351
vn 0.6816 0.6312 0.3701
vn 0.6449 -0.5934 0.4817
vn 0.7765 0.4683 0.4216
vn 0.7935 -0.0053 0.6086
vn 0.8416 0.2881 0.4569
vn 0.8740 -0.0612 0.4821
vn 0.8747 0.0972 0.4749
vn 0.0869 0.9951 0.0472
vn 0.6299 -0.6824 0.3709
vn 0.6791 0.4673 0.5661
vn 0.7414 -0.0201 0.6708
vn 0.7357 0.2873 0.6133
vn 0.7639 0.0063 0.6453
vn 0.7645 0.0969 0.6373
vn 0.0761 0.9951 0.0635
vn 0.2171 -0.9740 0.0642
vn 0.2224 -0.9732 0.0590
vn 0.2221 -0.9732 0.0591
vn 0.7645 -0.0969 0.6373
vn 0.2253 0.9560 0.1878
vn 0.7585 -0.2515 0.6011
vn 0.3652 0.8797 0.3045
vn 0.7525 -0.4115 0.5142
vn 0.4905 0.7695 0.4089
vn 0.6645 -0.6507 0.3674
vn 0.5964 0.6301 0.4972
vn 0.1848 0.9558 0.2288
vn 0.6000 -0.2408 0.7629
vn 0.2995 0.8791 0.3707
vn 0.5773 -0.3683 0.7288
vn 0.4021 0.7686 0.4976
vn 0.6151 -0.5703 0.5444
vn 0.4886 0.6290 0.6047
vn 0.6149 -0.7081 0.3471
vn 0.5560 0.4662 0.6881
vn 0.6665 -0.0968 0.7392
vn 0.6021 0.2865 0.7452
vn 0.6327 0.0742 0.7708
vn 0.6255 0.0966 0.7742
vn 0.0625 0.9950 0.0773
vn 0.2170 -0.9740 0.0645
vn 0.6255 -0.0966 0.7742
vn 0.4122 0.4652 0.7834
vn 0.5102 -0.1801 0.8410
vn 0.4463 0.2858 0.8480
vn 0.5687 0.1325 0.8118
vn 0.4635 0.0964 0.8808
vn 0.0464 0.9950 0.0882
vn 0.3492 -0.9365 -0.0320
vn 0.4635 -0.0964 0.8808
vn 0.1373 0.9555 0.2609
vn 0.4325 -0.2692 0.8605
vn 0.2224 0.8785 0.4227
vn 0.4034 -0.3513 0.8449
vn 0.2984 0.7677 0.5671
vn 0.4854 -0.4097 0.7724
vn 0.3624 0.6279 0.6887
vn 0.4712 -0.7431 0.4752
vn 0.2743 -0.2852 0.9184
vn 0.1369 0.8781 0.4584
vn 0.2613 -0.3545 0.8978
vn 0.1836 0.7670 0.6148
vn 0.2555 -0.3327 0.9078
vn 0.2229 0.6271 0.7464
vn 0.2100 -0.7490 0.6284
vn 0.2534 0.4644 0.8486
vn 0.3175 -0.2172 0.9230
vn 0.2743 0.2852 0.9184
vn 0.7755 0.2088 0.5958
vn 0.2848 0.0962 0.9537
vn 0.0286 0.9950 0.0957
vn 0.7576 -0.6033 -0.2489
vn 0.2848 -0.0962 0.9537
vn 0.0845 0.9554 0.2831
vn 0.1123 -0.1882 0.9757
vn 0.0925 0.2849 0.9541
vn 0.3085 0.3949 0.8654
vn 0.0961 0.0961 0.9907
vn 0.0097 0.9950 0.0995
vn 0.4319 -0.8783 -0.2049
vn 0.0961 -0.0961 0.9907
vn 0.0285 0.9553 0.2943
vn 0.0925 -0.2849 0.9541
vn 0.0462 0.8779 0.4766
vn 0.0590 -0.3837 0.9216
vn 0.0620 0.7666 0.6391
vn -0.0231 -0.3683 0.9294
vn 0.0752 0.6267 0.7756
vn -0.0629 -0.6909 0.7202
vn 0.0855 0.4640 0.8817
vn -0.0462 0.8779 0.4766
vn -0.1182 -0.4336 0.8933
vn -0.0620 0.7666 0.6391
vn -0.2121 -0.4438 0.8706
vn -0.0752 0.6267 0.7756
vn -0.2404 -0.6237 0.7438
vn -0.0855 0.4640 0.8817
vn -0.0588 -0.1084 0.9924
vn -0.0925 0.2849 0.9541
vn -0.1962 0.3943 0.8978
vn -0.0961 0.0961 0.9907
vn -0.0097 0.9950 0.0995
vn -0.1659 -0.9694 -0.1808
vn -0.0961 -0.0961 0.9907
vn -0.0285 0.9553 0.2943
vn -0.0925 -0.2849 0.9541
vn -0.2743 0.2852 0.9184
vn -0.6069 0.2653 0.7492
vn -0.2848 0.0962 0.9537
vn -0.0286 0.9950 0.0957
vn -0.5832 -0.7850 -0.2088
vn -0.2848 -0.0962 0.9537
vn -0.0845 0.9554 0.2831
vn -0.2743 -0.2852 0.9184
vn -0.1369 0.8781 0.4584
vn -0.2571 -0.4618 0.8489
vn -0.1836 0.7670 0.6148
vn -0.3101 -0.5310 0.7886
vn -0.2229 0.6271 0.7464
vn -0.3782 -0.5972 0.7074
vn -0.2534 0.4644 0.8486
vn -0.2767 -0.0067 0.9609
vn -0.4122 -0.4652 0.7834
vn -0.2984 0.7677 0.5671
vn -0.4053 -0.5985 0.6911
vn -0.3624 0.6279 0.6887
vn -0.4557 -0.6132 0.6452
vn -0.4122 0.4652 0.7834
vn -0.4931 0.0695 0.8672
vn -0.4463 0.2858 0.8480
vn -0.7669 0.0993 0.6340
vn -0.4635 0.0964 0.8808
vn -0.0464 0.9950 0.0882
vn -0.6327 -0.7398 -0.2290
vn -0.4635 -0.0964 0.8808
vn -0.1373 0.9555 0.2609
vn -0.4463 -0.2858 0.8480
vn -0.2224 0.8785 0.4227
vn -0.8618 -0.0774 0.5013
vn -0.6255 0.0966 0.7742
vn -0.0625 0.9950 0.0773
vn -0.6635 -0.7027 -0.2569
vn -0.6255 -0.0966 0.7742
vn -0.1848 0.9558 0.2288
vn -0.6021 -0.2865 0.7452
vn -0.2995 0.8791 0.3707
vn -0.5560 -0.4662 0.6881
vn -0.4021 0.7686 0.4976
vn -0.4920 -0.6227 0.6084
vn -0.4886 0.6290 0.6047
vn -0.4757 -0.6105 0.6332
vn -0.5560 0.4662 0.6881
vn -0.6079 0.0941 0.7884
vn -0.6021 0.2865 0.7452
vn -0.5921 -0.6091 0.5277
vn -0.5964 0.6301 0.4972
vn -0.5474 -0.5549 0.6265
vn -0.6791 0.4673 0.5661
vn -0.7112 0.0767 0.6988
vn -0.7357 0.2873 0.6133
vn -0.9254 -0.2666 0.2694
vn -0.7645 0.0969 0.6373
vn -0.0761 0.9951 0.0635
vn -0.7117 -0.6076 -0.3526
vn -0.7645 -0.0969 0.6373
vn -0.2253 0.9560 0.1878
vn -0.7357 -0.2873 0.6133
vn -0.3652 0.8797 0.3045
vn -0.6787 -0.4664 0.5673
vn -0.4905 0.7695 0.4089
vn -0.0869 0.9951 0.0472
vn -0.6873 -0.6905 -0.2253
vn -0.8747 -0.0972 0.4749
vn -0.2571 0.9563 0.1396
vn -0.8416 -0.2881 0.4569
vn -0.4170 0.8803 0.2264
vn -0.7768 -0.4631 0.4267
vn -0.5603 0.7704 0.3042
vn -0.7006 -0.5864 0.4067
vn -0.6816 0.6312 0.3701
vn -0.7102 -0.4862 0.5091
vn -0.7765 0.4683 0.4216
vn -0.8575 0.0268 0.5138
vn -0.8416 0.2881 0.4569
vn -0.8771 -0.4341 0.2057
vn -0.8747 0.0972 0.4749
vn -0.7406 0.6320 0.2282
vn -0.8539 -0.4393 0.2790
vn -0.8440 0.4691 0.2600
vn -0.9626 -0.0287 0.2693
vn -0.9150 0.2886 0.2819
vn -0.8416 -0.5058 0.1895
vn -0.9511 0.0974 0.2931
vn -0.0942 0.9951 0.0290
vn -0.6347 -0.7698 0.0678
vn -0.9511 -0.0974 0.2931
vn -0.2790 0.9564 0.0860
vn -0.9150 -0.2886 0.2819
vn -0.4527 0.8807 0.1395
vn -0.8480 -0.4631 0.2579
vn -0.6085 0.7711 0.1875
vn -0.7801 -0.5836 0.2256
vn -0.9903 -0.0975 0.0991
vn -0.2902 0.9565 0.0290
vn -0.9526 -0.2890 0.0953
vn -0.4709 0.8809 0.0471
vn -0.8796 -0.4679 0.0857
vn -0.6331 0.7715 0.0633
vn -0.7996 -0.5974 0.0622
vn -0.7707 0.6325 0.0771
vn -0.9128 -0.3933 0.1101
vn -0.8785 0.4696 0.0879
vn -0.9928 -0.0811 0.0879
vn -0.9526 0.2890 0.0953
vn -0.8601 -0.4965 0.1167
vn -0.9903 0.0975 0.0991
vn -0.0980 0.9951 0.0098
vn -0.5948 -0.7634 0.2519
vn -0.9489 -0.3157 0.0051
vn -0.8785 0.4696 -0.0879
vn -0.9866 -0.1582 -0.0401
vn -0.9526 0.2890 -0.0953
vn -0.8983 -0.4391 -0.0170
vn -0.9903 0.0975 -0.0991
vn -0.0980 0.9951 -0.0098
vn -0.5891 -0.7547 0.2888
vn -0.9903 -0.0975 -0.0991
vn -0.2902 0.9565 -0.0290
vn -0.9526 -0.2890 -0.0953
vn -0.4709 0.8809 -0.0471
vn -0.8785 -0.4696 -0.0879
vn -0.6331 0.7715 -0.0633
vn -0.7940 -0.6032 -0.0753
vn -0.7707 0.6325 -0.0771
vn -0.2790 0.9564 -0.0860
vn -0.9154 -0.2879 -0.2812
vn -0.4527 0.8807 -0.1395
vn -0.8561 -0.4558 -0.2437
vn -0.6085 0.7711 -0.1875
vn -0.7697 -0.6054 -0.2026
vn -0.7406 0.6320 -0.2282
vn -0.9516 -0.2362 -0.1967
vn -0.8440 0.4691 -0.2600
vn -0.9647 -0.2194 -0.1458
vn -0.9150 0.2886 -0.2819
vn -0.9199 -0.3851 -0.0741
vn -0.9511 0.0974 -0.2931
vn -0.0942 0.9951 -0.0290
vn -0.5865 -0.7844 0.2018
vn -0.9511 -0.0974 -0.2931
vn -0.7765 0.4683 -0.4216
vn -0.9236 -0.1943 -0.3305
vn -0.8416 0.2881 -0.4569
vn -0.9103 -0.3857 -0.1503
vn -0.8747 0.0972 -0.4749
vn -0.0869 0.9951 -0.0472
vn -0.5509 -0.8312 0.0754
vn -0.8747 -0.0972 -0.4749
vn -0.2571 0.9563 -0.1396
vn -0.8937 -0.2135 -0.3947
vn -0.4170 0.8803 -0.2264
vn -0.9808 -0.1885 -0.0492
vn -0.5603 0.7704 -0.3042
vn -0.6735 -0.7298 0.1175
vn -0.6816 0.6312 -0.3701
vn -0.8826 -0.2406 -0.4039
vn -0.9307 0.3051 -0.2016
vn -0.3652 0.8797 -0.3045
vn -0.9637 0.1525 0.2191
vn -0.4905 0.7695 -0.4089
vn -0.3037 -0.7536 0.5830
vn -0.5964 0.6301 -0.4972
vn -0.7825 -0.4131 -0.4659
vn -0.6791 0.4673 -0.5661
vn -0.7891 -0.1150 -0.6033
vn -0.7357 0.2873 -0.6133
vn -0.7977 -0.4448 -0.4072
vn -0.7645 0.0969 -0.6373
vn -0.0761 0.9951 -0.0635
vn -0.4608 -0.8839 -0.0801
vn -0.7648 -0.0966 -0.6370
vn -0.2253 0.9560 -0.1878
vn -0.6228 -0.0545 -0.7805
vn -0.6021 0.2865 -0.7452
vn -0.5840 -0.4820 -0.6532
vn -0.6255 0.0966 -0.7742
vn -0.0625 0.9950 -0.0773
vn -0.3056 -0.9213 -0.2403
vn -0.6253 -0.0963 -0.7744
vn -0.1848 0.9558 -0.2288
vn -0.4072 0.4519 -0.7937
vn -0.2995 0.8791 -0.3707
vn -0.3391 0.1833 -0.9227
vn -0.4021 0.7686 -0.4976
vn 0.2914 -0.9517 0.0969
vn -0.4886 0.6290 -0.6047
vn -0.3943 -0.5631 -0.7262
vn -0.5560 0.4662 -0.6881
vn 0.3431 -0.0858 -0.9354
vn -0.2984 0.7677 -0.5671
vn 0.5192 -0.6962 -0.4958
vn -0.3624 0.6279 -0.6887
vn -0.2134 -0.4633 -0.8601
vn -0.4122 0.4652 -0.7834
vn -0.4786 -0.0305 -0.8775
vn -0.4463 0.2858 -0.8480
vn -0.3818 -0.4872 -0.7854
vn -0.4635 0.0964 -0.8808
vn -0.0464 0.9950 -0.0882
vn -0.1458 -0.9285 -0.3415
vn -0.4635 -0.0964 -0.8808
vn -0.1373 0.9555 -0.2609
vn -0.1252 0.0704 -0.9896
vn -0.2224 0.8785 -0.4227
vn -0.2033 -0.4887 -0.8484
vn -0.2848 0.0962 -0.9537
vn -0.0286 0.9950 -0.0957
vn -0.0043 -0.9202 -0.3915
vn -0.2848 -0.0962 -0.9537
vn -0.0845 0.9554 -0.2831
vn -0.2741 -0.2850 -0.9185
vn -0.1369 0.8781 -0.4584
vn -0.2012 -0.4154 -0.8871
vn -0.1836 0.7670 -0.6148
vn -0.1496 -0.6200 -0.7702
vn -0.2229 0.6271 -0.7464
vn -0.3547 -0.3133 -0.8809
vn -0.2534 0.4644 -0.8486
vn -0.3796 -0.0469 -0.9239
vn -0.2743 0.2852 -0.9184
vn -0.0620 0.7666 -0.6391
vn -0.2052 -0.5098 -0.8355
vn -0.0752 0.6267 -0.7756
vn -0.3634 -0.2027 -0.9093
vn -0.0855 0.4640 -0.8817
vn -0.2909 -0.1149 -0.9498
vn -0.0925 0.2849 -0.9541
vn -0.0566 -0.5019 -0.8631
vn -0.0961 0.0961 -0.9907
vn -0.0097 0.9950 -0.0995
vn 0.1280 -0.9042 -0.4075
vn -0.0961 -0.0961 -0.9907
vn -0.0285 0.9553 -0.2943
vn -0.0925 -0.2849 -0.9541
vn -0.0462 0.8779 -0.4766
vn -0.0934 -0.4580 -0.8841
vt 0.750000 0.312500
vt 0.750000 0.375000
vt 0.718750 0.375000
vt 0.718750 0.312500
vt 0.750000 0.750000
vt 0.750000 0.812500
vt 0.718750 0.812500
vt 0.718750 0.750000
vt 0.750000 0.250000
vt 0.718750 0.250000
vt 0.750000 0.687500
vt 0.718750 0.687500
vt 0.750000 0.187500
vt 0.718750 0.187500
vt 0.750000 0.625000
vt 0.718750 0.625000
vt 0.750000 0.125000
vt 0.718750 0.125000
vt 0.750000 0.562500
vt 0.718750 0.562500
vt 0.750000 0.062500
vt 0.718750 0.062500
vt 0.750000 0.500000
vt 0.718750 0.500000
vt 0.750000 0.937500
vt 0.734375 1.000000
vt 0.718750 0.937500
vt 0.734375 0.000000
vt 0.750000 0.437500
vt 0.718750 0.437500
vt 0.750000 0.875000
vt 0.718750 0.875000
vt 0.687500 0.437500
vt 0.687500 0.375000
vt 0.687500 0.875000
vt 0.687500 0.812500
vt 0.687500 0.312500
vt 0.687500 0.750000
vt 0.687500 0.250000
vt 0.687500 0.687500
vt 0.687500 0.187500
vt 0.687500 0.625000
vt 0.687500 0.125000
vt 0.687500 0.562500
vt 0.687500 0.062500
vt 0.687500 0.500000
vt 0.703125 1.000000
vt 0.687500 0.937500
vt 0.703125 0.000000
vt 0.656250 0.187500
vt 0.656250 0.125000
vt 0.656250 0.625000
vt 0.656250 0.562500
vt 0.656250 0.062500
vt 0.656250 0.500000
vt 0.671875 1.000000
vt 0.656250 0.937500
vt 0.671875 0.000000
vt 0.656250 0.437500
vt 0.656250 0.875000
vt 0.656250 0.375000
vt 0.656250 0.812500
vt 0.656250 0.312500
vt 0.656250 0.750000
vt 0.656250 0.250000
vt 0.656250 0.687500
vt 0.625000 0.875000
vt 0.625000 0.812500
vt 0.625000 0.375000
vt 0.625000 0.312500
vt 0.625000 0.750000
vt 0.625000 0.250000
vt 0.625000 0.687500
vt 0.625000 0.187500
vt 0.625000 0.625000
vt 0.625000 0.125000
vt 0.625000 0.562500
vt 0.625000 0.062500
vt 0.625000 0.500000
vt 0.640625 1.000000
vt 0.625000 0.937500
vt 0.640625 0.000000
vt 0.625000 0.437500
vt 0.593750 0.625000
vt 0.593750 0.562500
vt 0.593750 0.125000
vt 0.593750 0.062500
vt 0.593750 0.500000
vt 0.609375 1.000000
vt 0.593750 0.937500
vt 0.609375 0.000000
vt 0.593750 0.437500
vt 0.593750 0.875000
vt 0.593750 0.375000
vt 0.593750 0.812500
vt 0.593750 0.312500
vt 0.593750 0.750000
vt 0.593750 0.250000
vt 0.593750 0.687500
vt 0.593750 0.187500
vt 0.562500 0.375000
vt 0.562500 0.312500
vt 0.562500 0.812500
vt 0.562500 0.750000
vt 0.562500 0.250000
vt 0.562500 0.687500
vt 0.562500 0.187500
vt 0.562500 0.625000
vt 0.562500 0.125000
vt 0.562500 0.562500
vt 0.562500 0.062500
vt 0.562500 0.500000
vt 0.578125 1.000000
vt 0.562500 0.937500
vt 0.578125 0.000000
vt 0.562500 0.437500
vt 0.562500 0.875000
vt 0.531250 0.125000
vt 0.531250 0.062500
vt 0.531250 0.562500
vt 0.531250 0.500000
vt 0.546875 1.000000
vt 0.531250 0.937500
vt 0.546875 0.000000
vt 0.531250 0.437500
vt 0.531250 0.875000
vt 0.531250 0.375000
vt 0.531250 0.812500
vt 0.531250 0.312500
vt 0.531250 0.750000
vt 0.531250 0.250000
vt 0.531250 0.687500
vt 0.531250 0.187500
vt 0.531250 0.625000
vt 0.500000 0.812500
vt 0.500000 0.750000
vt 0.500000 0.312500
vt 0.500000 0.250000
vt 0.500000 0.687500
vt 0.500000 0.187500
vt 0.500000 0.625000
vt 0.500000 0.125000
vt 0.500000 0.562500
vt 0.500000 0.062500
vt 0.500000 0.500000
vt 0.515625 1.000000
vt 0.500000 0.937500
vt 0.515625 0.000000
vt 0.500000 0.437500
vt 0.500000 0.875000
vt 0.500000 0.375000
vt 0.468750 0.562500
vt 0.468750 0.500000
vt 0.484375 1.000000
vt 0.468750 0.937500
vt 0.484375 0.000000
vt 0.468750 0.062500
vt 0.468750 0.437500
vt 0.468750 0.875000
vt 0.468750 0.375000
vt 0.468750 0.812500
vt 0.468750 0.312500
vt 0.468750 0.750000
vt 0.468750 0.250000
vt 0.468750 0.687500
vt 0.468750 0.187500
vt 0.468750 0.625000
vt 0.468750 0.125000
vt 0.437500 0.312500
vt 0.437500 0.250000
vt 0.437500 0.750000
vt 0.437500 0.687500
vt 0.437500 0.187500
vt 0.437500 0.625000
vt 0.437500 0.125000
vt 0.437500 0.562500
vt 0.437500 0.062500
vt 0.437500 0.500000
vt 0.453125 1.000000
vt 0.437500 0.937500
vt 0.453125 0.000000
vt 0.437500 0.437500
vt 0.437500 0.875000
vt 0.437500 0.375000
vt 0.437500 0.812500
vt 0.421875 0.000000
vt 0.406250 0.062500
vt 0.406250 0.500000
vt 0.406250 0.437500
vt 0.406250 0.937500
vt 0.406250 0.875000
vt 0.406250 0.375000
vt 0.406250 0.812500
vt 0.406250 0.312500
vt 0.406250 0.750000
vt 0.406250 0.250000
vt 0.406250 0.687500
vt 0.406250 0.187500
vt 0.406250 0.625000
vt 0.406250 0.125000
vt 0.406250 0.562500
vt 0.421875 1.000000
vt 0.375000 0.250000
vt 0.375000 0.187500
vt 0.375000 0.687500
vt 0.375000 0.625000
vt 0.375000 0.125000
vt 0.375000 0.562500
vt 0.375000 0.062500
vt 0.375000 0.500000
vt 0.390625 1.000000
vt 0.375000 0.937500
vt 0.390625 0.000000
vt 0.375000 0.437500
vt 0.375000 0.875000
vt 0.375000 0.375000
vt 0.375000 0.812500
vt 0.375000 0.312500
vt 0.375000 0.750000
vt 0.343750 0.937500
vt 0.343750 0.875000
vt 0.343750 0.437500
vt 0.343750 0.375000
vt 0.343750 0.812500
vt 0.343750 0.312500
vt 0.343750 0.750000
vt 0.343750 0.250000
vt 0.343750 0.687500
vt 0.343750 0.187500
vt 0.343750 0.625000
vt 0.343750 0.125000
vt 0.343750 0.562500
vt 0.343750 0.062500
vt 0.343750 0.500000
vt 0.359375 1.000000
vt 0.359375 0.000000
vt 0.312500 0.687500
vt 0.312500 0.625000
vt 0.312500 0.187500
vt 0.312500 0.125000
vt 0.312500 0.562500
vt 0.312500 0.062500
vt 0.312500 0.500000
vt 0.328125 1.000000
vt 0.312500 0.937500
vt 0.328125 0.000000
vt 0.312500 0.437500
vt 0.312500 0.875000
vt 0.312500 0.375000
vt 0.312500 0.812500
vt 0.312500 0.312500
vt 0.312500 0.750000
vt 0.312500 0.250000
vt 0.281250 0.437500
vt 0.281250 0.375000
vt 0.281250 0.875000
vt 0.281250 0.812500
vt 0.281250 0.312500
vt 0.281250 0.750000
vt 0.281250 0.250000
vt 0.281250 0.687500
vt 0.281250 0.187500
vt 0.281250 0.625000
vt 0.281250 0.125000
vt 0.281250 0.562500
vt 0.281250 0.062500
vt 0.281250 0.500000
vt 0.296875 1.000000
vt 0.281250 0.937500
vt 0.296875 0.000000
vt 0.250000 0.187500
vt 0.250000 0.125000
vt 0.250000 0.625000
vt 0.250000 0.562500
vt 0.250000 0.062500
vt 0.250000 0.500000
vt 0.265625 1.000000
vt 0.250000 0.937500
vt 0.265625 0.000000
vt 0.250000 0.437500
vt 0.250000 0.875000
vt 0.250000 0.375000
vt 0.250000 0.812500
vt 0.250000 0.312500
vt 0.250000 0.750000
vt 0.250000 0.250000
vt 0.250000 0.687500
vt 0.218750 0.875000
vt 0.218750 0.812500
vt 0.218750 0.375000
vt 0.218750 0.312500
vt 0.218750 0.750000
vt 0.218750 0.250000
vt 0.218750 0.687500
vt 0.218750 0.187500
vt 0.218750 0.625000
vt 0.218750 0.125000
vt 0.218750 0.562500
vt 0.218750 0.062500
vt 0.218750 0.500000
vt 0.234375 1.000000
vt 0.218750 0.937500
vt 0.234375 0.000000
vt 0.218750 0.437500
vt 0.187500 0.625000
vt 0.187500 0.562500
vt 0.187500 0.125000
vt 0.187500 0.062500
vt 0.187500 0.500000
vt 0.203125 1.000000
vt 0.187500 0.937500
vt 0.203125 0.000000
vt 0.187500 0.437500
vt 0.187500 0.875000
vt 0.187500 0.375000
vt 0.187500 0.812500
vt 0.187500 0.312500
vt 0.187500 0.750000
vt 0.187500 0.250000
vt 0.187500 0.687500
vt 0.187500 0.187500
vt 0.156250 0.375000
vt 0.156250 0.312500
vt 0.156250 0.812500
vt 0.156250 0.750000
vt 0.156250 0.250000
vt 0.156250 0.687500
vt 0.156250 0.187500
vt 0.156250 0.625000
vt 0.156250 0.125000
vt 0.156250 0.562500
vt 0.156250 0.062500
vt 0.156250 0.500000
vt 0.171875 1.000000
vt 0.156250 0.937500
vt 0.171875 0.000000
vt 0.156250 0.437500
vt 0.156250 0.875000
vt 0.125000 0.125000
vt 0.125000 0.062500
vt 0.125000 0.562500
vt 0.125000 0.500000
vt 0.140625 1.000000
vt 0.125000 0.937500
vt 0.140625 0.000000
vt 0.125000 0.437500
vt 0.125000 0.875000
vt 0.125000 0.375000
vt 0.125000 0.812500
vt 0.125000 0.312500
vt 0.125000 0.750000
vt 0.125000 0.250000
vt 0.125000 0.687500
vt 0.125000 0.187500
vt 0.125000 0.625000
vt 0.093750 0.312500
vt 0.093750 0.250000
vt 0.093750 0.750000
vt 0.093750 0.687500
vt 0.093750 0.187500
vt 0.093750 0.625000
vt 0.093750 0.125000
vt 0.093750 0.562500
vt 0.093750 0.062500
vt 0.093750 0.500000
vt 0.109375 1.000000
vt 0.093750 0.937500
vt 0.109375 0.000000
vt 0.093750 0.437500
vt 0.093750 0.875000
vt 0.093750 0.375000
vt 0.093750 0.812500
vt 0.078125 1.000000
vt 0.062500 0.937500
vt 0.078125 0.000000
vt 0.062500 0.062500
vt 0.062500 0.500000
vt 0.062500 0.437500
vt 0.062500 0.875000
vt 0.062500 0.375000
vt 0.062500 0.812500
vt 0.062500 0.312500
vt 0.062500 0.750000
vt 0.062500 0.250000
vt 0.062500 0.687500
vt 0.062500 0.187500
vt 0.062500 0.625000
vt 0.062500 0.125000
vt 0.062500 0.562500
vt 0.031250 0.750000
vt 0.031250 0.687500
vt 0.031250 0.250000
vt 0.031250 0.187500
vt 0.031250 0.625000
vt 0.031250 0.125000
vt 0.031250 0.562500
vt 0.031250 0.062500
vt 0.031250 0.500000
vt 0.046875 1.000000
vt 0.031250 0.937500
vt 0.046875 0.000000
vt 0.031250 0.437500
vt 0.031250 0.875000
vt 0.031250 0.375000
vt 0.031250 0.812500
vt 0.031250 0.312500
vt 0.000000 0.500000
vt 0.000000 0.437500
vt 0.000000 0.937500
vt 0.000000 0.875000
vt 0.000000 0.375000
vt 0.000000 0.812500
vt 0.000000 0.312500
vt 0.000000 0.750000
vt 0.000000 0.250000
vt 0.000000 0.687500
vt 0.000000 0.187500
vt 0.000000 0.625000
vt 0.000000 0.125000
vt 0.000000 0.562500
vt 0.000000 0.062500
vt 0.015625 1.000000
vt 0.015625 0.000000
vt 1.000000 0.187500
vt 1.000000 0.250000
vt 0.968750 0.250000
vt 0.968750 0.187500
vt 1.000000 0.625000
vt 1.000000 0.687500
vt 0.968750 0.687500
vt 0.968750 0.625000
vt 1.000000 0.125000
vt 0.968750 0.125000
vt 1.000000 0.562500
vt 0.968750 0.562500
vt 1.000000 0.062500
vt 0.968750 0.062500
vt 1.000000 0.500000
vt 0.968750 0.500000
vt 1.000000 0.937500
vt 0.984375 1.000000
vt 0.968750 0.937500
vt 0.984375 0.000000
vt 1.000000 0.437500
vt 0.968750 0.437500
vt 1.000000 0.875000
vt 0.968750 0.875000
vt 1.000000 0.375000
vt 0.968750 0.375000
vt 1.000000 0.812500
vt 0.968750 0.812500
vt 1.000000 0.312500
vt 0.968750 0.312500
vt 1.000000 0.750000
vt 0.968750 0.750000
vt 0.937500 0.937500
vt 0.937500 0.875000
vt 0.937500 0.437500
vt 0.937500 0.375000
vt 0.937500 0.812500
vt 0.937500 0.312500
vt 0.937500 0.750000
vt 0.937500 0.250000
vt 0.937500 0.687500
vt 0.937500 0.187500
vt 0.937500 0.625000
vt 0.937500 0.125000
vt 0.937500 0.562500
vt 0.937500 0.062500
vt 0.937500 0.500000
vt 0.953125 1.000000
vt 0.953125 0.000000
vt 0.906250 0.687500
vt 0.906250 0.625000
vt 0.906250 0.187500
vt 0.906250 0.125000
vt 0.906250 0.562500
vt 0.906250 0.062500
vt 0.906250 0.500000
vt 0.921875 1.000000
vt 0.906250 0.937500
vt 0.921875 0.000000
vt 0.906250 0.437500
vt 0.906250 0.875000
vt 0.906250 0.375000
vt 0.906250 0.812500
vt 0.906250 0.312500
vt 0.906250 0.750000
vt 0.906250 0.250000
vt 0.875000 0.437500
vt 0.875000 0.375000
vt 0.875000 0.875000
vt 0.875000 0.812500
vt 0.875000 0.312500
vt 0.875000 0.750000
vt 0.875000 0.250000
vt 0.875000 0.687500
vt 0.875000 0.187500
vt 0.875000 0.625000
vt 0.875000 0.125000
vt 0.875000 0.562500
vt 0.875000 0.062500
vt 0.875000 0.500000
vt 0.890625 1.000000
vt 0.875000 0.937500
vt 0.890625 0.000000
vt 0.843750 0.187500
vt 0.843750 0.125000
vt 0.843750 0.625000
vt 0.843750 0.562500
vt 0.843750 0.062500
vt 0.843750 0.500000
vt 0.859375 1.000000
vt 0.843750 0.937500
vt 0.859375 0.000000
vt 0.843750 0.437500
vt 0.843750 0.875000
vt 0.843750 0.375000
vt 0.843750 0.812500
vt 0.843750 0.312500
vt 0.843750 0.750000
vt 0.843750 0.250000
vt 0.843750 0.687500
vt 0.812500 0.375000
vt 0.812500 0.312500
vt 0.812500 0.812500
vt 0.812500 0.750000
vt 0.812500 0.250000
vt 0.812500 0.687500
vt 0.812500 0.187500
vt 0.812500 0.625000
vt 0.812500 0.125000
vt 0.812500 0.562500
vt 0.812500 0.062500
vt 0.812500 0.500000
vt 0.828125 1.000000
vt 0.812500 0.937500
vt 0.828125 0.000000
vt 0.812500 0.437500
vt 0.812500 0.875000
vt 0.781250 0.125000
vt 0.781250 0.062500
vt 0.781250 0.562500
vt 0.781250 0.500000
vt 0.796875 1.000000
vt 0.781250 0.937500
vt 0.796875 0.000000
vt 0.781250 0.437500
vt 0.781250 0.875000
vt 0.781250 0.375000
vt 0.781250 0.812500
vt 0.781250 0.312500
vt 0.781250 0.750000
vt 0.781250 0.250000
vt 0.781250 0.687500
vt 0.781250 0.187500
vt 0.781250 0.625000
vt 0.765625 1.000000
vt 0.765625 0.000000
s 1
usemtl マテリアル
f 6/1/1 478/2/1 16/3/1 17/4/1
f 476/5/2 1/6/2 9/7/2 10/8/2
f 479/9/3 6/1/3 17/4/3 18/10/3
f 2/11/4 476/5/4 10/8/4 11/12/4
f 480/13/5 479/9/5 18/10/5 19/14/5
f 477/15/6 2/11/6 11/12/6 12/16/6
f 481/17/7 480/13/7 19/14/7 20/18/7
f 3/19/8 477/15/8 12/16/8 13/20/8
f 482/21/9 481/17/9 20/18/9 21/22/9
f 4/23/10 3/19/10 13/20/10 14/24/10
f 474/25/11 82/26/11 7/27/11
f 308/28/12 482/21/13 21/22/14
f 5/29/15 4/23/15 14/24/15 15/30/15
f 475/31/16 474/25/16 7/27/16 8/32/16
f 478/2/17 5/29/17 15/30/17 16/3/17
f 1/6/18 475/31/18 8/32/18 9/7/18
f 16/3/19 15/30/19 30/33/19 31/34/19
f 9/7/20 8/32/20 23/35/20 24/36/20
f 17/4/21 16/3/21 31/34/21 32/37/21
f 10/8/22 9/7/22 24/36/22 25/38/22
f 18/10/23 17/4/23 32/37/23 33/39/23
f 11/12/24 10/8/24 25/38/24 26/40/24
f 19/14/25 18/10/25 33/39/25 34/41/25
f 12/16/26 11/12/26 26/40/26 27/42/26
f 20/18/27 19/14/27 34/41/27 35/43/27
f 13/20/28 12/16/28 27/42/28 28/44/28
f 21/22/29 20/18/29 35/43/29 36/45/29
f 14/24/30 13/20/30 28/44/30 29/46/30
f 7/27/31 82/47/31 22/48/31
f 308/49/12 21/22/14 36/45/32
f 15/30/33 14/24/33 29/46/33 30/33/33
f 8/32/34 7/27/34 22/48/34 23/35/34
f 35/43/35 34/41/35 49/50/35 50/51/35
f 28/44/36 27/42/36 42/52/36 43/53/36
f 36/45/37 35/43/37 50/51/37 51/54/37
f 29/46/38 28/44/38 43/53/38 44/55/38
f 22/48/39 82/56/39 37/57/39
f 308/58/40 36/45/41 51/54/42
f 30/33/43 29/46/43 44/55/43 45/59/43
f 23/35/44 22/48/44 37/57/44 38/60/44
f 31/34/45 30/33/45 45/59/45 46/61/45
f 24/36/46 23/35/46 38/60/46 39/62/46
f 32/37/47 31/34/47 46/61/47 47/63/47
f 25/38/48 24/36/48 39/62/48 40/64/48
f 33/39/49 32/37/49 47/63/49 48/65/49
f 26/40/50 25/38/50 40/64/50 41/66/50
f 34/41/51 33/39/51 48/65/51 49/50/51
f 27/42/52 26/40/52 41/66/52 42/52/52
f 39/62/53 38/60/53 53/67/53 54/68/53
f 47/63/54 46/61/54 61/69/54 62/70/54
f 40/64/55 39/62/55 54/68/55 55/71/55
f 48/65/56 47/63/56 62/70/56 63/72/56
f 41/66/57 40/64/57 55/71/57 56/73/57
f 49/50/58 48/65/58 63/72/58 64/74/58
f 42/52/59 41/66/59 56/73/59 57/75/59
f 50/51/60 49/50/60 64/74/60 65/76/60
f 43/53/61 42/52/61 57/75/61 58/77/61
f 51/54/62 50/51/62 65/76/62 66/78/62
f 44/55/63 43/53/63 58/77/63 59/79/63
f 37/57/64 82/80/64 52/81/64
f 308/82/40 51/54/42 66/78/65
f 45/59/66 44/55/66 59/79/66 60/83/66
f 38/60/67 37/57/67 52/81/67 53/67/67
f 46/61/68 45/59/68 60/83/68 61/69/68
f 58/77/69 57/75/69 72/84/69 73/85/69
f 66/78/70 65/76/70 80/86/70 81/87/70
f 59/79/71 58/77/71 73/85/71 74/88/71
f 52/81/72 82/89/72 67/90/72
f 308/91/73 66/78/73 81/87/73
f 60/83/74 59/79/74 74/88/74 75/92/74
f 53/67/75 52/81/75 67/90/75 68/93/75
f 61/69/76 60/83/76 75/92/76 76/94/76
f 54/68/77 53/67/77 68/93/77 69/95/77
f 62/70/78 61/69/78 76/94/78 77/96/78
f 55/71/79 54/68/79 69/95/79 70/97/79
f 63/72/80 62/70/80 77/96/80 78/98/80
f 56/73/81 55/71/81 70/97/81 71/99/81
f 64/74/82 63/72/82 78/98/82 79/100/82
f 57/75/83 56/73/83 71/99/83 72/84/83
f 65/76/84 64/74/84 79/100/84 80/86/84
f 77/96/85 76/94/85 92/101/85 93/102/85
f 70/97/86 69/95/86 85/103/86 86/104/86
f 78/98/87 77/96/87 93/102/87 94/105/87
f 71/99/88 70/97/88 86/104/88 87/106/88
f 79/100/89 78/98/89 94/105/89 95/107/89
f 72/84/90 71/99/90 87/106/90 88/108/90
f 80/86/91 79/100/91 95/107/91 96/109/91
f 73/85/92 72/84/92 88/108/92 89/110/92
f 81/87/93 80/86/93 96/109/93 97/111/93
f 74/88/94 73/85/94 89/110/94 90/112/94
f 67/90/95 82/113/95 83/114/95
f 308/115/96 81/87/96 97/111/96
f 75/92/97 74/88/97 90/112/97 91/116/97
f 68/93/98 67/90/98 83/114/98 84/117/98
f 76/94/99 75/92/99 91/116/99 92/101/99
f 69/95/100 68/93/100 84/117/100 85/103/100
f 97/111/101 96/109/101 111/118/101 112/119/101
f 90/112/102 89/110/102 104/120/102 105/121/102
f 83/114/103 82/122/103 98/123/103
f 308/124/104 97/111/104 112/119/104
f 91/116/105 90/112/105 105/121/105 106/125/105
f 84/117/106 83/114/106 98/123/106 99/126/106
f 92/101/107 91/116/107 106/125/107 107/127/107
f 85/103/108 84/117/108 99/126/108 100/128/108
f 93/102/109 92/101/109 107/127/109 108/129/109
f 86/104/110 85/103/110 100/128/110 101/130/110
f 94/105/111 93/102/111 108/129/111 109/131/111
f 87/106/112 86/104/112 101/130/112 102/132/112
f 95/107/113 94/105/113 109/131/113 110/133/113
f 88/108/114 87/106/114 102/132/114 103/134/114
f 96/109/115 95/107/115 110/133/115 111/118/115
f 89/110/116 88/108/116 103/134/116 104/120/116
f 101/130/117 100/128/117 115/135/117 116/136/117
f 109/131/118 108/129/118 123/137/118 124/138/118
f 102/132/119 101/130/119 116/136/119 117/139/119
f 110/133/120 109/131/120 124/138/120 125/140/120
f 103/134/121 102/132/121 117/139/121 118/141/121
f 111/118/122 110/133/122 125/140/122 126/142/122
f 104/120/123 103/134/123 118/141/123 119/143/123
f 112/119/124 111/118/124 126/142/124 127/144/124
f 105/121/125 104/120/125 119/143/125 120/145/125
f 98/123/126 82/146/126 113/147/126
f 308/148/127 112/119/127 127/144/127
f 106/125/128 105/121/128 120/145/128 121/149/128
f 99/126/129 98/123/129 113/147/129 114/150/129
f 107/127/130 106/125/130 121/149/130 122/151/130
f 100/128/131 99/126/131 114/150/131 115/135/131
f 108/129/132 107/127/132 122/151/132 123/137/132
f 120/145/133 119/143/133 134/152/133 135/153/133
f 113/147/134 82/154/134 128/155/134
f 308/156/135 127/144/135 142/157/135
f 121/149/136 120/145/136 135/153/136 136/158/136
f 114/150/137 113/147/137 128/155/137 129/159/137
f 122/151/138 121/149/138 136/158/138 137/160/138
f 115/135/139 114/150/139 129/159/139 130/161/139
f 123/137/140 122/151/140 137/160/140 138/162/140
f 116/136/141 115/135/141 130/161/141 131/163/141
f 124/138/142 123/137/142 138/162/142 139/164/142
f 117/139/143 116/136/143 131/163/143 132/165/143
f 125/140/144 124/138/144 139/164/144 140/166/144
f 118/141/145 117/139/145 132/165/145 133/167/145
f 126/142/146 125/140/146 140/166/146 141/168/146
f 119/143/147 118/141/147 133/167/147 134/152/147
f 127/144/148 126/142/148 141/168/148 142/157/148
f 139/164/149 138/162/149 153/169/149 154/170/149
f 132/165/150 131/163/150 146/171/150 147/172/150
f 140/166/151 139/164/151 154/170/151 155/173/151
f 133/167/152 132/165/152 147/172/152 148/174/152
f 141/168/153 140/166/153 155/173/153 156/175/153
f 134/152/154 133/167/154 148/174/154 149/176/154
f 142/157/155 141/168/155 156/175/155 157/177/155
f 135/153/156 134/152/156 149/176/156 150/178/156
f 128/155/157 82/179/157 143/180/157
f 308/181/158 142/157/158 157/177/158
f 136/158/159 135/153/159 150/178/159 151/182/159
f 129/159/160 128/155/160 143/180/160 144/183/160
f 137/160/161 136/158/161 151/182/161 152/184/161
f 130/161/162 129/159/162 144/183/162 145/185/162
f 138/162/163 137/160/163 152/184/163 153/169/163
f 131/163/164 130/161/164 145/185/164 146/171/164
f 308/186/165 157/177/165 172/187/165
f 151/182/166 150/178/166 165/188/166 166/189/166
f 144/183/167 143/180/167 158/190/167 159/191/167
f 152/184/168 151/182/168 166/189/168 167/192/168
f 145/185/169 144/183/169 159/191/169 160/193/169
f 153/169/170 152/184/170 167/192/170 168/194/170
f 146/171/171 145/185/171 160/193/171 161/195/171
f 154/170/172 153/169/172 168/194/172 169/196/172
f 147/172/173 146/171/173 161/195/173 162/197/173
f 155/173/174 154/170/174 169/196/174 170/198/174
f 148/174/175 147/172/175 162/197/175 163/199/175
f 156/175/176 155/173/176 170/198/176 171/200/176
f 149/176/177 148/174/177 163/199/177 164/201/177
f 157/177/178 156/175/178 171/200/178 172/187/178
f 150/178/179 149/176/179 164/201/179 165/188/179
f 143/180/180 82/202/180 158/190/180
f 170/198/181 169/196/181 184/203/181 185/204/181
f 163/199/182 162/197/182 177/205/182 178/206/182
f 171/200/183 170/198/183 185/204/183 186/207/183
f 164/201/184 163/199/184 178/206/184 179/208/184
f 172/187/185 171/200/185 186/207/185 187/209/185
f 165/188/186 164/201/186 179/208/186 180/210/186
f 158/190/187 82/211/187 173/212/187
f 308/213/188 172/187/189 187/209/190
f 166/189/191 165/188/191 180/210/191 181/214/191
f 159/191/192 158/190/192 173/212/192 174/215/192
f 167/192/193 166/189/193 181/214/193 182/216/193
f 160/193/194 159/191/194 174/215/194 175/217/194
f 168/194/195 167/192/195 182/216/195 183/218/195
f 161/195/196 160/193/196 175/217/196 176/219/196
f 169/196/197 168/194/197 183/218/197 184/203/197
f 162/197/198 161/195/198 176/219/198 177/205/198
f 174/215/199 173/212/199 188/220/199 189/221/199
f 182/216/200 181/214/200 196/222/200 197/223/200
f 175/217/201 174/215/201 189/221/201 190/224/201
f 183/218/202 182/216/202 197/223/202 198/225/202
f 176/219/203 175/217/203 190/224/203 191/226/203
f 184/203/204 183/218/204 198/225/204 199/227/204
f 177/205/205 176/219/205 191/226/205 192/228/205
f 185/204/206 184/203/206 199/227/206 200/229/206
f 178/206/207 177/205/207 192/228/207 193/230/207
f 186/207/208 185/204/208 200/229/208 201/231/208
f 179/208/209 178/206/209 193/230/209 194/232/209
f 187/209/210 186/207/210 201/231/210 202/233/210
f 180/210/211 179/208/211 194/232/211 195/234/211
f 173/212/212 82/235/212 188/220/212
f 308/236/188 187/209/190 202/233/213
f 181/214/214 180/210/214 195/234/214 196/222/214
f 193/230/215 192/228/215 207/237/215 208/238/215
f 201/231/216 200/229/216 215/239/216 216/240/216
f 194/232/217 193/230/217 208/238/217 209/241/217
f 202/233/218 201/231/218 216/240/218 217/242/218
f 195/234/219 194/232/219 209/241/219 210/243/219
f 188/220/220 82/244/220 203/245/220
f 308/246/221 202/233/221 217/242/221
f 196/222/222 195/234/222 210/243/222 211/247/222
f 189/221/223 188/220/223 203/245/223 204/248/223
f 197/223/224 196/222/224 211/247/224 212/249/224
f 190/224/225 189/221/225 204/248/225 205/250/225
f 198/225/226 197/223/226 212/249/226 213/251/226
f 191/226/227 190/224/227 205/250/227 206/252/227
f 199/227/228 198/225/228 213/251/228 214/253/228
f 192/228/229 191/226/229 206/252/229 207/237/229
f 200/229/230 199/227/230 214/253/230 215/239/230
f 212/249/231 211/247/231 226/254/231 227/255/231
f 205/250/232 204/248/232 219/256/232 220/257/232
f 213/251/233 212/249/233 227/255/233 228/258/233
f 206/252/234 205/250/234 220/257/234 221/259/234
f 214/253/235 213/251/235 228/258/235 229/260/235
f 207/237/236 206/252/236 221/259/236 222/261/236
f 215/239/237 214/253/237 229/260/237 230/262/237
f 208/238/238 207/237/238 222/261/238 223/263/238
f 216/240/239 215/239/239 230/262/239 231/264/239
f 209/241/240 208/238/240 223/263/240 224/265/240
f 217/242/241 216/240/241 231/264/241 232/266/241
f 210/243/242 209/241/242 224/265/242 225/267/242
f 203/245/243 82/268/243 218/269/243
f 308/270/244 217/242/244 232/266/244
f 211/247/245 210/243/245 225/267/245 226/254/245
f 204/248/246 203/245/246 218/269/246 219/256/246
f 231/264/247 230/262/247 245/271/247 246/272/247
f 224/265/248 223/263/248 238/273/248 239/274/248
f 232/266/249 231/264/249 246/272/249 247/275/249
f 225/267/250 224/265/250 239/274/250 240/276/250
f 218/269/251 82/277/251 233/278/251
f 308/279/252 232/266/252 247/275/252
f 226/254/253 225/267/253 240/276/253 241/280/253
f 219/256/254 218/269/254 233/278/254 234/281/254
f 227/255/255 226/254/255 241/280/255 242/282/255
f 220/257/256 219/256/256 234/281/256 235/283/256
f 228/258/257 227/255/257 242/282/257 243/284/257
f 221/259/258 220/257/258 235/283/258 236/285/258
f 229/260/259 228/258/259 243/284/259 244/286/259
f 222/261/260 221/259/260 236/285/260 237/287/260
f 230/262/261 229/260/261 244/286/261 245/271/261
f 223/263/262 222/261/262 237/287/262 238/273/262
f 235/283/263 234/281/263 249/288/263 250/289/263
f 243/284/264 242/282/264 257/290/264 258/291/264
f 236/285/265 235/283/265 250/289/265 251/292/265
f 244/286/266 243/284/266 258/291/266 259/293/266
f 237/287/267 236/285/267 251/292/267 252/294/267
f 245/271/268 244/286/268 259/293/268 260/295/268
f 238/273/269 237/287/269 252/294/269 253/296/269
f 246/272/270 245/271/270 260/295/270 261/297/270
f 239/274/271 238/273/271 253/296/271 254/298/271
f 247/275/272 246/272/272 261/297/272 262/299/272
f 240/276/273 239/274/273 254/298/273 255/300/273
f 233/278/274 82/301/274 248/302/274
f 308/303/275 247/275/275 262/299/275
f 241/280/276 240/276/276 255/300/276 256/304/276
f 234/281/277 233/278/277 248/302/277 249/288/277
f 242/282/278 241/280/278 256/304/278 257/290/278
f 254/298/279 253/296/279 268/305/279 269/306/279
f 262/299/280 261/297/280 276/307/280 277/308/280
f 255/300/281 254/298/281 269/306/281 270/309/281
f 248/302/282 82/310/282 263/311/282
f 308/312/283 262/299/283 277/308/283
f 256/304/284 255/300/284 270/309/284 271/313/284
f 249/288/285 248/302/285 263/311/285 264/314/285
f 257/290/286 256/304/286 271/313/286 272/315/286
f 250/289/287 249/288/287 264/314/287 265/316/287
f 258/291/288 257/290/288 272/315/288 273/317/288
f 251/292/289 250/289/289 265/316/289 266/318/289
f 259/293/290 258/291/290 273/317/290 274/319/290
f 252/294/291 251/292/291 266/318/291 267/320/291
f 260/295/292 259/293/292 274/319/292 275/321/292
f 253/296/293 252/294/293 267/320/293 268/305/293
f 261/297/294 260/295/294 275/321/294 276/307/294
f 273/317/295 272/315/295 287/322/295 288/323/295
f 266/318/296 265/316/296 280/324/296 281/325/296
f 274/319/297 273/317/297 288/323/297 289/326/297
f 267/320/298 266/318/298 281/325/298 282/327/298
f 275/321/299 274/319/299 289/326/299 290/328/299
f 268/305/300 267/320/300 282/327/300 283/329/300
f 276/307/301 275/321/301 290/328/301 291/330/301
f 269/306/302 268/305/302 283/329/302 284/331/302
f 277/308/303 276/307/303 291/330/303 292/332/303
f 270/309/304 269/306/304 284/331/304 285/333/304
f 263/311/305 82/334/305 278/335/305
f 308/336/306 277/308/306 292/332/306
f 271/313/307 270/309/307 285/333/307 286/337/307
f 264/314/308 263/311/308 278/335/308 279/338/308
f 272/315/309 271/313/309 286/337/309 287/322/309
f 265/316/310 264/314/310 279/338/310 280/324/310
f 292/332/311 291/330/311 306/339/311 307/340/311
f 285/333/312 284/331/312 299/341/312 300/342/312
f 278/335/313 82/343/313 293/344/313
f 308/345/314 292/332/314 307/340/314
f 286/337/315 285/333/315 300/342/315 301/346/315
f 279/338/316 278/335/316 293/344/316 294/347/316
f 287/322/317 286/337/317 301/346/317 302/348/317
f 280/324/318 279/338/318 294/347/318 295/349/318
f 288/323/319 287/322/319 302/348/319 303/350/319
f 281/325/320 280/324/320 295/349/320 296/351/320
f 289/326/321 288/323/321 303/350/321 304/352/321
f 282/327/322 281/325/322 296/351/322 297/353/322
f 290/328/323 289/326/323 304/352/323 305/354/323
f 283/329/324 282/327/324 297/353/324 298/355/324
f 291/330/325 290/328/325 305/354/325 306/339/325
f 284/331/326 283/329/326 298/355/326 299/341/326
f 304/352/327 303/350/327 319/356/327 320/357/327
f 297/353/328 296/351/328 312/358/328 313/359/328
f 305/354/329 304/352/329 320/357/329 321/360/329
f 298/355/330 297/353/330 313/359/330 314/361/330
f 306/339/331 305/354/331 321/360/331 322/362/331
f 299/341/332 298/355/332 314/361/332 315/363/332
f 307/340/333 306/339/333 322/362/333 323/364/333
f 300/342/334 299/341/334 315/363/334 316/365/334
f 293/344/335 82/366/335 309/367/335
f 308/368/336 307/340/336 323/364/336
f 301/346/337 300/342/337 316/365/337 317/369/337
f 294/347/338 293/344/338 309/367/338 310/370/338
f 302/348/339 301/346/339 317/369/339 318/371/339
f 295/349/340 294/347/340 310/370/340 311/372/340
f 303/350/341 302/348/341 318/371/341 319/356/341
f 296/351/342 295/349/342 311/372/342 312/358/342
f 309/367/343 82/373/343 324/374/343
f 308/375/344 323/364/344 338/376/344
f 317/369/345 316/365/345 331/377/345 332/378/345
f 310/370/346 309/367/346 324/374/346 325/379/346
f 318/371/347 317/369/347 332/378/347 333/380/347
f 311/372/348 310/370/348 325/379/348 326/381/348
f 319/356/349 318/371/349 333/380/349 334/382/349
f 312/358/350 311/372/350 326/381/350 327/383/350
f 320/357/351 319/356/351 334/382/351 335/384/351
f 313/359/352 312/358/352 327/383/352 328/385/352
f 321/360/353 320/357/353 335/384/353 336/386/353
f 314/361/354 313/359/354 328/385/354 329/387/354
f 322/362/355 321/360/355 336/386/355 337/388/355
f 315/363/356 314/361/356 329/387/356 330/389/356
f 323/364/357 322/362/357 337/388/357 338/376/357
f 316/365/358 315/363/358 330/389/358 331/377/358
f 328/385/359 327/383/359 342/390/359 343/391/359
f 336/386/360 335/384/360 350/392/360 351/393/360
f 329/387/361 328/385/361 343/391/361 344/394/361
f 337/388/362 336/386/362 351/393/362 352/395/362
f 330/389/363 329/387/363 344/394/363 345/396/363
f 338/376/364 337/388/364 352/395/364 353/397/364
f 331/377/365 330/389/365 345/396/365 346/398/365
f 324/374/366 82/399/366 339/400/366
f 308/401/367 338/376/367 353/397/367
f 332/378/368 331/377/368 346/398/368 347/402/368
f 325/379/369 324/374/369 339/400/369 340/403/369
f 333/380/370 332/378/370 347/402/370 348/404/370
f 326/381/371 325/379/371 340/403/371 341/405/371
f 334/382/372 333/380/372 348/404/372 349/406/372
f 327/383/373 326/381/373 341/405/373 342/390/373
f 335/384/374 334/382/374 349/406/374 350/392/374
f 347/402/375 346/398/375 361/407/375 362/408/375
f 340/403/376 339/400/376 354/409/376 355/410/376
f 348/404/377 347/402/377 362/408/377 363/411/377
f 341/405/378 340/403/378 355/410/378 356/412/378
f 349/406/379 348/404/379 363/411/379 364/413/379
f 342/390/380 341/405/380 356/412/380 357/414/380
f 350/392/381 349/406/381 364/413/381 365/415/381
f 343/391/382 342/390/382 357/414/382 358/416/382
f 351/393/383 350/392/383 365/415/383 366/417/383
f 344/394/384 343/391/384 358/416/384 359/418/384
f 352/395/385 351/393/385 366/417/385 367/419/385
f 345/396/386 344/394/386 359/418/386 360/420/386
f 353/397/387 352/395/387 367/419/387 368/421/387
f 346/398/388 345/396/388 360/420/388 361/407/388
f 339/400/389 82/422/389 354/409/389
f 308/423/390 353/397/390 368/421/390
f 366/424/391 365/425/391 380/426/391 381/427/391
f 359/428/392 358/429/392 373/430/392 374/431/392
f 367/432/393 366/424/393 381/427/393 382/433/393
f 360/434/394 359/428/394 374/431/394 375/435/394
f 368/436/395 367/432/395 382/433/395 383/437/395
f 361/438/396 360/434/396 375/435/396 376/439/396
f 354/440/397 82/441/397 369/442/397
f 308/443/398 368/436/398 383/437/398
f 362/444/399 361/438/399 376/439/399 377/445/399
f 355/446/400 354/440/400 369/442/400 370/447/400
f 363/448/401 362/444/401 377/445/401 378/449/401
f 356/450/402 355/446/402 370/447/402 371/451/402
f 364/452/403 363/448/403 378/449/403 379/453/403
f 357/454/404 356/450/404 371/451/404 372/455/404
f 365/425/405 364/452/405 379/453/405 380/426/405
f 358/429/406 357/454/406 372/455/406 373/430/406
f 370/447/407 369/442/407 384/456/407 385/457/407
f 378/449/408 377/445/408 392/458/408 393/459/408
f 371/451/409 370/447/409 385/457/409 386/460/409
f 379/453/410 378/449/410 393/459/410 394/461/410
f 372/455/411 371/451/411 386/460/411 387/462/411
f 380/426/412 379/453/412 394/461/412 395/463/412
f 373/430/413 372/455/413 387/462/413 388/464/413
f 381/427/414 380/426/414 395/463/414 396/465/414
f 374/431/415 373/430/415 388/464/415 389/466/415
f 382/433/416 381/427/416 396/465/416 397/467/416
f 375/435/417 374/431/417 389/466/417 390/468/417
f 383/437/418 382/433/418 397/467/418 398/469/418
f 376/439/419 375/435/419 390/468/419 391/470/419
f 369/442/420 82/471/420 384/456/420
f 308/472/421 383/437/421 398/469/421
f 377/445/422 376/439/422 391/470/422 392/458/422
f 389/466/423 388/464/423 403/473/423 404/474/423
f 397/467/424 396/465/424 411/475/424 412/476/424
f 390/468/425 389/466/425 404/474/425 405/477/425
f 398/469/426 397/467/426 412/476/426 413/478/426
f 391/470/427 390/468/427 405/477/427 406/479/427
f 384/456/428 82/480/428 399/481/428
f 308/482/429 398/469/429 413/478/429
f 392/458/430 391/470/430 406/479/430 407/483/430
f 385/457/431 384/456/431 399/481/431 400/484/431
f 393/459/432 392/458/432 407/483/432 408/485/432
f 386/460/433 385/457/433 400/484/433 401/486/433
f 394/461/434 393/459/434 408/485/434 409/487/434
f 387/462/435 386/460/435 401/486/435 402/488/435
f 395/463/436 394/461/436 409/487/436 410/489/436
f 388/464/437 387/462/437 402/488/437 403/473/437
f 396/465/438 395/463/438 410/489/438 411/475/438
f 408/485/439 407/483/439 422/490/439 423/491/439
f 401/486/440 400/484/440 415/492/440 416/493/440
f 409/487/441 408/485/441 423/491/441 424/494/441
f 402/488/442 401/486/442 416/493/442 417/495/442
f 410/489/443 409/487/443 424/494/443 425/496/443
f 403/473/444 402/488/444 417/495/444 418/497/444
f 411/475/445 410/489/445 425/496/445 426/498/445
f 404/474/446 403/473/446 418/497/446 419/499/446
f 412/476/447 411/475/447 426/498/447 427/500/447
f 405/477/448 404/474/448 419/499/448 420/501/448
f 413/478/449 412/476/449 427/500/449 428/502/449
f 406/479/450 405/477/450 420/501/450 421/503/450
f 399/481/451 82/504/451 414/505/451
f 308/506/452 413/478/452 428/502/452
f 407/483/453 406/479/453 421/503/453 422/490/453
f 400/484/454 399/481/454 414/505/454 415/492/454
f 427/500/455 426/498/455 441/507/455 442/508/455
f 420/501/456 419/499/456 434/509/456 435/510/456
f 428/502/457 427/500/457 442/508/457 443/511/457
f 421/503/458 420/501/458 435/510/458 436/512/458
f 414/505/459 82/513/459 429/514/459
f 308/515/460 428/502/460 443/511/460
f 422/490/461 421/503/461 436/512/461 437/516/461
f 415/492/462 414/505/462 429/514/462 430/517/462
f 423/491/463 422/490/463 437/516/463 438/518/463
f 416/493/464 415/492/464 430/517/464 431/519/464
f 424/494/465 423/491/465 438/518/465 439/520/465
f 417/495/466 416/493/466 431/519/466 432/521/466
f 425/496/467 424/494/467 439/520/467 440/522/467
f 418/497/468 417/495/468 432/521/468 433/523/468
f 426/498/469 425/496/469 440/522/469 441/507/469
f 419/499/470 418/497/470 433/523/470 434/509/470
f 439/520/471 438/518/471 453/524/471 454/525/471
f 432/521/472 431/519/472 446/526/472 447/527/472
f 440/522/473 439/520/473 454/525/473 455/528/473
f 433/523/474 432/521/474 447/527/474 448/529/474
f 441/507/475 440/522/475 455/528/475 456/530/475
f 434/509/476 433/523/476 448/529/476 449/531/476
f 442/508/477 441/507/477 456/530/477 457/532/477
f 435/510/478 434/509/478 449/531/478 450/533/478
f 443/511/479 442/508/479 457/532/479 458/534/479
f 436/512/480 435/510/480 450/533/480 451/535/480
f 429/514/481 82/536/481 444/537/481
f 308/538/482 443/511/482 458/534/482
f 437/516/483 436/512/483 451/535/483 452/539/483
f 430/517/484 429/514/484 444/537/484 445/540/484
f 438/518/485 437/516/485 452/539/485 453/524/485
f 431/519/486 430/517/486 445/540/486 446/526/486
f 458/534/487 457/532/487 472/541/487 473/542/487
f 451/535/488 450/533/488 465/543/488 466/544/488
f 444/537/489 82/545/489 459/546/489
f 308/547/490 458/534/490 473/542/490
f 452/539/491 451/535/491 466/544/491 467/548/491
f 445/540/492 444/537/492 459/546/492 460/549/492
f 453/524/493 452/539/493 467/548/493 468/550/493
f 446/526/494 445/540/494 460/549/494 461/551/494
f 454/525/495 453/524/495 468/550/495 469/552/495
f 447/527/496 446/526/496 461/551/496 462/553/496
f 455/528/497 454/525/497 469/552/497 470/554/497
f 448/529/498 447/527/498 462/553/498 463/555/498
f 456/530/499 455/528/499 470/554/499 471/556/499
f 449/531/500 448/529/500 463/555/500 464/557/500
f 457/532/501 456/530/501 471/556/501 472/541/501
f 450/533/502 449/531/502 464/557/502 465/543/502
f 462/553/503 461/551/503 1/6/503 476/5/503
f 470/554/504 469/552/504 6/1/504 479/9/504
f 463/555/505 462/553/505 476/5/505 2/11/505
f 471/556/506 470/554/506 479/9/506 480/13/506
f 464/557/507 463/555/507 2/11/507 477/15/507
f 472/541/508 471/556/508 480/13/508 481/17/508
f 465/543/509 464/557/509 477/15/509 3/19/509
f 473/542/510 472/541/510 481/17/510 482/21/510
f 466/544/511 465/543/511 3/19/511 4/23/511
f 459/546/512 82/558/512 474/25/512
f 308/559/513 473/542/513 482/21/513
f 467/548/514 466/544/514 4/23/514 5/29/514
f 460/549/515 459/546/515 474/25/515 475/31/515
f 468/550/516 467/548/516 5/29/516 478/2/516
f 461/551/517 460/549/517 475/31/517 1/6/517
f 469/552/518 468/550/518 478/2/518 6/1/518
