# Blender 4.4.0
# www.blender.org
mtllib player2.mtl
o 球
v 0.219854 0.581746 -0.017329
v 0.325780 0.448296 -0.025794
v 0.346708 0.270905 -0.028406
v 0.351373 0.180554 -0.027837
v 0.345313 0.091319 -0.026749
v 0.322542 -0.082305 -0.025424
v 0.077007 0.653423 0.010295
v 0.151054 0.626106 0.020195
v 0.219296 0.581746 0.029319
v 0.279111 0.522047 0.037315
v 0.325550 0.448491 0.043521
v 0.337061 0.360490 0.045461
v 0.348054 0.271158 0.048161
v 0.352709 0.181044 0.050295
v 0.347033 0.091286 0.049857
v 0.340844 0.002450 0.047945
v 0.328200 -0.084085 0.043878
v 0.279111 -0.156829 0.037315
v 0.219296 -0.216527 0.029319
v 0.151054 -0.260888 0.020195
v 0.077007 -0.288205 0.010295
v 0.073852 0.653423 0.026280
v 0.144865 0.626106 0.051551
v 0.210311 0.581746 0.074840
v 0.267676 0.522047 0.095253
v 0.313116 0.448774 0.111478
v 0.326552 0.361293 0.117764
v 0.347203 0.272532 0.125426
v 0.350035 0.181636 0.128910
v 0.346117 0.090435 0.127418
v 0.345263 -0.000136 0.123369
v 0.314753 -0.084085 0.112006
v 0.267676 -0.156829 0.095254
v 0.210311 -0.216527 0.074840
v 0.144865 -0.260888 0.051551
v 0.073852 -0.288205 0.026280
v 0.067859 0.653423 0.041255
v 0.133109 0.626106 0.080925
v 0.193244 0.581746 0.117485
v 0.245953 0.522047 0.149531
v 0.289210 0.449303 0.175829
v 0.306217 0.362800 0.188481
v 0.327109 0.273959 0.201031
v 0.347830 0.182609 0.211468
v 0.340855 0.088988 0.207287
v 0.321353 -0.001093 0.195371
v 0.289210 -0.084085 0.175829
v 0.245953 -0.156829 0.149531
v 0.193244 -0.216527 0.117485
v 0.133109 -0.260888 0.080925
v 0.067859 -0.288205 0.041255
v 0.059257 0.653423 0.054645
v 0.116238 0.626106 0.107190
v 0.168751 0.581746 0.155616
v 0.214779 0.522047 0.198062
v 0.252553 0.449303 0.232895
v 0.280622 0.366312 0.258779
v 0.297907 0.276260 0.274719
v 0.303743 0.182609 0.280101
v 0.297907 0.088959 0.274719
v 0.280622 -0.001093 0.258779
v 0.252553 -0.084085 0.232896
v 0.212640 -0.154886 0.195620
v 0.166188 -0.213354 0.152676
v 0.116238 -0.260888 0.107190
v 0.059257 -0.288205 0.054645
v 0.048380 0.653423 0.065935
v 0.094899 0.626106 0.129335
v 0.137772 0.581746 0.187766
v 0.175351 0.522047 0.238981
v 0.206191 0.449303 0.281012
v 0.229107 0.366312 0.312244
v 0.243219 0.276260 0.331476
v 0.247984 0.182609 0.337970
v 0.243219 0.088959 0.331476
v 0.229107 -0.001093 0.312244
v 0.206090 -0.084003 0.280851
v 0.167829 -0.147434 0.225903
v 0.131129 -0.206678 0.176407
v 0.094899 -0.260888 0.129335
v 0.048380 -0.288205 0.065935
v 0.000000 0.662647 -0.000000
v 0.035642 0.653423 0.074691
v 0.069914 0.626106 0.146511
v 0.101499 0.581746 0.212701
v 0.129184 0.522047 0.270716
v 0.151905 0.449303 0.318329
v 0.168788 0.366312 0.353708
v 0.179184 0.276260 0.375494
v 0.182694 0.182609 0.382851
v 0.179184 0.088959 0.375494
v 0.168788 -0.001093 0.353708
v 0.148683 -0.079950 0.309647
v 0.121000 -0.143484 0.249893
v 0.094872 -0.203953 0.196419
v 0.069914 -0.260886 0.146510
v 0.035642 -0.288205 0.074691
v 0.021535 0.653423 0.080576
v 0.042242 0.626106 0.158056
v 0.061326 0.581746 0.229460
v 0.078053 0.522047 0.292048
v 0.091781 0.449303 0.343413
v 0.101981 0.366312 0.381580
v 0.108263 0.276260 0.405083
v 0.110384 0.182609 0.413019
v 0.108263 0.088959 0.405083
v 0.101981 -0.001093 0.381580
v 0.088777 -0.077221 0.328094
v 0.072406 -0.142265 0.267159
v 0.057018 -0.204067 0.211981
v 0.042242 -0.260888 0.158056
v 0.021535 -0.288205 0.080576
v 0.006600 0.653423 0.083365
v 0.012947 0.626106 0.163526
v 0.018796 0.581746 0.237404
v 0.023922 0.522047 0.302157
v 0.028130 0.449303 0.355300
v 0.031256 0.366312 0.394788
v 0.033181 0.276260 0.419105
v 0.033832 0.182609 0.427315
v 0.033181 0.088959 0.419105
v 0.031256 -0.001093 0.394788
v 0.027158 -0.075312 0.335161
v 0.022498 -0.143715 0.277915
v 0.017809 -0.207828 0.224531
v 0.012947 -0.260888 0.163526
v 0.006600 -0.288205 0.083365
v -0.008588 0.653423 0.082951
v -0.016846 0.626106 0.162713
v -0.024457 0.581746 0.236222
v -0.031127 0.522047 0.300654
v -0.036602 0.449303 0.353532
v -0.040670 0.366312 0.392824
v -0.043175 0.276260 0.417020
v -0.044021 0.182609 0.425190
v -0.043175 0.088959 0.417020
v -0.040670 -0.001093 0.392824
v -0.034551 -0.074848 0.332356
v -0.029224 -0.145677 0.279197
v -0.024094 -0.212978 0.230929
v -0.016846 -0.260888 0.162713
v -0.008588 -0.288205 0.082951
v -0.023446 0.653423 0.079348
v -0.045992 0.626106 0.155647
v -0.066769 0.581746 0.225964
v -0.084981 0.522047 0.287597
v -0.099927 0.449303 0.338179
v -0.111034 0.366312 0.375764
v -0.117873 0.276260 0.398909
v -0.120182 0.182609 0.406725
v -0.117873 0.088959 0.398909
v -0.110999 -0.001053 0.375640
v -0.095350 -0.075792 0.319578
v -0.080872 -0.147770 0.270477
v -0.066769 -0.216527 0.225964
v -0.045992 -0.260888 0.155647
v -0.023446 -0.288205 0.079348
v -0.037403 0.653423 0.072696
v -0.073369 0.626106 0.142599
v -0.106516 0.581746 0.207021
v -0.135569 0.522047 0.263489
v -0.159413 0.449303 0.309830
v -0.177130 0.366312 0.344264
v -0.188040 0.276260 0.365468
v -0.191724 0.182609 0.372629
v -0.188040 0.088959 0.365469
v -0.177130 -0.001093 0.344264
v -0.154535 -0.078474 0.297662
v -0.131534 -0.151016 0.253313
v -0.106516 -0.216527 0.207021
v -0.073369 -0.260888 0.142599
v -0.037403 -0.288205 0.072696
v -0.049923 0.653423 0.063251
v -0.097928 0.626106 0.124071
v -0.142169 0.581746 0.180123
v -0.180947 0.522047 0.229254
v -0.212771 0.449303 0.269574
v -0.236419 0.366312 0.299534
v -0.250981 0.276260 0.317984
v -0.255898 0.182609 0.324213
v -0.250981 0.088959 0.317984
v -0.236419 -0.001093 0.299534
v -0.212707 -0.084040 0.269481
v -0.180845 -0.156723 0.229103
v -0.142169 -0.216527 0.180123
v -0.097928 -0.260888 0.124071
v -0.049923 -0.288205 0.063251
v -0.060525 0.653423 0.051375
v -0.118723 0.626106 0.100775
v -0.172359 0.581746 0.146303
v -0.219372 0.522047 0.186209
v -0.257954 0.449303 0.218958
v -0.286623 0.366312 0.243293
v -0.304277 0.276260 0.258278
v -0.310238 0.182609 0.263338
v -0.304277 0.088959 0.258278
v -0.286623 -0.001093 0.243293
v -0.257954 -0.084085 0.218958
v -0.219372 -0.156829 0.186209
v -0.172359 -0.216527 0.146303
v -0.118723 -0.260888 0.100775
v -0.060525 -0.288205 0.051375
v -0.068800 0.653423 0.037525
v -0.134956 0.626106 0.073607
v -0.195925 0.581746 0.106861
v -0.249366 0.522047 0.136008
v -0.293223 0.449303 0.159928
v -0.325812 0.366312 0.177703
v -0.345881 0.276260 0.188648
v -0.352656 0.182609 0.192344
v -0.345881 0.088959 0.188648
v -0.325812 -0.001093 0.177703
v -0.293223 -0.084085 0.159928
v -0.249366 -0.156829 0.136008
v -0.195925 -0.216527 0.106861
v -0.134956 -0.260888 0.073607
v -0.068800 -0.288205 0.037525
v -0.074431 0.653423 0.022232
v -0.146002 0.626106 0.043610
v -0.211963 0.581746 0.063311
v -0.269777 0.522047 0.080580
v -0.317224 0.449303 0.094753
v -0.352481 0.366312 0.105283
v -0.374192 0.276260 0.111768
v -0.381523 0.182609 0.113958
v -0.374192 0.088959 0.111768
v -0.352481 -0.001093 0.105284
v -0.317224 -0.084085 0.094753
v -0.269777 -0.156829 0.080580
v -0.211963 -0.216527 0.063311
v -0.146002 -0.260888 0.043610
v -0.074431 -0.288205 0.022232
v -0.077202 0.653423 0.006085
v -0.151437 0.626106 0.011936
v -0.219854 0.581746 0.017329
v -0.279820 0.522047 0.022056
v -0.329034 0.449303 0.025935
v -0.365603 0.366312 0.028818
v -0.388123 0.276260 0.030593
v -0.395726 0.182609 0.031192
v -0.388123 0.088959 0.030593
v -0.365603 -0.001093 0.028818
v -0.329034 -0.084085 0.025935
v -0.279820 -0.156829 0.022056
v -0.219854 -0.216527 0.017329
v -0.151438 -0.260888 0.011937
v -0.077203 -0.288205 0.006085
v -0.077007 0.653423 -0.010295
v -0.151054 0.626106 -0.020195
v -0.219296 0.581746 -0.029319
v -0.279111 0.522047 -0.037315
v -0.328200 0.449303 -0.043878
v -0.364676 0.366312 -0.048755
v -0.387138 0.276260 -0.051758
v -0.394723 0.182609 -0.052772
v -0.387138 0.088959 -0.051758
v -0.364676 -0.001093 -0.048755
v -0.328200 -0.084085 -0.043878
v -0.279111 -0.156829 -0.037315
v -0.219296 -0.216527 -0.029319
v -0.151054 -0.260888 -0.020195
v -0.077007 -0.288205 -0.010295
v -0.073852 0.653423 -0.026281
v -0.144865 0.626106 -0.051551
v -0.210311 0.581746 -0.074840
v -0.267676 0.522047 -0.095254
v -0.314753 0.449303 -0.112006
v -0.349734 0.366312 -0.124454
v -0.371277 0.276260 -0.132120
v -0.378550 0.182609 -0.134709
v -0.371277 0.088959 -0.132120
v -0.349734 -0.001093 -0.124454
v -0.314753 -0.084085 -0.112006
v -0.267676 -0.156829 -0.095254
v -0.210311 -0.216527 -0.074840
v -0.144865 -0.260888 -0.051551
v -0.073852 -0.288205 -0.026280
v -0.067859 0.653423 -0.041255
v -0.133109 0.626106 -0.080925
v -0.193244 0.581746 -0.117485
v -0.245953 0.522047 -0.149531
v -0.289210 0.449303 -0.175829
v -0.321353 0.366312 -0.195371
v -0.341146 0.276260 -0.207405
v -0.347830 0.182609 -0.211468
v -0.341146 0.088959 -0.207405
v -0.321353 -0.001093 -0.195371
v -0.289210 -0.084085 -0.175829
v -0.245953 -0.156829 -0.149531
v -0.193244 -0.216527 -0.117485
v -0.133109 -0.260888 -0.080925
v -0.067859 -0.288205 -0.041255
v -0.059257 0.653423 -0.054645
v -0.116237 0.626106 -0.107190
v -0.168751 0.581746 -0.155616
v -0.214778 0.522047 -0.198062
v -0.252553 0.449303 -0.232896
v -0.280622 0.366312 -0.258779
v -0.297907 0.276260 -0.274719
v -0.303743 0.182609 -0.280101
v -0.297907 0.088959 -0.274719
v -0.280622 -0.001093 -0.258779
v -0.252553 -0.084085 -0.232896
v -0.214778 -0.156829 -0.198062
v -0.168751 -0.216527 -0.155616
v -0.116237 -0.260888 -0.107190
v -0.059257 -0.288205 -0.054645
v 0.000000 -0.297428 0.000000
v -0.048379 0.653423 -0.065935
v -0.094899 0.626106 -0.129336
v -0.137772 0.581746 -0.187766
v -0.175351 0.522047 -0.238981
v -0.206190 0.449303 -0.281012
v -0.229107 0.366312 -0.312244
v -0.243218 0.276260 -0.331476
v -0.247984 0.182609 -0.337970
v -0.243218 0.088959 -0.331476
v -0.229107 -0.001093 -0.312244
v -0.206190 -0.084085 -0.281012
v -0.175351 -0.156829 -0.238981
v -0.137772 -0.216527 -0.187766
v -0.094899 -0.260888 -0.129335
v -0.048380 -0.288205 -0.065935
v -0.035642 0.653423 -0.074691
v -0.069914 0.626106 -0.146511
v -0.101499 0.581746 -0.212701
v -0.129184 0.522047 -0.270717
v -0.151905 0.449303 -0.318329
v -0.168788 0.366312 -0.353708
v -0.179184 0.276260 -0.375494
v -0.182694 0.182609 -0.382850
v -0.179184 0.088959 -0.375494
v -0.166879 0.000055 -0.349339
v -0.149580 -0.081947 -0.312835
v -0.129184 -0.156829 -0.270717
v -0.101499 -0.216527 -0.212701
v -0.069914 -0.260888 -0.146511
v -0.035642 -0.288205 -0.074691
v -0.021535 0.653423 -0.080576
v -0.042242 0.626106 -0.158056
v -0.061326 0.581746 -0.229461
v -0.078053 0.522047 -0.292049
v -0.091780 0.449303 -0.343413
v -0.101981 0.366312 -0.381580
v -0.108263 0.276260 -0.405083
v -0.110383 0.182609 -0.413018
v -0.108263 0.088959 -0.405083
v -0.098410 0.002700 -0.367635
v -0.087655 -0.076364 -0.322750
v -0.075300 -0.149337 -0.276319
v -0.061326 -0.216527 -0.229461
v -0.042242 -0.260888 -0.158056
v -0.021535 -0.288205 -0.080576
v -0.006600 0.653423 -0.083365
v -0.012947 0.626106 -0.163527
v -0.018795 0.581746 -0.237403
v -0.023922 0.522047 -0.302157
v -0.028130 0.449303 -0.355300
v -0.031256 0.366311 -0.394788
v -0.033181 0.276260 -0.419105
v -0.033832 0.182609 -0.427315
v -0.033181 0.088959 -0.419105
v -0.029439 0.004921 -0.373803
v -0.026155 -0.072753 -0.325402
v -0.022588 -0.146058 -0.279122
v -0.018690 -0.215511 -0.235801
v -0.012947 -0.260888 -0.163526
v -0.006600 -0.288205 -0.083365
v 0.008589 0.653423 -0.082950
v 0.016846 0.626106 -0.162713
v 0.024457 0.581746 -0.236223
v 0.031127 0.522047 -0.300654
v 0.036602 0.449303 -0.353532
v 0.040670 0.366312 -0.392824
v 0.043175 0.276260 -0.417020
v 0.044021 0.182609 -0.425189
v 0.043175 0.088959 -0.417020
v 0.040006 0.004534 -0.373878
v 0.035153 -0.073027 -0.324982
v 0.029831 -0.146237 -0.278287
v 0.024372 -0.215799 -0.235091
v 0.016846 -0.260888 -0.162713
v 0.008589 -0.288205 -0.082950
v 0.023446 0.653423 -0.079348
v 0.045992 0.626106 -0.155647
v 0.066769 0.581746 -0.225964
v 0.084981 0.522047 -0.287597
v 0.099928 0.449303 -0.338178
v 0.111034 0.366312 -0.375764
v 0.117873 0.276260 -0.398909
v 0.120182 0.182609 -0.406724
v 0.117873 0.088959 -0.398909
v 0.110994 -0.001042 -0.375581
v 0.096995 -0.077122 -0.321295
v 0.082369 -0.149600 -0.273145
v 0.066769 -0.216527 -0.225964
v 0.045992 -0.260888 -0.155647
v 0.023446 -0.288205 -0.079348
v 0.037403 0.653423 -0.072696
v 0.073369 0.626106 -0.142599
v 0.106516 0.581746 -0.207021
v 0.135569 0.522047 -0.263489
v 0.159413 0.449303 -0.309830
v 0.177130 0.366312 -0.344264
v 0.188040 0.276260 -0.365469
v 0.191724 0.182609 -0.372628
v 0.188040 0.088959 -0.365469
v 0.177130 -0.001093 -0.344264
v 0.159413 -0.084085 -0.309830
v 0.135569 -0.156829 -0.263489
v 0.106516 -0.216527 -0.207021
v 0.073369 -0.260888 -0.142599
v 0.037403 -0.288205 -0.072696
v 0.049923 0.653423 -0.063251
v 0.097928 0.626106 -0.124072
v 0.142169 0.581746 -0.180124
v 0.180947 0.522047 -0.229253
v 0.212772 0.449303 -0.269574
v 0.236419 0.366312 -0.299535
v 0.250981 0.276260 -0.317984
v 0.255898 0.182609 -0.324213
v 0.250981 0.088959 -0.317984
v 0.236419 -0.001093 -0.299534
v 0.212772 -0.084085 -0.269574
v 0.180947 -0.156829 -0.229253
v 0.142169 -0.216527 -0.180123
v 0.097927 -0.260888 -0.124071
v 0.049923 -0.288205 -0.063251
v 0.060524 0.653423 -0.051375
v 0.118723 0.626106 -0.100775
v 0.172359 0.581746 -0.146303
v 0.219372 0.522047 -0.186209
v 0.257954 0.449303 -0.218958
v 0.286623 0.366312 -0.243293
v 0.304277 0.276260 -0.258279
v 0.307686 0.182568 -0.261743
v 0.294237 0.090007 -0.251527
v 0.286623 -0.001093 -0.243293
v 0.257954 -0.084085 -0.218958
v 0.219372 -0.156829 -0.186209
v 0.172359 -0.216527 -0.146303
v 0.118723 -0.260888 -0.100775
v 0.060524 -0.288205 -0.051375
v 0.068799 0.653423 -0.037525
v 0.134956 0.626106 -0.073607
v 0.195925 0.581746 -0.106861
v 0.249366 0.522047 -0.136008
v 0.290765 0.448362 -0.158808
v 0.313042 0.362963 -0.172729
v 0.329244 0.273492 -0.182150
v 0.328775 0.181675 -0.183121
v 0.324292 0.090160 -0.179294
v 0.323008 -0.000597 -0.176434
v 0.293222 -0.084085 -0.159928
v 0.249366 -0.156829 -0.136008
v 0.195925 -0.216527 -0.106861
v 0.134956 -0.260888 -0.073607
v 0.068799 -0.288205 -0.037525
v 0.074431 0.653423 -0.022232
v 0.146002 0.626106 -0.043610
v 0.211963 0.581746 -0.063311
v 0.269777 0.522047 -0.080580
v 0.310831 0.447176 -0.093245
v 0.329159 0.360866 -0.100413
v 0.341240 0.271583 -0.104992
v 0.344406 0.180874 -0.105718
v 0.341618 0.090424 -0.103917
v 0.327269 0.002935 -0.099804
v 0.307204 -0.081173 -0.092354
v 0.269777 -0.156829 -0.080580
v 0.211963 -0.216527 -0.063311
v 0.146002 -0.260888 -0.043610
v 0.074431 -0.288205 -0.022232
v 0.077203 0.653423 -0.006085
v 0.151438 0.626106 -0.011937
v 0.279820 0.522047 -0.022056
v 0.338003 0.360378 -0.027579
v 0.334583 0.003503 -0.026083
v 0.279820 -0.156829 -0.022056
v 0.219854 -0.216527 -0.017329
v 0.151438 -0.260888 -0.011937
v 0.077203 -0.288205 -0.006085
vn 0.5444 0.8388 0.0065
vn 0.9866 -0.1396 -0.0848
vn 0.7058 0.7083 0.0084
vn 0.8483 -0.5280 -0.0399
vn 0.8471 0.5314 0.0054
vn 0.7058 -0.7083 0.0084
vn 0.9910 0.1337 0.0079
vn 0.5444 -0.8388 0.0065
vn 0.9940 0.1095 -0.0030
vn 0.3456 -0.9384 0.0041
vn 0.9985 0.0513 -0.0176
vn 0.1187 0.9929 0.0014
vn 0.1187 -0.9929 0.0014
vn 0.9977 -0.0655 -0.0195
vn 0.3456 0.9384 0.0041
vn 0.9941 -0.0948 -0.0534
vn 0.9983 -0.0532 0.0229
vn 0.3375 0.9390 0.0666
vn 0.9990 -0.0384 -0.0237
vn 0.5321 0.8401 0.1050
vn 0.9667 -0.2498 0.0563
vn 0.6906 0.7102 0.1363
vn 0.8115 -0.5620 0.1602
vn 0.8265 0.5410 0.1555
vn 0.6906 -0.7102 0.1363
vn 0.9765 0.1462 0.1586
vn 0.5321 -0.8401 0.1050
vn 0.9813 0.1785 0.0719
vn 0.3375 -0.9390 0.0666
vn 0.9989 0.0420 0.0221
vn 0.1159 0.9930 0.0229
vn 0.1159 -0.9930 0.0229
vn 0.6502 -0.7138 0.2602
vn 0.9327 0.1961 0.3026
vn 0.5000 -0.8426 0.2001
vn 0.9351 0.2476 0.2534
vn 0.3165 -0.9401 0.1267
vn 0.9811 0.1372 0.1362
vn 0.1086 0.9931 0.0435
vn 0.1086 -0.9931 0.0434
vn 0.9971 -0.0602 0.0457
vn 0.3165 0.9401 0.1267
vn 0.9746 -0.1262 0.1852
vn 0.4999 0.8426 0.2001
vn 0.8685 -0.3840 0.3135
vn 0.6502 0.7138 0.2602
vn 0.7654 -0.5659 0.3063
vn 0.7757 0.5574 0.2959
vn 0.8163 -0.2474 0.5220
vn 0.4487 0.8459 0.2882
vn 0.7664 -0.4127 0.4923
vn 0.5852 0.7185 0.3759
vn 0.6637 -0.5888 0.4613
vn 0.6907 0.5711 0.4437
vn 0.5307 -0.7245 0.4398
vn 0.8546 0.3202 0.4089
vn 0.4316 -0.8308 0.3514
vn 0.9088 0.2474 0.3359
vn 0.2835 -0.9415 0.1821
vn 0.8780 0.1645 0.4495
vn 0.0971 0.9933 0.0624
vn 0.0971 -0.9933 0.0624
vn 0.8394 -0.0848 0.5369
vn 0.2835 0.9415 0.1821
vn 0.3418 -0.7742 0.5328
vn 0.6968 0.2526 0.6714
vn 0.2394 -0.9431 0.2307
vn 0.7175 0.0844 0.6914
vn 0.0819 0.9935 0.0789
vn 0.0819 -0.9935 0.0789
vn 0.7175 -0.0844 0.6914
vn 0.2394 0.9431 0.2307
vn 0.6968 -0.2526 0.6714
vn 0.3800 0.8495 0.3661
vn 0.6529 -0.4189 0.6311
vn 0.4970 0.7237 0.4789
vn 0.4513 -0.6688 0.5909
vn 0.5882 0.5769 0.5668
vn 0.3028 -0.7117 0.6339
vn 0.6542 0.4179 0.6304
vn 0.2958 0.8528 0.4304
vn 0.4394 -0.4733 0.7635
vn 0.3880 0.7285 0.5645
vn 0.2693 -0.7189 0.6409
vn 0.4605 0.5823 0.6699
vn 0.2859 -0.7067 0.6471
vn 0.5134 0.4228 0.7468
vn 0.3379 -0.7175 0.6091
vn 0.5476 0.2559 0.7966
vn 0.1859 -0.9446 0.2706
vn 0.5644 0.0857 0.8210
vn 0.0635 0.9937 0.0924
vn 0.0635 -0.9937 0.0924
vn 0.5644 -0.0857 0.8210
vn 0.1860 0.9446 0.2705
vn 0.5476 -0.2559 0.7966
vn 0.3719 0.2586 0.8915
vn 0.1252 -0.9457 0.3000
vn 0.3836 0.0866 0.9194
vn 0.0427 0.9938 0.1024
vn 0.0427 -0.9938 0.1023
vn 0.3836 -0.0866 0.9194
vn 0.1251 0.9457 0.3000
vn 0.3719 -0.2586 0.8915
vn 0.1995 0.8554 0.4781
vn 0.2753 -0.5538 0.7858
vn 0.2622 0.7323 0.6285
vn 0.1981 -0.7060 0.6799
vn 0.3118 0.5866 0.7474
vn 0.2495 -0.6892 0.6803
vn 0.3482 0.4267 0.8347
vn 0.2745 -0.6988 0.6605
vn 0.1120 -0.6056 0.7878
vn 0.1246 0.7344 0.6672
vn 0.1147 -0.6687 0.7347
vn 0.1484 0.5890 0.7944
vn 0.2266 -0.6565 0.7195
vn 0.1658 0.4288 0.8881
vn 0.2123 -0.7242 0.6561
vn 0.1773 0.2601 0.9492
vn 0.0593 -0.9463 0.3178
vn 0.1829 0.0871 0.9793
vn 0.0202 0.9939 0.1084
vn 0.0202 -0.9939 0.1084
vn 0.1829 -0.0871 0.9793
vn 0.0593 0.9463 0.3178
vn 0.1773 -0.2601 0.9492
vn 0.0947 0.8568 0.5070
vn -0.0088 -0.9463 0.3232
vn -0.0272 0.0871 0.9958
vn -0.0030 0.9939 0.1102
vn -0.0030 -0.9939 0.1102
vn -0.0272 -0.0871 0.9958
vn -0.0088 0.9463 0.3232
vn -0.0264 -0.2601 0.9652
vn -0.0141 0.8567 0.5156
vn -0.0299 -0.6301 0.7759
vn -0.0185 0.7344 0.6785
vn -0.0023 -0.6213 0.7835
vn -0.0221 0.5889 0.8079
vn 0.1107 -0.6079 0.7863
vn -0.0247 0.4288 0.9031
vn 0.1040 -0.7828 0.6136
vn -0.0264 0.2601 0.9652
vn -0.1605 0.7323 0.6619
vn -0.1363 -0.5892 0.7964
vn -0.1908 0.5865 0.7871
vn -0.0846 -0.5695 0.8176
vn -0.2131 0.4266 0.8790
vn -0.0503 -0.8359 0.5466
vn -0.2276 0.2586 0.9388
vn -0.0766 -0.9457 0.3159
vn -0.2347 0.0866 0.9682
vn -0.0261 0.9938 0.1078
vn -0.0261 -0.9938 0.1078
vn -0.2347 -0.0866 0.9682
vn -0.0766 0.9457 0.3159
vn -0.2284 -0.2593 0.9384
vn -0.1221 0.8553 0.5035
vn -0.1700 -0.6237 0.7630
vn -0.4286 0.0856 0.8994
vn -0.0483 0.9937 0.1013
vn -0.0483 -0.9937 0.1012
vn -0.4286 -0.0856 0.8994
vn -0.1413 0.9445 0.2964
vn -0.4150 -0.2566 0.8729
vn -0.2247 0.8527 0.4715
vn -0.3068 -0.5842 0.7514
vn -0.2947 0.7284 0.6185
vn -0.2478 -0.5706 0.7830
vn -0.3498 0.5822 0.7340
vn -0.2804 -0.5925 0.7552
vn -0.3899 0.4227 0.8181
vn -0.2247 -0.8527 0.4716
vn -0.4159 0.2559 0.8727
vn -0.1413 -0.9445 0.2964
vn -0.3132 -0.5641 0.7640
vn -0.4920 0.5767 0.6522
vn -0.3475 -0.6730 0.6529
vn -0.5472 0.4178 0.7253
vn -0.3179 -0.8494 0.4213
vn -0.5827 0.2525 0.7724
vn -0.2003 -0.9431 0.2655
vn -0.6001 0.0844 0.7954
vn -0.0685 0.9935 0.0908
vn -0.0685 -0.9935 0.0908
vn -0.6001 -0.0844 0.7954
vn -0.2003 0.9431 0.2655
vn -0.5828 -0.2525 0.7724
vn -0.3179 0.8494 0.4213
vn -0.4436 -0.4876 0.7519
vn -0.4157 0.7235 0.5510
vn -0.0861 -0.9933 0.0769
vn -0.7434 -0.0832 0.6636
vn -0.2514 0.9415 0.2244
vn -0.7225 -0.2490 0.6450
vn -0.3980 0.8458 0.3553
vn -0.6788 -0.4132 0.6070
vn -0.5190 0.7184 0.4633
vn -0.6105 -0.5715 0.5484
vn -0.6125 0.5710 0.5467
vn -0.5182 -0.7176 0.4652
vn -0.6795 0.4126 0.6066
vn -0.3980 -0.8458 0.3553
vn -0.7225 0.2490 0.6450
vn -0.2514 -0.9415 0.2244
vn -0.7434 0.0832 0.6636
vn -0.0861 0.9933 0.0769
vn -0.6013 -0.7137 0.3593
vn -0.7837 0.4080 0.4683
vn -0.4624 -0.8426 0.2763
vn -0.8321 0.2459 0.4972
vn -0.2928 -0.9400 0.1749
vn -0.8555 0.0821 0.5112
vn -0.1004 0.9931 0.0600
vn -0.1004 -0.9931 0.0600
vn -0.8555 -0.0821 0.5112
vn -0.2928 0.9400 0.1749
vn -0.8321 -0.2459 0.4972
vn -0.4624 0.8426 0.2763
vn -0.7837 -0.4080 0.4683
vn -0.6013 0.7137 0.3593
vn -0.7078 -0.5658 0.4229
vn -0.7078 0.5658 0.4229
vn -0.3229 0.9389 0.1189
vn -0.9101 -0.2436 0.3352
vn -0.5090 0.8401 0.1874
vn -0.8581 -0.4047 0.3160
vn -0.6607 0.7102 0.2433
vn -0.7762 -0.5620 0.2858
vn -0.7762 0.5620 0.2858
vn -0.6606 -0.7102 0.2433
vn -0.8581 0.4047 0.3160
vn -0.5090 -0.8401 0.1874
vn -0.9101 0.2436 0.3352
vn -0.3229 -0.9389 0.1189
vn -0.9353 0.0813 0.3444
vn -0.1109 0.9930 0.0408
vn -0.1109 -0.9930 0.0408
vn -0.9353 -0.0813 0.3444
vn -0.9021 0.4029 0.1548
vn -0.5366 -0.8388 0.0921
vn -0.9562 0.2424 0.1641
vn -0.3407 -0.9384 0.0585
vn -0.9824 0.0808 0.1686
vn -0.1170 0.9929 0.0201
vn -0.1170 -0.9929 0.0201
vn -0.9824 -0.0808 0.1686
vn -0.3407 0.9384 0.0585
vn -0.9562 -0.2424 0.1641
vn -0.5366 0.8388 0.0921
vn -0.9021 -0.4029 0.1548
vn -0.6957 0.7083 0.1194
vn -0.8166 -0.5599 0.1401
vn -0.8166 0.5599 0.1401
vn -0.6957 -0.7083 0.1194
vn -0.9701 -0.2424 -0.0116
vn -0.5444 0.8388 -0.0065
vn -0.9152 -0.4029 -0.0109
vn -0.7058 0.7083 -0.0084
vn -0.8285 -0.5600 -0.0099
vn -0.8285 0.5600 -0.0099
vn -0.7058 -0.7083 -0.0084
vn -0.9152 0.4029 -0.0109
vn -0.5444 -0.8388 -0.0065
vn -0.9701 0.2424 -0.0116
vn -0.3456 -0.9384 -0.0041
vn -0.9967 0.0808 -0.0119
vn -0.1187 0.9929 -0.0014
vn -0.1187 -0.9929 -0.0014
vn -0.9967 -0.0808 -0.0119
vn -0.3456 0.9384 -0.0041
vn -0.5321 -0.8401 -0.1050
vn -0.9515 0.2436 -0.1878
vn -0.3375 -0.9390 -0.0666
vn -0.9778 0.0813 -0.1930
vn -0.1159 0.9930 -0.0229
vn -0.1159 -0.9930 -0.0229
vn -0.9778 -0.0813 -0.1930
vn -0.3375 0.9390 -0.0666
vn -0.9515 -0.2436 -0.1878
vn -0.5321 0.8401 -0.1050
vn -0.8971 -0.4047 -0.1771
vn -0.6906 0.7102 -0.1363
vn -0.8115 -0.5620 -0.1602
vn -0.8115 0.5620 -0.1602
vn -0.6906 -0.7102 -0.1363
vn -0.8971 0.4047 -0.1771
vn -0.4999 0.8426 -0.2001
vn -0.8476 -0.4081 -0.3392
vn -0.6502 0.7138 -0.2602
vn -0.7654 -0.5659 -0.3063
vn -0.7654 0.5659 -0.3063
vn -0.6502 -0.7138 -0.2602
vn -0.8476 0.4081 -0.3392
vn -0.5000 -0.8426 -0.2001
vn -0.8999 0.2459 -0.3602
vn -0.3165 -0.9401 -0.1267
vn -0.9253 0.0821 -0.3703
vn -0.1086 0.9931 -0.0435
vn -0.1086 -0.9931 -0.0434
vn -0.9253 -0.0821 -0.3703
vn -0.3165 0.9401 -0.1267
vn -0.8999 -0.2459 -0.3602
vn -0.8149 0.2491 -0.5234
vn -0.2835 -0.9415 -0.1821
vn -0.8385 0.0832 -0.5386
vn -0.0971 0.9933 -0.0624
vn -0.0971 -0.9933 -0.0624
vn -0.8385 -0.0832 -0.5386
vn -0.2835 0.9415 -0.1821
vn -0.8149 -0.2491 -0.5234
vn -0.4487 0.8459 -0.2883
vn -0.7664 -0.4127 -0.4923
vn -0.5852 0.7185 -0.3759
vn -0.6907 -0.5711 -0.4437
vn -0.6907 0.5711 -0.4437
vn -0.5852 -0.7185 -0.3759
vn -0.7664 0.4127 -0.4923
vn -0.4488 -0.8459 -0.2883
vn -0.6542 -0.4179 -0.6304
vn -0.4970 0.7237 -0.4789
vn -0.5882 -0.5769 -0.5668
vn -0.5882 0.5769 -0.5668
vn -0.4970 -0.7237 -0.4789
vn -0.6542 0.4179 -0.6304
vn -0.3800 -0.8495 -0.3661
vn -0.6968 0.2526 -0.6714
vn -0.2394 -0.9431 -0.2307
vn -0.7175 0.0845 -0.6914
vn -0.0819 0.9935 -0.0789
vn -0.0819 -0.9935 -0.0789
vn -0.7175 -0.0845 -0.6914
vn -0.2394 0.9431 -0.2307
vn -0.6968 -0.2526 -0.6714
vn -0.3800 0.8495 -0.3661
vn -0.1860 -0.9446 -0.2705
vn -0.5644 0.0857 -0.8211
vn -0.0635 0.9937 -0.0924
vn -0.0635 -0.9937 -0.0924
vn -0.5644 -0.0857 -0.8211
vn -0.1860 0.9446 -0.2705
vn -0.5169 -0.2814 -0.8085
vn -0.2958 0.8528 -0.4304
vn -0.4438 -0.4308 -0.7858
vn -0.3880 0.7285 -0.5645
vn -0.4291 -0.5551 -0.7126
vn -0.4605 0.5823 -0.6699
vn -0.3880 -0.7285 -0.5645
vn -0.5134 0.4228 -0.7468
vn -0.2959 -0.8528 -0.4304
vn -0.5476 0.2559 -0.7966
vn -0.0551 -0.5220 -0.8512
vn -0.3118 0.5866 -0.7474
vn -0.1247 -0.6561 -0.7443
vn -0.3482 0.4267 -0.8347
vn -0.1995 -0.8554 -0.4781
vn -0.3719 0.2586 -0.8915
vn -0.1251 -0.9457 -0.3000
vn -0.3836 0.0866 -0.9194
vn -0.0427 0.9938 -0.1024
vn -0.0427 -0.9938 -0.1023
vn -0.3836 -0.0866 -0.9194
vn -0.1251 0.9457 -0.3000
vn -0.2972 -0.3589 -0.8848
vn -0.1995 0.8554 -0.4781
vn -0.1587 -0.4672 -0.8698
vn -0.2622 0.7323 -0.6285
vn -0.0202 0.9939 -0.1084
vn -0.0202 -0.9939 -0.1084
vn -0.1829 -0.0871 -0.9793
vn -0.0593 0.9463 -0.3178
vn -0.1179 -0.4416 -0.8894
vn -0.0947 0.8568 -0.5070
vn -0.0350 -0.5134 -0.8574
vn -0.1246 0.7344 -0.6672
vn -0.0080 -0.5359 -0.8442
vn -0.1484 0.5889 -0.7944
vn -0.0546 -0.5550 -0.8301
vn -0.1658 0.4288 -0.8881
vn -0.0732 -0.8515 -0.5192
vn -0.1773 0.2601 -0.9492
vn -0.0593 -0.9463 -0.3178
vn -0.1829 0.0871 -0.9793
vn 0.0221 0.5889 -0.8079
vn 0.0112 -0.5284 -0.8489
vn 0.0111 -0.5286 -0.8488
vn 0.0247 0.4288 -0.9031
vn 0.0077 -0.8479 -0.5302
vn 0.0264 0.2601 -0.9652
vn 0.0088 -0.9463 -0.3232
vn 0.0272 0.0871 -0.9958
vn 0.0030 0.9939 -0.1102
vn 0.0030 -0.9939 -0.1102
vn 0.0272 -0.0871 -0.9958
vn 0.0088 0.9463 -0.3232
vn 0.0110 -0.4648 -0.8854
vn 0.0141 0.8567 -0.5156
vn 0.0033 -0.5334 -0.8459
vn -0.0004 -0.5311 -0.8473
vn 0.0032 -0.5334 -0.8459
vn 0.0185 0.7344 -0.6785
vn 0.2347 -0.0866 -0.9682
vn 0.0766 0.9457 -0.3159
vn 0.0909 -0.3592 -0.9288
vn 0.1221 0.8553 -0.5035
vn -0.0280 -0.5549 -0.8314
vn 0.1605 0.7323 -0.6619
vn 0.0288 -0.5481 -0.8359
vn 0.1908 0.5865 -0.7871
vn 0.0995 -0.5600 -0.8225
vn 0.2131 0.4266 -0.8790
vn 0.1074 -0.8518 -0.5127
vn 0.2276 0.2586 -0.9388
vn 0.0766 -0.9457 -0.3159
vn 0.2347 0.0866 -0.9682
vn 0.0261 0.9938 -0.1078
vn 0.0261 -0.9938 -0.1078
vn 0.1737 -0.6597 -0.7312
vn 0.3899 0.4227 -0.8181
vn 0.2247 -0.8527 -0.4716
vn 0.4159 0.2559 -0.8727
vn 0.1413 -0.9445 -0.2964
vn 0.4286 0.0856 -0.8994
vn 0.0483 0.9937 -0.1013
vn 0.0483 -0.9937 -0.1012
vn 0.4286 -0.0856 -0.8994
vn 0.1413 0.9445 -0.2964
vn 0.4146 -0.2569 -0.8730
vn 0.2247 0.8527 -0.4715
vn 0.2467 -0.5091 -0.8246
vn 0.2947 0.7284 -0.6185
vn 0.0822 -0.5587 -0.8253
vn 0.3498 0.5822 -0.7340
vn 0.2003 0.9431 -0.2655
vn 0.5828 -0.2525 -0.7724
vn 0.3179 0.8494 -0.4213
vn 0.5472 -0.4177 -0.7253
vn 0.4157 0.7235 -0.5511
vn 0.4920 -0.5767 -0.6522
vn 0.4920 0.5767 -0.6522
vn 0.4157 -0.7235 -0.5510
vn 0.5472 0.4178 -0.7253
vn 0.3179 -0.8494 -0.4213
vn 0.5827 0.2525 -0.7724
vn 0.2003 -0.9431 -0.2655
vn 0.6001 0.0844 -0.7954
vn 0.0685 0.9935 -0.0908
vn 0.0685 -0.9935 -0.0908
vn 0.6001 -0.0844 -0.7954
vn 0.6796 0.4126 -0.6066
vn 0.3980 -0.8458 -0.3553
vn 0.7225 0.2490 -0.6450
vn 0.2514 -0.9415 -0.2244
vn 0.7564 0.0673 -0.6506
vn 0.0861 0.9933 -0.0769
vn 0.0861 -0.9933 -0.0769
vn 0.7985 -0.1307 -0.5876
vn 0.2514 0.9415 -0.2244
vn 0.7828 -0.1834 -0.5947
vn 0.3980 0.8458 -0.3553
vn 0.6795 -0.4126 -0.6066
vn 0.5190 0.7184 -0.4633
vn 0.6125 -0.5710 -0.5467
vn 0.6125 0.5710 -0.5467
vn 0.5190 -0.7184 -0.4633
vn 0.9002 -0.0703 -0.4297
vn 0.4624 0.8426 -0.2763
vn 0.8001 -0.3923 -0.4538
vn 0.6013 0.7137 -0.3593
vn 0.7078 -0.5658 -0.4229
vn 0.7267 0.5520 -0.4089
vn 0.6013 -0.7137 -0.3593
vn 0.8589 0.3457 -0.3778
vn 0.4624 -0.8426 -0.2763
vn 0.9241 0.2170 -0.3146
vn 0.2928 -0.9401 -0.1749
vn 0.9584 0.0220 -0.2847
vn 0.1004 0.9931 -0.0600
vn 0.1004 -0.9931 -0.0600
vn 0.9405 -0.1160 -0.3194
vn 0.2928 0.9401 -0.1749
vn 0.5090 -0.8401 -0.1874
vn 0.9697 0.1674 -0.1779
vn 0.3229 -0.9389 -0.1189
vn 0.9843 0.0162 -0.1757
vn 0.1109 0.9930 -0.0408
vn 0.1109 -0.9930 -0.0408
vn 0.9765 -0.0455 -0.2108
vn 0.3229 0.9389 -0.1189
vn 0.9862 -0.0919 -0.1378
vn 0.5090 0.8401 -0.1874
vn 0.9487 -0.2975 -0.1067
vn 0.6607 0.7102 -0.2433
vn 0.8321 -0.5088 -0.2206
vn 0.8141 0.5156 -0.2673
vn 0.6606 -0.7102 -0.2433
vn 0.9377 0.2512 -0.2401
vn 0.9691 -0.1906 -0.1568
vn 0.6957 0.7083 -0.1194
vn 0.8605 -0.4772 -0.1784
vn 0.8418 0.5118 -0.1716
vn 0.6957 -0.7083 -0.1194
vn 0.9699 0.1786 -0.1653
vn 0.5366 -0.8388 -0.0921
vn 0.9886 0.1178 -0.0938
vn 0.3407 -0.9384 -0.0585
vn 0.9959 0.0431 -0.0799
vn 0.1170 0.9929 -0.0201
vn 0.1170 -0.9929 -0.0201
vn 0.9964 -0.0502 -0.0683
vn 0.3407 0.9384 -0.0585
vn 0.9872 -0.1432 -0.0706
vn 0.5366 0.8388 -0.0921
vt 0.750000 0.812500
vt 0.750000 0.875000
vt 0.718750 0.875000
vt 0.718750 0.812500
vt 0.750000 0.312500
vt 0.750000 0.375000
vt 0.718750 0.375000
vt 0.718750 0.312500
vt 0.750000 0.750000
vt 0.718750 0.750000
vt 0.750000 0.250000
vt 0.718750 0.250000
vt 0.750000 0.687500
vt 0.718750 0.687500
vt 0.750000 0.187500
vt 0.718750 0.187500
vt 0.750000 0.625000
vt 0.718750 0.625000
vt 0.750000 0.125000
vt 0.718750 0.125000
vt 0.750000 0.562500
vt 0.718750 0.562500
vt 0.750000 0.062500
vt 0.718750 0.062500
vt 0.750000 0.500000
vt 0.718750 0.500000
vt 0.750000 0.937500
vt 0.734375 1.000000
vt 0.718750 0.937500
vt 0.734375 0.000000
vt 0.750000 0.437500
vt 0.718750 0.437500
vt 0.687500 0.500000
vt 0.687500 0.437500
vt 0.687500 0.937500
vt 0.687500 0.875000
vt 0.687500 0.375000
vt 0.687500 0.812500
vt 0.687500 0.312500
vt 0.687500 0.750000
vt 0.687500 0.250000
vt 0.687500 0.687500
vt 0.687500 0.187500
vt 0.687500 0.625000
vt 0.687500 0.125000
vt 0.687500 0.562500
vt 0.687500 0.062500
vt 0.703125 1.000000
vt 0.703125 0.000000
vt 0.656250 0.250000
vt 0.656250 0.187500
vt 0.656250 0.687500
vt 0.656250 0.625000
vt 0.656250 0.125000
vt 0.656250 0.562500
vt 0.656250 0.062500
vt 0.656250 0.500000
vt 0.671875 1.000000
vt 0.656250 0.937500
vt 0.671875 0.000000
vt 0.656250 0.437500
vt 0.656250 0.875000
vt 0.656250 0.375000
vt 0.656250 0.812500
vt 0.656250 0.312500
vt 0.656250 0.750000
vt 0.625000 0.437500
vt 0.625000 0.375000
vt 0.625000 0.875000
vt 0.625000 0.812500
vt 0.625000 0.312500
vt 0.625000 0.750000
vt 0.625000 0.250000
vt 0.625000 0.687500
vt 0.625000 0.187500
vt 0.625000 0.625000
vt 0.625000 0.125000
vt 0.625000 0.562500
vt 0.625000 0.062500
vt 0.625000 0.500000
vt 0.640625 1.000000
vt 0.625000 0.937500
vt 0.640625 0.000000
vt 0.593750 0.187500
vt 0.593750 0.125000
vt 0.593750 0.625000
vt 0.593750 0.562500
vt 0.593750 0.062500
vt 0.593750 0.500000
vt 0.609375 1.000000
vt 0.593750 0.937500
vt 0.609375 0.000000
vt 0.593750 0.437500
vt 0.593750 0.875000
vt 0.593750 0.375000
vt 0.593750 0.812500
vt 0.593750 0.312500
vt 0.593750 0.750000
vt 0.593750 0.250000
vt 0.593750 0.687500
vt 0.562500 0.875000
vt 0.562500 0.812500
vt 0.562500 0.375000
vt 0.562500 0.312500
vt 0.562500 0.750000
vt 0.562500 0.250000
vt 0.562500 0.687500
vt 0.562500 0.187500
vt 0.562500 0.625000
vt 0.562500 0.125000
vt 0.562500 0.562500
vt 0.562500 0.062500
vt 0.562500 0.500000
vt 0.578125 1.000000
vt 0.562500 0.937500
vt 0.578125 0.000000
vt 0.562500 0.437500
vt 0.531250 0.625000
vt 0.531250 0.562500
vt 0.531250 0.125000
vt 0.531250 0.062500
vt 0.531250 0.500000
vt 0.546875 1.000000
vt 0.531250 0.937500
vt 0.546875 0.000000
vt 0.531250 0.437500
vt 0.531250 0.875000
vt 0.531250 0.375000
vt 0.531250 0.812500
vt 0.531250 0.312500
vt 0.531250 0.750000
vt 0.531250 0.250000
vt 0.531250 0.687500
vt 0.531250 0.187500
vt 0.500000 0.375000
vt 0.500000 0.312500
vt 0.500000 0.812500
vt 0.500000 0.750000
vt 0.500000 0.250000
vt 0.500000 0.687500
vt 0.500000 0.187500
vt 0.500000 0.625000
vt 0.500000 0.125000
vt 0.500000 0.562500
vt 0.500000 0.062500
vt 0.500000 0.500000
vt 0.515625 1.000000
vt 0.500000 0.937500
vt 0.515625 0.000000
vt 0.500000 0.437500
vt 0.500000 0.875000
vt 0.468750 0.125000
vt 0.468750 0.062500
vt 0.468750 0.562500
vt 0.468750 0.500000
vt 0.484375 1.000000
vt 0.468750 0.937500
vt 0.484375 0.000000
vt 0.468750 0.437500
vt 0.468750 0.875000
vt 0.468750 0.375000
vt 0.468750 0.812500
vt 0.468750 0.312500
vt 0.468750 0.750000
vt 0.468750 0.250000
vt 0.468750 0.687500
vt 0.468750 0.187500
vt 0.468750 0.625000
vt 0.437500 0.812500
vt 0.437500 0.750000
vt 0.437500 0.312500
vt 0.437500 0.250000
vt 0.437500 0.687500
vt 0.437500 0.187500
vt 0.437500 0.625000
vt 0.437500 0.125000
vt 0.437500 0.562500
vt 0.437500 0.062500
vt 0.437500 0.500000
vt 0.453125 1.000000
vt 0.437500 0.937500
vt 0.453125 0.000000
vt 0.437500 0.437500
vt 0.437500 0.875000
vt 0.437500 0.375000
vt 0.406250 0.562500
vt 0.406250 0.500000
vt 0.421875 1.000000
vt 0.406250 0.937500
vt 0.421875 0.000000
vt 0.406250 0.062500
vt 0.406250 0.437500
vt 0.406250 0.875000
vt 0.406250 0.375000
vt 0.406250 0.812500
vt 0.406250 0.312500
vt 0.406250 0.750000
vt 0.406250 0.250000
vt 0.406250 0.687500
vt 0.406250 0.187500
vt 0.406250 0.625000
vt 0.406250 0.125000
vt 0.375000 0.312500
vt 0.375000 0.250000
vt 0.375000 0.750000
vt 0.375000 0.687500
vt 0.375000 0.187500
vt 0.375000 0.625000
vt 0.375000 0.125000
vt 0.375000 0.562500
vt 0.375000 0.062500
vt 0.375000 0.500000
vt 0.390625 1.000000
vt 0.375000 0.937500
vt 0.390625 0.000000
vt 0.375000 0.437500
vt 0.375000 0.875000
vt 0.375000 0.375000
vt 0.375000 0.812500
vt 0.359375 0.000000
vt 0.343750 0.062500
vt 0.343750 0.500000
vt 0.343750 0.437500
vt 0.343750 0.937500
vt 0.343750 0.875000
vt 0.343750 0.375000
vt 0.343750 0.812500
vt 0.343750 0.312500
vt 0.343750 0.750000
vt 0.343750 0.250000
vt 0.343750 0.687500
vt 0.343750 0.187500
vt 0.343750 0.625000
vt 0.343750 0.125000
vt 0.343750 0.562500
vt 0.359375 1.000000
vt 0.312500 0.250000
vt 0.312500 0.187500
vt 0.312500 0.687500
vt 0.312500 0.625000
vt 0.312500 0.125000
vt 0.312500 0.562500
vt 0.312500 0.062500
vt 0.312500 0.500000
vt 0.328125 1.000000
vt 0.312500 0.937500
vt 0.328125 0.000000
vt 0.312500 0.437500
vt 0.312500 0.875000
vt 0.312500 0.375000
vt 0.312500 0.812500
vt 0.312500 0.312500
vt 0.312500 0.750000
vt 0.281250 0.937500
vt 0.281250 0.875000
vt 0.281250 0.437500
vt 0.281250 0.375000
vt 0.281250 0.812500
vt 0.281250 0.312500
vt 0.281250 0.750000
vt 0.281250 0.250000
vt 0.281250 0.687500
vt 0.281250 0.187500
vt 0.281250 0.625000
vt 0.281250 0.125000
vt 0.281250 0.562500
vt 0.281250 0.062500
vt 0.281250 0.500000
vt 0.296875 1.000000
vt 0.296875 0.000000
vt 0.250000 0.687500
vt 0.250000 0.625000
vt 0.250000 0.187500
vt 0.250000 0.125000
vt 0.250000 0.562500
vt 0.250000 0.062500
vt 0.250000 0.500000
vt 0.265625 1.000000
vt 0.250000 0.937500
vt 0.265625 0.000000
vt 0.250000 0.437500
vt 0.250000 0.875000
vt 0.250000 0.375000
vt 0.250000 0.812500
vt 0.250000 0.312500
vt 0.250000 0.750000
vt 0.250000 0.250000
vt 0.218750 0.437500
vt 0.218750 0.375000
vt 0.218750 0.875000
vt 0.218750 0.812500
vt 0.218750 0.312500
vt 0.218750 0.750000
vt 0.218750 0.250000
vt 0.218750 0.687500
vt 0.218750 0.187500
vt 0.218750 0.625000
vt 0.218750 0.125000
vt 0.218750 0.562500
vt 0.218750 0.062500
vt 0.218750 0.500000
vt 0.234375 1.000000
vt 0.218750 0.937500
vt 0.234375 0.000000
vt 0.187500 0.187500
vt 0.187500 0.125000
vt 0.187500 0.625000
vt 0.187500 0.562500
vt 0.187500 0.062500
vt 0.187500 0.500000
vt 0.203125 1.000000
vt 0.187500 0.937500
vt 0.203125 0.000000
vt 0.187500 0.437500
vt 0.187500 0.875000
vt 0.187500 0.375000
vt 0.187500 0.812500
vt 0.187500 0.312500
vt 0.187500 0.750000
vt 0.187500 0.250000
vt 0.187500 0.687500
vt 0.156250 0.875000
vt 0.156250 0.812500
vt 0.156250 0.375000
vt 0.156250 0.312500
vt 0.156250 0.750000
vt 0.156250 0.250000
vt 0.156250 0.687500
vt 0.156250 0.187500
vt 0.156250 0.625000
vt 0.156250 0.125000
vt 0.156250 0.562500
vt 0.156250 0.062500
vt 0.156250 0.500000
vt 0.171875 1.000000
vt 0.156250 0.937500
vt 0.171875 0.000000
vt 0.156250 0.437500
vt 0.125000 0.625000
vt 0.125000 0.562500
vt 0.125000 0.125000
vt 0.125000 0.062500
vt 0.125000 0.500000
vt 0.140625 1.000000
vt 0.125000 0.937500
vt 0.140625 0.000000
vt 0.125000 0.437500
vt 0.125000 0.875000
vt 0.125000 0.375000
vt 0.125000 0.812500
vt 0.125000 0.312500
vt 0.125000 0.750000
vt 0.125000 0.250000
vt 0.125000 0.687500
vt 0.125000 0.187500
vt 0.093750 0.375000
vt 0.093750 0.312500
vt 0.093750 0.812500
vt 0.093750 0.750000
vt 0.093750 0.250000
vt 0.093750 0.687500
vt 0.093750 0.187500
vt 0.093750 0.625000
vt 0.093750 0.125000
vt 0.093750 0.562500
vt 0.093750 0.062500
vt 0.093750 0.500000
vt 0.109375 1.000000
vt 0.093750 0.937500
vt 0.109375 0.000000
vt 0.093750 0.437500
vt 0.093750 0.875000
vt 0.062500 0.125000
vt 0.062500 0.062500
vt 0.062500 0.562500
vt 0.062500 0.500000
vt 0.078125 1.000000
vt 0.062500 0.937500
vt 0.078125 0.000000
vt 0.062500 0.437500
vt 0.062500 0.875000
vt 0.062500 0.375000
vt 0.062500 0.812500
vt 0.062500 0.312500
vt 0.062500 0.750000
vt 0.062500 0.250000
vt 0.062500 0.687500
vt 0.062500 0.187500
vt 0.062500 0.625000
vt 0.031250 0.312500
vt 0.031250 0.250000
vt 0.031250 0.750000
vt 0.031250 0.687500
vt 0.031250 0.187500
vt 0.031250 0.625000
vt 0.031250 0.125000
vt 0.031250 0.562500
vt 0.031250 0.062500
vt 0.031250 0.500000
vt 0.046875 1.000000
vt 0.031250 0.937500
vt 0.046875 0.000000
vt 0.031250 0.437500
vt 0.031250 0.875000
vt 0.031250 0.375000
vt 0.031250 0.812500
vt 0.015625 1.000000
vt 0.000000 0.937500
vt 0.015625 0.000000
vt 0.000000 0.062500
vt 0.000000 0.500000
vt 0.000000 0.437500
vt 0.000000 0.875000
vt 0.000000 0.375000
vt 0.000000 0.812500
vt 0.000000 0.312500
vt 0.000000 0.750000
vt 0.000000 0.250000
vt 0.000000 0.687500
vt 0.000000 0.187500
vt 0.000000 0.625000
vt 0.000000 0.125000
vt 0.000000 0.562500
vt 1.000000 0.687500
vt 1.000000 0.750000
vt 0.968750 0.750000
vt 0.968750 0.687500
vt 1.000000 0.187500
vt 1.000000 0.250000
vt 0.968750 0.250000
vt 0.968750 0.187500
vt 1.000000 0.625000
vt 0.968750 0.625000
vt 1.000000 0.125000
vt 0.968750 0.125000
vt 1.000000 0.562500
vt 0.968750 0.562500
vt 1.000000 0.062500
vt 0.968750 0.062500
vt 1.000000 0.500000
vt 0.968750 0.500000
vt 1.000000 0.937500
vt 0.984375 1.000000
vt 0.968750 0.937500
vt 0.984375 0.000000
vt 1.000000 0.437500
vt 0.968750 0.437500
vt 1.000000 0.875000
vt 0.968750 0.875000
vt 1.000000 0.375000
vt 0.968750 0.375000
vt 1.000000 0.812500
vt 0.968750 0.812500
vt 1.000000 0.312500
vt 0.968750 0.312500
vt 0.937500 0.500000
vt 0.937500 0.437500
vt 0.937500 0.937500
vt 0.937500 0.875000
vt 0.937500 0.375000
vt 0.937500 0.812500
vt 0.937500 0.312500
vt 0.937500 0.750000
vt 0.937500 0.250000
vt 0.937500 0.687500
vt 0.937500 0.187500
vt 0.937500 0.625000
vt 0.937500 0.125000
vt 0.937500 0.562500
vt 0.937500 0.062500
vt 0.953125 1.000000
vt 0.953125 0.000000
vt 0.906250 0.250000
vt 0.906250 0.187500
vt 0.906250 0.687500
vt 0.906250 0.625000
vt 0.906250 0.125000
vt 0.906250 0.562500
vt 0.906250 0.062500
vt 0.906250 0.500000
vt 0.921875 1.000000
vt 0.906250 0.937500
vt 0.921875 0.000000
vt 0.906250 0.437500
vt 0.906250 0.875000
vt 0.906250 0.375000
vt 0.906250 0.812500
vt 0.906250 0.312500
vt 0.906250 0.750000
vt 0.875000 0.937500
vt 0.875000 0.875000
vt 0.875000 0.437500
vt 0.875000 0.375000
vt 0.875000 0.812500
vt 0.875000 0.312500
vt 0.875000 0.750000
vt 0.875000 0.250000
vt 0.875000 0.687500
vt 0.875000 0.187500
vt 0.875000 0.625000
vt 0.875000 0.125000
vt 0.875000 0.562500
vt 0.875000 0.062500
vt 0.875000 0.500000
vt 0.890625 1.000000
vt 0.890625 0.000000
vt 0.843750 0.687500
vt 0.843750 0.625000
vt 0.843750 0.187500
vt 0.843750 0.125000
vt 0.843750 0.562500
vt 0.843750 0.062500
vt 0.843750 0.500000
vt 0.859375 1.000000
vt 0.843750 0.937500
vt 0.859375 0.000000
vt 0.843750 0.437500
vt 0.843750 0.875000
vt 0.843750 0.375000
vt 0.843750 0.812500
vt 0.843750 0.312500
vt 0.843750 0.750000
vt 0.843750 0.250000
vt 0.812500 0.437500
vt 0.812500 0.375000
vt 0.812500 0.875000
vt 0.812500 0.812500
vt 0.812500 0.312500
vt 0.812500 0.750000
vt 0.812500 0.250000
vt 0.812500 0.687500
vt 0.812500 0.187500
vt 0.812500 0.625000
vt 0.812500 0.125000
vt 0.812500 0.562500
vt 0.812500 0.062500
vt 0.812500 0.500000
vt 0.828125 1.000000
vt 0.812500 0.937500
vt 0.828125 0.000000
vt 0.781250 0.187500
vt 0.781250 0.125000
vt 0.781250 0.625000
vt 0.781250 0.562500
vt 0.781250 0.062500
vt 0.781250 0.500000
vt 0.796875 1.000000
vt 0.781250 0.937500
vt 0.796875 0.000000
vt 0.781250 0.437500
vt 0.781250 0.875000
vt 0.781250 0.375000
vt 0.781250 0.812500
vt 0.781250 0.312500
vt 0.781250 0.750000
vt 0.781250 0.250000
vt 0.781250 0.687500
vt 0.765625 1.000000
vt 0.765625 0.000000
s 1
usemtl マテリアル.003
f 1/1/1 475/2/1 8/3/1 9/4/1
f 6/5/2 478/6/2 16/7/2 17/8/2
f 476/9/3 1/1/3 9/4/3 10/10/3
f 479/11/4 6/5/4 17/8/4 18/12/4
f 2/13/5 476/9/5 10/10/5 11/14/5
f 480/15/6 479/11/6 18/12/6 19/16/6
f 477/17/7 2/13/7 11/14/7 12/18/7
f 481/19/8 480/15/8 19/16/8 20/20/8
f 3/21/9 477/17/9 12/18/9 13/22/9
f 482/23/10 481/19/10 20/20/10 21/24/10
f 4/25/11 3/21/11 13/22/11 14/26/11
f 474/27/12 82/28/12 7/29/12
f 308/30/13 482/23/13 21/24/13
f 5/31/14 4/25/14 14/26/14 15/32/14
f 475/2/15 474/27/15 7/29/15 8/3/15
f 478/6/16 5/31/16 15/32/16 16/7/16
f 15/32/17 14/26/17 29/33/17 30/34/17
f 8/3/18 7/29/18 22/35/18 23/36/18
f 16/7/19 15/32/19 30/34/19 31/37/19
f 9/4/20 8/3/20 23/36/20 24/38/20
f 17/8/21 16/7/21 31/37/21 32/39/21
f 10/10/22 9/4/22 24/38/22 25/40/22
f 18/12/23 17/8/23 32/39/23 33/41/23
f 11/14/24 10/10/24 25/40/24 26/42/24
f 19/16/25 18/12/25 33/41/25 34/43/25
f 12/18/26 11/14/26 26/42/26 27/44/26
f 20/20/27 19/16/27 34/43/27 35/45/27
f 13/22/28 12/18/28 27/44/28 28/46/28
f 21/24/29 20/20/29 35/45/29 36/47/29
f 14/26/30 13/22/30 28/46/30 29/33/30
f 7/29/31 82/48/31 22/35/31
f 308/49/32 21/24/32 36/47/32
f 34/43/33 33/41/33 48/50/33 49/51/33
f 27/44/34 26/42/34 41/52/34 42/53/34
f 35/45/35 34/43/35 49/51/35 50/54/35
f 28/46/36 27/44/36 42/53/36 43/55/36
f 36/47/37 35/45/37 50/54/37 51/56/37
f 29/33/38 28/46/38 43/55/38 44/57/38
f 22/35/39 82/58/39 37/59/39
f 308/60/40 36/47/40 51/56/40
f 30/34/41 29/33/41 44/57/41 45/61/41
f 23/36/42 22/35/42 37/59/42 38/62/42
f 31/37/43 30/34/43 45/61/43 46/63/43
f 24/38/44 23/36/44 38/62/44 39/64/44
f 32/39/45 31/37/45 46/63/45 47/65/45
f 25/40/46 24/38/46 39/64/46 40/66/46
f 33/41/47 32/39/47 47/65/47 48/50/47
f 26/42/48 25/40/48 40/66/48 41/52/48
f 46/63/49 45/61/49 60/67/49 61/68/49
f 39/64/50 38/62/50 53/69/50 54/70/50
f 47/65/51 46/63/51 61/68/51 62/71/51
f 40/66/52 39/64/52 54/70/52 55/72/52
f 48/50/53 47/65/53 62/71/53 63/73/53
f 41/52/54 40/66/54 55/72/54 56/74/54
f 49/51/55 48/50/55 63/73/55 64/75/55
f 42/53/56 41/52/56 56/74/56 57/76/56
f 50/54/57 49/51/57 64/75/57 65/77/57
f 43/55/58 42/53/58 57/76/58 58/78/58
f 51/56/59 50/54/59 65/77/59 66/79/59
f 44/57/60 43/55/60 58/78/60 59/80/60
f 37/59/61 82/81/61 52/82/61
f 308/83/62 51/56/62 66/79/62
f 45/61/63 44/57/63 59/80/63 60/67/63
f 38/62/64 37/59/64 52/82/64 53/69/64
f 65/77/65 64/75/65 79/84/65 80/85/65
f 58/78/66 57/76/66 72/86/66 73/87/66
f 66/79/67 65/77/67 80/85/67 81/88/67
f 59/80/68 58/78/68 73/87/68 74/89/68
f 52/82/69 82/90/69 67/91/69
f 308/92/70 66/79/70 81/88/70
f 60/67/71 59/80/71 74/89/71 75/93/71
f 53/69/72 52/82/72 67/91/72 68/94/72
f 61/68/73 60/67/73 75/93/73 76/95/73
f 54/70/74 53/69/74 68/94/74 69/96/74
f 62/71/75 61/68/75 76/95/75 77/97/75
f 55/72/76 54/70/76 69/96/76 70/98/76
f 63/73/77 62/71/77 77/97/77 78/99/77
f 56/74/78 55/72/78 70/98/78 71/100/78
f 64/75/79 63/73/79 78/99/79 79/84/79
f 57/76/80 56/74/80 71/100/80 72/86/80
f 69/96/81 68/94/81 84/101/81 85/102/81
f 77/97/82 76/95/82 92/103/82 93/104/82
f 70/98/83 69/96/83 85/102/83 86/105/83
f 78/99/84 77/97/84 93/104/84 94/106/84
f 71/100/85 70/98/85 86/105/85 87/107/85
f 79/84/86 78/99/86 94/106/86 95/108/86
f 72/86/87 71/100/87 87/107/87 88/109/87
f 80/85/88 79/84/88 95/108/88 96/110/88
f 73/87/89 72/86/89 88/109/89 89/111/89
f 81/88/90 80/85/90 96/110/90 97/112/90
f 74/89/91 73/87/91 89/111/91 90/113/91
f 67/91/92 82/114/92 83/115/92
f 308/116/93 81/88/93 97/112/93
f 75/93/94 74/89/94 90/113/94 91/117/94
f 68/94/95 67/91/95 83/115/95 84/101/95
f 76/95/96 75/93/96 91/117/96 92/103/96
f 89/111/97 88/109/97 103/118/97 104/119/97
f 97/112/98 96/110/98 111/120/98 112/121/98
f 90/113/99 89/111/99 104/119/99 105/122/99
f 83/115/100 82/123/100 98/124/100
f 308/125/101 97/112/101 112/121/101
f 91/117/102 90/113/102 105/122/102 106/126/102
f 84/101/103 83/115/103 98/124/103 99/127/103
f 92/103/104 91/117/104 106/126/104 107/128/104
f 85/102/105 84/101/105 99/127/105 100/129/105
f 93/104/106 92/103/106 107/128/106 108/130/106
f 86/105/107 85/102/107 100/129/107 101/131/107
f 94/106/108 93/104/108 108/130/108 109/132/108
f 87/107/109 86/105/109 101/131/109 102/133/109
f 95/108/110 94/106/110 109/132/110 110/134/110
f 88/109/111 87/107/111 102/133/111 103/118/111
f 96/110/112 95/108/112 110/134/112 111/120/112
f 108/130/113 107/128/113 122/135/113 123/136/113
f 101/131/114 100/129/114 115/137/114 116/138/114
f 109/132/115 108/130/115 123/136/115 124/139/115
f 102/133/116 101/131/116 116/138/116 117/140/116
f 110/134/117 109/132/117 124/139/117 125/141/117
f 103/118/118 102/133/118 117/140/118 118/142/118
f 111/120/119 110/134/119 125/141/119 126/143/119
f 104/119/120 103/118/120 118/142/120 119/144/120
f 112/121/121 111/120/121 126/143/121 127/145/121
f 105/122/122 104/119/122 119/144/122 120/146/122
f 98/124/123 82/147/123 113/148/123
f 308/149/124 112/121/124 127/145/124
f 106/126/125 105/122/125 120/146/125 121/150/125
f 99/127/126 98/124/126 113/148/126 114/151/126
f 107/128/127 106/126/127 121/150/127 122/135/127
f 100/129/128 99/127/128 114/151/128 115/137/128
f 127/145/129 126/143/129 141/152/129 142/153/129
f 120/146/130 119/144/130 134/154/130 135/155/130
f 113/148/131 82/156/131 128/157/131
f 308/158/132 127/145/132 142/153/132
f 121/150/133 120/146/133 135/155/133 136/159/133
f 114/151/134 113/148/134 128/157/134 129/160/134
f 122/135/135 121/150/135 136/159/135 137/161/135
f 115/137/136 114/151/136 129/160/136 130/162/136
f 123/136/137 122/135/137 137/161/137 138/163/137
f 116/138/138 115/137/138 130/162/138 131/164/138
f 124/139/139 123/136/139 138/163/139 139/165/139
f 117/140/140 116/138/140 131/164/140 132/166/140
f 125/141/141 124/139/141 139/165/141 140/167/141
f 118/142/142 117/140/142 132/166/142 133/168/142
f 126/143/143 125/141/143 140/167/143 141/152/143
f 119/144/144 118/142/144 133/168/144 134/154/144
f 131/164/145 130/162/145 145/169/145 146/170/145
f 139/165/146 138/163/146 153/171/146 154/172/146
f 132/166/147 131/164/147 146/170/147 147/173/147
f 140/167/148 139/165/148 154/172/148 155/174/148
f 133/168/149 132/166/149 147/173/149 148/175/149
f 141/152/150 140/167/150 155/174/150 156/176/150
f 134/154/151 133/168/151 148/175/151 149/177/151
f 142/153/152 141/152/152 156/176/152 157/178/152
f 135/155/153 134/154/153 149/177/153 150/179/153
f 128/157/154 82/180/154 143/181/154
f 308/182/155 142/153/155 157/178/155
f 136/159/156 135/155/156 150/179/156 151/183/156
f 129/160/157 128/157/157 143/181/157 144/184/157
f 137/161/158 136/159/158 151/183/158 152/185/158
f 130/162/159 129/160/159 144/184/159 145/169/159
f 138/163/160 137/161/160 152/185/160 153/171/160
f 150/179/161 149/177/161 164/186/161 165/187/161
f 143/181/162 82/188/162 158/189/162
f 308/190/163 157/178/163 172/191/163
f 151/183/164 150/179/164 165/187/164 166/192/164
f 144/184/165 143/181/165 158/189/165 159/193/165
f 152/185/166 151/183/166 166/192/166 167/194/166
f 145/169/167 144/184/167 159/193/167 160/195/167
f 153/171/168 152/185/168 167/194/168 168/196/168
f 146/170/169 145/169/169 160/195/169 161/197/169
f 154/172/170 153/171/170 168/196/170 169/198/170
f 147/173/171 146/170/171 161/197/171 162/199/171
f 155/174/172 154/172/172 169/198/172 170/200/172
f 148/175/173 147/173/173 162/199/173 163/201/173
f 156/176/174 155/174/174 170/200/174 171/202/174
f 149/177/175 148/175/175 163/201/175 164/186/175
f 157/178/176 156/176/176 171/202/176 172/191/176
f 169/198/177 168/196/177 183/203/177 184/204/177
f 162/199/178 161/197/178 176/205/178 177/206/178
f 170/200/179 169/198/179 184/204/179 185/207/179
f 163/201/180 162/199/180 177/206/180 178/208/180
f 171/202/181 170/200/181 185/207/181 186/209/181
f 164/186/182 163/201/182 178/208/182 179/210/182
f 172/191/183 171/202/183 186/209/183 187/211/183
f 165/187/184 164/186/184 179/210/184 180/212/184
f 158/189/185 82/213/185 173/214/185
f 308/215/186 172/191/186 187/211/186
f 166/192/187 165/187/187 180/212/187 181/216/187
f 159/193/188 158/189/188 173/214/188 174/217/188
f 167/194/189 166/192/189 181/216/189 182/218/189
f 160/195/190 159/193/190 174/217/190 175/219/190
f 168/196/191 167/194/191 182/218/191 183/203/191
f 161/197/192 160/195/192 175/219/192 176/205/192
f 308/220/193 187/211/193 202/221/193
f 181/216/194 180/212/194 195/222/194 196/223/194
f 174/217/195 173/214/195 188/224/195 189/225/195
f 182/218/196 181/216/196 196/223/196 197/226/196
f 175/219/197 174/217/197 189/225/197 190/227/197
f 183/203/198 182/218/198 197/226/198 198/228/198
f 176/205/199 175/219/199 190/227/199 191/229/199
f 184/204/200 183/203/200 198/228/200 199/230/200
f 177/206/201 176/205/201 191/229/201 192/231/201
f 185/207/202 184/204/202 199/230/202 200/232/202
f 178/208/203 177/206/203 192/231/203 193/233/203
f 186/209/204 185/207/204 200/232/204 201/234/204
f 179/210/205 178/208/205 193/233/205 194/235/205
f 187/211/206 186/209/206 201/234/206 202/221/206
f 180/212/207 179/210/207 194/235/207 195/222/207
f 173/214/208 82/236/208 188/224/208
f 200/232/209 199/230/209 214/237/209 215/238/209
f 193/233/210 192/231/210 207/239/210 208/240/210
f 201/234/211 200/232/211 215/238/211 216/241/211
f 194/235/212 193/233/212 208/240/212 209/242/212
f 202/221/213 201/234/213 216/241/213 217/243/213
f 195/222/214 194/235/214 209/242/214 210/244/214
f 188/224/215 82/245/215 203/246/215
f 308/247/216 202/221/216 217/243/216
f 196/223/217 195/222/217 210/244/217 211/248/217
f 189/225/218 188/224/218 203/246/218 204/249/218
f 197/226/219 196/223/219 211/248/219 212/250/219
f 190/227/220 189/225/220 204/249/220 205/251/220
f 198/228/221 197/226/221 212/250/221 213/252/221
f 191/229/222 190/227/222 205/251/222 206/253/222
f 199/230/223 198/228/223 213/252/223 214/237/223
f 192/231/224 191/229/224 206/253/224 207/239/224
f 204/249/225 203/246/225 218/254/225 219/255/225
f 212/250/226 211/248/226 226/256/226 227/257/226
f 205/251/227 204/249/227 219/255/227 220/258/227
f 213/252/228 212/250/228 227/257/228 228/259/228
f 206/253/229 205/251/229 220/258/229 221/260/229
f 214/237/230 213/252/230 228/259/230 229/261/230
f 207/239/231 206/253/231 221/260/231 222/262/231
f 215/238/232 214/237/232 229/261/232 230/263/232
f 208/240/233 207/239/233 222/262/233 223/264/233
f 216/241/234 215/238/234 230/263/234 231/265/234
f 209/242/235 208/240/235 223/264/235 224/266/235
f 217/243/236 216/241/236 231/265/236 232/267/236
f 210/244/237 209/242/237 224/266/237 225/268/237
f 203/246/238 82/269/238 218/254/238
f 308/270/239 217/243/239 232/267/239
f 211/248/240 210/244/240 225/268/240 226/256/240
f 223/264/241 222/262/241 237/271/241 238/272/241
f 231/265/242 230/263/242 245/273/242 246/274/242
f 224/266/243 223/264/243 238/272/243 239/275/243
f 232/267/244 231/265/244 246/274/244 247/276/244
f 225/268/245 224/266/245 239/275/245 240/277/245
f 218/254/246 82/278/246 233/279/246
f 308/280/247 232/267/247 247/276/247
f 226/256/248 225/268/248 240/277/248 241/281/248
f 219/255/249 218/254/249 233/279/249 234/282/249
f 227/257/250 226/256/250 241/281/250 242/283/250
f 220/258/251 219/255/251 234/282/251 235/284/251
f 228/259/252 227/257/252 242/283/252 243/285/252
f 221/260/253 220/258/253 235/284/253 236/286/253
f 229/261/254 228/259/254 243/285/254 244/287/254
f 222/262/255 221/260/255 236/286/255 237/271/255
f 230/263/256 229/261/256 244/287/256 245/273/256
f 242/283/257 241/281/257 256/288/257 257/289/257
f 235/284/258 234/282/258 249/290/258 250/291/258
f 243/285/259 242/283/259 257/289/259 258/292/259
f 236/286/260 235/284/260 250/291/260 251/293/260
f 244/287/261 243/285/261 258/292/261 259/294/261
f 237/271/262 236/286/262 251/293/262 252/295/262
f 245/273/263 244/287/263 259/294/263 260/296/263
f 238/272/264 237/271/264 252/295/264 253/297/264
f 246/274/265 245/273/265 260/296/265 261/298/265
f 239/275/266 238/272/266 253/297/266 254/299/266
f 247/276/267 246/274/267 261/298/267 262/300/267
f 240/277/268 239/275/268 254/299/268 255/301/268
f 233/279/269 82/302/269 248/303/269
f 308/304/270 247/276/270 262/300/270
f 241/281/271 240/277/271 255/301/271 256/288/271
f 234/282/272 233/279/272 248/303/272 249/290/272
f 261/298/273 260/296/273 275/305/273 276/306/273
f 254/299/274 253/297/274 268/307/274 269/308/274
f 262/300/275 261/298/275 276/306/275 277/309/275
f 255/301/276 254/299/276 269/308/276 270/310/276
f 248/303/277 82/311/277 263/312/277
f 308/313/278 262/300/278 277/309/278
f 256/288/279 255/301/279 270/310/279 271/314/279
f 249/290/280 248/303/280 263/312/280 264/315/280
f 257/289/281 256/288/281 271/314/281 272/316/281
f 250/291/282 249/290/282 264/315/282 265/317/282
f 258/292/283 257/289/283 272/316/283 273/318/283
f 251/293/284 250/291/284 265/317/284 266/319/284
f 259/294/285 258/292/285 273/318/285 274/320/285
f 252/295/286 251/293/286 266/319/286 267/321/286
f 260/296/287 259/294/287 274/320/287 275/305/287
f 253/297/288 252/295/288 267/321/288 268/307/288
f 265/317/289 264/315/289 279/322/289 280/323/289
f 273/318/290 272/316/290 287/324/290 288/325/290
f 266/319/291 265/317/291 280/323/291 281/326/291
f 274/320/292 273/318/292 288/325/292 289/327/292
f 267/321/293 266/319/293 281/326/293 282/328/293
f 275/305/294 274/320/294 289/327/294 290/329/294
f 268/307/295 267/321/295 282/328/295 283/330/295
f 276/306/296 275/305/296 290/329/296 291/331/296
f 269/308/297 268/307/297 283/330/297 284/332/297
f 277/309/298 276/306/298 291/331/298 292/333/298
f 270/310/299 269/308/299 284/332/299 285/334/299
f 263/312/300 82/335/300 278/336/300
f 308/337/301 277/309/301 292/333/301
f 271/314/302 270/310/302 285/334/302 286/338/302
f 264/315/303 263/312/303 278/336/303 279/322/303
f 272/316/304 271/314/304 286/338/304 287/324/304
f 284/332/305 283/330/305 298/339/305 299/340/305
f 292/333/306 291/331/306 306/341/306 307/342/306
f 285/334/307 284/332/307 299/340/307 300/343/307
f 278/336/308 82/344/308 293/345/308
f 308/346/309 292/333/309 307/342/309
f 286/338/310 285/334/310 300/343/310 301/347/310
f 279/322/311 278/336/311 293/345/311 294/348/311
f 287/324/312 286/338/312 301/347/312 302/349/312
f 280/323/313 279/322/313 294/348/313 295/350/313
f 288/325/314 287/324/314 302/349/314 303/351/314
f 281/326/315 280/323/315 295/350/315 296/352/315
f 289/327/316 288/325/316 303/351/316 304/353/316
f 282/328/317 281/326/317 296/352/317 297/354/317
f 290/329/318 289/327/318 304/353/318 305/355/318
f 283/330/319 282/328/319 297/354/319 298/339/319
f 291/331/320 290/329/320 305/355/320 306/341/320
f 303/351/321 302/349/321 318/356/321 319/357/321
f 296/352/322 295/350/322 311/358/322 312/359/322
f 304/353/323 303/351/323 319/357/323 320/360/323
f 297/354/324 296/352/324 312/359/324 313/361/324
f 305/355/325 304/353/325 320/360/325 321/362/325
f 298/339/326 297/354/326 313/361/326 314/363/326
f 306/341/327 305/355/327 321/362/327 322/364/327
f 299/340/328 298/339/328 314/363/328 315/365/328
f 307/342/329 306/341/329 322/364/329 323/366/329
f 300/343/330 299/340/330 315/365/330 316/367/330
f 293/345/331 82/368/331 309/369/331
f 308/370/332 307/342/332 323/366/332
f 301/347/333 300/343/333 316/367/333 317/371/333
f 294/348/334 293/345/334 309/369/334 310/372/334
f 302/349/335 301/347/335 317/371/335 318/356/335
f 295/350/336 294/348/336 310/372/336 311/358/336
f 323/366/337 322/364/337 337/373/337 338/374/337
f 316/367/338 315/365/338 330/375/338 331/376/338
f 309/369/339 82/377/339 324/378/339
f 308/379/340 323/366/340 338/374/340
f 317/371/341 316/367/341 331/376/341 332/380/341
f 310/372/342 309/369/342 324/378/342 325/381/342
f 318/356/343 317/371/343 332/380/343 333/382/343
f 311/358/344 310/372/344 325/381/344 326/383/344
f 319/357/345 318/356/345 333/382/345 334/384/345
f 312/359/346 311/358/346 326/383/346 327/385/346
f 320/360/347 319/357/347 334/384/347 335/386/347
f 313/361/348 312/359/348 327/385/348 328/387/348
f 321/362/349 320/360/349 335/386/349 336/388/349
f 314/363/350 313/361/350 328/387/350 329/389/350
f 322/364/351 321/362/351 336/388/351 337/373/351
f 315/365/352 314/363/352 329/389/352 330/375/352
f 335/386/353 334/384/353 349/390/353 350/391/353
f 328/387/354 327/385/354 342/392/354 343/393/354
f 336/388/355 335/386/355 350/391/355 351/394/355
f 329/389/356 328/387/356 343/393/356 344/395/356
f 337/373/357 336/388/357 351/394/357 352/396/357
f 330/375/358 329/389/358 344/395/358 345/397/358
f 338/374/359 337/373/359 352/396/359 353/398/359
f 331/376/360 330/375/360 345/397/360 346/399/360
f 324/378/361 82/400/361 339/401/361
f 308/402/362 338/374/362 353/398/362
f 332/380/363 331/376/363 346/399/363 347/403/363
f 325/381/364 324/378/364 339/401/364 340/404/364
f 333/382/365 332/380/365 347/403/365 348/405/365
f 326/383/366 325/381/366 340/404/366 341/406/366
f 334/384/367 333/382/367 348/405/367 349/390/367
f 327/385/368 326/383/368 341/406/368 342/392/368
f 339/401/369 82/407/369 354/408/369
f 308/409/370 353/398/370 368/410/370
f 347/403/371 346/399/371 361/411/371 362/412/371
f 340/404/372 339/401/372 354/408/372 355/413/372
f 348/405/373 347/403/373 362/412/373 363/414/373
f 341/406/374 340/404/374 355/413/374 356/415/374
f 349/390/375 348/405/375 363/414/375 364/416/375
f 342/392/376 341/406/376 356/415/376 357/417/376
f 350/391/377 349/390/377 364/416/377 365/418/377
f 343/393/378 342/392/378 357/417/378 358/419/378
f 351/394/379 350/391/379 365/418/379 366/420/379
f 344/395/380 343/393/380 358/419/380 359/421/380
f 352/396/381 351/394/381 366/420/381 367/422/381
f 345/397/382 344/395/382 359/421/382 360/423/382
f 353/398/383 352/396/383 367/422/383 368/410/383
f 346/399/384 345/397/384 360/423/384 361/411/384
f 358/424/385 357/425/385 372/426/385 373/427/385
f 366/428/386 365/429/387 380/430/387 381/431/386
f 359/432/388 358/424/388 373/427/388 374/433/388
f 367/434/389 366/428/389 381/431/389 382/435/389
f 360/436/390 359/432/390 374/433/390 375/437/390
f 368/438/391 367/434/391 382/435/391 383/439/391
f 361/440/392 360/436/392 375/437/392 376/441/392
f 354/442/393 82/443/393 369/444/393
f 308/445/394 368/438/394 383/439/394
f 362/446/395 361/440/395 376/441/395 377/447/395
f 355/448/396 354/442/396 369/444/396 370/449/396
f 363/450/397 362/446/397 377/447/397 378/451/397
f 356/452/398 355/448/398 370/449/398 371/453/398
f 364/454/399 363/450/400 378/451/400 379/455/401
f 357/425/402 356/452/402 371/453/402 372/426/402
f 365/429/387 364/454/399 379/455/401 380/430/387
f 377/447/403 376/441/403 391/456/403 392/457/403
f 370/449/404 369/444/404 384/458/404 385/459/404
f 378/451/405 377/447/405 392/457/405 393/460/405
f 371/453/406 370/449/406 385/459/406 386/461/406
f 379/455/407 378/451/407 393/460/407 394/462/407
f 372/426/408 371/453/408 386/461/408 387/463/408
f 380/430/409 379/455/409 394/462/409 395/464/409
f 373/427/410 372/426/410 387/463/410 388/465/410
f 381/431/411 380/430/411 395/464/411 396/466/411
f 374/433/412 373/427/412 388/465/412 389/467/412
f 382/435/413 381/431/413 396/466/413 397/468/413
f 375/437/414 374/433/414 389/467/414 390/469/414
f 383/439/415 382/435/415 397/468/415 398/470/415
f 376/441/416 375/437/416 390/469/416 391/456/416
f 369/444/417 82/471/417 384/458/417
f 308/472/418 383/439/418 398/470/418
f 396/466/419 395/464/419 410/473/419 411/474/419
f 389/467/420 388/465/420 403/475/420 404/476/420
f 397/468/421 396/466/421 411/474/421 412/477/421
f 390/469/422 389/467/422 404/476/422 405/478/422
f 398/470/423 397/468/423 412/477/423 413/479/423
f 391/456/424 390/469/424 405/478/424 406/480/424
f 384/458/425 82/481/425 399/482/425
f 308/483/426 398/470/426 413/479/426
f 392/457/427 391/456/427 406/480/427 407/484/427
f 385/459/428 384/458/428 399/482/428 400/485/428
f 393/460/429 392/457/429 407/484/429 408/486/429
f 386/461/430 385/459/430 400/485/430 401/487/430
f 394/462/431 393/460/431 408/486/431 409/488/431
f 387/463/432 386/461/432 401/487/432 402/489/432
f 395/464/433 394/462/433 409/488/433 410/473/433
f 388/465/434 387/463/434 402/489/434 403/475/434
f 400/485/435 399/482/435 414/490/435 415/491/435
f 408/486/436 407/484/436 422/492/436 423/493/436
f 401/487/437 400/485/437 415/491/437 416/494/437
f 409/488/438 408/486/438 423/493/438 424/495/438
f 402/489/439 401/487/439 416/494/439 417/496/439
f 410/473/440 409/488/440 424/495/440 425/497/440
f 403/475/441 402/489/441 417/496/441 418/498/441
f 411/474/442 410/473/442 425/497/442 426/499/442
f 404/476/443 403/475/443 418/498/443 419/500/443
f 412/477/444 411/474/444 426/499/444 427/501/444
f 405/478/445 404/476/445 419/500/445 420/502/445
f 413/479/446 412/477/446 427/501/446 428/503/446
f 406/480/447 405/478/447 420/502/447 421/504/447
f 399/482/448 82/505/448 414/490/448
f 308/506/449 413/479/449 428/503/449
f 407/484/450 406/480/450 421/504/450 422/492/450
f 419/500/451 418/498/451 433/507/451 434/508/451
f 427/501/452 426/499/452 441/509/452 442/510/452
f 420/502/453 419/500/453 434/508/453 435/511/453
f 428/503/454 427/501/454 442/510/454 443/512/454
f 421/504/455 420/502/455 435/511/455 436/513/455
f 414/490/456 82/514/456 429/515/456
f 308/516/457 428/503/457 443/512/457
f 422/492/458 421/504/458 436/513/458 437/517/458
f 415/491/459 414/490/459 429/515/459 430/518/459
f 423/493/460 422/492/460 437/517/460 438/519/460
f 416/494/461 415/491/461 430/518/461 431/520/461
f 424/495/462 423/493/462 438/519/462 439/521/462
f 417/496/463 416/494/463 431/520/463 432/522/463
f 425/497/464 424/495/464 439/521/464 440/523/464
f 418/498/465 417/496/465 432/522/465 433/507/465
f 426/499/466 425/497/466 440/523/466 441/509/466
f 438/519/467 437/517/467 452/524/467 453/525/467
f 431/520/468 430/518/468 445/526/468 446/527/468
f 439/521/469 438/519/469 453/525/469 454/528/469
f 432/522/470 431/520/470 446/527/470 447/529/470
f 440/523/471 439/521/471 454/528/471 455/530/471
f 433/507/472 432/522/472 447/529/472 448/531/472
f 441/509/473 440/523/473 455/530/473 456/532/473
f 434/508/474 433/507/474 448/531/474 449/533/474
f 442/510/475 441/509/475 456/532/475 457/534/475
f 435/511/476 434/508/476 449/533/476 450/535/476
f 443/512/477 442/510/477 457/534/477 458/536/477
f 436/513/478 435/511/478 450/535/478 451/537/478
f 429/515/479 82/538/479 444/539/479
f 308/540/480 443/512/480 458/536/480
f 437/517/481 436/513/481 451/537/481 452/524/481
f 430/518/482 429/515/482 444/539/482 445/526/482
f 457/534/483 456/532/483 471/541/483 472/542/483
f 450/535/484 449/533/484 464/543/484 465/544/484
f 458/536/485 457/534/485 472/542/485 473/545/485
f 451/537/486 450/535/486 465/544/486 466/546/486
f 444/539/487 82/547/487 459/548/487
f 308/549/488 458/536/488 473/545/488
f 452/524/489 451/537/489 466/546/489 467/550/489
f 445/526/490 444/539/490 459/548/490 460/551/490
f 453/525/491 452/524/491 467/550/491 468/552/491
f 446/527/492 445/526/492 460/551/492 461/553/492
f 454/528/493 453/525/493 468/552/493 469/554/493
f 447/529/494 446/527/494 461/553/494 462/555/494
f 455/530/495 454/528/495 469/554/495 470/556/495
f 448/531/496 447/529/496 462/555/496 463/557/496
f 456/532/497 455/530/497 470/556/497 471/541/497
f 449/533/498 448/531/498 463/557/498 464/543/498
f 469/554/499 468/552/499 478/6/499 6/5/499
f 462/555/500 461/553/500 1/1/500 476/9/500
f 470/556/501 469/554/501 6/5/501 479/11/501
f 463/557/502 462/555/502 476/9/502 2/13/502
f 471/541/503 470/556/503 479/11/503 480/15/503
f 464/543/504 463/557/504 2/13/504 477/17/504
f 472/542/505 471/541/505 480/15/505 481/19/505
f 465/544/506 464/543/506 477/17/506 3/21/506
f 473/545/507 472/542/507 481/19/507 482/23/507
f 466/546/508 465/544/508 3/21/508 4/25/508
f 459/548/509 82/558/509 474/27/509
f 308/559/510 473/545/510 482/23/510
f 467/550/511 466/546/511 4/25/511 5/31/511
f 460/551/512 459/548/512 474/27/512 475/2/512
f 468/552/513 467/550/513 5/31/513 478/6/513
f 461/553/514 460/551/514 475/2/514 1/1/514
