# Blender 4.4.0
# www.blender.org
mtllib player.mtl
o 球
v 0.258749 0.640193 -0.016933
v 0.386875 0.496813 -0.029005
v 0.423635 0.303994 -0.032769
v 0.431761 0.203388 -0.032482
v 0.424238 0.103123 -0.031350
v 0.378294 -0.089269 -0.031200
v 0.060981 0.688811 -0.001086
v 0.158941 0.672118 0.025980
v 0.257948 0.654767 0.051758
v 0.334380 0.595137 0.056694
v 0.386652 0.495705 0.052524
v 0.407551 0.402124 0.054404
v 0.424001 0.303477 0.057014
v 0.433168 0.203578 0.059124
v 0.423671 0.103579 0.058162
v 0.402975 0.005955 0.054888
v 0.373379 -0.088921 0.049027
v 0.303950 -0.170557 0.042225
v 0.233933 -0.232503 0.033549
v 0.162611 -0.257314 0.022697
v 0.086733 -0.283933 0.015575
v 0.054978 0.687977 0.021718
v 0.145792 0.692767 0.071676
v 0.243874 0.653460 0.106157
v 0.323937 0.596402 0.126121
v 0.379351 0.500068 0.133492
v 0.399124 0.403142 0.139296
v 0.420918 0.304185 0.147392
v 0.429675 0.203930 0.151282
v 0.420214 0.103001 0.148832
v 0.395551 0.003938 0.142777
v 0.340835 -0.087059 0.128011
v 0.278909 -0.182102 0.122628
v 0.213898 -0.254543 0.106780
v 0.148684 -0.274356 0.071051
v 0.080072 -0.295806 0.041774
v 0.048013 0.691761 0.047294
v 0.126700 0.697124 0.109373
v 0.219945 0.651382 0.155063
v 0.303247 0.597578 0.190036
v 0.361232 0.511949 0.213042
v 0.378276 0.410272 0.225085
v 0.399793 0.305956 0.236410
v 0.426326 0.204789 0.247892
v 0.406401 0.101033 0.242404
v 0.316507 0.002194 0.226856
v 0.264161 -0.120640 0.229895
v 0.241959 -0.210252 0.204336
v 0.186858 -0.266578 0.163621
v 0.131087 -0.290192 0.117724
v 0.070800 -0.303822 0.064262
v 0.038835 0.697872 0.074819
v 0.107214 0.695490 0.145422
v 0.188495 0.651002 0.199719
v 0.263374 0.599201 0.250683
v 0.319841 0.528945 0.297709
v 0.348420 0.424977 0.315465
v 0.364342 0.312024 0.325159
v 0.372379 0.204444 0.328510
v 0.346385 0.100211 0.321565
v 0.247029 -0.017271 0.321514
v 0.200110 -0.154458 0.315596
v 0.198579 -0.216181 0.262128
v 0.151950 -0.258307 0.198528
v 0.108601 -0.283244 0.143772
v 0.059538 -0.304840 0.080853
v 0.026252 0.698685 0.098931
v 0.086337 0.691836 0.177044
v 0.147646 0.653637 0.242530
v 0.208150 0.600084 0.305710
v 0.255033 0.530434 0.360037
v 0.282893 0.444942 0.398980
v 0.299652 0.332062 0.408779
v 0.304752 0.206893 0.401236
v 0.294115 0.091969 0.397777
v 0.225224 -0.013935 0.380845
v 0.179669 -0.138588 0.359523
v 0.155067 -0.206576 0.294280
v 0.113371 -0.246509 0.220741
v 0.081260 -0.272677 0.162226
v 0.046001 -0.301675 0.092522
v -0.033847 0.683674 -0.014203
v 0.012632 0.695060 0.114634
v 0.060963 0.688181 0.200525
v 0.105446 0.653062 0.269386
v 0.147861 0.597005 0.341262
v 0.180051 0.526847 0.404619
v 0.203434 0.448654 0.454948
v 0.219307 0.340825 0.470256
v 0.223721 0.206621 0.451941
v 0.220303 0.087133 0.454956
v 0.198018 -0.009352 0.424640
v 0.152719 -0.125684 0.386524
v 0.110922 -0.195820 0.315707
v 0.076079 -0.233712 0.238912
v 0.052239 -0.261984 0.176820
v 0.030202 -0.296855 0.101175
v -0.002237 0.691761 0.123667
v 0.029656 0.686686 0.213145
v 0.058976 0.653591 0.286655
v 0.085307 0.596928 0.363085
v 0.103140 0.527041 0.434624
v 0.118996 0.446157 0.488213
v 0.130209 0.344694 0.510568
v 0.133822 0.201265 0.487552
v 0.138085 0.091836 0.491165
v 0.128372 -0.004804 0.453557
v 0.093825 -0.124046 0.406870
v 0.063775 -0.185742 0.328773
v 0.038055 -0.221028 0.254386
v 0.020743 -0.251108 0.189985
v 0.012945 -0.291963 0.107340
v -0.019100 0.691357 0.127782
v -0.005073 0.687528 0.218890
v 0.008693 0.655097 0.295323
v 0.018553 0.599490 0.375185
v 0.019883 0.530140 0.455353
v 0.026034 0.447187 0.511597
v 0.032965 0.334877 0.524036
v 0.040329 0.212332 0.510358
v 0.050644 0.081980 0.506559
v 0.043761 -0.006934 0.470676
v 0.025255 -0.118593 0.418680
v 0.014306 -0.176880 0.335262
v -0.002360 -0.208778 0.267903
v -0.012720 -0.241406 0.200290
v -0.004774 -0.288250 0.110362
v -0.036543 0.692069 0.127108
v -0.040530 0.689541 0.218427
v -0.043527 0.656466 0.295019
v -0.048593 0.602148 0.374957
v -0.061325 0.532906 0.458462
v -0.064489 0.448401 0.513235
v -0.061917 0.333929 0.521849
v -0.057847 0.216691 0.515226
v -0.058761 0.076350 0.528106
v -0.050705 -0.002156 0.480518
v -0.049699 -0.110333 0.421195
v -0.039957 -0.170017 0.334831
v -0.047121 -0.199103 0.275187
v -0.046531 -0.234470 0.204973
v -0.022145 -0.286608 0.109404
v -0.053586 0.693279 0.122591
v -0.075240 0.692289 0.212030
v -0.094677 0.659631 0.285475
v -0.112544 0.604052 0.360246
v -0.133392 0.532766 0.434571
v -0.145666 0.448587 0.486803
v -0.149229 0.346685 0.505949
v -0.151612 0.209322 0.486533
v -0.145979 0.084200 0.486377
v -0.140878 0.001340 0.464437
v -0.122402 -0.108492 0.406800
v -0.098090 -0.166910 0.326550
v -0.094644 -0.194455 0.271910
v -0.078405 -0.232136 0.201119
v -0.038559 -0.287404 0.104150
v -0.069820 0.695415 0.115315
v -0.107082 0.694563 0.197343
v -0.142610 0.665375 0.267354
v -0.173275 0.607509 0.335304
v -0.201056 0.531822 0.395718
v -0.222295 0.444615 0.440493
v -0.234614 0.340397 0.460544
v -0.239086 0.201092 0.455764
v -0.231419 0.083572 0.447397
v -0.218496 -0.007436 0.420631
v -0.190203 -0.121723 0.374256
v -0.157330 -0.169869 0.308968
v -0.139706 -0.197546 0.255662
v -0.107185 -0.235463 0.187703
v -0.053525 -0.290534 0.094877
v -0.084440 0.698090 0.105067
v -0.135044 0.696300 0.175328
v -0.185070 0.672626 0.241344
v -0.230628 0.609031 0.298340
v -0.269400 0.524818 0.345367
v -0.298249 0.432828 0.380677
v -0.313710 0.323267 0.391337
v -0.316353 0.202909 0.386315
v -0.309463 0.088383 0.386209
v -0.286198 -0.016076 0.368125
v -0.255333 -0.123867 0.338163
v -0.215645 -0.178832 0.282116
v -0.178727 -0.207917 0.227465
v -0.132332 -0.244238 0.165588
v -0.066526 -0.295750 0.082088
v -0.096685 0.700482 0.091314
v -0.159103 0.699101 0.149956
v -0.221064 0.673817 0.202414
v -0.280947 0.603280 0.246739
v -0.326874 0.517197 0.282096
v -0.359782 0.421654 0.305293
v -0.376807 0.309163 0.304984
v -0.382820 0.202758 0.310906
v -0.371671 0.097436 0.305462
v -0.327444 -0.010007 0.293479
v -0.291426 -0.133234 0.286015
v -0.258388 -0.195364 0.241072
v -0.210305 -0.224577 0.189779
v -0.151785 -0.258594 0.134492
v -0.077179 -0.302805 0.066449
v -0.105837 0.697015 0.069611
v -0.176435 0.697315 0.113410
v -0.246985 0.663892 0.145933
v -0.315110 0.588272 0.171639
v -0.367580 0.506335 0.199708
v -0.405382 0.415584 0.218261
v -0.427505 0.310355 0.223624
v -0.434329 0.204956 0.225587
v -0.418475 0.099986 0.220765
v -0.364333 -0.002829 0.207337
v -0.327765 -0.118246 0.203939
v -0.296457 -0.211454 0.189076
v -0.235393 -0.246183 0.146231
v -0.166332 -0.277067 0.096020
v -0.085497 -0.311102 0.048842
v -0.112732 0.685459 0.039699
v -0.188606 0.697421 0.075747
v -0.266705 0.658706 0.092790
v -0.338724 0.584343 0.102337
v -0.394397 0.500489 0.113000
v -0.436166 0.409127 0.124597
v -0.461488 0.309603 0.131549
v -0.469521 0.205417 0.133654
v -0.458660 0.100326 0.130849
v -0.414422 -0.001952 0.122757
v -0.372131 -0.096324 0.111345
v -0.329471 -0.198904 0.111261
v -0.257209 -0.265364 0.092478
v -0.177240 -0.295336 0.058514
v -0.091083 -0.319341 0.030130
v -0.118233 0.675397 0.011361
v -0.198194 0.676463 0.023030
v -0.277936 0.648194 0.031537
v -0.349418 0.582180 0.028750
v -0.408097 0.501757 0.032013
v -0.451613 0.410183 0.034733
v -0.478134 0.310345 0.036264
v -0.486741 0.205789 0.036619
v -0.477197 0.100397 0.035825
v -0.448958 -0.001257 0.033731
v -0.403615 -0.094936 0.030344
v -0.344031 -0.177135 0.025912
v -0.269774 -0.257100 0.028203
v -0.184614 -0.304386 0.020451
v -0.093860 -0.325297 0.010627
v -0.118605 0.672901 -0.012402
v -0.199276 0.671837 -0.019095
v -0.277390 0.641848 -0.030950
v -0.348092 0.584376 -0.041702
v -0.406301 0.502919 -0.050098
v -0.449855 0.411133 -0.056397
v -0.476521 0.310963 -0.060360
v -0.485356 0.206022 -0.061777
v -0.475987 0.100396 -0.060611
v -0.448370 -0.001237 -0.057094
v -0.403523 -0.094902 -0.051383
v -0.343168 -0.177001 -0.043698
v -0.269591 -0.244945 -0.034020
v -0.185334 -0.299767 -0.020698
v -0.093746 -0.326838 -0.009485
v -0.113965 0.675518 -0.032787
v -0.190858 0.674156 -0.055852
v -0.265685 0.645162 -0.084707
v -0.333574 0.586715 -0.110131
v -0.389084 0.503919 -0.130190
v -0.430971 0.411922 -0.145284
v -0.456727 0.311412 -0.154604
v -0.465428 0.206088 -0.157749
v -0.456487 0.100394 -0.154718
v -0.430001 -0.001240 -0.145741
v -0.386992 -0.094905 -0.131164
v -0.329111 -0.177004 -0.111546
v -0.258580 -0.244378 -0.087641
v -0.178090 -0.294820 -0.060160
v -0.090249 -0.325206 -0.029400
v -0.105904 0.678418 -0.051574
v -0.175233 0.676272 -0.090094
v -0.243762 0.647591 -0.134810
v -0.306164 0.587527 -0.173988
v -0.357114 0.504741 -0.205187
v -0.395685 0.412524 -0.228514
v -0.419508 0.311678 -0.242847
v -0.427660 0.206085 -0.247637
v -0.419444 0.100389 -0.242879
v -0.395110 -0.001246 -0.228787
v -0.355590 -0.094911 -0.205903
v -0.302405 -0.177008 -0.175107
v -0.237598 -0.244381 -0.137580
v -0.163661 -0.294444 -0.094767
v -0.083034 -0.323422 -0.047968
v -0.094747 0.681294 -0.068335
v -0.153072 0.677717 -0.120527
v -0.212443 0.648037 -0.179308
v -0.267101 0.587449 -0.230939
v -0.311612 0.505393 -0.272215
v -0.345337 0.412937 -0.302894
v -0.366283 0.311775 -0.321705
v -0.373460 0.206077 -0.328009
v -0.366290 0.100375 -0.321708
v -0.345041 -0.001263 -0.303043
v -0.310529 -0.094926 -0.272732
v -0.264081 -0.177018 -0.231940
v -0.207487 -0.244386 -0.182233
v -0.143605 -0.293241 -0.124695
v -0.072472 -0.322668 -0.063954
v 0.001588 -0.316348 0.004764
v -0.080952 0.683989 -0.082723
v -0.125477 0.678018 -0.146112
v -0.172991 0.646217 -0.216568
v -0.218042 0.587336 -0.278944
v -0.254299 0.505870 -0.328706
v -0.281837 0.413187 -0.365581
v -0.299045 0.311771 -0.388171
v -0.304915 0.206059 -0.395778
v -0.299072 0.100337 -0.388177
v -0.281734 -0.001314 -0.365658
v -0.253549 -0.094964 -0.329083
v -0.215616 -0.177036 -0.279860
v -0.172103 -0.239651 -0.216623
v -0.123482 -0.282516 -0.143253
v -0.059026 -0.322163 -0.077166
v -0.065107 0.686389 -0.094303
v -0.093720 0.677402 -0.166075
v -0.127360 0.644566 -0.245556
v -0.160918 0.587594 -0.316234
v -0.187350 0.506185 -0.372502
v -0.207591 0.413315 -0.414177
v -0.220323 0.311758 -0.439719
v -0.224668 0.206014 -0.448340
v -0.220419 0.100209 -0.439741
v -0.205341 -0.000215 -0.409124
v -0.184014 -0.092664 -0.366364
v -0.158875 -0.177070 -0.317028
v -0.136551 -0.223793 -0.234915
v -0.101752 -0.266743 -0.152521
v -0.043696 -0.320461 -0.086847
v -0.047881 0.688557 -0.102663
v -0.059345 0.676942 -0.179821
v -0.077332 0.644319 -0.265203
v -0.097773 0.587796 -0.341301
v -0.113307 0.506369 -0.401933
v -0.125418 0.413367 -0.446834
v -0.133137 0.311740 -0.474372
v -0.135819 0.205918 -0.483681
v -0.133509 0.099723 -0.474455
v -0.121738 0.001790 -0.430678
v -0.108060 -0.086672 -0.378015
v -0.092999 -0.168066 -0.323181
v -0.095713 -0.208797 -0.244225
v -0.075032 -0.253930 -0.157229
v -0.026778 -0.317943 -0.092952
v -0.029994 0.690482 -0.107512
v -0.023782 0.676915 -0.186827
v -0.024949 0.645174 -0.274752
v -0.031010 0.587729 -0.353149
v -0.035001 0.506445 -0.415876
v -0.038453 0.413380 -0.462306
v -0.041146 0.311520 -0.490264
v -0.041773 0.205794 -0.500439
v -0.044553 0.099336 -0.487939
v -0.042362 0.000839 -0.435154
v -0.029842 -0.086518 -0.385695
v -0.027876 -0.164523 -0.327177
v -0.045407 -0.203933 -0.249116
v -0.040997 -0.250368 -0.161294
v -0.008271 -0.315677 -0.096005
v -0.012186 0.692045 -0.108692
v 0.011661 0.677294 -0.186776
v 0.027642 0.646363 -0.273798
v 0.036756 0.587415 -0.351329
v 0.044575 0.506426 -0.413800
v 0.047462 0.411727 -0.455761
v 0.040862 0.303758 -0.467748
v 0.051339 0.201664 -0.493667
v 0.029876 0.067733 -0.472880
v 0.029781 -0.001368 -0.419746
v 0.053899 -0.099334 -0.399331
v 0.043205 -0.173022 -0.336243
v 0.010144 -0.208098 -0.251876
v -0.002358 -0.253296 -0.163132
v 0.011235 -0.313810 -0.096014
v 0.004823 0.693258 -0.106173
v 0.045759 0.678111 -0.179646
v 0.078524 0.647622 -0.262289
v 0.102788 0.587433 -0.336010
v 0.122359 0.506310 -0.395785
v 0.132293 0.410603 -0.432974
v 0.127769 0.300542 -0.438180
v 0.142444 0.197436 -0.468309
v 0.113915 0.030641 -0.478003
v 0.112525 -0.011837 -0.413292
v 0.132096 -0.107707 -0.398732
v 0.109397 -0.178123 -0.332962
v 0.066313 -0.214922 -0.246721
v 0.038118 -0.260204 -0.160868
v 0.030407 -0.311351 -0.092404
v 0.020395 0.694215 -0.100032
v 0.077446 0.678485 -0.165639
v 0.125945 0.648663 -0.240554
v 0.164545 0.587762 -0.307778
v 0.195346 0.506081 -0.362518
v 0.217619 0.413230 -0.402990
v 0.227258 0.309196 -0.421352
v 0.235581 0.205954 -0.436201
v 0.219849 0.096434 -0.414442
v 0.202880 0.003771 -0.385429
v 0.202865 -0.104516 -0.374203
v 0.169442 -0.179687 -0.313347
v 0.119133 -0.221479 -0.229517
v 0.078397 -0.269272 -0.153413
v 0.047632 -0.307280 -0.084748
v 0.034024 0.694907 -0.090420
v 0.105705 0.677917 -0.145161
v 0.168335 0.649122 -0.209330
v 0.219741 0.588055 -0.267653
v 0.260713 0.505714 -0.315265
v 0.290475 0.413108 -0.350674
v 0.308571 0.311772 -0.372372
v 0.314607 0.206061 -0.379668
v 0.308547 0.100343 -0.372377
v 0.290561 -0.001279 -0.350686
v 0.261599 -0.094997 -0.315738
v 0.221948 -0.176052 -0.267916
v 0.165843 -0.227043 -0.201179
v 0.112779 -0.274322 -0.137198
v 0.062525 -0.302446 -0.073843
v 0.045297 0.695206 -0.077573
v 0.129232 0.675166 -0.118894
v 0.204153 0.648407 -0.169924
v 0.266401 0.587757 -0.217089
v 0.315920 0.505186 -0.255830
v 0.352006 0.412810 -0.284720
v 0.374088 0.311756 -0.302447
v 0.378290 0.206032 -0.306512
v 0.361750 0.101558 -0.294549
v 0.352386 -0.001260 -0.284908
v 0.317139 -0.094923 -0.256410
v 0.269645 -0.177004 -0.218064
v 0.206145 -0.236562 -0.167295
v 0.139837 -0.275872 -0.113951
v 0.074422 -0.296925 -0.060081
v 0.053867 0.694561 -0.061845
v 0.147443 0.670877 -0.087363
v 0.232561 0.647816 -0.123260
v 0.302657 0.587156 -0.158061
v 0.355760 0.503372 -0.185160
v 0.384058 0.408370 -0.201886
v 0.404612 0.308366 -0.213216
v 0.404223 0.205030 -0.214442
v 0.398709 0.101743 -0.209961
v 0.397130 -0.000686 -0.206612
v 0.360016 -0.094812 -0.187321
v 0.302527 -0.176202 -0.159588
v 0.233546 -0.242456 -0.125458
v 0.159281 -0.275268 -0.085776
v 0.082883 -0.291032 -0.043980
v 0.059763 0.693226 -0.043279
v 0.160626 0.668654 -0.050274
v 0.252133 0.647434 -0.070442
v 0.326098 0.585288 -0.092936
v 0.378597 0.500732 -0.108086
v 0.402545 0.405027 -0.116914
v 0.418669 0.305623 -0.122682
v 0.423380 0.204032 -0.123770
v 0.420015 0.102047 -0.121691
v 0.401132 0.003552 -0.116972
v 0.370372 -0.090164 -0.108723
v 0.318261 -0.174340 -0.095411
v 0.245023 -0.239525 -0.075352
v 0.168400 -0.268925 -0.051871
v 0.087758 -0.285363 -0.026216
v 0.063047 0.691921 -0.022043
v 0.164764 0.664440 -0.012924
v 0.333309 0.580651 -0.023803
v 0.408467 0.402690 -0.031244
v 0.403374 0.005535 -0.031169
v 0.317923 -0.171820 -0.027869
v 0.244557 -0.234879 -0.022293
v 0.169019 -0.261450 -0.015236
v 0.089115 -0.280970 -0.007157
vn 0.2269 0.9564 -0.1838
vn 0.9601 -0.2778 0.0320
vn 0.6111 0.7767 -0.1524
vn 0.7791 -0.6181 0.1045
vn 0.8640 0.5013 -0.0459
vn 0.6481 -0.7470 0.1482
vn 0.9753 0.2208 0.0089
vn 0.3248 -0.9376 0.1241
vn 0.9874 0.1582 0.0041
vn 0.2838 -0.9570 0.0596
vn 0.9963 0.0858 -0.0096
vn -0.0728 0.9876 0.1394
vn 0.3637 -0.9278 -0.0828
vn 0.9964 -0.0847 -0.0043
vn 0.2235 0.9737 -0.0448
vn 0.9780 -0.2083 0.0064
vn 0.9948 -0.0945 0.0377
vn 0.1560 0.9596 -0.2340
vn 0.9723 -0.2269 0.0560
vn 0.3032 0.9476 -0.1007
vn 0.8812 -0.4231 0.2107
vn 0.5819 0.8050 0.1155
vn 0.7705 -0.5895 0.2425
vn 0.8724 0.4813 0.0849
vn 0.7000 -0.7124 0.0496
vn 0.9737 0.2113 0.0855
vn 0.3633 -0.9117 -0.1916
vn 0.9792 0.1929 0.0624
vn 0.3616 -0.8986 -0.2486
vn 0.9953 0.0902 0.0353
vn -0.0570 0.9981 0.0215
vn 0.3724 -0.8773 -0.3029
vn 0.6995 -0.7047 0.1187
vn 0.9592 0.1961 0.2035
vn 0.3850 -0.9193 -0.0815
vn 0.9504 0.2232 0.2168
vn 0.3617 -0.9157 -0.1753
vn 0.9755 0.1805 0.1260
vn 0.0101 0.9896 -0.1436
vn 0.3323 -0.9234 -0.1922
vn 0.9855 -0.1449 0.0881
vn 0.0196 0.9926 -0.1196
vn 0.7757 -0.4921 0.3951
vn 0.3489 0.9253 0.1490
vn 0.7388 -0.3996 0.5427
vn 0.5015 0.8405 0.2050
vn 0.8235 -0.4360 0.3630
vn 0.8226 0.5416 0.1732
vn 0.6660 -0.6133 0.4246
vn 0.3366 0.9118 0.2352
vn 0.8052 -0.3130 0.5037
vn 0.4246 0.8618 0.2774
vn 0.7884 -0.3773 0.4858
vn 0.6964 0.6489 0.3063
vn 0.4179 -0.8280 0.3739
vn 0.9119 0.2495 0.3259
vn 0.1128 -0.9339 0.3394
vn 0.9292 0.1907 0.3166
vn 0.0920 -0.9737 0.2083
vn 0.8729 0.1769 0.4548
vn 0.0532 0.9785 -0.1995
vn 0.1459 -0.9886 0.0384
vn 0.7967 -0.2098 0.5667
vn 0.0307 0.9979 -0.0564
vn -0.0389 -0.9009 0.4324
vn 0.7968 0.1655 0.5812
vn -0.0346 -0.9262 0.3753
vn 0.7652 0.0316 0.6430
vn -0.0932 0.9923 -0.0821
vn -0.0611 -0.9790 0.1946
vn 0.7721 -0.1583 0.6154
vn 0.0076 0.9984 0.0554
vn 0.7262 -0.5755 0.3760
vn 0.3062 0.9139 0.2664
vn 0.8460 -0.3414 0.4096
vn 0.3801 0.8593 0.3423
vn 0.4626 -0.6475 0.6056
vn 0.4931 0.7190 0.4898
vn 0.0834 -0.8779 0.4716
vn 0.7150 0.3872 0.5821
vn 0.1989 0.9176 0.3441
vn 0.6745 -0.4063 0.6164
vn 0.2623 0.8373 0.4797
vn 0.1977 -0.7345 0.6491
vn 0.3325 0.7103 0.6204
vn -0.0265 -0.8822 0.4702
vn 0.4624 0.5317 0.7096
vn -0.0950 -0.8901 0.4458
vn 0.5918 0.1770 0.7864
vn -0.0882 -0.8987 0.4297
vn 0.5676 -0.0610 0.8211
vn -0.2516 0.9678 0.0052
vn -0.1600 -0.9572 0.2410
vn 0.5721 -0.0359 0.8194
vn -0.0611 0.9905 0.1233
vn 0.6370 -0.4355 0.6361
vn 0.3829 0.2114 0.8993
vn -0.1106 -0.8883 0.4458
vn 0.3883 -0.1247 0.9131
vn -0.2205 0.9754 -0.0067
vn -0.1818 -0.9520 0.2464
vn 0.3848 0.0281 0.9226
vn -0.0588 0.9938 0.0946
vn 0.3487 -0.3619 0.8646
vn 0.1316 0.9188 0.3720
vn 0.3085 -0.4130 0.8569
vn 0.1951 0.8223 0.5346
vn 0.1126 -0.7703 0.6276
vn 0.2435 0.7166 0.6536
vn -0.0819 -0.8838 0.4606
vn 0.2922 0.5725 0.7661
vn -0.1164 -0.8869 0.4470
vn 0.1597 -0.4188 0.8939
vn 0.1277 0.8193 0.5590
vn -0.0047 -0.8022 0.5971
vn 0.1710 0.7365 0.6544
vn -0.1074 -0.8856 0.4519
vn 0.2130 0.5636 0.7981
vn -0.1196 -0.8868 0.4463
vn 0.1796 0.1729 0.9684
vn -0.1150 -0.8856 0.4500
vn 0.1845 -0.1268 0.9746
vn -0.0362 0.9981 -0.0502
vn -0.1587 -0.9565 0.2449
vn 0.2066 0.0118 0.9783
vn 0.0170 0.9988 0.0449
vn 0.1973 -0.3762 0.9053
vn 0.0894 0.9218 0.3772
vn -0.1154 -0.8846 0.4519
vn 0.0124 -0.0838 0.9964
vn 0.0430 0.9974 -0.0584
vn -0.1048 -0.9626 0.2498
vn 0.1259 0.0376 0.9913
vn 0.0507 0.9982 0.0320
vn 0.1384 -0.4411 0.8867
vn 0.0321 0.9197 0.3914
vn 0.0301 -0.4535 0.8908
vn 0.0253 0.8240 0.5660
vn -0.0865 -0.8178 0.5689
vn 0.0404 0.7611 0.6473
vn -0.1171 -0.8865 0.4477
vn 0.0358 0.5526 0.8326
vn -0.1196 -0.8870 0.4461
vn -0.0028 0.0923 0.9957
vn -0.0838 0.8182 0.5688
vn -0.1274 -0.8213 0.5561
vn -0.1704 0.7537 0.6348
vn -0.1138 -0.8887 0.4441
vn -0.2637 0.5338 0.8034
vn -0.1181 -0.8874 0.4456
vn -0.2327 0.1248 0.9645
vn -0.1139 -0.8833 0.4547
vn -0.2407 -0.1003 0.9654
vn 0.0859 0.9946 -0.0575
vn -0.0381 -0.9634 0.2652
vn -0.3623 0.0382 0.9313
vn 0.0701 0.9971 0.0293
vn -0.3072 -0.3976 0.8646
vn -0.0111 0.9165 0.3999
vn -0.1767 -0.4775 0.8607
vn -0.3973 -0.0702 0.9150
vn 0.1512 0.9874 -0.0475
vn 0.0220 -0.9575 0.2877
vn -0.3712 -0.0529 0.9270
vn 0.0748 0.9965 0.0364
vn -0.4208 -0.2849 0.8612
vn -0.0614 0.9249 0.3752
vn -0.3595 -0.4535 0.8155
vn -0.1621 0.7986 0.5796
vn -0.1150 -0.8225 0.5571
vn -0.3084 0.6963 0.6482
vn -0.0907 -0.8937 0.4395
vn -0.4515 0.5048 0.7358
vn -0.1027 -0.8882 0.4478
vn -0.4923 0.1991 0.8474
vn -0.1081 -0.8817 0.4593
vn -0.2114 -0.8035 0.5564
vn -0.4662 0.6188 0.6322
vn -0.0689 -0.8969 0.4368
vn -0.5753 0.4623 0.6747
vn -0.0901 -0.8872 0.4525
vn -0.6487 0.1902 0.7369
vn -0.1012 -0.8803 0.4635
vn -0.6629 -0.0101 0.7487
vn 0.2020 0.9788 -0.0326
vn 0.0706 -0.9467 0.3144
vn -0.6439 -0.0682 0.7621
vn 0.0627 0.9966 0.0535
vn -0.5854 -0.2827 0.7599
vn -0.0910 0.9462 0.3105
vn -0.4867 -0.3971 0.7781
vn -0.2916 0.7687 0.5693
vn 0.1102 -0.9320 0.3454
vn -0.7715 -0.0792 0.6312
vn 0.0596 0.9953 0.0768
vn -0.8012 -0.3263 0.5016
vn -0.1789 0.9574 0.2265
vn -0.8067 -0.3146 0.5002
vn -0.5076 0.7366 0.4469
vn -0.4099 -0.7283 0.5492
vn -0.6317 0.5689 0.5266
vn -0.0660 -0.8956 0.4399
vn -0.7184 0.4115 0.5608
vn -0.0807 -0.8848 0.4589
vn -0.7946 0.1437 0.5898
vn -0.0972 -0.8796 0.4656
vn -0.7815 0.0323 0.6231
vn 0.2187 0.9755 -0.0251
vn -0.1386 -0.8865 0.4414
vn -0.8316 0.4016 0.3835
vn -0.0661 -0.8835 0.4637
vn -0.8582 0.1656 0.4860
vn -0.1012 -0.8811 0.4619
vn -0.8497 0.0709 0.5225
vn -0.0004 0.9875 -0.1576
vn 0.1323 -0.9193 0.3707
vn -0.8595 -0.1344 0.4932
vn -0.0572 0.9963 -0.0638
vn -0.8204 -0.4295 0.3775
vn -0.3735 0.9259 0.0571
vn -0.8916 -0.2871 0.3503
vn -0.6937 0.6961 0.1849
vn -0.7646 -0.4816 0.4283
vn -0.7793 0.5614 0.2783
vn -0.0074 0.9863 -0.1650
vn -0.8036 -0.4288 0.4127
vn -0.4094 0.9076 0.0930
vn -0.8455 -0.3465 0.4062
vn -0.6937 0.6937 0.1938
vn -0.8759 -0.3558 0.3258
vn -0.7926 0.5685 0.2206
vn -0.5079 -0.8234 0.2532
vn -0.8715 0.4221 0.2495
vn -0.1321 -0.8995 0.4165
vn -0.9212 0.2322 0.3122
vn -0.1051 -0.8872 0.4492
vn -0.9336 0.0730 0.3509
vn -0.1938 0.9293 -0.3144
vn 0.1301 -0.9212 0.3667
vn -0.9161 -0.1303 0.3792
vn -0.8902 0.4274 0.1577
vn -0.4043 -0.9106 0.0858
vn -0.9524 0.2548 0.1676
vn -0.1796 -0.9437 0.2777
vn -0.9816 0.0803 0.1733
vn -0.1820 0.9372 -0.2975
vn 0.1065 -0.9551 0.2765
vn -0.9784 -0.0980 0.1819
vn -0.0297 0.9354 -0.3524
vn -0.9057 -0.3349 0.2598
vn -0.4084 0.8963 -0.1729
vn -0.8475 -0.4204 0.3239
vn -0.6974 0.7152 0.0462
vn -0.8603 -0.4802 0.1713
vn -0.8094 0.5739 0.1244
vn -0.7076 -0.7065 -0.0135
vn -0.9642 -0.2650 -0.0093
vn -0.3428 0.9345 -0.0963
vn -0.9010 -0.4338 -0.0037
vn -0.6536 0.7561 -0.0328
vn -0.8076 -0.5897 -0.0057
vn -0.8107 0.5855 -0.0037
vn -0.7026 -0.7080 -0.0716
vn -0.9031 0.4291 -0.0133
vn -0.5082 -0.8505 -0.1354
vn -0.9663 0.2571 -0.0152
vn -0.2539 -0.9661 -0.0460
vn -0.9964 0.0830 -0.0150
vn -0.1276 0.9866 -0.1016
vn 0.0977 -0.9923 0.0766
vn -0.9959 -0.0893 -0.0134
vn -0.0033 0.9942 -0.1074
vn -0.5058 -0.8496 -0.1495
vn -0.9451 0.2600 -0.1979
vn -0.2685 -0.9509 -0.1539
vn -0.9753 0.0858 -0.2034
vn -0.1234 0.9874 0.0987
vn 0.1181 -0.9912 -0.0605
vn -0.9753 -0.0885 -0.2023
vn -0.0303 0.9964 0.0791
vn -0.9446 -0.2635 -0.1957
vn -0.3549 0.9347 -0.0207
vn -0.8824 -0.4336 -0.1828
vn -0.6233 0.7758 -0.0979
vn -0.7876 -0.5942 -0.1632
vn -0.7989 0.5804 -0.1577
vn -0.6603 -0.7379 -0.1397
vn -0.8829 0.4319 -0.1841
vn -0.3288 0.9395 -0.0958
vn -0.8300 -0.4354 -0.3487
vn -0.5887 0.7741 -0.2328
vn -0.7402 -0.5962 -0.3109
vn -0.7512 0.5803 -0.3144
vn -0.6194 -0.7407 -0.2602
vn -0.8300 0.4353 -0.3489
vn -0.4688 -0.8603 -0.2002
vn -0.8891 0.2629 -0.3746
vn -0.2676 -0.9522 -0.1476
vn -0.9181 0.0879 -0.3864
vn -0.1236 0.9873 0.0994
vn 0.1146 -0.9921 -0.0508
vn -0.9183 -0.0888 -0.3858
vn -0.0535 0.9961 0.0703
vn -0.8891 -0.2647 -0.3735
vn -0.7992 0.2656 -0.5393
vn -0.2297 -0.9538 -0.1939
vn -0.8257 0.0892 -0.5570
vn -0.1190 0.9888 0.0904
vn 0.0798 -0.9968 0.0057
vn -0.8258 -0.0892 -0.5569
vn -0.0729 0.9965 0.0398
vn -0.7993 -0.2661 -0.5389
vn -0.2846 0.9417 -0.1793
vn -0.7456 -0.4374 -0.5027
vn -0.5207 0.7749 -0.3584
vn -0.6643 -0.5984 -0.4478
vn -0.6698 0.5875 -0.4541
vn -0.5553 -0.7427 -0.3743
vn -0.7454 0.4386 -0.5020
vn -0.4099 -0.8649 -0.2896
vn -0.6318 -0.4395 -0.6385
vn -0.4208 0.7850 -0.4546
vn -0.5623 -0.6007 -0.5683
vn -0.5635 0.5965 -0.5715
vn -0.4350 -0.7577 -0.4865
vn -0.6315 0.4415 -0.6374
vn -0.1870 -0.8728 -0.4508
vn -0.6774 0.2676 -0.6852
vn -0.0818 -0.9094 -0.4078
vn -0.7002 0.0898 -0.7083
vn -0.1100 0.9907 0.0801
vn 0.0620 -0.9978 0.0250
vn -0.7003 -0.0897 -0.7082
vn -0.0816 0.9966 -0.0097
vn -0.6777 -0.2674 -0.6850
vn -0.2239 0.9389 -0.2615
vn 0.0583 -0.7881 -0.6127
vn -0.5456 0.0903 -0.8332
vn -0.0979 0.9926 0.0718
vn 0.1056 -0.9944 -0.0076
vn -0.5459 -0.0898 -0.8330
vn -0.0811 0.9945 -0.0662
vn -0.4981 -0.2944 -0.8156
vn -0.1695 0.9351 -0.3113
vn -0.4248 -0.4483 -0.7865
vn -0.3175 0.8000 -0.5090
vn -0.4080 -0.5746 -0.7095
vn -0.4385 0.6028 -0.6667
vn -0.1816 -0.8236 -0.5373
vn -0.4917 0.4438 -0.7492
vn 0.1861 -0.8151 -0.5487
vn -0.5277 0.2689 -0.8057
vn -0.0484 -0.5398 -0.8404
vn -0.2951 0.6062 -0.7385
vn 0.1244 -0.8656 -0.4851
vn -0.3313 0.4452 -0.8319
vn 0.2356 -0.8285 -0.5080
vn -0.3557 0.2696 -0.8949
vn 0.0746 -0.7079 -0.7024
vn -0.3679 0.0906 -0.9254
vn -0.0914 0.9934 0.0693
vn 0.1386 -0.9900 -0.0241
vn -0.3690 -0.0892 -0.9251
vn -0.0820 0.9900 -0.1149
vn -0.2881 -0.3702 -0.8831
vn -0.1237 0.9350 -0.3325
vn -0.1549 -0.4842 -0.8611
vn -0.2156 0.8093 -0.5465
vn -0.0883 0.9937 0.0689
vn 0.1186 -0.9928 -0.0182
vn -0.1625 -0.0999 -0.9816
vn -0.0696 0.9853 -0.1562
vn -0.0985 -0.4446 -0.8903
vn -0.0728 0.9375 -0.3401
vn -0.0688 -0.5087 -0.8582
vn -0.1091 0.8088 -0.5779
vn -0.0511 -0.5824 -0.8113
vn -0.1389 0.6088 -0.7811
vn 0.0302 -0.8919 -0.4513
vn -0.1571 0.4457 -0.8813
vn 0.0385 -0.8829 -0.4680
vn -0.1660 0.2674 -0.9492
vn -0.0159 -0.7127 -0.7013
vn -0.1719 0.0930 -0.9807
vn 0.0223 0.6110 -0.7913
vn -0.1302 -0.8852 -0.4465
vn -0.1630 -0.7706 -0.6161
vn -0.1705 -0.7376 -0.6534
vn 0.0514 0.4252 -0.9036
vn -0.0890 -0.8824 -0.4620
vn 0.1774 0.1765 -0.9682
vn -0.0350 -0.7305 -0.6820
vn 0.1740 0.1765 -0.9688
vn -0.0827 0.9942 0.0691
vn 0.0952 -0.9953 -0.0159
vn 0.0971 -0.1461 -0.9845
vn -0.0397 0.9821 -0.1843
vn 0.0526 -0.5330 -0.8445
vn -0.0129 0.9410 -0.3382
vn -0.1060 -0.4805 -0.8706
vn -0.0238 -0.3568 -0.9339
vn -0.1204 -0.5014 -0.8568
vn 0.0080 0.8014 -0.5981
vn 0.1021 -0.0536 -0.9933
vn -0.0023 0.9809 -0.1945
vn -0.1973 -0.7106 -0.6753
vn 0.0488 0.9436 -0.3276
vn 0.0230 -0.1725 -0.9847
vn 0.1281 0.7926 -0.5961
vn -0.0415 -0.6606 -0.7496
vn 0.1791 0.6115 -0.7707
vn -0.0604 -0.9099 -0.4103
vn 0.2272 0.3868 -0.8937
vn -0.0880 -0.8759 -0.4744
vn 0.2925 0.0603 -0.9544
vn 0.0050 -0.7718 -0.6358
vn 0.2935 0.2852 -0.9124
vn -0.0812 0.9943 0.0695
vn 0.1295 -0.9915 -0.0126
vn 0.0614 -0.9185 -0.3907
vn 0.3335 0.4072 -0.8503
vn -0.0121 -0.8647 -0.5021
vn 0.2376 0.1119 -0.9649
vn 0.0661 -0.8449 -0.5308
vn 0.2202 0.2311 -0.9477
vn -0.0874 0.9939 0.0668
vn 0.2232 -0.9746 0.0161
vn 0.4643 -0.1127 -0.8785
vn 0.0502 0.9819 -0.1826
vn 0.5287 -0.5311 -0.6622
vn 0.1190 0.9462 -0.3008
vn 0.3174 -0.0888 -0.9441
vn 0.2487 0.7867 -0.5650
vn 0.2397 -0.6881 -0.6849
vn 0.3289 0.6093 -0.7215
vn 0.1069 0.9825 -0.1528
vn 0.3796 -0.2970 -0.8762
vn 0.1858 0.9498 -0.2518
vn 0.5241 -0.2605 -0.8108
vn 0.3618 0.7848 -0.5031
vn 0.5674 -0.6323 -0.5275
vn 0.4670 0.6061 -0.6438
vn 0.2569 -0.8933 -0.3689
vn 0.5247 0.4443 -0.7262
vn 0.1525 -0.8622 -0.4830
vn 0.5317 0.2308 -0.8149
vn 0.1865 -0.9195 -0.3461
vn 0.5439 0.1253 -0.8297
vn -0.0944 0.9936 0.0623
vn 0.2780 -0.9595 0.0458
vn 0.5027 -0.1654 -0.8485
vn 0.6568 0.4453 -0.6085
vn 0.2175 -0.8779 -0.4266
vn 0.7041 0.2679 -0.6577
vn 0.2470 -0.9561 -0.1574
vn 0.7403 0.0718 -0.6684
vn -0.0959 0.9935 0.0611
vn 0.3311 -0.9392 0.0906
vn 0.7835 -0.1397 -0.6055
vn 0.1750 0.9800 -0.0943
vn 0.7661 -0.1963 -0.6120
vn 0.2436 0.9549 -0.1697
vn 0.6572 -0.4339 -0.6163
vn 0.4596 0.7866 -0.4124
vn 0.5786 -0.6006 -0.5519
vn 0.5869 0.6042 -0.5390
vn 0.3279 -0.8315 -0.4485
vn 0.8914 -0.0758 -0.4468
vn 0.2513 0.9637 -0.0897
vn 0.7814 -0.4188 -0.4626
vn 0.5283 0.7887 -0.3143
vn 0.6869 -0.6043 -0.4036
vn 0.7007 0.5906 -0.4001
vn 0.5171 -0.7809 -0.3504
vn 0.8428 0.3819 -0.3792
vn 0.2945 -0.9177 -0.2664
vn 0.9156 0.2407 -0.3220
vn 0.2440 -0.9697 -0.0115
vn 0.9547 0.0249 -0.2967
vn -0.0781 0.9935 0.0833
vn 0.3706 -0.9180 0.1413
vn 0.9344 -0.1256 -0.3333
vn 0.2290 0.9730 -0.0282
vn 0.3840 -0.9233 0.0078
vn 0.9660 0.1925 -0.1725
vn 0.2605 -0.9536 0.1512
vn 0.9834 0.0228 -0.1798
vn -0.0720 0.9929 0.0943
vn 0.3898 -0.9029 0.1812
vn 0.9742 -0.0492 -0.2205
vn 0.2378 0.9711 -0.0194
vn 0.9848 -0.1058 -0.1374
vn 0.2265 0.9725 -0.0544
vn 0.9358 -0.3472 -0.0615
vn 0.5885 0.7835 -0.1997
vn 0.8133 -0.5688 -0.1227
vn 0.7939 0.5584 -0.2407
vn 0.6480 -0.7517 -0.1228
vn 0.9311 0.2855 -0.2269
vn 0.9567 -0.2858 -0.0545
vn 0.6342 0.7732 0.0034
vn 0.8272 -0.5611 -0.0300
vn 0.8417 0.5370 -0.0570
vn 0.6624 -0.7475 0.0488
vn 0.9687 0.2367 -0.0745
vn 0.3644 -0.9229 0.1241
vn 0.9858 0.1578 -0.0576
vn 0.2529 -0.9480 0.1930
vn 0.9953 0.0635 -0.0725
vn -0.0787 0.9942 0.0733
vn 0.3896 -0.9031 0.1804
vn 0.9961 -0.0547 -0.0690
vn 0.2478 0.9670 0.0597
vn 0.9794 -0.1993 -0.0325
vn 0.2484 0.9643 0.0922
vt 0.750000 0.812500
vt 0.750000 0.875000
vt 0.718750 0.875000
vt 0.718750 0.812500
vt 0.750000 0.312500
vt 0.750000 0.375000
vt 0.718750 0.375000
vt 0.718750 0.312500
vt 0.750000 0.750000
vt 0.718750 0.750000
vt 0.750000 0.250000
vt 0.718750 0.250000
vt 0.750000 0.687500
vt 0.718750 0.687500
vt 0.750000 0.187500
vt 0.718750 0.187500
vt 0.750000 0.625000
vt 0.718750 0.625000
vt 0.750000 0.125000
vt 0.718750 0.125000
vt 0.750000 0.562500
vt 0.718750 0.562500
vt 0.750000 0.062500
vt 0.718750 0.062500
vt 0.750000 0.500000
vt 0.718750 0.500000
vt 0.750000 0.937500
vt 0.734375 1.000000
vt 0.718750 0.937500
vt 0.734375 0.000000
vt 0.750000 0.437500
vt 0.718750 0.437500
vt 0.687500 0.500000
vt 0.687500 0.437500
vt 0.687500 0.937500
vt 0.687500 0.875000
vt 0.687500 0.375000
vt 0.687500 0.812500
vt 0.687500 0.312500
vt 0.687500 0.750000
vt 0.687500 0.250000
vt 0.687500 0.687500
vt 0.687500 0.187500
vt 0.687500 0.625000
vt 0.687500 0.125000
vt 0.687500 0.562500
vt 0.687500 0.062500
vt 0.703125 1.000000
vt 0.703125 0.000000
vt 0.656250 0.250000
vt 0.656250 0.187500
vt 0.656250 0.687500
vt 0.656250 0.625000
vt 0.656250 0.125000
vt 0.656250 0.562500
vt 0.656250 0.062500
vt 0.656250 0.500000
vt 0.671875 1.000000
vt 0.656250 0.937500
vt 0.671875 0.000000
vt 0.656250 0.437500
vt 0.656250 0.875000
vt 0.656250 0.375000
vt 0.656250 0.812500
vt 0.656250 0.312500
vt 0.656250 0.750000
vt 0.625000 0.437500
vt 0.625000 0.375000
vt 0.625000 0.875000
vt 0.625000 0.812500
vt 0.625000 0.312500
vt 0.625000 0.750000
vt 0.625000 0.250000
vt 0.625000 0.687500
vt 0.625000 0.187500
vt 0.625000 0.625000
vt 0.625000 0.125000
vt 0.625000 0.562500
vt 0.625000 0.062500
vt 0.625000 0.500000
vt 0.640625 1.000000
vt 0.625000 0.937500
vt 0.640625 0.000000
vt 0.593750 0.187500
vt 0.593750 0.125000
vt 0.593750 0.625000
vt 0.593750 0.562500
vt 0.593750 0.062500
vt 0.593750 0.500000
vt 0.609375 1.000000
vt 0.593750 0.937500
vt 0.609375 0.000000
vt 0.593750 0.437500
vt 0.593750 0.875000
vt 0.593750 0.375000
vt 0.593750 0.812500
vt 0.593750 0.312500
vt 0.593750 0.750000
vt 0.593750 0.250000
vt 0.593750 0.687500
vt 0.562500 0.875000
vt 0.562500 0.812500
vt 0.562500 0.375000
vt 0.562500 0.312500
vt 0.562500 0.750000
vt 0.562500 0.250000
vt 0.562500 0.687500
vt 0.562500 0.187500
vt 0.562500 0.625000
vt 0.562500 0.125000
vt 0.562500 0.562500
vt 0.562500 0.062500
vt 0.562500 0.500000
vt 0.578125 1.000000
vt 0.562500 0.937500
vt 0.578125 0.000000
vt 0.562500 0.437500
vt 0.531250 0.625000
vt 0.531250 0.562500
vt 0.531250 0.125000
vt 0.531250 0.062500
vt 0.531250 0.500000
vt 0.546875 1.000000
vt 0.531250 0.937500
vt 0.546875 0.000000
vt 0.531250 0.437500
vt 0.531250 0.875000
vt 0.531250 0.375000
vt 0.531250 0.812500
vt 0.531250 0.312500
vt 0.531250 0.750000
vt 0.531250 0.250000
vt 0.531250 0.687500
vt 0.531250 0.187500
vt 0.500000 0.375000
vt 0.500000 0.312500
vt 0.500000 0.812500
vt 0.500000 0.750000
vt 0.500000 0.250000
vt 0.500000 0.687500
vt 0.500000 0.187500
vt 0.500000 0.625000
vt 0.500000 0.125000
vt 0.500000 0.562500
vt 0.500000 0.062500
vt 0.500000 0.500000
vt 0.515625 1.000000
vt 0.500000 0.937500
vt 0.515625 0.000000
vt 0.500000 0.437500
vt 0.500000 0.875000
vt 0.468750 0.125000
vt 0.468750 0.062500
vt 0.468750 0.562500
vt 0.468750 0.500000
vt 0.484375 1.000000
vt 0.468750 0.937500
vt 0.484375 0.000000
vt 0.468750 0.437500
vt 0.468750 0.875000
vt 0.468750 0.375000
vt 0.468750 0.812500
vt 0.468750 0.312500
vt 0.468750 0.750000
vt 0.468750 0.250000
vt 0.468750 0.687500
vt 0.468750 0.187500
vt 0.468750 0.625000
vt 0.437500 0.812500
vt 0.437500 0.750000
vt 0.437500 0.312500
vt 0.437500 0.250000
vt 0.437500 0.687500
vt 0.437500 0.187500
vt 0.437500 0.625000
vt 0.437500 0.125000
vt 0.437500 0.562500
vt 0.437500 0.062500
vt 0.437500 0.500000
vt 0.453125 1.000000
vt 0.437500 0.937500
vt 0.453125 0.000000
vt 0.437500 0.437500
vt 0.437500 0.875000
vt 0.437500 0.375000
vt 0.406250 0.562500
vt 0.406250 0.500000
vt 0.421875 1.000000
vt 0.406250 0.937500
vt 0.421875 0.000000
vt 0.406250 0.062500
vt 0.406250 0.437500
vt 0.406250 0.875000
vt 0.406250 0.375000
vt 0.406250 0.812500
vt 0.406250 0.312500
vt 0.406250 0.750000
vt 0.406250 0.250000
vt 0.406250 0.687500
vt 0.406250 0.187500
vt 0.406250 0.625000
vt 0.406250 0.125000
vt 0.375000 0.312500
vt 0.375000 0.250000
vt 0.375000 0.750000
vt 0.375000 0.687500
vt 0.375000 0.187500
vt 0.375000 0.625000
vt 0.375000 0.125000
vt 0.375000 0.562500
vt 0.375000 0.062500
vt 0.375000 0.500000
vt 0.390625 1.000000
vt 0.375000 0.937500
vt 0.390625 0.000000
vt 0.375000 0.437500
vt 0.375000 0.875000
vt 0.375000 0.375000
vt 0.375000 0.812500
vt 0.359375 0.000000
vt 0.343750 0.062500
vt 0.343750 0.500000
vt 0.343750 0.437500
vt 0.343750 0.937500
vt 0.343750 0.875000
vt 0.343750 0.375000
vt 0.343750 0.812500
vt 0.343750 0.312500
vt 0.343750 0.750000
vt 0.343750 0.250000
vt 0.343750 0.687500
vt 0.343750 0.187500
vt 0.343750 0.625000
vt 0.343750 0.125000
vt 0.343750 0.562500
vt 0.359375 1.000000
vt 0.312500 0.250000
vt 0.312500 0.187500
vt 0.312500 0.687500
vt 0.312500 0.625000
vt 0.312500 0.125000
vt 0.312500 0.562500
vt 0.312500 0.062500
vt 0.312500 0.500000
vt 0.328125 1.000000
vt 0.312500 0.937500
vt 0.328125 0.000000
vt 0.312500 0.437500
vt 0.312500 0.875000
vt 0.312500 0.375000
vt 0.312500 0.812500
vt 0.312500 0.312500
vt 0.312500 0.750000
vt 0.281250 0.937500
vt 0.281250 0.875000
vt 0.281250 0.437500
vt 0.281250 0.375000
vt 0.281250 0.812500
vt 0.281250 0.312500
vt 0.281250 0.750000
vt 0.281250 0.250000
vt 0.281250 0.687500
vt 0.281250 0.187500
vt 0.281250 0.625000
vt 0.281250 0.125000
vt 0.281250 0.562500
vt 0.281250 0.062500
vt 0.281250 0.500000
vt 0.296875 1.000000
vt 0.296875 0.000000
vt 0.250000 0.687500
vt 0.250000 0.625000
vt 0.250000 0.187500
vt 0.250000 0.125000
vt 0.250000 0.562500
vt 0.250000 0.062500
vt 0.250000 0.500000
vt 0.265625 1.000000
vt 0.250000 0.937500
vt 0.265625 0.000000
vt 0.250000 0.437500
vt 0.250000 0.875000
vt 0.250000 0.375000
vt 0.250000 0.812500
vt 0.250000 0.312500
vt 0.250000 0.750000
vt 0.250000 0.250000
vt 0.218750 0.437500
vt 0.218750 0.375000
vt 0.218750 0.875000
vt 0.218750 0.812500
vt 0.218750 0.312500
vt 0.218750 0.750000
vt 0.218750 0.250000
vt 0.218750 0.687500
vt 0.218750 0.187500
vt 0.218750 0.625000
vt 0.218750 0.125000
vt 0.218750 0.562500
vt 0.218750 0.062500
vt 0.218750 0.500000
vt 0.234375 1.000000
vt 0.218750 0.937500
vt 0.234375 0.000000
vt 0.187500 0.187500
vt 0.187500 0.125000
vt 0.187500 0.625000
vt 0.187500 0.562500
vt 0.187500 0.062500
vt 0.187500 0.500000
vt 0.203125 1.000000
vt 0.187500 0.937500
vt 0.203125 0.000000
vt 0.187500 0.437500
vt 0.187500 0.875000
vt 0.187500 0.375000
vt 0.187500 0.812500
vt 0.187500 0.312500
vt 0.187500 0.750000
vt 0.187500 0.250000
vt 0.187500 0.687500
vt 0.156250 0.875000
vt 0.156250 0.812500
vt 0.156250 0.375000
vt 0.156250 0.312500
vt 0.156250 0.750000
vt 0.156250 0.250000
vt 0.156250 0.687500
vt 0.156250 0.187500
vt 0.156250 0.625000
vt 0.156250 0.125000
vt 0.156250 0.562500
vt 0.156250 0.062500
vt 0.156250 0.500000
vt 0.171875 1.000000
vt 0.156250 0.937500
vt 0.171875 0.000000
vt 0.156250 0.437500
vt 0.125000 0.625000
vt 0.125000 0.562500
vt 0.125000 0.125000
vt 0.125000 0.062500
vt 0.125000 0.500000
vt 0.140625 1.000000
vt 0.125000 0.937500
vt 0.140625 0.000000
vt 0.125000 0.437500
vt 0.125000 0.875000
vt 0.125000 0.375000
vt 0.125000 0.812500
vt 0.125000 0.312500
vt 0.125000 0.750000
vt 0.125000 0.250000
vt 0.125000 0.687500
vt 0.125000 0.187500
vt 0.093750 0.375000
vt 0.093750 0.312500
vt 0.093750 0.812500
vt 0.093750 0.750000
vt 0.093750 0.250000
vt 0.093750 0.687500
vt 0.093750 0.187500
vt 0.093750 0.625000
vt 0.093750 0.125000
vt 0.093750 0.562500
vt 0.093750 0.062500
vt 0.093750 0.500000
vt 0.109375 1.000000
vt 0.093750 0.937500
vt 0.109375 0.000000
vt 0.093750 0.437500
vt 0.093750 0.875000
vt 0.062500 0.125000
vt 0.062500 0.062500
vt 0.062500 0.562500
vt 0.062500 0.500000
vt 0.078125 1.000000
vt 0.062500 0.937500
vt 0.078125 0.000000
vt 0.062500 0.437500
vt 0.062500 0.875000
vt 0.062500 0.375000
vt 0.062500 0.812500
vt 0.062500 0.312500
vt 0.062500 0.750000
vt 0.062500 0.250000
vt 0.062500 0.687500
vt 0.062500 0.187500
vt 0.062500 0.625000
vt 0.031250 0.312500
vt 0.031250 0.250000
vt 0.031250 0.750000
vt 0.031250 0.687500
vt 0.031250 0.187500
vt 0.031250 0.625000
vt 0.031250 0.125000
vt 0.031250 0.562500
vt 0.031250 0.062500
vt 0.031250 0.500000
vt 0.046875 1.000000
vt 0.031250 0.937500
vt 0.046875 0.000000
vt 0.031250 0.437500
vt 0.031250 0.875000
vt 0.031250 0.375000
vt 0.031250 0.812500
vt 0.015625 1.000000
vt 0.000000 0.937500
vt 0.015625 0.000000
vt 0.000000 0.062500
vt 0.000000 0.500000
vt 0.000000 0.437500
vt 0.000000 0.875000
vt 0.000000 0.375000
vt 0.000000 0.812500
vt 0.000000 0.312500
vt 0.000000 0.750000
vt 0.000000 0.250000
vt 0.000000 0.687500
vt 0.000000 0.187500
vt 0.000000 0.625000
vt 0.000000 0.125000
vt 0.000000 0.562500
vt 1.000000 0.687500
vt 1.000000 0.750000
vt 0.968750 0.750000
vt 0.968750 0.687500
vt 1.000000 0.187500
vt 1.000000 0.250000
vt 0.968750 0.250000
vt 0.968750 0.187500
vt 1.000000 0.625000
vt 0.968750 0.625000
vt 1.000000 0.125000
vt 0.968750 0.125000
vt 1.000000 0.562500
vt 0.968750 0.562500
vt 1.000000 0.062500
vt 0.968750 0.062500
vt 1.000000 0.500000
vt 0.968750 0.500000
vt 1.000000 0.937500
vt 0.984375 1.000000
vt 0.968750 0.937500
vt 0.984375 0.000000
vt 1.000000 0.437500
vt 0.968750 0.437500
vt 1.000000 0.875000
vt 0.968750 0.875000
vt 1.000000 0.375000
vt 0.968750 0.375000
vt 1.000000 0.812500
vt 0.968750 0.812500
vt 1.000000 0.312500
vt 0.968750 0.312500
vt 0.937500 0.500000
vt 0.937500 0.437500
vt 0.937500 0.937500
vt 0.937500 0.875000
vt 0.937500 0.375000
vt 0.937500 0.812500
vt 0.937500 0.312500
vt 0.937500 0.750000
vt 0.937500 0.250000
vt 0.937500 0.687500
vt 0.937500 0.187500
vt 0.937500 0.625000
vt 0.937500 0.125000
vt 0.937500 0.562500
vt 0.937500 0.062500
vt 0.953125 1.000000
vt 0.953125 0.000000
vt 0.906250 0.250000
vt 0.906250 0.187500
vt 0.906250 0.687500
vt 0.906250 0.625000
vt 0.906250 0.125000
vt 0.906250 0.562500
vt 0.906250 0.062500
vt 0.906250 0.500000
vt 0.921875 1.000000
vt 0.906250 0.937500
vt 0.921875 0.000000
vt 0.906250 0.437500
vt 0.906250 0.875000
vt 0.906250 0.375000
vt 0.906250 0.812500
vt 0.906250 0.312500
vt 0.906250 0.750000
vt 0.875000 0.937500
vt 0.875000 0.875000
vt 0.875000 0.437500
vt 0.875000 0.375000
vt 0.875000 0.812500
vt 0.875000 0.312500
vt 0.875000 0.750000
vt 0.875000 0.250000
vt 0.875000 0.687500
vt 0.875000 0.187500
vt 0.875000 0.625000
vt 0.875000 0.125000
vt 0.875000 0.562500
vt 0.875000 0.062500
vt 0.875000 0.500000
vt 0.890625 1.000000
vt 0.890625 0.000000
vt 0.843750 0.687500
vt 0.843750 0.625000
vt 0.843750 0.187500
vt 0.843750 0.125000
vt 0.843750 0.562500
vt 0.843750 0.062500
vt 0.843750 0.500000
vt 0.859375 1.000000
vt 0.843750 0.937500
vt 0.859375 0.000000
vt 0.843750 0.437500
vt 0.843750 0.875000
vt 0.843750 0.375000
vt 0.843750 0.812500
vt 0.843750 0.312500
vt 0.843750 0.750000
vt 0.843750 0.250000
vt 0.812500 0.437500
vt 0.812500 0.375000
vt 0.812500 0.875000
vt 0.812500 0.812500
vt 0.812500 0.312500
vt 0.812500 0.750000
vt 0.812500 0.250000
vt 0.812500 0.687500
vt 0.812500 0.187500
vt 0.812500 0.625000
vt 0.812500 0.125000
vt 0.812500 0.562500
vt 0.812500 0.062500
vt 0.812500 0.500000
vt 0.828125 1.000000
vt 0.812500 0.937500
vt 0.828125 0.000000
vt 0.781250 0.187500
vt 0.781250 0.125000
vt 0.781250 0.625000
vt 0.781250 0.562500
vt 0.781250 0.062500
vt 0.781250 0.500000
vt 0.796875 1.000000
vt 0.781250 0.937500
vt 0.796875 0.000000
vt 0.781250 0.437500
vt 0.781250 0.875000
vt 0.781250 0.375000
vt 0.781250 0.812500
vt 0.781250 0.312500
vt 0.781250 0.750000
vt 0.781250 0.250000
vt 0.781250 0.687500
vt 0.765625 1.000000
vt 0.765625 0.000000
s 1
usemtl マテリアル.003
f 1/1/1 475/2/1 8/3/1 9/4/1
f 6/5/2 478/6/2 16/7/2 17/8/2
f 476/9/3 1/1/3 9/4/3 10/10/3
f 479/11/4 6/5/4 17/8/4 18/12/4
f 2/13/5 476/9/5 10/10/5 11/14/5
f 480/15/6 479/11/6 18/12/6 19/16/6
f 477/17/7 2/13/7 11/14/7 12/18/7
f 481/19/8 480/15/8 19/16/8 20/20/8
f 3/21/9 477/17/9 12/18/9 13/22/9
f 482/23/10 481/19/10 20/20/10 21/24/10
f 4/25/11 3/21/11 13/22/11 14/26/11
f 474/27/12 82/28/12 7/29/12
f 308/30/13 482/23/13 21/24/13
f 5/31/14 4/25/14 14/26/14 15/32/14
f 475/2/15 474/27/15 7/29/15 8/3/15
f 478/6/16 5/31/16 15/32/16 16/7/16
f 15/32/17 14/26/17 29/33/17 30/34/17
f 8/3/18 7/29/18 22/35/18 23/36/18
f 16/7/19 15/32/19 30/34/19 31/37/19
f 9/4/20 8/3/20 23/36/20 24/38/20
f 17/8/21 16/7/21 31/37/21 32/39/21
f 10/10/22 9/4/22 24/38/22 25/40/22
f 18/12/23 17/8/23 32/39/23 33/41/23
f 11/14/24 10/10/24 25/40/24 26/42/24
f 19/16/25 18/12/25 33/41/25 34/43/25
f 12/18/26 11/14/26 26/42/26 27/44/26
f 20/20/27 19/16/27 34/43/27 35/45/27
f 13/22/28 12/18/28 27/44/28 28/46/28
f 21/24/29 20/20/29 35/45/29 36/47/29
f 14/26/30 13/22/30 28/46/30 29/33/30
f 7/29/31 82/48/31 22/35/31
f 308/49/32 21/24/32 36/47/32
f 34/43/33 33/41/33 48/50/33 49/51/33
f 27/44/34 26/42/34 41/52/34 42/53/34
f 35/45/35 34/43/35 49/51/35 50/54/35
f 28/46/36 27/44/36 42/53/36 43/55/36
f 36/47/37 35/45/37 50/54/37 51/56/37
f 29/33/38 28/46/38 43/55/38 44/57/38
f 22/35/39 82/58/39 37/59/39
f 308/60/40 36/47/40 51/56/40
f 30/34/41 29/33/41 44/57/41 45/61/41
f 23/36/42 22/35/42 37/59/42 38/62/42
f 31/37/43 30/34/43 45/61/43 46/63/43
f 24/38/44 23/36/44 38/62/44 39/64/44
f 32/39/45 31/37/45 46/63/45 47/65/45
f 25/40/46 24/38/46 39/64/46 40/66/46
f 33/41/47 32/39/47 47/65/47 48/50/47
f 26/42/48 25/40/48 40/66/48 41/52/48
f 46/63/49 45/61/49 60/67/49 61/68/49
f 39/64/50 38/62/50 53/69/50 54/70/50
f 47/65/51 46/63/51 61/68/51 62/71/51
f 40/66/52 39/64/52 54/70/52 55/72/52
f 48/50/53 47/65/53 62/71/53 63/73/53
f 41/52/54 40/66/54 55/72/54 56/74/54
f 49/51/55 48/50/55 63/73/55 64/75/55
f 42/53/56 41/52/56 56/74/56 57/76/56
f 50/54/57 49/51/57 64/75/57 65/77/57
f 43/55/58 42/53/58 57/76/58 58/78/58
f 51/56/59 50/54/59 65/77/59 66/79/59
f 44/57/60 43/55/60 58/78/60 59/80/60
f 37/59/61 82/81/61 52/82/61
f 308/83/62 51/56/62 66/79/62
f 45/61/63 44/57/63 59/80/63 60/67/63
f 38/62/64 37/59/64 52/82/64 53/69/64
f 65/77/65 64/75/65 79/84/65 80/85/65
f 58/78/66 57/76/66 72/86/66 73/87/66
f 66/79/67 65/77/67 80/85/67 81/88/67
f 59/80/68 58/78/68 73/87/68 74/89/68
f 52/82/69 82/90/69 67/91/69
f 308/92/70 66/79/70 81/88/70
f 60/67/71 59/80/71 74/89/71 75/93/71
f 53/69/72 52/82/72 67/91/72 68/94/72
f 61/68/73 60/67/73 75/93/73 76/95/73
f 54/70/74 53/69/74 68/94/74 69/96/74
f 62/71/75 61/68/75 76/95/75 77/97/75
f 55/72/76 54/70/76 69/96/76 70/98/76
f 63/73/77 62/71/77 77/97/77 78/99/77
f 56/74/78 55/72/78 70/98/78 71/100/78
f 64/75/79 63/73/79 78/99/79 79/84/79
f 57/76/80 56/74/80 71/100/80 72/86/80
f 69/96/81 68/94/81 84/101/81 85/102/81
f 77/97/82 76/95/82 92/103/82 93/104/82
f 70/98/83 69/96/83 85/102/83 86/105/83
f 78/99/84 77/97/84 93/104/84 94/106/84
f 71/100/85 70/98/85 86/105/85 87/107/85
f 79/84/86 78/99/86 94/106/86 95/108/86
f 72/86/87 71/100/87 87/107/87 88/109/87
f 80/85/88 79/84/88 95/108/88 96/110/88
f 73/87/89 72/86/89 88/109/89 89/111/89
f 81/88/90 80/85/90 96/110/90 97/112/90
f 74/89/91 73/87/91 89/111/91 90/113/91
f 67/91/92 82/114/92 83/115/92
f 308/116/93 81/88/93 97/112/93
f 75/93/94 74/89/94 90/113/94 91/117/94
f 68/94/95 67/91/95 83/115/95 84/101/95
f 76/95/96 75/93/96 91/117/96 92/103/96
f 89/111/97 88/109/97 103/118/97 104/119/97
f 97/112/98 96/110/98 111/120/98 112/121/98
f 90/113/99 89/111/99 104/119/99 105/122/99
f 83/115/100 82/123/100 98/124/100
f 308/125/101 97/112/101 112/121/101
f 91/117/102 90/113/102 105/122/102 106/126/102
f 84/101/103 83/115/103 98/124/103 99/127/103
f 92/103/104 91/117/104 106/126/104 107/128/104
f 85/102/105 84/101/105 99/127/105 100/129/105
f 93/104/106 92/103/106 107/128/106 108/130/106
f 86/105/107 85/102/107 100/129/107 101/131/107
f 94/106/108 93/104/108 108/130/108 109/132/108
f 87/107/109 86/105/109 101/131/109 102/133/109
f 95/108/110 94/106/110 109/132/110 110/134/110
f 88/109/111 87/107/111 102/133/111 103/118/111
f 96/110/112 95/108/112 110/134/112 111/120/112
f 108/130/113 107/128/113 122/135/113 123/136/113
f 101/131/114 100/129/114 115/137/114 116/138/114
f 109/132/115 108/130/115 123/136/115 124/139/115
f 102/133/116 101/131/116 116/138/116 117/140/116
f 110/134/117 109/132/117 124/139/117 125/141/117
f 103/118/118 102/133/118 117/140/118 118/142/118
f 111/120/119 110/134/119 125/141/119 126/143/119
f 104/119/120 103/118/120 118/142/120 119/144/120
f 112/121/121 111/120/121 126/143/121 127/145/121
f 105/122/122 104/119/122 119/144/122 120/146/122
f 98/124/123 82/147/123 113/148/123
f 308/149/124 112/121/124 127/145/124
f 106/126/125 105/122/125 120/146/125 121/150/125
f 99/127/126 98/124/126 113/148/126 114/151/126
f 107/128/127 106/126/127 121/150/127 122/135/127
f 100/129/128 99/127/128 114/151/128 115/137/128
f 127/145/129 126/143/129 141/152/129 142/153/129
f 120/146/130 119/144/130 134/154/130 135/155/130
f 113/148/131 82/156/131 128/157/131
f 308/158/132 127/145/132 142/153/132
f 121/150/133 120/146/133 135/155/133 136/159/133
f 114/151/134 113/148/134 128/157/134 129/160/134
f 122/135/135 121/150/135 136/159/135 137/161/135
f 115/137/136 114/151/136 129/160/136 130/162/136
f 123/136/137 122/135/137 137/161/137 138/163/137
f 116/138/138 115/137/138 130/162/138 131/164/138
f 124/139/139 123/136/139 138/163/139 139/165/139
f 117/140/140 116/138/140 131/164/140 132/166/140
f 125/141/141 124/139/141 139/165/141 140/167/141
f 118/142/142 117/140/142 132/166/142 133/168/142
f 126/143/143 125/141/143 140/167/143 141/152/143
f 119/144/144 118/142/144 133/168/144 134/154/144
f 131/164/145 130/162/145 145/169/145 146/170/145
f 139/165/146 138/163/146 153/171/146 154/172/146
f 132/166/147 131/164/147 146/170/147 147/173/147
f 140/167/148 139/165/148 154/172/148 155/174/148
f 133/168/149 132/166/149 147/173/149 148/175/149
f 141/152/150 140/167/150 155/174/150 156/176/150
f 134/154/151 133/168/151 148/175/151 149/177/151
f 142/153/152 141/152/152 156/176/152 157/178/152
f 135/155/153 134/154/153 149/177/153 150/179/153
f 128/157/154 82/180/154 143/181/154
f 308/182/155 142/153/155 157/178/155
f 136/159/156 135/155/156 150/179/156 151/183/156
f 129/160/157 128/157/157 143/181/157 144/184/157
f 137/161/158 136/159/158 151/183/158 152/185/158
f 130/162/159 129/160/159 144/184/159 145/169/159
f 138/163/160 137/161/160 152/185/160 153/171/160
f 150/179/161 149/177/161 164/186/161 165/187/161
f 143/181/162 82/188/162 158/189/162
f 308/190/163 157/178/163 172/191/163
f 151/183/164 150/179/164 165/187/164 166/192/164
f 144/184/165 143/181/165 158/189/165 159/193/165
f 152/185/166 151/183/166 166/192/166 167/194/166
f 145/169/167 144/184/167 159/193/167 160/195/167
f 153/171/168 152/185/168 167/194/168 168/196/168
f 146/170/169 145/169/169 160/195/169 161/197/169
f 154/172/170 153/171/170 168/196/170 169/198/170
f 147/173/171 146/170/171 161/197/171 162/199/171
f 155/174/172 154/172/172 169/198/172 170/200/172
f 148/175/173 147/173/173 162/199/173 163/201/173
f 156/176/174 155/174/174 170/200/174 171/202/174
f 149/177/175 148/175/175 163/201/175 164/186/175
f 157/178/176 156/176/176 171/202/176 172/191/176
f 169/198/177 168/196/177 183/203/177 184/204/177
f 162/199/178 161/197/178 176/205/178 177/206/178
f 170/200/179 169/198/179 184/204/179 185/207/179
f 163/201/180 162/199/180 177/206/180 178/208/180
f 171/202/181 170/200/181 185/207/181 186/209/181
f 164/186/182 163/201/182 178/208/182 179/210/182
f 172/191/183 171/202/183 186/209/183 187/211/183
f 165/187/184 164/186/184 179/210/184 180/212/184
f 158/189/185 82/213/185 173/214/185
f 308/215/186 172/191/186 187/211/186
f 166/192/187 165/187/187 180/212/187 181/216/187
f 159/193/188 158/189/188 173/214/188 174/217/188
f 167/194/189 166/192/189 181/216/189 182/218/189
f 160/195/190 159/193/190 174/217/190 175/219/190
f 168/196/191 167/194/191 182/218/191 183/203/191
f 161/197/192 160/195/192 175/219/192 176/205/192
f 308/220/193 187/211/193 202/221/193
f 181/216/194 180/212/194 195/222/194 196/223/194
f 174/217/195 173/214/195 188/224/195 189/225/195
f 182/218/196 181/216/196 196/223/196 197/226/196
f 175/219/197 174/217/197 189/225/197 190/227/197
f 183/203/198 182/218/198 197/226/198 198/228/198
f 176/205/199 175/219/199 190/227/199 191/229/199
f 184/204/200 183/203/200 198/228/200 199/230/200
f 177/206/201 176/205/201 191/229/201 192/231/201
f 185/207/202 184/204/202 199/230/202 200/232/202
f 178/208/203 177/206/203 192/231/203 193/233/203
f 186/209/204 185/207/204 200/232/204 201/234/204
f 179/210/205 178/208/205 193/233/205 194/235/205
f 187/211/206 186/209/206 201/234/206 202/221/206
f 180/212/207 179/210/207 194/235/207 195/222/207
f 173/214/208 82/236/208 188/224/208
f 200/232/209 199/230/209 214/237/209 215/238/209
f 193/233/210 192/231/210 207/239/210 208/240/210
f 201/234/211 200/232/211 215/238/211 216/241/211
f 194/235/212 193/233/212 208/240/212 209/242/212
f 202/221/213 201/234/213 216/241/213 217/243/213
f 195/222/214 194/235/214 209/242/214 210/244/214
f 188/224/215 82/245/215 203/246/215
f 308/247/216 202/221/216 217/243/216
f 196/223/217 195/222/217 210/244/217 211/248/217
f 189/225/218 188/224/218 203/246/218 204/249/218
f 197/226/219 196/223/219 211/248/219 212/250/219
f 190/227/220 189/225/220 204/249/220 205/251/220
f 198/228/221 197/226/221 212/250/221 213/252/221
f 191/229/222 190/227/222 205/251/222 206/253/222
f 199/230/223 198/228/223 213/252/223 214/237/223
f 192/231/224 191/229/224 206/253/224 207/239/224
f 204/249/225 203/246/225 218/254/225 219/255/225
f 212/250/226 211/248/226 226/256/226 227/257/226
f 205/251/227 204/249/227 219/255/227 220/258/227
f 213/252/228 212/250/228 227/257/228 228/259/228
f 206/253/229 205/251/229 220/258/229 221/260/229
f 214/237/230 213/252/230 228/259/230 229/261/230
f 207/239/231 206/253/231 221/260/231 222/262/231
f 215/238/232 214/237/232 229/261/232 230/263/232
f 208/240/233 207/239/233 222/262/233 223/264/233
f 216/241/234 215/238/234 230/263/234 231/265/234
f 209/242/235 208/240/235 223/264/235 224/266/235
f 217/243/236 216/241/236 231/265/236 232/267/236
f 210/244/237 209/242/237 224/266/237 225/268/237
f 203/246/238 82/269/238 218/254/238
f 308/270/239 217/243/239 232/267/239
f 211/248/240 210/244/240 225/268/240 226/256/240
f 223/264/241 222/262/241 237/271/241 238/272/241
f 231/265/242 230/263/242 245/273/242 246/274/242
f 224/266/243 223/264/243 238/272/243 239/275/243
f 232/267/244 231/265/244 246/274/244 247/276/244
f 225/268/245 224/266/245 239/275/245 240/277/245
f 218/254/246 82/278/246 233/279/246
f 308/280/247 232/267/247 247/276/247
f 226/256/248 225/268/248 240/277/248 241/281/248
f 219/255/249 218/254/249 233/279/249 234/282/249
f 227/257/250 226/256/250 241/281/250 242/283/250
f 220/258/251 219/255/251 234/282/251 235/284/251
f 228/259/252 227/257/252 242/283/252 243/285/252
f 221/260/253 220/258/253 235/284/253 236/286/253
f 229/261/254 228/259/254 243/285/254 244/287/254
f 222/262/255 221/260/255 236/286/255 237/271/255
f 230/263/256 229/261/256 244/287/256 245/273/256
f 242/283/257 241/281/257 256/288/257 257/289/257
f 235/284/258 234/282/258 249/290/258 250/291/258
f 243/285/259 242/283/259 257/289/259 258/292/259
f 236/286/260 235/284/260 250/291/260 251/293/260
f 244/287/261 243/285/261 258/292/261 259/294/261
f 237/271/262 236/286/262 251/293/262 252/295/262
f 245/273/263 244/287/263 259/294/263 260/296/263
f 238/272/264 237/271/264 252/295/264 253/297/264
f 246/274/265 245/273/265 260/296/265 261/298/265
f 239/275/266 238/272/266 253/297/266 254/299/266
f 247/276/267 246/274/267 261/298/267 262/300/267
f 240/277/268 239/275/268 254/299/268 255/301/268
f 233/279/269 82/302/269 248/303/269
f 308/304/270 247/276/270 262/300/270
f 241/281/271 240/277/271 255/301/271 256/288/271
f 234/282/272 233/279/272 248/303/272 249/290/272
f 261/298/273 260/296/273 275/305/273 276/306/273
f 254/299/274 253/297/274 268/307/274 269/308/274
f 262/300/275 261/298/275 276/306/275 277/309/275
f 255/301/276 254/299/276 269/308/276 270/310/276
f 248/303/277 82/311/277 263/312/277
f 308/313/278 262/300/278 277/309/278
f 256/288/279 255/301/279 270/310/279 271/314/279
f 249/290/280 248/303/280 263/312/280 264/315/280
f 257/289/281 256/288/281 271/314/281 272/316/281
f 250/291/282 249/290/282 264/315/282 265/317/282
f 258/292/283 257/289/283 272/316/283 273/318/283
f 251/293/284 250/291/284 265/317/284 266/319/284
f 259/294/285 258/292/285 273/318/285 274/320/285
f 252/295/286 251/293/286 266/319/286 267/321/286
f 260/296/287 259/294/287 274/320/287 275/305/287
f 253/297/288 252/295/288 267/321/288 268/307/288
f 265/317/289 264/315/289 279/322/289 280/323/289
f 273/318/290 272/316/290 287/324/290 288/325/290
f 266/319/291 265/317/291 280/323/291 281/326/291
f 274/320/292 273/318/292 288/325/292 289/327/292
f 267/321/293 266/319/293 281/326/293 282/328/293
f 275/305/294 274/320/294 289/327/294 290/329/294
f 268/307/295 267/321/295 282/328/295 283/330/295
f 276/306/296 275/305/296 290/329/296 291/331/296
f 269/308/297 268/307/297 283/330/297 284/332/297
f 277/309/298 276/306/298 291/331/298 292/333/298
f 270/310/299 269/308/299 284/332/299 285/334/299
f 263/312/300 82/335/300 278/336/300
f 308/337/301 277/309/301 292/333/301
f 271/314/302 270/310/302 285/334/302 286/338/302
f 264/315/303 263/312/303 278/336/303 279/322/303
f 272/316/304 271/314/304 286/338/304 287/324/304
f 284/332/305 283/330/305 298/339/305 299/340/305
f 292/333/306 291/331/306 306/341/306 307/342/306
f 285/334/307 284/332/307 299/340/307 300/343/307
f 278/336/308 82/344/308 293/345/308
f 308/346/309 292/333/309 307/342/309
f 286/338/310 285/334/310 300/343/310 301/347/310
f 279/322/311 278/336/311 293/345/311 294/348/311
f 287/324/312 286/338/312 301/347/312 302/349/312
f 280/323/313 279/322/313 294/348/313 295/350/313
f 288/325/314 287/324/314 302/349/314 303/351/314
f 281/326/315 280/323/315 295/350/315 296/352/315
f 289/327/316 288/325/316 303/351/316 304/353/316
f 282/328/317 281/326/317 296/352/317 297/354/317
f 290/329/318 289/327/318 304/353/318 305/355/318
f 283/330/319 282/328/319 297/354/319 298/339/319
f 291/331/320 290/329/320 305/355/320 306/341/320
f 303/351/321 302/349/321 318/356/321 319/357/321
f 296/352/322 295/350/322 311/358/322 312/359/322
f 304/353/323 303/351/323 319/357/323 320/360/323
f 297/354/324 296/352/324 312/359/324 313/361/324
f 305/355/325 304/353/325 320/360/325 321/362/325
f 298/339/326 297/354/326 313/361/326 314/363/326
f 306/341/327 305/355/327 321/362/327 322/364/327
f 299/340/328 298/339/328 314/363/328 315/365/328
f 307/342/329 306/341/329 322/364/329 323/366/329
f 300/343/330 299/340/330 315/365/330 316/367/330
f 293/345/331 82/368/331 309/369/331
f 308/370/332 307/342/332 323/366/332
f 301/347/333 300/343/333 316/367/333 317/371/333
f 294/348/334 293/345/334 309/369/334 310/372/334
f 302/349/335 301/347/335 317/371/335 318/356/335
f 295/350/336 294/348/336 310/372/336 311/358/336
f 323/366/337 322/364/337 337/373/337 338/374/337
f 316/367/338 315/365/338 330/375/338 331/376/338
f 309/369/339 82/377/339 324/378/339
f 308/379/340 323/366/340 338/374/340
f 317/371/341 316/367/341 331/376/341 332/380/341
f 310/372/342 309/369/342 324/378/342 325/381/342
f 318/356/343 317/371/343 332/380/343 333/382/343
f 311/358/344 310/372/344 325/381/344 326/383/344
f 319/357/345 318/356/345 333/382/345 334/384/345
f 312/359/346 311/358/346 326/383/346 327/385/346
f 320/360/347 319/357/347 334/384/347 335/386/347
f 313/361/348 312/359/348 327/385/348 328/387/348
f 321/362/349 320/360/349 335/386/349 336/388/349
f 314/363/350 313/361/350 328/387/350 329/389/350
f 322/364/351 321/362/351 336/388/351 337/373/351
f 315/365/352 314/363/352 329/389/352 330/375/352
f 335/386/353 334/384/353 349/390/353 350/391/353
f 328/387/354 327/385/354 342/392/354 343/393/354
f 336/388/355 335/386/355 350/391/355 351/394/355
f 329/389/356 328/387/356 343/393/356 344/395/356
f 337/373/357 336/388/357 351/394/357 352/396/357
f 330/375/358 329/389/358 344/395/358 345/397/358
f 338/374/359 337/373/359 352/396/359 353/398/359
f 331/376/360 330/375/360 345/397/360 346/399/360
f 324/378/361 82/400/361 339/401/361
f 308/402/362 338/374/362 353/398/362
f 332/380/363 331/376/363 346/399/363 347/403/363
f 325/381/364 324/378/364 339/401/364 340/404/364
f 333/382/365 332/380/365 347/403/365 348/405/365
f 326/383/366 325/381/366 340/404/366 341/406/366
f 334/384/367 333/382/367 348/405/367 349/390/367
f 327/385/368 326/383/368 341/406/368 342/392/368
f 339/401/369 82/407/369 354/408/369
f 308/409/370 353/398/370 368/410/370
f 347/403/371 346/399/371 361/411/371 362/412/371
f 340/404/372 339/401/372 354/408/372 355/413/372
f 348/405/373 347/403/373 362/412/373 363/414/373
f 341/406/374 340/404/374 355/413/374 356/415/374
f 349/390/375 348/405/375 363/414/375 364/416/375
f 342/392/376 341/406/376 356/415/376 357/417/376
f 350/391/377 349/390/377 364/416/377 365/418/377
f 343/393/378 342/392/378 357/417/378 358/419/378
f 351/394/379 350/391/379 365/418/379 366/420/379
f 344/395/380 343/393/380 358/419/380 359/421/380
f 352/396/381 351/394/381 366/420/381 367/422/381
f 345/397/382 344/395/382 359/421/382 360/423/382
f 353/398/383 352/396/383 367/422/383 368/410/383
f 346/399/384 345/397/384 360/423/384 361/411/384
f 358/424/385 357/425/385 372/426/385 373/427/385
f 366/428/386 365/429/387 380/430/388 381/431/386
f 359/432/389 358/424/389 373/427/389 374/433/389
f 367/434/390 366/428/390 381/431/390 382/435/390
f 360/436/391 359/432/391 374/433/391 375/437/391
f 368/438/392 367/434/392 382/435/392 383/439/392
f 361/440/393 360/436/393 375/437/393 376/441/393
f 354/442/394 82/443/394 369/444/394
f 308/445/395 368/438/395 383/439/395
f 362/446/396 361/440/396 376/441/396 377/447/396
f 355/448/397 354/442/397 369/444/397 370/449/397
f 363/450/398 362/446/398 377/447/398 378/451/398
f 356/452/399 355/448/399 370/449/399 371/453/399
f 364/454/400 363/450/401 378/451/401 379/455/402
f 357/425/403 356/452/403 371/453/403 372/426/403
f 365/429/387 364/454/400 379/455/402 380/430/388
f 377/447/404 376/441/404 391/456/404 392/457/404
f 370/449/405 369/444/405 384/458/405 385/459/405
f 378/451/406 377/447/406 392/457/406 393/460/406
f 371/453/407 370/449/407 385/459/407 386/461/407
f 379/455/408 378/451/408 393/460/408 394/462/408
f 372/426/409 371/453/409 386/461/409 387/463/409
f 380/430/410 379/455/410 394/462/410 395/464/410
f 373/427/411 372/426/411 387/463/411 388/465/411
f 381/431/412 380/430/412 395/464/412 396/466/412
f 374/433/413 373/427/413 388/465/413 389/467/413
f 382/435/414 381/431/414 396/466/414 397/468/414
f 375/437/415 374/433/415 389/467/415 390/469/415
f 383/439/416 382/435/416 397/468/416 398/470/416
f 376/441/417 375/437/417 390/469/417 391/456/417
f 369/444/418 82/471/418 384/458/418
f 308/472/419 383/439/419 398/470/419
f 396/466/420 395/464/420 410/473/420 411/474/420
f 389/467/421 388/465/421 403/475/421 404/476/421
f 397/468/422 396/466/422 411/474/422 412/477/422
f 390/469/423 389/467/423 404/476/423 405/478/423
f 398/470/424 397/468/424 412/477/424 413/479/424
f 391/456/425 390/469/425 405/478/425 406/480/425
f 384/458/426 82/481/426 399/482/426
f 308/483/427 398/470/427 413/479/427
f 392/457/428 391/456/428 406/480/428 407/484/428
f 385/459/429 384/458/429 399/482/429 400/485/429
f 393/460/430 392/457/430 407/484/430 408/486/430
f 386/461/431 385/459/431 400/485/431 401/487/431
f 394/462/432 393/460/432 408/486/432 409/488/432
f 387/463/433 386/461/433 401/487/433 402/489/433
f 395/464/434 394/462/434 409/488/434 410/473/434
f 388/465/435 387/463/435 402/489/435 403/475/435
f 400/485/436 399/482/436 414/490/436 415/491/436
f 408/486/437 407/484/437 422/492/437 423/493/437
f 401/487/438 400/485/438 415/491/438 416/494/438
f 409/488/439 408/486/439 423/493/439 424/495/439
f 402/489/440 401/487/440 416/494/440 417/496/440
f 410/473/441 409/488/441 424/495/441 425/497/441
f 403/475/442 402/489/442 417/496/442 418/498/442
f 411/474/443 410/473/443 425/497/443 426/499/443
f 404/476/444 403/475/444 418/498/444 419/500/444
f 412/477/445 411/474/445 426/499/445 427/501/445
f 405/478/446 404/476/446 419/500/446 420/502/446
f 413/479/447 412/477/447 427/501/447 428/503/447
f 406/480/448 405/478/448 420/502/448 421/504/448
f 399/482/449 82/505/449 414/490/449
f 308/506/450 413/479/450 428/503/450
f 407/484/451 406/480/451 421/504/451 422/492/451
f 419/500/452 418/498/452 433/507/452 434/508/452
f 427/501/453 426/499/453 441/509/453 442/510/453
f 420/502/454 419/500/454 434/508/454 435/511/454
f 428/503/455 427/501/455 442/510/455 443/512/455
f 421/504/456 420/502/456 435/511/456 436/513/456
f 414/490/457 82/514/457 429/515/457
f 308/516/458 428/503/458 443/512/458
f 422/492/459 421/504/459 436/513/459 437/517/459
f 415/491/460 414/490/460 429/515/460 430/518/460
f 423/493/461 422/492/461 437/517/461 438/519/461
f 416/494/462 415/491/462 430/518/462 431/520/462
f 424/495/463 423/493/463 438/519/463 439/521/463
f 417/496/464 416/494/464 431/520/464 432/522/464
f 425/497/465 424/495/465 439/521/465 440/523/465
f 418/498/466 417/496/466 432/522/466 433/507/466
f 426/499/467 425/497/467 440/523/467 441/509/467
f 438/519/468 437/517/468 452/524/468 453/525/468
f 431/520/469 430/518/469 445/526/469 446/527/469
f 439/521/470 438/519/470 453/525/470 454/528/470
f 432/522/471 431/520/471 446/527/471 447/529/471
f 440/523/472 439/521/472 454/528/472 455/530/472
f 433/507/473 432/522/473 447/529/473 448/531/473
f 441/509/474 440/523/474 455/530/474 456/532/474
f 434/508/475 433/507/475 448/531/475 449/533/475
f 442/510/476 441/509/476 456/532/476 457/534/476
f 435/511/477 434/508/477 449/533/477 450/535/477
f 443/512/478 442/510/478 457/534/478 458/536/478
f 436/513/479 435/511/479 450/535/479 451/537/479
f 429/515/480 82/538/480 444/539/480
f 308/540/481 443/512/481 458/536/481
f 437/517/482 436/513/482 451/537/482 452/524/482
f 430/518/483 429/515/483 444/539/483 445/526/483
f 457/534/484 456/532/484 471/541/484 472/542/484
f 450/535/485 449/533/485 464/543/485 465/544/485
f 458/536/486 457/534/486 472/542/486 473/545/486
f 451/537/487 450/535/487 465/544/487 466/546/487
f 444/539/488 82/547/488 459/548/488
f 308/549/489 458/536/489 473/545/489
f 452/524/490 451/537/490 466/546/490 467/550/490
f 445/526/491 444/539/491 459/548/491 460/551/491
f 453/525/492 452/524/492 467/550/492 468/552/492
f 446/527/493 445/526/493 460/551/493 461/553/493
f 454/528/494 453/525/494 468/552/494 469/554/494
f 447/529/495 446/527/495 461/553/495 462/555/495
f 455/530/496 454/528/496 469/554/496 470/556/496
f 448/531/497 447/529/497 462/555/497 463/557/497
f 456/532/498 455/530/498 470/556/498 471/541/498
f 449/533/499 448/531/499 463/557/499 464/543/499
f 469/554/500 468/552/500 478/6/500 6/5/500
f 462/555/501 461/553/501 1/1/501 476/9/501
f 470/556/502 469/554/502 6/5/502 479/11/502
f 463/557/503 462/555/503 476/9/503 2/13/503
f 471/541/504 470/556/504 479/11/504 480/15/504
f 464/543/505 463/557/505 2/13/505 477/17/505
f 472/542/506 471/541/506 480/15/506 481/19/506
f 465/544/507 464/543/507 477/17/507 3/21/507
f 473/545/508 472/542/508 481/19/508 482/23/508
f 466/546/509 465/544/509 3/21/509 4/25/509
f 459/548/510 82/558/510 474/27/510
f 308/559/511 473/545/511 482/23/511
f 467/550/512 466/546/512 4/25/512 5/31/512
f 460/551/513 459/548/513 474/27/513 475/2/513
f 468/552/514 467/550/514 5/31/514 478/6/514
f 461/553/515 460/551/515 475/2/515 1/1/515
