# Blender 4.4.0
# www.blender.org
mtllib zonbi.mtl
o 立方体
v -0.159975 -0.157401 0.091628
v -0.135362 0.579830 0.036376
v -0.135362 -0.161058 -0.140249
v -0.135362 0.579830 0.007446
v 0.135362 -0.161058 0.089313
v 0.135362 0.579830 0.044281
v 0.135362 -0.161058 -0.140249
v 0.137104 0.579830 0.006516
v 0.000000 -0.161058 -0.140249
v 0.000000 0.579830 -0.140249
v 0.000000 -0.161058 0.140249
v 0.000000 0.579830 0.140249
v 0.069423 0.579830 -0.109688
v 0.020425 -0.161058 0.089313
v 0.020425 -0.161058 -0.140249
v 0.067681 0.579830 0.107336
v -0.020425 -0.161058 -0.140249
v -0.067681 0.579830 0.105121
v -0.067681 0.579830 -0.107337
v -0.045038 -0.157401 0.091628
v -0.135362 0.209386 0.140249
v -0.135362 0.209386 -0.140249
v 0.135362 0.209386 -0.140249
v 0.135362 0.209386 0.140249
v 0.000000 0.209386 0.140249
v 0.000000 0.209386 -0.140249
v 0.067681 0.209386 0.140249
v 0.067681 0.209386 -0.140249
v -0.067681 0.209386 -0.140249
v -0.067681 0.209386 0.140249
v -0.135362 0.513610 0.070741
v -0.135362 0.513610 -0.073184
v 0.137104 0.513517 -0.081409
v 0.135362 0.513517 0.064484
v 0.000000 0.394608 0.140249
v 0.000000 0.394608 -0.140249
v 0.067681 0.394608 0.107336
v 0.069423 0.394608 -0.109688
v -0.067681 0.394608 -0.107337
v -0.067681 0.394608 0.105121
v -0.135362 0.024164 -0.140249
v 0.135362 0.024164 -0.140249
v 0.135362 0.024164 0.140249
v 0.000000 0.024164 0.140249
v 0.000000 0.024164 -0.140249
v 0.067681 0.024164 0.140249
v 0.067681 0.024164 -0.140249
v -0.067681 0.024164 -0.140249
v -0.067681 0.024164 0.140249
v -0.135362 0.024164 0.140249
v -0.676628 0.513610 0.105869
v -0.676628 0.579830 0.071504
v -0.676628 0.579830 -0.025466
v -0.676628 0.513610 -0.106097
v 0.669683 0.579830 -0.008936
v 0.669683 0.579830 0.046967
v 0.669683 0.513517 -0.111972
v 0.669683 0.513517 0.082807
v 0.135362 -0.673597 0.089313
v 0.135362 -0.673597 -0.140249
v 0.020425 -0.673597 0.089313
v 0.020425 -0.673597 -0.140249
v -0.135362 -0.669396 -0.140249
v -0.159975 -0.665739 0.091628
v -0.020425 -0.669396 -0.140249
v -0.045038 -0.665739 0.091628
v 0.135362 -0.764342 0.140249
v 0.135362 -0.764342 -0.140249
v 0.020425 -0.764342 0.140249
v 0.020425 -0.764342 -0.140249
v -0.135362 -0.760140 -0.140249
v -0.135362 -0.760140 0.140249
v -0.020425 -0.760140 -0.140249
v -0.020425 -0.760140 0.140249
v 0.020425 -0.673597 0.253995
v 0.135362 -0.673597 0.253995
v 0.020425 -0.764342 0.253995
v 0.135362 -0.764342 0.253995
v -0.135362 -0.669396 0.140249
v -0.020425 -0.669396 0.140249
v -0.135362 -0.760140 0.140249
v -0.020425 -0.760140 0.140249
v -0.135362 -0.669396 0.253995
v -0.020425 -0.669396 0.253995
v -0.135362 -0.760140 0.253995
v -0.020425 -0.760140 0.253995
v 0.135362 0.513517 -0.000000
v 0.669683 0.513517 -0.000000
v -0.135362 0.579830 0.010506
v 0.135362 -0.161058 -0.070124
v -0.135362 0.209386 -0.070124
v -0.135362 0.513610 -0.070124
v -0.135362 0.024164 -0.070124
v -0.676628 0.579830 0.010506
v -0.676628 0.513610 -0.070124
v 0.135362 -0.673597 -0.070124
v 0.135362 -0.764342 -0.070124
v -0.135362 -0.161058 -0.070124
v 0.135362 0.579830 -0.001758
v 0.000000 0.614290 -0.070124
v 0.000000 -0.161058 -0.070124
v 0.042863 0.614290 -0.070124
v 0.020425 -0.161058 -0.070124
v -0.020425 -0.161058 -0.070124
v -0.042863 0.614290 -0.070124
v 0.135362 0.209386 -0.070124
v 0.135362 0.513517 -0.070124
v 0.135362 0.024164 -0.070124
v 0.669683 0.579830 -0.001758
v 0.669683 0.513517 -0.070124
v 0.020425 -0.673597 -0.070124
v -0.135362 -0.669396 -0.070124
v -0.020425 -0.669396 -0.070124
v 0.020425 -0.764342 -0.070124
v -0.135362 -0.760140 -0.070124
v -0.020425 -0.760140 -0.070124
v -0.135362 -0.161058 0.070124
v 0.135362 0.579830 0.040693
v 0.000000 0.614290 0.070124
v 0.000000 -0.161058 0.070124
v 0.042863 0.614290 0.070124
v 0.020425 -0.161058 0.070124
v -0.020425 -0.161058 0.070124
v -0.042863 0.614290 0.070124
v 0.135362 0.209386 0.070124
v 0.135362 0.513517 0.070124
v 0.135362 0.024164 0.070124
v 0.669683 0.579830 0.040693
v 0.669683 0.513517 0.070124
v 0.020425 -0.673597 0.070124
v -0.135362 -0.669396 0.070124
v -0.020425 -0.669396 0.070124
v 0.020425 -0.764342 0.070124
v -0.135362 -0.760140 0.070124
v -0.020425 -0.760140 0.070124
v -0.135362 0.579830 0.035760
v 0.135362 -0.161058 0.070124
v -0.135362 0.209386 0.070124
v -0.135362 0.513610 0.070124
v -0.135362 0.024164 0.070124
v -0.676628 0.579830 0.035760
v -0.676628 0.513610 0.070124
v 0.135362 -0.673597 0.070124
v 0.135362 -0.764342 0.070124
v 0.000000 0.763066 -0.070124
v 0.042863 0.763066 -0.070124
v -0.042863 0.763066 -0.070124
v 0.000000 0.763066 0.070124
v 0.042863 0.763066 0.070124
v -0.042863 0.763066 0.070124
v 0.135648 1.096915 -0.183058
v 0.135648 0.833982 -0.183058
v 0.135648 1.096915 0.183058
v 0.135648 0.833982 0.183058
v -0.135648 1.096915 -0.183058
v -0.135648 0.833982 -0.183058
v -0.135648 1.096915 0.183058
v -0.135648 0.833982 0.183058
v -0.155434 0.814806 -0.108608
v -0.165373 0.805173 -0.000000
v -0.155434 0.814806 0.108608
v 0.080480 0.814806 -0.209760
v 0.000000 0.805173 -0.223172
v -0.080480 0.814806 -0.209760
v 0.155434 1.043447 -0.209760
v 0.165373 0.965449 -0.223172
v 0.155434 0.887449 -0.209760
v -0.155434 0.887449 0.209760
v -0.165373 0.965449 0.223172
v -0.155434 1.043447 0.209760
v 0.155434 1.043447 0.209760
v 0.165373 0.965449 0.223172
v 0.155434 0.887449 0.209760
v -0.155434 1.043447 -0.209760
v -0.165373 0.965449 -0.223172
v -0.155434 0.887449 -0.209760
v 0.080480 1.116091 0.209760
v 0.000000 1.125724 0.223172
v -0.080480 1.116091 0.209760
v 0.155434 1.116091 -0.108608
v 0.165373 1.125724 -0.000000
v 0.155434 1.116091 0.108608
v -0.080480 0.814806 0.209760
v 0.000000 0.805173 0.223172
v 0.080480 0.814806 0.209760
v -0.155434 1.116091 0.108608
v -0.165373 1.125724 -0.000000
v -0.155434 1.116091 -0.108608
v -0.080480 1.116091 -0.209760
v 0.000000 1.125724 -0.223172
v 0.080480 1.116091 -0.209760
v 0.155434 0.814806 0.108608
v 0.165373 0.805173 -0.000000
v 0.155434 0.814806 -0.108608
v 0.085772 1.157124 -0.115750
v 0.000000 1.171017 -0.121968
v -0.085772 1.157124 -0.115750
v 0.090380 1.171017 -0.000000
v 0.000000 1.186182 -0.000000
v -0.090380 1.171017 -0.000000
v 0.085772 1.157124 0.115750
v 0.000000 1.171017 0.121968
v -0.085772 1.157124 0.115750
v 0.085772 0.882321 0.266894
v 0.090380 0.965449 0.286240
v 0.085772 1.048577 0.266895
v 0.000000 0.877855 0.286240
v 0.000000 0.965449 0.307357
v 0.000000 1.053042 0.286240
v -0.085772 0.882321 0.266895
v -0.090380 0.965449 0.286240
v -0.085772 1.048577 0.266894
v -0.197772 0.882321 0.115750
v -0.212107 0.965449 0.121968
v -0.197772 1.048577 0.115750
v -0.212107 0.877855 -0.000000
v -0.227755 0.965449 -0.000000
v -0.212107 1.053042 -0.000000
v -0.197772 0.882321 -0.115750
v -0.212107 0.965449 -0.121968
v -0.197772 1.048577 -0.115750
v -0.085772 0.773773 -0.115750
v 0.000000 0.759880 -0.121968
v 0.085772 0.773773 -0.115750
v -0.090380 0.759880 -0.000000
v 0.000000 0.744715 -0.000000
v 0.090380 0.759880 -0.000000
v -0.085772 0.773773 0.115750
v 0.000000 0.759880 0.121968
v 0.085772 0.773773 0.115750
v 0.197772 0.882321 -0.115750
v 0.212107 0.965449 -0.121968
v 0.197772 1.048577 -0.115750
v 0.212107 0.877855 -0.000000
v 0.227755 0.965449 -0.000000
v 0.212107 1.053042 -0.000000
v 0.197772 0.882321 0.115750
v 0.212107 0.965449 0.121968
v 0.197772 1.048577 0.115750
v -0.085772 0.882321 -0.266894
v -0.090380 0.965449 -0.286240
v -0.085772 1.048577 -0.266895
v 0.000000 0.877855 -0.286240
v 0.000000 0.965449 -0.307357
v 0.000000 1.053042 -0.286240
v 0.085772 0.882321 -0.266895
v 0.090380 0.965449 -0.286240
v 0.085772 1.048577 -0.266894
vn -0.0000 -1.0000 -0.0000
vn 0.5831 0.2681 -0.7669
vn -0.5365 0.1143 0.8361
vn -1.0000 -0.0000 -0.0000
vn -0.4499 0.7777 0.4390
vn 0.1515 0.8473 0.5090
vn -0.0711 -0.9973 0.0207
vn 0.4373 -0.0000 0.8993
vn -0.4373 -0.0000 -0.8993
vn 0.5787 0.0653 0.8129
vn 0.4178 0.8033 0.4243
vn 0.4029 -0.0000 -0.9152
vn -0.6147 0.2409 -0.7511
vn -0.0000 -0.0000 -1.0000
vn -0.1632 0.8423 0.5137
vn -0.4607 -0.0000 0.8876
vn -0.0000 -0.0000 1.0000
vn 1.0000 -0.0000 -0.0000
vn -0.2501 0.0914 0.9639
vn -0.0711 0.1996 -0.9773
vn 0.2169 0.0793 -0.9730
vn 0.1178 0.2153 0.9694
vn -0.2354 0.0860 -0.9681
vn 0.2354 0.0860 0.9681
vn -0.0644 0.2086 0.9759
vn 0.0479 0.1792 -0.9827
vn -0.0000 -0.2587 0.9660
vn 0.4923 -0.1799 0.8516
vn -0.0000 -0.2652 0.9642
vn -0.3959 -0.1447 0.9068
vn 0.0575 0.4599 0.8861
vn -0.0000 1.0000 -0.0000
vn 0.0386 0.7722 -0.6342
vn -0.0246 0.8211 -0.5703
vn -0.0181 0.3892 0.9210
vn 0.9498 0.1913 0.2475
vn 0.6579 -0.0000 0.7531
vn 0.8922 -0.0000 -0.4516
vn -0.8922 -0.0000 0.4516
vn -0.0000 0.9972 0.0750
vn -0.3491 0.9371 -0.0000
vn -0.5534 0.7699 -0.3178
vn 0.1369 0.8534 -0.5030
vn 0.5533 0.7613 -0.3380
vn -0.1515 0.8473 -0.5090
vn 0.9998 -0.0049 0.0214
vn -0.9600 0.0991 -0.2618
vn -0.6579 -0.0000 -0.7531
vn -0.9498 -0.1913 -0.2475
vn 0.3491 0.9371 -0.0000
vn 0.1657 0.9785 -0.1228
vn -0.1657 0.9785 -0.1228
vn 0.1657 0.9785 0.1228
vn -0.1657 0.9785 0.1228
vn 0.4826 0.7995 -0.3576
vn 0.1747 0.8987 -0.4022
vn -0.1747 0.8987 -0.4022
vn -0.4826 0.7995 -0.3576
vn -0.5131 0.8496 -0.1224
vn -0.5131 0.8496 0.1224
vn -0.4826 0.7995 0.3576
vn -0.1747 0.8987 0.4022
vn 0.1747 0.8987 0.4022
vn 0.4826 0.7995 0.3576
vn 0.5131 0.8496 0.1224
vn 0.5131 0.8496 -0.1224
vn 0.2234 -0.2305 0.9471
vn 0.2234 0.2305 0.9471
vn -0.2234 -0.2305 0.9471
vn -0.2234 0.2305 0.9471
vn 0.5360 -0.5531 0.6378
vn 0.6294 -0.2090 0.7485
vn 0.6294 0.2090 0.7485
vn 0.5360 0.5531 0.6378
vn 0.2003 0.6421 0.7400
vn -0.2003 0.6421 0.7400
vn -0.5360 0.5531 0.6378
vn -0.6294 0.2090 0.7485
vn -0.6294 -0.2090 0.7485
vn -0.5360 -0.5531 0.6378
vn -0.2003 -0.6421 0.7400
vn 0.2003 -0.6421 0.7400
vn -0.9762 -0.1761 0.1264
vn -0.9762 0.1761 0.1264
vn -0.9762 -0.1761 -0.1264
vn -0.9762 0.1761 -0.1264
vn -0.7842 -0.5040 0.3619
vn -0.8923 -0.1846 0.4120
vn -0.8923 0.1846 0.4120
vn -0.7842 0.5040 0.3619
vn -0.8347 0.5366 0.1240
vn -0.8347 0.5366 -0.1240
vn -0.7842 0.5040 -0.3619
vn -0.8923 0.1846 -0.4120
vn -0.8923 -0.1846 -0.4120
vn -0.7842 -0.5040 -0.3619
vn -0.8347 -0.5366 -0.1240
vn -0.8347 -0.5366 0.1240
vn -0.1657 -0.9785 -0.1228
vn 0.1657 -0.9785 -0.1228
vn -0.1657 -0.9785 0.1228
vn 0.1657 -0.9785 0.1228
vn -0.4826 -0.7995 -0.3576
vn -0.1747 -0.8988 -0.4022
vn 0.1747 -0.8988 -0.4022
vn 0.4826 -0.7995 -0.3576
vn 0.5130 -0.8496 -0.1223
vn 0.5130 -0.8496 0.1223
vn 0.4826 -0.7995 0.3576
vn 0.1747 -0.8988 0.4022
vn -0.1747 -0.8988 0.4022
vn -0.4826 -0.7995 0.3576
vn -0.5130 -0.8496 0.1223
vn -0.5130 -0.8496 -0.1223
vn 0.9762 -0.1761 -0.1264
vn 0.9762 0.1761 -0.1264
vn 0.9762 -0.1761 0.1264
vn 0.9762 0.1761 0.1264
vn 0.7842 -0.5040 -0.3619
vn 0.8923 -0.1846 -0.4120
vn 0.8923 0.1846 -0.4120
vn 0.7842 0.5040 -0.3619
vn 0.8347 0.5366 -0.1240
vn 0.8347 0.5366 0.1240
vn 0.7842 0.5040 0.3619
vn 0.8923 0.1846 0.4120
vn 0.8923 -0.1846 0.4120
vn 0.7842 -0.5040 0.3619
vn 0.8347 -0.5366 0.1240
vn 0.8347 -0.5366 -0.1240
vn -0.2234 -0.2305 -0.9471
vn -0.2234 0.2305 -0.9471
vn 0.2234 -0.2305 -0.9471
vn 0.2234 0.2305 -0.9471
vn -0.5360 -0.5531 -0.6378
vn -0.6294 -0.2090 -0.7485
vn -0.6294 0.2090 -0.7485
vn -0.5360 0.5531 -0.6378
vn -0.2003 0.6421 -0.7400
vn 0.2003 0.6421 -0.7400
vn 0.5360 0.5531 -0.6378
vn 0.6294 0.2090 -0.7485
vn 0.6294 -0.2090 -0.7485
vn 0.5360 -0.5531 -0.6378
vn 0.2003 -0.6421 -0.7400
vn -0.2003 -0.6421 -0.7400
vt 0.562500 0.062500
vt 0.562500 0.000000
vt 0.562500 0.437500
vt 0.625000 0.437500
vt 0.625000 0.500000
vt 0.562500 0.500000
vt 0.562500 0.562500
vt 0.562500 0.937500
vt 0.625000 0.937500
vt 0.625000 1.000000
vt 0.562500 1.000000
vt 0.312500 0.562500
vt 0.312500 0.500000
vt 0.812500 0.687500
vt 0.875000 0.687500
vt 0.875000 0.750000
vt 0.812500 0.750000
vt 0.687500 0.687500
vt 0.750000 0.687500
vt 0.750000 0.750000
vt 0.687500 0.750000
vt 0.187500 0.687500
vt 0.250000 0.687500
vt 0.250000 0.750000
vt 0.187500 0.750000
vt 0.562500 0.812500
vt 0.625000 0.812500
vt 0.625000 0.875000
vt 0.562500 0.875000
vt 0.562500 0.312500
vt 0.625000 0.312500
vt 0.625000 0.375000
vt 0.562500 0.375000
vt 0.562500 0.750000
vt 0.625000 0.750000
vt 0.625000 0.687500
vt 0.312500 0.687500
vt 0.312500 0.750000
vt 0.562500 0.250000
vt 0.625000 0.250000
vt 0.375000 0.250000
vt 0.375000 0.312500
vt 0.437500 0.875000
vt 0.500000 0.875000
vt 0.500000 0.937500
vt 0.437500 0.937500
vt 0.437500 0.250000
vt 0.500000 0.250000
vt 0.500000 0.312500
vt 0.437500 0.312500
vt 0.437500 0.375000
vt 0.500000 0.375000
vt 0.500000 0.437500
vt 0.437500 0.437500
vt 0.437500 0.750000
vt 0.500000 0.750000
vt 0.500000 0.812500
vt 0.437500 0.812500
vt 0.500000 1.000000
vt 0.437500 1.000000
vt 0.437500 0.687500
vt 0.500000 0.687500
vt 0.500000 0.500000
vt 0.437500 0.500000
vt 0.437500 0.187500
vt 0.500000 0.187500
vt 0.562500 0.687500
vt 0.562500 0.187500
vt 0.375000 0.187500
vt 0.375000 0.437500
vt 0.375000 0.500000
vt 0.375000 0.687500
vt 0.375000 0.750000
vt 0.375000 0.937500
vt 0.375000 1.000000
vt 0.375000 0.812500
vt 0.375000 0.875000
vt 0.375000 0.375000
vt 0.625000 0.187500
vt 0.875000 0.562500
vt 0.875000 0.500000
vt 0.125000 0.687500
vt 0.125000 0.750000
vt 0.375000 0.000000
vt 0.187500 0.562500
vt 0.125000 0.562500
vt 0.375000 0.562500
vt 0.375000 0.062500
vt 0.437500 0.062500
vt 0.625000 0.562500
vt 0.562500 0.625000
vt 0.625000 0.062500
vt 0.500000 0.562500
vt 0.500000 0.062500
vt 0.437500 0.562500
vt 0.250000 0.562500
vt 0.812500 0.562500
vt 0.750000 0.562500
vt 0.687500 0.562500
vt 0.812500 0.500000
vt 0.687500 0.500000
vt 0.750000 0.500000
vt 0.187500 0.500000
vt 0.250000 0.500000
vt 0.125000 0.500000
vt 0.437500 0.000000
vt 0.500000 0.000000
vt 0.625000 0.000000
vt 0.750000 0.625000
vt 0.687500 0.625000
vt 0.812500 0.625000
vt 0.875000 0.625000
vt 0.625000 0.625000
vt 0.500000 0.125000
vt 0.437500 0.125000
vt 0.562500 0.125000
vt 0.625000 0.125000
vt 0.375000 0.125000
vt 0.250000 0.625000
vt 0.187500 0.625000
vt 0.312500 0.625000
vt 0.375000 0.625000
vt 0.125000 0.625000
vt 0.500000 0.625000
vt 0.437500 0.625000
s 1
usemtl マテリアル.001
f 139/1/1 31/2/1 51/2/1 142/1/1
f 38/3/2 13/4/2 8/5/2 33/6/2
f 107/7/1 33/6/1 57/6/1 110/7/1
f 40/8/3 18/9/3 2/10/3 31/11/3
f 103/12/4 15/13/4 62/13/4 111/12/4
f 124/14/5 136/15/5 2/16/5 18/17/5
f 121/18/6 119/19/6 12/20/6 16/21/6
f 123/22/7 120/23/7 11/24/7 20/25/7
f 37/26/8 16/27/8 12/28/8 35/29/8
f 39/30/9 19/31/9 10/32/9 36/33/9
f 34/34/10 6/35/10 16/27/10 37/26/10
f 118/36/11 121/18/11 16/21/11 6/35/11
f 120/23/1 122/37/1 14/38/1 11/24/1
f 36/33/12 10/32/12 13/4/12 38/3/12
f 32/39/13 4/40/13 19/31/13 39/30/13
f 3/41/14 17/42/14 65/42/14 63/41/14
f 119/19/15 124/14/15 18/17/15 12/20/15
f 35/29/16 12/28/16 18/9/16 40/8/16
f 44/43/17 25/44/17 30/45/17 49/46/17
f 41/47/14 22/48/14 29/49/14 48/50/14
f 45/51/14 26/52/14 28/53/14 47/54/14
f 43/55/17 24/56/17 27/57/17 46/58/17
f 48/50/14 29/49/14 26/52/14 45/51/14
f 46/58/17 27/57/17 25/44/17 44/43/17
f 49/46/17 30/45/17 21/59/17 50/60/17
f 127/61/18 125/62/18 24/56/18 43/55/18
f 47/54/14 28/53/14 23/63/14 42/64/14
f 93/65/4 91/66/4 22/48/4 41/47/4
f 25/44/19 35/29/19 40/8/19 30/45/19
f 22/48/20 32/39/20 39/30/20 29/49/20
f 26/52/21 36/33/21 38/3/21 28/53/21
f 24/56/22 34/34/22 37/26/22 27/57/22
f 29/49/23 39/30/23 36/33/23 26/52/23
f 27/57/24 37/26/24 35/29/24 25/44/24
f 30/45/25 40/8/25 31/11/25 21/59/25
f 125/62/18 126/67/18 34/34/18 24/56/18
f 28/53/26 38/3/26 33/6/26 23/63/26
f 91/66/4 92/68/4 32/39/4 22/48/4
f 98/69/4 93/65/4 41/47/4 3/41/4
f 15/70/14 47/54/14 42/64/14 7/71/14
f 137/72/18 127/61/18 43/55/18 5/73/18
f 20/74/27 49/46/27 50/60/27 1/75/27
f 14/76/28 46/58/28 44/43/28 11/77/28
f 17/42/14 48/50/14 45/51/14 9/78/14
f 5/73/29 43/55/29 46/58/29 14/76/29
f 9/78/14 45/51/14 47/54/14 15/70/14
f 3/41/14 41/47/14 48/50/14 17/42/14
f 11/77/30 44/43/30 49/46/30 20/74/30
f 95/68/4 94/79/4 53/40/4 54/39/4
f 31/11/31 2/10/31 52/10/31 51/11/31
f 89/80/32 4/81/32 53/81/32 94/80/32
f 4/40/33 32/39/33 54/39/33 53/40/33
f 129/67/18 128/36/18 56/35/18 58/34/18
f 33/6/34 8/5/34 55/5/34 57/6/34
f 118/36/32 6/35/32 56/35/32 128/36/32
f 6/35/35 34/34/35 58/34/35 56/35/35
f 62/70/14 60/71/14 68/71/14 70/70/14
f 15/70/14 7/71/14 60/71/14 62/70/14
f 137/72/18 5/73/18 59/73/18 143/72/18
f 5/73/17 14/76/17 61/76/17 59/73/17
f 132/22/36 66/25/36 74/25/36 135/22/36
f 98/69/4 3/41/4 63/41/4 112/69/4
f 123/22/37 20/25/37 66/25/37 132/22/37
f 20/74/17 1/75/17 64/75/17 66/74/17
f 133/37/1 144/72/1 67/73/1 69/38/1
f 143/72/18 59/73/18 67/73/18 144/72/18
f 111/12/4 62/13/4 70/13/4 114/12/4
f 69/38/1 67/73/1 78/73/1 77/38/1
f 134/82/1 135/22/1 74/25/1 72/83/1
f 63/41/14 65/42/14 73/42/14 71/41/14
f 74/25/38 66/25/38 80/25/38 82/25/38
f 112/69/4 63/41/4 71/41/4 115/69/4
f 76/73/17 75/76/17 77/76/17 78/73/17
f 67/73/18 59/73/18 76/73/18 78/73/18
f 59/73/32 61/76/32 75/76/32 76/73/32
f 61/38/4 69/38/4 77/38/4 75/38/4
f 82/25/18 80/25/18 84/25/18 86/25/18
s 0
f 72/83/32 74/25/14 82/25/32 81/83/14
s 1
f 64/84/39 72/84/39 81/84/39 79/84/39
f 66/74/40 64/75/40 79/75/40 80/74/40
f 84/74/17 83/75/17 85/75/17 86/74/17
f 80/74/32 79/75/32 83/75/32 84/74/32
f 79/84/4 81/84/4 85/84/4 83/84/4
f 81/83/1 82/25/1 86/25/1 85/83/1
f 116/85/1 135/22/1 134/82/1 115/86/1
f 111/12/4 114/12/4 133/37/4 130/37/4
f 143/72/18 144/72/18 97/87/18 96/87/18
f 144/72/1 133/37/1 114/12/1 97/87/1
f 104/85/18 123/22/18 132/22/18 113/85/18
f 98/69/4 112/69/4 131/88/4 117/88/4
f 113/85/18 132/22/18 135/22/18 116/85/18
f 137/72/18 143/72/18 96/87/18 90/87/18
f 140/89/4 93/65/4 98/69/4 117/88/4
f 109/90/18 128/36/18 129/67/18 88/91/18 110/7/18
f 141/92/4 94/79/4 95/68/4 142/1/4
f 87/91/18 126/67/18 125/62/18 106/93/18 107/7/18
f 112/69/4 115/69/4 134/88/4 131/88/4
f 139/1/4 92/68/4 91/66/4 138/94/4
f 138/94/4 91/66/4 93/65/4 140/89/4
f 106/93/18 125/62/18 127/61/18 108/95/18
f 103/12/1 122/37/1 120/23/1 101/96/1
f 108/95/18 127/61/18 137/72/18 90/87/18
f 136/15/41 124/14/41 105/97/41 89/80/41
f 101/96/1 120/23/1 123/22/1 104/85/1
f 100/98/14 105/97/14 147/97/14 145/98/14
f 103/12/4 111/12/4 130/37/4 122/37/4
f 121/18/18 102/99/18 146/99/18 149/18/18
f 136/15/32 89/80/32 94/80/32 141/15/32
f 139/1/1 142/1/1 95/68/1 92/68/1
f 126/67/1 87/91/1 88/91/1 129/67/1
f 32/39/1 92/68/1 95/68/1 54/39/1
f 19/100/42 4/81/42 89/80/42 105/97/42
f 13/101/43 10/102/43 100/98/43 102/99/43
f 17/103/1 9/104/1 101/96/1 104/85/1
f 8/5/44 13/101/44 102/99/44 99/90/44
f 9/104/1 15/13/1 103/12/1 101/96/1
f 10/102/45 19/100/45 105/97/45 100/98/45
f 42/64/18 23/63/18 106/93/18 108/95/18
f 23/63/46 33/6/46 107/7/46 106/93/46
f 7/71/18 42/64/18 108/95/18 90/87/18
f 57/6/18 55/5/18 109/90/18 110/7/18
f 8/5/1 99/90/1 109/90/1 55/5/1
f 7/71/18 90/87/18 96/87/18 60/71/18
f 65/103/18 113/85/18 116/85/18 73/103/18
f 17/103/18 104/85/18 113/85/18 65/103/18
f 70/13/1 68/71/1 97/87/1 114/12/1
f 60/71/18 96/87/18 97/87/18 68/71/18
f 71/105/1 73/103/1 116/85/1 115/86/1
f 87/91/1 107/7/1 110/7/1 88/91/1
f 34/34/1 126/67/1 129/67/1 58/34/1
f 14/38/4 122/37/4 130/37/4 61/38/4
f 50/106/4 21/107/4 138/94/4 140/89/4
f 21/107/4 31/2/4 139/1/4 138/94/4
f 1/84/47 50/106/47 140/89/47 117/88/47
f 51/2/4 52/108/4 141/92/4 142/1/4
f 2/16/32 136/15/32 141/15/32 52/16/32
f 1/84/48 117/88/48 131/88/48 64/84/48
f 61/38/4 130/37/4 133/37/4 69/38/4
f 64/84/49 131/88/49 134/88/49 72/84/49
f 99/90/32 118/36/32 128/36/32 109/90/32
f 102/99/50 121/18/50 118/36/50 99/90/50
f 145/98/32 148/19/32 149/18/32 146/99/32
f 147/97/32 150/14/32 148/19/32 145/98/32
f 119/19/17 121/18/17 149/18/17 148/19/17
f 102/99/14 100/98/14 145/98/14 146/99/14
f 105/97/4 124/14/4 150/14/4 147/97/4
f 124/14/17 119/19/17 148/19/17 150/14/17
usemtl Material.001
f 195/99/51 196/98/51 199/109/51 198/110/51
f 196/98/52 197/97/52 200/111/52 199/109/52
f 198/110/53 199/109/53 202/19/53 201/18/53
f 199/109/54 200/111/54 203/14/54 202/19/54
f 151/5/55 191/101/55 195/99/55 180/90/55
f 191/101/56 190/102/56 196/98/56 195/99/56
f 190/102/57 189/100/57 197/97/57 196/98/57
f 189/100/58 155/81/58 188/80/58 197/97/58
f 197/97/59 188/80/59 187/112/59 200/111/59
f 200/111/60 187/112/60 186/15/60 203/14/60
f 203/14/61 186/15/61 157/16/61 179/17/61
f 202/19/62 203/14/62 179/17/62 178/20/62
f 201/18/63 202/19/63 178/20/63 177/21/63
f 182/36/64 201/18/64 177/21/64 153/35/64
f 181/113/65 198/110/65 201/18/65 182/36/65
f 180/90/66 195/99/66 198/110/66 181/113/66
f 204/58/67 205/57/67 208/44/67 207/43/67
f 205/57/68 206/26/68 209/29/68 208/44/68
f 207/43/69 208/44/69 211/45/69 210/46/69
f 208/44/70 209/29/70 212/8/70 211/45/70
f 154/73/71 173/55/71 204/58/71 185/76/71
f 173/55/72 172/56/72 205/57/72 204/58/72
f 172/56/73 171/34/73 206/26/73 205/57/73
f 171/34/74 153/35/74 177/27/74 206/26/74
f 206/26/75 177/27/75 178/28/75 209/29/75
f 209/29/76 178/28/76 179/9/76 212/8/76
f 212/8/77 179/9/77 157/10/77 170/11/77
f 211/45/78 212/8/78 170/11/78 169/59/78
f 210/46/79 211/45/79 169/59/79 168/60/79
f 183/74/80 210/46/80 168/60/80 158/75/80
f 184/77/81 207/43/81 210/46/81 183/74/81
f 185/76/82 204/58/82 207/43/82 184/77/82
f 213/89/83 214/94/83 217/114/83 216/115/83
f 214/94/84 215/1/84 218/116/84 217/114/84
f 216/115/85 217/114/85 220/66/85 219/65/85
f 217/114/86 218/116/86 221/68/86 220/66/86
f 158/84/87 168/106/87 213/89/87 161/88/87
f 168/106/88 169/107/88 214/94/88 213/89/88
f 169/107/89 170/2/89 215/1/89 214/94/89
f 170/2/90 157/108/90 186/92/90 215/1/90
f 215/1/91 186/92/91 187/117/91 218/116/91
f 218/116/92 187/117/92 188/79/92 221/68/92
f 221/68/93 188/79/93 155/40/93 174/39/93
f 220/66/94 221/68/94 174/39/94 175/48/94
f 219/65/95 220/66/95 175/48/95 176/47/95
f 159/69/96 219/65/96 176/47/96 156/41/96
f 160/118/97 216/115/97 219/65/97 159/69/97
f 161/88/98 213/89/98 216/115/98 160/118/98
f 222/85/99 223/96/99 226/119/99 225/120/99
f 223/96/100 224/12/100 227/121/100 226/119/100
f 225/120/101 226/119/101 229/23/101 228/22/101
f 226/119/102 227/121/102 230/37/102 229/23/102
f 156/105/103 164/103/103 222/85/103 159/86/103
f 164/103/104 163/104/104 223/96/104 222/85/104
f 163/104/105 162/13/105 224/12/105 223/96/105
f 162/13/106 152/71/106 194/87/106 224/12/106
f 224/12/107 194/87/107 193/122/107 227/121/107
f 227/121/108 193/122/108 192/72/108 230/37/108
f 230/37/109 192/72/109 154/73/109 185/38/109
f 229/23/110 230/37/110 185/38/110 184/24/110
f 228/22/111 229/23/111 184/24/111 183/25/111
f 161/82/112 228/22/112 183/25/112 158/83/112
f 160/123/113 225/120/113 228/22/113 161/82/113
f 159/86/114 222/85/114 225/120/114 160/123/114
f 231/95/115 232/93/115 235/124/115 234/125/115
f 232/93/116 233/7/116 236/91/116 235/124/116
f 234/125/117 235/124/117 238/62/117 237/61/117
f 235/124/118 236/91/118 239/67/118 238/62/118
f 152/71/119 167/64/119 231/95/119 194/87/119
f 167/64/120 166/63/120 232/93/120 231/95/120
f 166/63/121 165/6/121 233/7/121 232/93/121
f 165/6/122 151/5/122 180/90/122 233/7/122
f 233/7/123 180/90/123 181/113/123 236/91/123
f 236/91/124 181/113/124 182/36/124 239/67/124
f 239/67/125 182/36/125 153/35/125 171/34/125
f 238/62/126 239/67/126 171/34/126 172/56/126
f 237/61/127 238/62/127 172/56/127 173/55/127
f 192/72/128 237/61/128 173/55/128 154/73/128
f 193/122/129 234/125/129 237/61/129 192/72/129
f 194/87/130 231/95/130 234/125/130 193/122/130
f 240/50/131 241/49/131 244/52/131 243/51/131
f 241/49/132 242/30/132 245/33/132 244/52/132
f 243/51/133 244/52/133 247/53/133 246/54/133
f 244/52/134 245/33/134 248/3/134 247/53/134
f 156/41/135 176/47/135 240/50/135 164/42/135
f 176/47/136 175/48/136 241/49/136 240/50/136
f 175/48/137 174/39/137 242/30/137 241/49/137
f 174/39/138 155/40/138 189/31/138 242/30/138
f 242/30/139 189/31/139 190/32/139 245/33/139
f 245/33/140 190/32/140 191/4/140 248/3/140
f 248/3/141 191/4/141 151/5/141 165/6/141
f 247/53/142 248/3/142 165/6/142 166/63/142
f 246/54/143 247/53/143 166/63/143 167/64/143
f 162/70/144 246/54/144 167/64/144 152/71/144
f 163/78/145 243/51/145 246/54/145 162/70/145
f 164/42/146 240/50/146 243/51/146 163/78/146
