# Blender 4.4.0
# www.blender.org
mtllib deathText.mtl
o テキスト.001
v -4.234824 2.356525 0.206759
v -4.620209 2.333205 0.213510
v -4.968580 2.266200 0.219482
v -5.280603 2.159944 0.224700
v -5.556948 2.018870 0.229189
v -5.798280 1.847411 0.232971
v -6.005271 1.649999 0.236073
v -6.178584 1.431067 0.238519
v -6.318892 1.195050 0.240331
v -6.426860 0.946379 0.241536
v -6.503156 0.689489 0.242158
v -6.548450 0.428811 0.242220
v -6.563409 0.168780 0.241748
v -6.545291 -0.110121 0.240637
v -6.491654 -0.383117 0.238914
v -6.403583 -0.646713 0.236609
v -6.282170 -0.897411 0.233751
v -6.128503 -1.131713 0.230369
v -5.943677 -1.346122 0.226492
v -5.728783 -1.537140 0.222149
v -5.484909 -1.701271 0.217370
v -5.213148 -1.835016 0.212184
v -4.914593 -1.934879 0.206620
v -4.590332 -1.997361 0.200707
v -4.241458 -2.018965 0.194474
v -2.535192 -2.018965 0.164293
v -2.534972 2.356525 0.176691
v -4.164454 -1.454386 0.194713
v -4.498054 -1.432741 0.200675
v -4.788620 -1.371576 0.205988
v -5.038826 -1.276552 0.210683
v -5.251346 -1.153325 0.214792
v -5.428852 -1.007554 0.218345
v -5.574017 -0.844897 0.221374
v -5.689514 -0.671013 0.223909
v -5.778018 -0.491560 0.225984
v -5.842196 -0.312195 0.227627
v -5.884730 -0.138579 0.228872
v -5.908284 0.023633 0.229748
v -5.915540 0.168780 0.230288
v -5.903842 0.385357 0.230695
v -5.868510 0.594204 0.230662
v -5.809169 0.793205 0.230176
v -5.725441 0.980244 0.229225
v -5.616946 1.153203 0.227796
v -5.483306 1.309968 0.225877
v -5.324142 1.448421 0.223454
v -5.139076 1.566447 0.220515
v -4.927730 1.661928 0.217047
v -4.689724 1.732749 0.213037
v -4.424681 1.776793 0.208474
v -4.132220 1.791945 0.203344
v -3.163626 1.791945 0.186210
v -3.163788 -1.454386 0.177012
v -1.406235 -2.018965 0.144323
v -0.822447 -0.729415 0.137651
v 1.037767 -0.729415 0.104747
v 1.589352 -2.018965 0.091335
v 2.230805 -2.018965 0.079988
v 0.351568 2.382188 0.125704
v -0.091035 2.382188 0.133533
v -2.047688 -2.018965 0.155669
v -0.565838 -0.164835 0.134713
v 0.139841 1.419836 0.126722
v 0.794043 -0.164835 0.110658
v 4.328548 1.791945 0.053683
v 4.328482 0.470316 0.049938
v 2.538827 0.470316 0.081595
v 2.538799 -0.094263 0.079995
v 4.328454 -0.094263 0.048339
v 4.328385 -1.454386 0.044485
v 2.416855 -1.454386 0.078297
v 2.416827 -2.018965 0.076698
v 4.956982 -2.018965 0.031765
v 4.957201 2.356525 0.044163
v 2.474777 2.356525 0.088074
v 2.474749 1.791945 0.086475
v 8.061834 2.356525 -0.010754
v 7.676448 2.333205 -0.004003
v 7.328078 2.266200 0.001969
v 7.016055 2.159944 0.007187
v 6.739711 2.018870 0.011676
v 6.498378 1.847411 0.015459
v 6.291388 1.649999 0.018561
v 6.118073 1.431067 0.021006
v 5.977766 1.195050 0.022819
v 5.869798 0.946379 0.024024
v 5.793501 0.689489 0.024645
v 5.748208 0.428811 0.024707
v 5.733250 0.168780 0.024235
v 5.751363 -0.110121 0.023124
v 5.805000 -0.383117 0.021402
v 5.893072 -0.646713 0.019097
v 6.014486 -0.897411 0.016238
v 6.168152 -1.131713 0.012856
v 6.352978 -1.346122 0.008979
v 6.567874 -1.537140 0.004636
v 6.811748 -1.701271 -0.000143
v 7.083508 -1.835016 -0.005329
v 7.382065 -1.934879 -0.010893
v 7.706326 -1.997361 -0.016806
v 8.055201 -2.018965 -0.023038
v 9.761466 -2.018965 -0.053220
v 9.761685 2.356525 -0.040822
v 8.132203 -1.454386 -0.022800
v 7.798604 -1.432741 -0.016838
v 7.508038 -1.371576 -0.011525
v 7.257831 -1.276552 -0.006830
v 7.045311 -1.153325 -0.002721
v 6.867805 -1.007554 0.000832
v 6.722641 -0.844897 0.003861
v 6.607143 -0.671013 0.006397
v 6.518641 -0.491560 0.008471
v 6.454460 -0.312195 0.010114
v 6.411927 -0.138579 0.011359
v 6.388371 0.023633 0.012235
v 6.381117 0.168780 0.012775
v 6.392817 0.385357 0.013182
v 6.428148 0.594204 0.013149
v 6.487489 0.793205 0.012663
v 6.571218 0.980244 0.011712
v 6.679713 1.153203 0.010283
v 6.813354 1.309968 0.008364
v 6.972517 1.448421 0.005941
v 7.157583 1.566447 0.003002
v 7.368930 1.661928 -0.000466
v 7.606936 1.732749 -0.004475
v 7.871979 1.776793 -0.009039
v 8.164438 1.791945 -0.014169
v 9.133033 1.791945 -0.031302
v 9.132870 -1.454386 -0.040501
v -4.206857 2.352043 1.787795
v -4.592241 2.328724 1.794546
v -4.940613 2.261719 1.800518
v -5.252636 2.155463 1.805736
v -5.528980 2.014389 1.810225
v -5.770314 1.842929 1.814008
v -5.977305 1.645517 1.817109
v -6.150619 1.426586 1.819555
v -6.290927 1.190569 1.821368
v -6.398894 0.941898 1.822572
v -6.475190 0.685008 1.823194
v -6.520484 0.424330 1.823256
v -6.535443 0.164298 1.822784
v -6.517325 -0.114602 1.821673
v -6.463689 -0.387599 1.819950
v -6.375617 -0.651194 1.817645
v -6.254205 -0.901892 1.814787
v -6.100537 -1.136194 1.811405
v -5.915711 -1.350603 1.807528
v -5.700815 -1.541621 1.803185
v -5.456942 -1.705752 1.798406
v -5.185181 -1.839497 1.793220
v -4.886625 -1.939360 1.787656
v -4.562365 -2.001842 1.781743
v -4.213490 -2.023447 1.775511
v -2.507224 -2.023447 1.745329
v -2.507005 2.352043 1.757727
v -4.136486 -1.458867 1.775749
v -4.470086 -1.437222 1.781711
v -4.760653 -1.376058 1.787024
v -5.010859 -1.281033 1.791719
v -5.223378 -1.157806 1.795828
v -5.400885 -1.012035 1.799381
v -5.546049 -0.849378 1.802410
v -5.661547 -0.675494 1.804945
v -5.750052 -0.496041 1.807020
v -5.814231 -0.316677 1.808663
v -5.856765 -0.143060 1.809908
v -5.880319 0.019151 1.810784
v -5.887574 0.164298 1.811324
v -5.875876 0.380876 1.811731
v -5.840545 0.589723 1.811698
v -5.781203 0.788724 1.811212
v -5.697474 0.975762 1.810261
v -5.588979 1.148722 1.808832
v -5.455338 1.305486 1.806913
v -5.296174 1.443940 1.804490
v -5.111109 1.561965 1.801551
v -4.899762 1.657446 1.798083
v -4.661757 1.728268 1.794074
v -4.396713 1.772312 1.789510
v -4.104253 1.787464 1.784380
v -3.135658 1.787464 1.767246
v -3.135820 -1.458867 1.758048
v -1.378267 -2.023447 1.725359
v -0.794479 -0.733896 1.718688
v 1.065735 -0.733896 1.685783
v 1.617319 -2.023447 1.672371
v 2.258773 -2.023447 1.661024
v 0.379536 2.377706 1.706740
v -0.063067 2.377706 1.714569
v -2.019720 -2.023447 1.736706
v -0.537870 -0.169317 1.715749
v 0.167809 1.415355 1.707758
v 0.822010 -0.169317 1.691694
v 4.356515 1.787464 1.634719
v 4.356449 0.465835 1.630974
v 2.566794 0.465835 1.662631
v 2.566765 -0.098744 1.661031
v 4.356420 -0.098744 1.629375
v 4.356352 -1.458867 1.625521
v 2.444821 -1.458867 1.659333
v 2.444793 -2.023447 1.657734
v 4.984948 -2.023447 1.612801
v 4.985168 2.352043 1.625199
v 2.502743 2.352043 1.669110
v 2.502715 1.787464 1.667511
v 8.089801 2.352043 1.570282
v 7.704415 2.328724 1.577033
v 7.356045 2.261719 1.583005
v 7.044021 2.155463 1.588223
v 6.767677 2.014389 1.592712
v 6.526344 1.842929 1.596495
v 6.319355 1.645517 1.599597
v 6.146040 1.426586 1.602042
v 6.005733 1.190569 1.603855
v 5.897765 0.941898 1.605060
v 5.821468 0.685008 1.605681
v 5.776174 0.424330 1.605744
v 5.761216 0.164298 1.605271
v 5.779329 -0.114602 1.604160
v 5.832966 -0.387599 1.602438
v 5.921038 -0.651194 1.600133
v 6.042452 -0.901892 1.597274
v 6.196118 -1.136194 1.593892
v 6.380945 -1.350603 1.590015
v 6.595840 -1.541621 1.585672
v 6.839714 -1.705752 1.580893
v 7.111475 -1.839497 1.575707
v 7.410031 -1.939360 1.570143
v 7.734293 -2.001842 1.564230
v 8.083167 -2.023447 1.557998
v 9.789433 -2.023447 1.527816
v 9.789652 2.352043 1.540214
v 8.160170 -1.458867 1.558236
v 7.826571 -1.437222 1.564198
v 7.536004 -1.376058 1.569511
v 7.285798 -1.281033 1.574207
v 7.073278 -1.157806 1.578315
v 6.895772 -1.012035 1.581868
v 6.750607 -0.849378 1.584897
v 6.635109 -0.675494 1.587433
v 6.546607 -0.496041 1.589507
v 6.482426 -0.316677 1.591151
v 6.439894 -0.143060 1.592395
v 6.416337 0.019151 1.593271
v 6.409084 0.164298 1.593811
v 6.420783 0.380876 1.594218
v 6.456115 0.589723 1.594185
v 6.515456 0.788724 1.593699
v 6.599185 0.975762 1.592748
v 6.707680 1.148722 1.591320
v 6.841320 1.305486 1.589400
v 7.000484 1.443940 1.586977
v 7.185550 1.561965 1.584038
v 7.396896 1.657446 1.580570
v 7.634902 1.728268 1.576561
v 7.899945 1.772312 1.571997
v 8.192405 1.787464 1.566867
v 9.160999 1.787464 1.549734
v 9.160837 -1.458867 1.540535
v 8.089801 2.352043 1.570282
v 8.061834 2.356525 -0.010754
v 7.704415 2.328724 1.577033
v 7.676448 2.333205 -0.004003
v 7.356045 2.261719 1.583005
v 7.328078 2.266200 0.001969
v 7.044021 2.155463 1.588223
v 7.016055 2.159944 0.007187
v 6.767677 2.014389 1.592712
v 6.739711 2.018870 0.011676
v 6.526344 1.842929 1.596495
v 6.498378 1.847411 0.015459
v 6.319355 1.645517 1.599597
v 6.291388 1.649999 0.018561
v 6.146040 1.426586 1.602042
v 6.118073 1.431067 0.021006
v 6.005733 1.190569 1.603855
v 5.977766 1.195050 0.022819
v 5.897765 0.941898 1.605060
v 5.869798 0.946379 0.024024
v 5.821468 0.685008 1.605681
v 5.793501 0.689489 0.024645
v 5.776174 0.424330 1.605744
v 5.748208 0.428811 0.024707
v 5.761216 0.164298 1.605271
v 5.733250 0.168780 0.024235
v 5.779329 -0.114602 1.604160
v 5.751363 -0.110121 0.023124
v 5.832966 -0.387599 1.602438
v 5.805000 -0.383117 0.021402
v 5.921038 -0.651194 1.600133
v 5.893072 -0.646713 0.019097
v 6.042452 -0.901892 1.597274
v 6.014486 -0.897411 0.016238
v 6.196118 -1.136194 1.593892
v 6.168152 -1.131713 0.012856
v 6.380945 -1.350603 1.590015
v 6.352978 -1.346122 0.008979
v 6.595840 -1.541621 1.585672
v 6.567874 -1.537140 0.004636
v 6.839714 -1.705752 1.580893
v 6.811748 -1.701271 -0.000143
v 7.111475 -1.839497 1.575707
v 7.083508 -1.835016 -0.005329
v 7.410031 -1.939360 1.570143
v 7.382065 -1.934879 -0.010893
v 7.734293 -2.001842 1.564230
v 7.706326 -1.997361 -0.016806
v 8.083167 -2.023447 1.557998
v 8.055201 -2.018965 -0.023038
v 9.789433 -2.023447 1.527816
v 9.761466 -2.018965 -0.053220
v 9.789652 2.352043 1.540214
v 9.761685 2.356525 -0.040822
v 8.160170 -1.458867 1.558236
v 8.132203 -1.454386 -0.022800
v 7.826571 -1.437222 1.564198
v 7.798604 -1.432741 -0.016838
v 7.536004 -1.376058 1.569511
v 7.508038 -1.371576 -0.011525
v 7.285798 -1.281033 1.574207
v 7.257831 -1.276552 -0.006830
v 7.073278 -1.157806 1.578315
v 7.045311 -1.153325 -0.002721
v 6.895772 -1.012035 1.581868
v 6.867805 -1.007554 0.000832
v 6.750607 -0.849378 1.584897
v 6.722641 -0.844897 0.003861
v 6.635109 -0.675494 1.587433
v 6.607143 -0.671013 0.006397
v 6.546607 -0.496041 1.589507
v 6.518641 -0.491560 0.008471
v 6.482426 -0.316677 1.591151
v 6.454460 -0.312195 0.010114
v 6.439894 -0.143060 1.592395
v 6.411927 -0.138579 0.011359
v 6.416337 0.019151 1.593271
v 6.388371 0.023633 0.012235
v 6.409084 0.164298 1.593811
v 6.381117 0.168780 0.012775
v 6.420783 0.380876 1.594218
v 6.392817 0.385357 0.013182
v 6.456115 0.589723 1.594185
v 6.428148 0.594204 0.013149
v 6.515456 0.788724 1.593699
v 6.487489 0.793205 0.012663
v 6.599185 0.975762 1.592748
v 6.571218 0.980244 0.011712
v 6.707680 1.148722 1.591320
v 6.679713 1.153203 0.010283
v 6.841320 1.305486 1.589400
v 6.813354 1.309968 0.008364
v 7.000484 1.443940 1.586977
v 6.972517 1.448421 0.005941
v 7.185550 1.561965 1.584038
v 7.157583 1.566447 0.003002
v 7.396896 1.657446 1.580570
v 7.368930 1.661928 -0.000466
v 7.634902 1.728268 1.576561
v 7.606936 1.732749 -0.004475
v 7.899945 1.772312 1.571997
v 7.871979 1.776793 -0.009039
v 8.192405 1.787464 1.566867
v 8.164438 1.791945 -0.014169
v 9.160999 1.787464 1.549734
v 9.133033 1.791945 -0.031302
v 9.160837 -1.458867 1.540535
v 9.132870 -1.454386 -0.040501
v 4.356515 1.787464 1.634719
v 4.328548 1.791945 0.053683
v 4.356449 0.465835 1.630974
v 4.328482 0.470316 0.049938
v 2.566794 0.465835 1.662631
v 2.538827 0.470316 0.081595
v 2.566765 -0.098744 1.661031
v 2.538799 -0.094263 0.079995
v 4.356420 -0.098744 1.629375
v 4.328454 -0.094263 0.048339
v 4.356352 -1.458867 1.625521
v 4.328385 -1.454386 0.044485
v 2.444821 -1.458867 1.659333
v 2.416855 -1.454386 0.078297
v 2.444793 -2.023447 1.657734
v 2.416827 -2.018965 0.076698
v 4.984948 -2.023447 1.612801
v 4.956982 -2.018965 0.031765
v 4.985168 2.352043 1.625199
v 4.957201 2.356525 0.044163
v 2.502743 2.352043 1.669110
v 2.474777 2.356525 0.088074
v 2.502715 1.787464 1.667511
v 2.474749 1.791945 0.086475
v -1.378267 -2.023447 1.725359
v -1.406235 -2.018965 0.144323
v -0.794479 -0.733896 1.718688
v -0.822447 -0.729415 0.137651
v 1.065735 -0.733896 1.685783
v 1.037767 -0.729415 0.104747
v 1.617319 -2.023447 1.672371
v 1.589352 -2.018965 0.091335
v 2.258773 -2.023447 1.661024
v 2.230805 -2.018965 0.079988
v 0.379536 2.377706 1.706740
v 0.351568 2.382188 0.125704
v -0.063067 2.377706 1.714569
v -0.091035 2.382188 0.133533
v -2.019720 -2.023447 1.736706
v -2.047688 -2.018965 0.155669
v -0.537870 -0.169317 1.715749
v -0.565838 -0.164835 0.134713
v 0.167809 1.415355 1.707758
v 0.139841 1.419836 0.126722
v 0.822010 -0.169317 1.691694
v 0.794043 -0.164835 0.110658
v -4.206857 2.352043 1.787795
v -4.234824 2.356525 0.206759
v -4.592241 2.328724 1.794546
v -4.620209 2.333205 0.213510
v -4.940613 2.261719 1.800518
v -4.968580 2.266200 0.219482
v -5.252636 2.155463 1.805736
v -5.280603 2.159944 0.224700
v -5.528980 2.014389 1.810225
v -5.556948 2.018870 0.229189
v -5.770314 1.842929 1.814008
v -5.798280 1.847411 0.232971
v -5.977305 1.645517 1.817109
v -6.005271 1.649999 0.236073
v -6.150619 1.426586 1.819555
v -6.178584 1.431067 0.238519
v -6.290927 1.190569 1.821368
v -6.318892 1.195050 0.240331
v -6.398894 0.941898 1.822572
v -6.426860 0.946379 0.241536
v -6.475190 0.685008 1.823194
v -6.503156 0.689489 0.242158
v -6.520484 0.424330 1.823256
v -6.548450 0.428811 0.242220
v -6.535443 0.164298 1.822784
v -6.563409 0.168780 0.241748
v -6.517325 -0.114602 1.821673
v -6.545291 -0.110121 0.240637
v -6.463689 -0.387599 1.819950
v -6.491654 -0.383117 0.238914
v -6.375617 -0.651194 1.817645
v -6.403583 -0.646713 0.236609
v -6.254205 -0.901892 1.814787
v -6.282170 -0.897411 0.233751
v -6.100537 -1.136194 1.811405
v -6.128503 -1.131713 0.230369
v -5.915711 -1.350603 1.807528
v -5.943677 -1.346122 0.226492
v -5.700815 -1.541621 1.803185
v -5.728783 -1.537140 0.222149
v -5.456942 -1.705752 1.798406
v -5.484909 -1.701271 0.217370
v -5.185181 -1.839497 1.793220
v -5.213148 -1.835016 0.212184
v -4.886625 -1.939360 1.787656
v -4.914593 -1.934879 0.206620
v -4.562365 -2.001842 1.781743
v -4.590332 -1.997361 0.200707
v -4.213490 -2.023447 1.775511
v -4.241458 -2.018965 0.194474
v -2.507224 -2.023447 1.745329
v -2.535192 -2.018965 0.164293
v -2.507005 2.352043 1.757727
v -2.534972 2.356525 0.176691
v -4.136486 -1.458867 1.775749
v -4.164454 -1.454386 0.194713
v -4.470086 -1.437222 1.781711
v -4.498054 -1.432741 0.200675
v -4.760653 -1.376058 1.787024
v -4.788620 -1.371576 0.205988
v -5.010859 -1.281033 1.791719
v -5.038826 -1.276552 0.210683
v -5.223378 -1.157806 1.795828
v -5.251346 -1.153325 0.214792
v -5.400885 -1.012035 1.799381
v -5.428852 -1.007554 0.218345
v -5.546049 -0.849378 1.802410
v -5.574017 -0.844897 0.221374
v -5.661547 -0.675494 1.804945
v -5.689514 -0.671013 0.223909
v -5.750052 -0.496041 1.807020
v -5.778018 -0.491560 0.225984
v -5.814231 -0.316677 1.808663
v -5.842196 -0.312195 0.227627
v -5.856765 -0.143060 1.809908
v -5.884730 -0.138579 0.228872
v -5.880319 0.019151 1.810784
v -5.908284 0.023633 0.229748
v -5.887574 0.164298 1.811324
v -5.915540 0.168780 0.230288
v -5.875876 0.380876 1.811731
v -5.903842 0.385357 0.230695
v -5.840545 0.589723 1.811698
v -5.868510 0.594204 0.230662
v -5.781203 0.788724 1.811212
v -5.809169 0.793205 0.230176
v -5.697474 0.975762 1.810261
v -5.725441 0.980244 0.229225
v -5.588979 1.148722 1.808832
v -5.616946 1.153203 0.227796
v -5.455338 1.305486 1.806913
v -5.483306 1.309968 0.225877
v -5.296174 1.443940 1.804490
v -5.324142 1.448421 0.223454
v -5.111109 1.561965 1.801551
v -5.139076 1.566447 0.220515
v -4.899762 1.657446 1.798083
v -4.927730 1.661928 0.217047
v -4.661757 1.728268 1.794074
v -4.689724 1.732749 0.213037
v -4.396713 1.772312 1.789510
v -4.424681 1.776793 0.208474
v -4.104253 1.787464 1.784380
v -4.132220 1.791945 0.203344
v -3.135658 1.787464 1.767246
v -3.163626 1.791945 0.186210
v -3.135820 -1.458867 1.758048
v -3.163788 -1.454386 0.177012
vn -0.0177 0.0028 -0.9998
vn 0.0177 -0.0028 0.9998
vn -0.0302 0.9995 0.0034
vn -0.1248 0.9922 0.0050
vn -0.2561 0.9666 0.0073
vn -0.3894 0.9210 0.0095
vn -0.5181 0.8552 0.0116
vn -0.6361 0.7715 0.0134
vn -0.7387 0.6738 0.0150
vn -0.8235 0.5671 0.0162
vn -0.8900 0.4556 0.0170
vn -0.9395 0.3421 0.0176
vn -0.9734 0.2283 0.0179
vn -0.9933 0.1145 0.0179
vn -0.9998 -0.0037 0.0177
vn -0.9915 -0.1291 0.0172
vn -0.9667 -0.2555 0.0164
vn -0.9260 -0.3773 0.0153
vn -0.8698 -0.4933 0.0140
vn -0.7984 -0.6020 0.0124
vn -0.7123 -0.7018 0.0106
vn -0.6126 -0.7903 0.0086
vn -0.5010 -0.8654 0.0064
vn -0.3802 -0.9249 0.0041
vn -0.2537 -0.9673 0.0017
vn -0.1258 -0.9921 -0.0006
vn -0.0310 -0.9995 -0.0023
vn 0.7070 -0.7071 -0.0145
vn 0.7070 0.7071 -0.0105
vn 0.0324 0.9995 0.0023
vn 0.1357 0.9907 0.0004
vn 0.2813 0.9596 -0.0023
vn 0.4297 0.9030 -0.0050
vn 0.5699 0.8217 -0.0078
vn 0.6923 0.7215 -0.0102
vn 0.7914 0.6112 -0.0123
vn 0.8665 0.4989 -0.0139
vn 0.9205 0.3903 -0.0152
vn 0.9575 0.2879 -0.0161
vn 0.9814 0.1911 -0.0168
vn 0.9951 0.0970 -0.0173
vn 0.9998 -0.0020 -0.0177
vn 0.9937 -0.1105 -0.0179
vn 0.9738 -0.2267 -0.0179
vn 0.9374 -0.3479 -0.0176
vn 0.8819 -0.4711 -0.0169
vn 0.8060 -0.5917 -0.0159
vn 0.7104 -0.7036 -0.0146
vn 0.5985 -0.8010 -0.0129
vn 0.4758 -0.8795 -0.0109
vn 0.3491 -0.9370 -0.0088
vn 0.2249 -0.9744 -0.0067
vn 0.1079 -0.9941 -0.0047
vn 0.0258 -0.9997 -0.0033
vn -0.7070 -0.7071 0.0105
vn -0.7070 0.7071 0.0145
vn 0.5419 -0.8404 -0.0120
vn -0.5507 -0.8347 0.0074
vn 0.8344 -0.5510 -0.0163
vn 0.5510 0.8345 -0.0074
vn -0.5447 0.8385 0.0120
vn -0.8384 -0.5448 0.0133
vn 0.8386 0.5446 -0.0133
vn -0.0137 -0.9999 -0.0026
vn -0.8310 0.5560 0.0163
vn -0.9998 -0.0038 0.0177
vn -0.9667 -0.2554 0.0164
vn 0.8819 -0.4712 -0.0169
vt 0.471698 0.000000
vt 0.981132 0.000000
vt 0.490566 0.000000
vt 0.000000 0.000000
vt 0.018868 0.000000
vt 0.037736 0.000000
vt 0.056604 0.000000
vt 0.075472 0.000000
vt 0.094340 0.000000
vt 0.962264 0.000000
vt 0.943396 0.000000
vt 0.113208 0.000000
vt 1.000000 0.000000
vt 0.924528 0.000000
vt 0.905660 0.000000
vt 0.886792 0.000000
vt 0.132075 0.000000
vt 0.867925 0.000000
vt 0.849057 0.000000
vt 0.150943 0.000000
vt 0.830189 0.000000
vt 0.169811 0.000000
vt 0.811321 0.000000
vt 0.792453 0.000000
vt 0.188679 0.000000
vt 0.773585 0.000000
vt 0.207547 0.000000
vt 0.754717 0.000000
vt 0.226415 0.000000
vt 0.735849 0.000000
vt 0.716981 0.000000
vt 0.245283 0.000000
vt 0.698113 0.000000
vt 0.264151 0.000000
vt 0.679245 0.000000
vt 0.660377 0.000000
vt 0.283019 0.000000
vt 0.641509 0.000000
vt 0.301887 0.000000
vt 0.622642 0.000000
vt 0.603774 0.000000
vt 0.320755 0.000000
vt 0.584906 0.000000
vt 0.339623 0.000000
vt 0.566038 0.000000
vt 0.547170 0.000000
vt 0.358491 0.000000
vt 0.528302 0.000000
vt 0.509434 0.000000
vt 0.377358 0.000000
vt 0.396226 0.000000
vt 0.415094 0.000000
vt 0.433962 0.000000
vt 0.452830 0.000000
vt 0.400000 0.000000
vt 0.600000 0.000000
vt 0.500000 0.000000
vt 0.900000 0.000000
vt 0.700000 0.000000
vt 0.800000 0.000000
vt 0.200000 0.000000
vt 0.100000 0.000000
vt 0.300000 0.000000
vt 0.727273 0.000000
vt 0.818182 0.000000
vt 0.909091 0.000000
vt 0.090909 0.000000
vt 0.363636 0.000000
vt 0.181818 0.000000
vt 0.272727 0.000000
vt 0.454545 0.000000
vt 0.545455 0.000000
vt 0.636364 0.000000
vt 0.000000 1.000000
vt 0.037037 1.000000
vt 0.037037 0.000000
vt 0.074074 1.000000
vt 0.074074 0.000000
vt 0.111111 1.000000
vt 0.111111 0.000000
vt 0.148148 1.000000
vt 0.148148 0.000000
vt 0.185185 1.000000
vt 0.185185 0.000000
vt 0.222222 1.000000
vt 0.222222 0.000000
vt 0.259259 1.000000
vt 0.259259 0.000000
vt 0.296296 1.000000
vt 0.296296 0.000000
vt 0.333333 1.000000
vt 0.333333 0.000000
vt 0.370370 1.000000
vt 0.370370 0.000000
vt 0.407407 1.000000
vt 0.407407 0.000000
vt 0.444444 1.000000
vt 0.444444 0.000000
vt 0.481481 1.000000
vt 0.481481 0.000000
vt 0.518519 1.000000
vt 0.518519 0.000000
vt 0.555556 1.000000
vt 0.555556 0.000000
vt 0.592593 1.000000
vt 0.592593 0.000000
vt 0.629630 1.000000
vt 0.629630 0.000000
vt 0.666667 1.000000
vt 0.666667 0.000000
vt 0.703704 1.000000
vt 0.703704 0.000000
vt 0.740741 1.000000
vt 0.740741 0.000000
vt 0.777778 1.000000
vt 0.777778 0.000000
vt 0.814815 1.000000
vt 0.814815 0.000000
vt 0.851852 1.000000
vt 0.851852 0.000000
vt 0.888889 1.000000
vt 0.888889 0.000000
vt 0.925926 1.000000
vt 0.925926 0.000000
vt 0.962963 1.000000
vt 0.962963 0.000000
vt 1.000000 1.000000
vt 0.083333 1.000000
vt 0.083333 0.000000
vt 0.166667 1.000000
vt 0.166667 0.000000
vt 0.250000 1.000000
vt 0.250000 0.000000
vt 0.416667 1.000000
vt 0.416667 0.000000
vt 0.500000 1.000000
vt 0.583333 1.000000
vt 0.583333 0.000000
vt 0.750000 1.000000
vt 0.750000 0.000000
vt 0.833333 1.000000
vt 0.833333 0.000000
vt 0.916667 1.000000
vt 0.916667 0.000000
vt 0.125000 1.000000
vt 0.125000 0.000000
vt 0.375000 1.000000
vt 0.375000 0.000000
vt 0.625000 1.000000
vt 0.625000 0.000000
vt 0.875000 1.000000
vt 0.875000 0.000000
s 0
f 26/1/1 53/2/1 27/3/1
f 53/2/1 1/4/1 27/3/1
f 53/2/1 2/5/1 1/4/1
f 53/2/1 3/6/1 2/5/1
f 53/2/1 4/7/1 3/6/1
f 53/2/1 5/8/1 4/7/1
f 53/2/1 6/9/1 5/8/1
f 53/2/1 52/10/1 6/9/1
f 52/10/1 51/11/1 6/9/1
f 51/11/1 7/12/1 6/9/1
f 26/1/1 54/13/1 53/2/1
f 50/14/1 7/12/1 51/11/1
f 49/15/1 7/12/1 50/14/1
f 48/16/1 7/12/1 49/15/1
f 48/16/1 8/17/1 7/12/1
f 47/18/1 8/17/1 48/16/1
f 46/19/1 8/17/1 47/18/1
f 46/19/1 9/20/1 8/17/1
f 45/21/1 9/20/1 46/19/1
f 45/21/1 10/22/1 9/20/1
f 44/23/1 10/22/1 45/21/1
f 43/24/1 10/22/1 44/23/1
f 43/24/1 11/25/1 10/22/1
f 42/26/1 11/25/1 43/24/1
f 42/26/1 12/27/1 11/25/1
f 41/28/1 12/27/1 42/26/1
f 41/28/1 13/29/1 12/27/1
f 40/30/1 13/29/1 41/28/1
f 39/31/1 13/29/1 40/30/1
f 39/31/1 14/32/1 13/29/1
f 38/33/1 14/32/1 39/31/1
f 38/33/1 15/34/1 14/32/1
f 37/35/1 15/34/1 38/33/1
f 36/36/1 15/34/1 37/35/1
f 36/36/1 16/37/1 15/34/1
f 35/38/1 16/37/1 36/36/1
f 35/38/1 17/39/1 16/37/1
f 34/40/1 17/39/1 35/38/1
f 33/41/1 17/39/1 34/40/1
f 33/41/1 18/42/1 17/39/1
f 32/43/1 18/42/1 33/41/1
f 32/43/1 19/44/1 18/42/1
f 31/45/1 19/44/1 32/43/1
f 30/46/1 19/44/1 31/45/1
f 30/46/1 20/47/1 19/44/1
f 29/48/1 20/47/1 30/46/1
f 28/49/1 20/47/1 29/48/1
f 26/1/1 28/49/1 54/13/1
f 26/1/1 20/47/1 28/49/1
f 26/1/1 21/50/1 20/47/1
f 26/1/1 22/51/1 21/50/1
f 26/1/1 23/52/1 22/51/1
f 26/1/1 24/53/1 23/52/1
f 26/1/1 25/54/1 24/53/1
f 59/55/1 61/56/1 60/57/1
f 59/55/1 64/58/1 61/56/1
f 64/58/1 62/59/1 61/56/1
f 59/55/1 65/13/1 64/58/1
f 63/60/1 62/59/1 64/58/1
f 59/55/1 57/61/1 65/13/1
f 57/61/1 63/60/1 65/13/1
f 57/61/1 56/62/1 63/60/1
f 56/62/1 62/59/1 63/60/1
f 59/55/1 58/63/1 57/61/1
f 55/4/1 62/59/1 56/62/1
f 74/64/1 66/4/1 75/65/1
f 66/4/1 76/66/1 75/65/1
f 66/4/1 77/13/1 76/66/1
f 74/64/1 67/67/1 66/4/1
f 74/64/1 70/68/1 67/67/1
f 70/68/1 68/69/1 67/67/1
f 70/68/1 69/70/1 68/69/1
f 74/64/1 71/71/1 70/68/1
f 74/64/1 72/72/1 71/71/1
f 74/64/1 73/73/1 72/72/1
f 103/1/1 130/2/1 104/3/1
f 130/2/1 78/4/1 104/3/1
f 130/2/1 79/5/1 78/4/1
f 130/2/1 80/6/1 79/5/1
f 130/2/1 81/7/1 80/6/1
f 130/2/1 82/8/1 81/7/1
f 130/2/1 83/9/1 82/8/1
f 130/2/1 129/10/1 83/9/1
f 129/10/1 128/11/1 83/9/1
f 128/11/1 84/12/1 83/9/1
f 103/1/1 131/13/1 130/2/1
f 127/14/1 84/12/1 128/11/1
f 126/15/1 84/12/1 127/14/1
f 125/16/1 84/12/1 126/15/1
f 125/16/1 85/17/1 84/12/1
f 124/18/1 85/17/1 125/16/1
f 123/19/1 85/17/1 124/18/1
f 123/19/1 86/20/1 85/17/1
f 122/21/1 86/20/1 123/19/1
f 122/21/1 87/22/1 86/20/1
f 121/23/1 87/22/1 122/21/1
f 120/24/1 87/22/1 121/23/1
f 120/24/1 88/25/1 87/22/1
f 119/26/1 88/25/1 120/24/1
f 119/26/1 89/27/1 88/25/1
f 118/28/1 89/27/1 119/26/1
f 118/28/1 90/29/1 89/27/1
f 117/30/1 90/29/1 118/28/1
f 116/31/1 90/29/1 117/30/1
f 116/31/1 91/32/1 90/29/1
f 115/33/1 91/32/1 116/31/1
f 115/33/1 92/34/1 91/32/1
f 114/35/1 92/34/1 115/33/1
f 113/36/1 92/34/1 114/35/1
f 113/36/1 93/37/1 92/34/1
f 112/38/1 93/37/1 113/36/1
f 112/38/1 94/39/1 93/37/1
f 111/40/1 94/39/1 112/38/1
f 110/41/1 94/39/1 111/40/1
f 110/41/1 95/42/1 94/39/1
f 109/43/1 95/42/1 110/41/1
f 109/43/1 96/44/1 95/42/1
f 108/45/1 96/44/1 109/43/1
f 107/46/1 96/44/1 108/45/1
f 107/46/1 97/47/1 96/44/1
f 106/48/1 97/47/1 107/46/1
f 105/49/1 97/47/1 106/48/1
f 103/1/1 105/49/1 131/13/1
f 103/1/1 97/47/1 105/49/1
f 103/1/1 98/50/1 97/47/1
f 103/1/1 99/51/1 98/50/1
f 103/1/1 100/52/1 99/51/1
f 103/1/1 101/53/1 100/52/1
f 103/1/1 102/54/1 101/53/1
f 157/1/2 158/3/2 184/2/2
f 184/2/2 158/3/2 132/4/2
f 184/2/2 132/4/2 133/5/2
f 184/2/2 133/5/2 134/6/2
f 184/2/2 134/6/2 135/7/2
f 184/2/2 135/7/2 136/8/2
f 184/2/2 136/8/2 137/9/2
f 184/2/2 137/9/2 183/10/2
f 183/10/2 137/9/2 182/11/2
f 182/11/2 137/9/2 138/12/2
f 157/1/2 184/2/2 185/13/2
f 181/14/2 182/11/2 138/12/2
f 180/15/2 181/14/2 138/12/2
f 179/16/2 180/15/2 138/12/2
f 179/16/2 138/12/2 139/17/2
f 178/18/2 179/16/2 139/17/2
f 177/19/2 178/18/2 139/17/2
f 177/19/2 139/17/2 140/20/2
f 176/21/2 177/19/2 140/20/2
f 176/21/2 140/20/2 141/22/2
f 175/23/2 176/21/2 141/22/2
f 174/24/2 175/23/2 141/22/2
f 174/24/2 141/22/2 142/25/2
f 173/26/2 174/24/2 142/25/2
f 173/26/2 142/25/2 143/27/2
f 172/28/2 173/26/2 143/27/2
f 172/28/2 143/27/2 144/29/2
f 171/30/2 172/28/2 144/29/2
f 170/31/2 171/30/2 144/29/2
f 170/31/2 144/29/2 145/32/2
f 169/33/2 170/31/2 145/32/2
f 169/33/2 145/32/2 146/34/2
f 168/35/2 169/33/2 146/34/2
f 167/36/2 168/35/2 146/34/2
f 167/36/2 146/34/2 147/37/2
f 166/38/2 167/36/2 147/37/2
f 166/38/2 147/37/2 148/39/2
f 165/40/2 166/38/2 148/39/2
f 164/41/2 165/40/2 148/39/2
f 164/41/2 148/39/2 149/42/2
f 163/43/2 164/41/2 149/42/2
f 163/43/2 149/42/2 150/44/2
f 162/45/2 163/43/2 150/44/2
f 161/46/2 162/45/2 150/44/2
f 161/46/2 150/44/2 151/47/2
f 160/48/2 161/46/2 151/47/2
f 159/49/2 160/48/2 151/47/2
f 157/1/2 185/13/2 159/49/2
f 157/1/2 159/49/2 151/47/2
f 157/1/2 151/47/2 152/50/2
f 157/1/2 152/50/2 153/51/2
f 157/1/2 153/51/2 154/52/2
f 157/1/2 154/52/2 155/53/2
f 157/1/2 155/53/2 156/54/2
f 190/55/2 191/57/2 192/56/2
f 190/55/2 192/56/2 195/58/2
f 195/58/2 192/56/2 193/59/2
f 190/55/2 195/58/2 196/13/2
f 194/60/2 195/58/2 193/59/2
f 190/55/2 196/13/2 188/61/2
f 188/61/2 196/13/2 194/60/2
f 188/61/2 194/60/2 187/62/2
f 187/62/2 194/60/2 193/59/2
f 190/55/2 188/61/2 189/63/2
f 186/4/2 187/62/2 193/59/2
f 205/64/2 206/65/2 197/4/2
f 197/4/2 206/65/2 207/66/2
f 197/4/2 207/66/2 208/13/2
f 205/64/2 197/4/2 198/67/2
f 205/64/2 198/67/2 201/68/2
f 201/68/2 198/67/2 199/69/2
f 201/68/2 199/69/2 200/70/2
f 205/64/2 201/68/2 202/71/2
f 205/64/2 202/71/2 203/72/2
f 205/64/2 203/72/2 204/73/2
f 234/1/2 235/3/2 261/2/2
f 261/2/2 235/3/2 209/4/2
f 261/2/2 209/4/2 210/5/2
f 261/2/2 210/5/2 211/6/2
f 261/2/2 211/6/2 212/7/2
f 261/2/2 212/7/2 213/8/2
f 261/2/2 213/8/2 214/9/2
f 261/2/2 214/9/2 260/10/2
f 260/10/2 214/9/2 259/11/2
f 259/11/2 214/9/2 215/12/2
f 234/1/2 261/2/2 262/13/2
f 258/14/2 259/11/2 215/12/2
f 257/15/2 258/14/2 215/12/2
f 256/16/2 257/15/2 215/12/2
f 256/16/2 215/12/2 216/17/2
f 255/18/2 256/16/2 216/17/2
f 254/19/2 255/18/2 216/17/2
f 254/19/2 216/17/2 217/20/2
f 253/21/2 254/19/2 217/20/2
f 253/21/2 217/20/2 218/22/2
f 252/23/2 253/21/2 218/22/2
f 251/24/2 252/23/2 218/22/2
f 251/24/2 218/22/2 219/25/2
f 250/26/2 251/24/2 219/25/2
f 250/26/2 219/25/2 220/27/2
f 249/28/2 250/26/2 220/27/2
f 249/28/2 220/27/2 221/29/2
f 248/30/2 249/28/2 221/29/2
f 247/31/2 248/30/2 221/29/2
f 247/31/2 221/29/2 222/32/2
f 246/33/2 247/31/2 222/32/2
f 246/33/2 222/32/2 223/34/2
f 245/35/2 246/33/2 223/34/2
f 244/36/2 245/35/2 223/34/2
f 244/36/2 223/34/2 224/37/2
f 243/38/2 244/36/2 224/37/2
f 243/38/2 224/37/2 225/39/2
f 242/40/2 243/38/2 225/39/2
f 241/41/2 242/40/2 225/39/2
f 241/41/2 225/39/2 226/42/2
f 240/43/2 241/41/2 226/42/2
f 240/43/2 226/42/2 227/44/2
f 239/45/2 240/43/2 227/44/2
f 238/46/2 239/45/2 227/44/2
f 238/46/2 227/44/2 228/47/2
f 237/48/2 238/46/2 228/47/2
f 236/49/2 237/48/2 228/47/2
f 234/1/2 262/13/2 236/49/2
f 234/1/2 236/49/2 228/47/2
f 234/1/2 228/47/2 229/50/2
f 234/1/2 229/50/2 230/51/2
f 234/1/2 230/51/2 231/52/2
f 234/1/2 231/52/2 232/53/2
f 234/1/2 232/53/2 233/54/2
s 1
f 264/74/3 266/75/4 265/76/4 263/4/3
f 266/75/4 268/77/5 267/78/5 265/76/4
f 268/77/5 270/79/6 269/80/6 267/78/5
f 270/79/6 272/81/7 271/82/7 269/80/6
f 272/81/7 274/83/8 273/84/8 271/82/7
f 274/83/8 276/85/9 275/86/9 273/84/8
f 276/85/9 278/87/10 277/88/10 275/86/9
f 278/87/10 280/89/11 279/90/11 277/88/10
f 280/89/11 282/91/12 281/92/12 279/90/11
f 282/91/12 284/93/13 283/94/13 281/92/12
f 284/93/13 286/95/14 285/96/14 283/94/13
f 286/95/14 288/97/15 287/98/15 285/96/14
f 288/97/15 290/99/16 289/100/16 287/98/15
f 290/99/16 292/101/17 291/102/17 289/100/16
f 292/101/17 294/103/18 293/104/18 291/102/17
f 294/103/18 296/105/19 295/106/19 293/104/18
f 296/105/19 298/107/20 297/108/20 295/106/19
f 298/107/20 300/109/21 299/110/21 297/108/20
f 300/109/21 302/111/22 301/112/22 299/110/21
f 302/111/22 304/113/23 303/114/23 301/112/22
f 304/113/23 306/115/24 305/116/24 303/114/23
f 306/115/24 308/117/25 307/118/25 305/116/24
f 308/117/25 310/119/26 309/120/26 307/118/25
f 310/119/26 312/121/27 311/122/27 309/120/26
f 312/121/27 314/123/28 313/124/28 311/122/27
f 314/123/28 316/125/29 315/126/29 313/124/28
f 316/125/29 264/127/3 263/13/3 315/126/29
f 318/74/30 320/75/31 319/76/31 317/4/30
f 320/75/31 322/77/32 321/78/32 319/76/31
f 322/77/32 324/79/33 323/80/33 321/78/32
f 324/79/33 326/81/34 325/82/34 323/80/33
f 326/81/34 328/83/35 327/84/35 325/82/34
f 328/83/35 330/85/36 329/86/36 327/84/35
f 330/85/36 332/87/37 331/88/37 329/86/36
f 332/87/37 334/89/38 333/90/38 331/88/37
f 334/89/38 336/91/39 335/92/39 333/90/38
f 336/91/39 338/93/40 337/94/40 335/92/39
f 338/93/40 340/95/41 339/96/41 337/94/40
f 340/95/41 342/97/42 341/98/42 339/96/41
f 342/97/42 344/99/43 343/100/43 341/98/42
f 344/99/43 346/101/44 345/102/44 343/100/43
f 346/101/44 348/103/45 347/104/45 345/102/44
f 348/103/45 350/105/46 349/106/46 347/104/45
f 350/105/46 352/107/47 351/108/47 349/106/46
f 352/107/47 354/109/48 353/110/48 351/108/47
f 354/109/48 356/111/49 355/112/49 353/110/48
f 356/111/49 358/113/50 357/114/50 355/112/49
f 358/113/50 360/115/51 359/116/51 357/114/50
f 360/115/51 362/117/52 361/118/52 359/116/51
f 362/117/52 364/119/53 363/120/53 361/118/52
f 364/119/53 366/121/54 365/122/54 363/120/53
f 366/121/54 368/123/55 367/124/55 365/122/54
f 368/123/55 370/125/56 369/126/56 367/124/55
f 370/125/56 318/127/30 317/13/30 369/126/56
f 372/74/55 374/128/56 373/129/56 371/4/55
f 374/128/56 376/130/56 375/131/56 373/129/56
f 376/130/56 378/132/55 377/133/55 375/131/56
f 378/132/55 380/91/55 379/92/55 377/133/55
f 380/91/55 382/134/56 381/135/56 379/92/55
f 382/134/56 384/136/56 383/57/56 381/135/56
f 384/136/56 386/137/55 385/138/55 383/57/56
f 386/137/55 388/109/28 387/110/28 385/138/55
f 388/109/28 390/139/29 389/140/29 387/110/28
f 390/139/29 392/141/56 391/142/56 389/140/29
f 392/141/56 394/143/55 393/144/55 391/142/56
f 394/143/55 372/127/55 371/13/55 393/144/55
f 396/74/57 398/145/57 397/146/57 395/4/57
f 398/145/57 400/132/58 399/133/58 397/146/57
f 400/132/58 402/147/58 401/148/58 399/133/58
f 402/147/58 404/136/59 403/57/59 401/148/58
f 404/136/59 406/149/60 405/150/60 403/57/59
f 406/149/60 408/139/61 407/140/61 405/150/60
f 408/139/61 410/151/62 409/152/62 407/140/61
f 410/151/62 396/127/57 395/13/57 409/152/62
f 412/74/63 414/91/64 413/92/64 411/4/63
f 414/91/64 416/109/65 415/110/65 413/92/64
f 416/109/65 412/127/63 411/13/63 415/110/65
f 418/74/3 420/75/4 419/76/4 417/4/3
f 420/75/4 422/77/5 421/78/5 419/76/4
f 422/77/5 424/79/6 423/80/6 421/78/5
f 424/79/6 426/81/7 425/82/7 423/80/6
f 426/81/7 428/83/8 427/84/8 425/82/7
f 428/83/8 430/85/9 429/86/9 427/84/8
f 430/85/9 432/87/10 431/88/10 429/86/9
f 432/87/10 434/89/11 433/90/11 431/88/10
f 434/89/11 436/91/12 435/92/12 433/90/11
f 436/91/12 438/93/13 437/94/13 435/92/12
f 438/93/13 440/95/14 439/96/14 437/94/13
f 440/95/14 442/97/66 441/98/66 439/96/14
f 442/97/66 444/99/16 443/100/16 441/98/66
f 444/99/16 446/101/67 445/102/67 443/100/16
f 446/101/67 448/103/18 447/104/18 445/102/67
f 448/103/18 450/105/19 449/106/19 447/104/18
f 450/105/19 452/107/20 451/108/20 449/106/19
f 452/107/20 454/109/21 453/110/21 451/108/20
f 454/109/21 456/111/22 455/112/22 453/110/21
f 456/111/22 458/113/23 457/114/23 455/112/22
f 458/113/23 460/115/24 459/116/24 457/114/23
f 460/115/24 462/117/25 461/118/25 459/116/24
f 462/117/25 464/119/26 463/120/26 461/118/25
f 464/119/26 466/121/27 465/122/27 463/120/26
f 466/121/27 468/123/28 467/124/28 465/122/27
f 468/123/28 470/125/29 469/126/29 467/124/28
f 470/125/29 418/127/3 417/13/3 469/126/29
f 472/74/30 474/75/31 473/76/31 471/4/30
f 474/75/31 476/77/32 475/78/32 473/76/31
f 476/77/32 478/79/33 477/80/33 475/78/32
f 478/79/33 480/81/34 479/82/34 477/80/33
f 480/81/34 482/83/35 481/84/35 479/82/34
f 482/83/35 484/85/36 483/86/36 481/84/35
f 484/85/36 486/87/37 485/88/37 483/86/36
f 486/87/37 488/89/38 487/90/38 485/88/37
f 488/89/38 490/91/39 489/92/39 487/90/38
f 490/91/39 492/93/40 491/94/40 489/92/39
f 492/93/40 494/95/41 493/96/41 491/94/40
f 494/95/41 496/97/42 495/98/42 493/96/41
f 496/97/42 498/99/43 497/100/43 495/98/42
f 498/99/43 500/101/44 499/102/44 497/100/43
f 500/101/44 502/103/45 501/104/45 499/102/44
f 502/103/45 504/105/68 503/106/68 501/104/45
f 504/105/68 506/107/47 505/108/47 503/106/68
f 506/107/47 508/109/48 507/110/48 505/108/47
f 508/109/48 510/111/49 509/112/49 507/110/48
f 510/111/49 512/113/50 511/114/50 509/112/49
f 512/113/50 514/115/51 513/116/51 511/114/50
f 514/115/51 516/117/52 515/118/52 513/116/51
f 516/117/52 518/119/53 517/120/53 515/118/52
f 518/119/53 520/121/54 519/122/54 517/120/53
f 520/121/54 522/123/55 521/124/55 519/122/54
f 522/123/55 524/125/56 523/126/56 521/124/55
f 524/125/56 472/127/30 471/13/30 523/126/56
